<?xml version="1.0" encoding="UTF-8" standalone="no"?>
<!-- Created with matplotlib (https://matplotlib.org/) -->

<svg
   xmlns:dc="http://purl.org/dc/elements/1.1/"
   xmlns:cc="http://creativecommons.org/ns#"
   xmlns:rdf="http://www.w3.org/1999/02/22-rdf-syntax-ns#"
   xmlns:svg="http://www.w3.org/2000/svg"
   xmlns="http://www.w3.org/2000/svg"
   xmlns:xlink="http://www.w3.org/1999/xlink"
   xmlns:sodipodi="http://sodipodi.sourceforge.net/DTD/sodipodi-0.dtd"
   xmlns:inkscape="http://www.inkscape.org/namespaces/inkscape"
   height="575.99994pt"
   version="1.1"
   viewBox="0 0 84.216806 575.99993"
   width="84.216805pt"
   id="svg2"
   inkscape:version="0.91 r13725"
   sodipodi:docname="demographics_by_school_legend.svg">
  <metadata
     id="metadata773">
    <rdf:RDF>
      <cc:Work
         rdf:about="">
        <dc:format>image/svg+xml</dc:format>
        <dc:type
           rdf:resource="http://purl.org/dc/dcmitype/StillImage" />
        <dc:title></dc:title>
      </cc:Work>
    </rdf:RDF>
  </metadata>
  <sodipodi:namedview
     pagecolor="#ffffff"
     bordercolor="#666666"
     borderopacity="1"
     objecttolerance="10"
     gridtolerance="10"
     guidetolerance="10"
     inkscape:pageopacity="0"
     inkscape:pageshadow="2"
     inkscape:window-width="1600"
     inkscape:window-height="831"
     id="namedview771"
     showgrid="false"
     fit-margin-top="0"
     fit-margin-left="0"
     fit-margin-right="0"
     fit-margin-bottom="0"
     inkscape:zoom="0.44270835"
     inkscape:cx="-534.46578"
     inkscape:cy="606.65617"
     inkscape:window-x="0"
     inkscape:window-y="0"
     inkscape:window-maximized="1"
     inkscape:current-layer="svg2" />
  <defs
     id="defs4"
     style="stroke-linecap:butt;stroke-linejoin:round">
    <style
       type="text/css"
       id="style6">
*{stroke-linecap:butt;stroke-linejoin:round;}
  </style>
    <style
       id="style3426"
       type="text/css">
*{stroke-linecap:butt;stroke-linejoin:round;}
  </style>
    <style
       id="style6-7"
       type="text/css">
*{stroke-linecap:butt;stroke-linejoin:round;}
  </style>
    <defs
       id="defs751">
      <path
         d="m 64,34.03125 c 0,20.703125 -13.703125,36.234375 -29.40625,36.234375 -15.6875,0 -29.390625,-15.625 -29.390625,-36.234375 C 5.203125,13.234375 19.09375,-2 34.59375,-2 50.09375,-2 64,13.234375 64,34.03125 Z M 34.59375,4.265625 c -11,0 -21,12.25 -21,31.0625 0,18.3125 10.609375,28.671875 21,28.671875 10.40625,0 21,-10.359375 21,-28.671875 0,-18.90625 -10.09375,-31.0625 -21,-31.0625 z"
         id="CMSS17-79"
         inkscape:connector-curvature="0"
         style="stroke-linecap:butt;stroke-linejoin:round" />
    </defs>
    <defs
       id="defs729">
      <path
         d="m 32.90625,29 c 12,0 21.796875,9.328125 21.796875,20.34375 0,10.8125 -9.40625,20.234375 -22.40625,20.234375 l -23.390625,0 0,-69.578125 8.390625,0 0,29 z m -2.8125,35 C 41.703125,64 46.796875,56.671875 46.796875,49.328125 46.796875,42.5 42.09375,34.78125 30.09375,34.78125 l -13,0 0,29.21875 z"
         id="CMSS17-80"
         inkscape:connector-curvature="0"
         style="stroke-linecap:butt;stroke-linejoin:round" />
      <path
         d="m 43,69 -8,0 0,-7.96875 8,0 z m -0.296875,-26.234375 -7.40625,0 0,-42.765625 7.40625,0 z M 16.796875,37 l 10.90625,0 0,5.765625 -11.109375,0 0,13.140625 c 0,5.328125 2.40625,8.03125 5.609375,8.03125 1.890625,0 3.796875,-0.5625 5.5,-1.5625 l 0,6.53125 C 26.90625,69.1875 24.59375,70 22.203125,70 14.703125,70 9.40625,62.390625 9.40625,52.6875 l 0,-9.921875 -6.90625,0 L 2.5,37 l 6.90625,0 0,-37 7.390625,0 z"
         id="CMSS17-12"
         inkscape:connector-curvature="0"
         style="stroke-linecap:butt;stroke-linejoin:round" />
    </defs>
    <defs
       id="defs707">
      <path
         d="M 22.90625,65.3125 21.09375,69 8.796875,69 l 0,-69 7.796875,0 0,61.34375 0.109375,0.09375 C 17.40625,59.640625 17.796875,58.75 21.90625,49.90625 L 43.296875,3.6875 45.09375,0 l 12.3125,0 0,69 -7.8125,0 0,-61.34375 L 49.5,7.546875 c -0.703125,1.796875 -1.09375,2.6875 -5.203125,11.53125 z"
         id="CMSS17-78"
         inkscape:connector-curvature="0"
         style="stroke-linecap:butt;stroke-linejoin:round" />
      <path
         d="M 41.796875,43 34,43 27.296875,24.3125 C 25.203125,18.203125 22.203125,9.796875 21.703125,5.5 l -0.109375,0 c -0.1875,1.8125 -1,4.40625 -1.5,6.203125 C 19.5,13.90625 18.703125,16.5 18.09375,18.3125 L 9.296875,43 l -8,0 L 17.09375,0 26,0 Z"
         id="CMSS17-118"
         inkscape:connector-curvature="0"
         style="stroke-linecap:butt;stroke-linejoin:round" />
    </defs>
    <defs
       id="defs682">
      <path
         d="m 15.09375,5.203125 c 3.3125,-3.1875 7.8125,-5.28125 12.609375,-5.28125 C 37,-0.078125 45,9.421875 45,22.0625 45,33.734375 39,44 30.40625,44 c -5,0 -11,-1.78125 -15.5,-5.375 l 0,4.578125 -7.40625,0 L 7.5,-19 l 7.59375,0 z m 0,27.609375 c 0.8125,1.1875 4.203125,4.921875 9.703125,4.921875 7,0 12.609375,-7.109375 12.609375,-15.671875 0,-9.765625 -6.8125,-16.0625 -13.5,-16.0625 -2,0 -4.109375,0.484375 -6.109375,2.171875 C 15.09375,10.53125 15.09375,12 15.09375,13.390625 Z"
         id="CMSS17-112"
         inkscape:connector-curvature="0"
         style="stroke-linecap:butt;stroke-linejoin:round" />
    </defs>
    <defs
       id="defs663">
      <path
         d="m 8.90625,69 0,-69 24.890625,0 c 13.609375,0 23.5,8.96875 23.5,18.75 0,7.578125 -6.5,15.25 -18.203125,17.453125 13,3.765625 15.609375,11.296875 15.609375,15.5625 0,8.90625 -9.796875,17.234375 -23.5,17.234375 z M 17,39 l 0,24.421875 11.5,0 c 10.296875,0 18.40625,-5.234375 18.40625,-11.765625 C 46.90625,45.71875 40.5,39 27.59375,39 Z m 0,-33.421875 0,27.34375 13.296875,0 c 10.796875,0 19.109375,-6.6875 19.109375,-14.078125 C 49.40625,12.0625 42.09375,5.578125 31,5.578125 Z"
         id="CMSS17-66"
         inkscape:connector-curvature="0"
         style="stroke-linecap:butt;stroke-linejoin:round" />
    </defs>
    <style
       id="style6-5"
       type="text/css">
*{stroke-linecap:butt;stroke-linejoin:round;}
  </style>
    <style
       id="style3610"
       type="text/css">
*{stroke-linecap:butt;stroke-linejoin:round;}
  </style>
  </defs>
  <defs
     id="defs766">
    <clipPath
       id="pf41aedee78"
       style="stroke-linecap:butt;stroke-linejoin:round">
      <rect
         height="272.95605"
         width="434.16"
         x="13.32"
         y="13.32"
         id="rect769"
         style="stroke-linecap:butt;stroke-linejoin:round" />
    </clipPath>
  </defs>
  <g
     id="g6734"
     style="stroke-linecap:butt;stroke-linejoin:round"
     transform="translate(-626.42822,-115.51881)">
    <g
       transform="matrix(0.1949463,0,0,1,626.42822,115.51881)"
       id="patch_1"
       style="stroke-linecap:butt;stroke-linejoin:round">
      <path
         id="path3614"
         style="fill:#ffffff;stroke-linecap:butt;stroke-linejoin:round"
         d="M 0,576 432,576 432,0 0,0 Z"
         inkscape:connector-curvature="0" />
    </g>
    <g
       transform="translate(546.25801,-92.825102)"
       style="stroke-linecap:butt;stroke-linejoin:round"
       id="legend_1">
      <g
         style="stroke-linecap:butt;stroke-linejoin:round"
         id="patch_70">
        <path
           inkscape:connector-curvature="0"
           d="m 82.570353,556.68 79.416507,0 q 2.4,0 2.4,-2.4 l 0,-115.87217 q 0,-2.4 -2.4,-2.4 l -79.416507,0 q -2.4,0 -2.4,2.4 l 0,115.87217 q 0,2.4 2.4,2.4 z"
           style="opacity:0;fill:none;stroke-linecap:butt;stroke-linejoin:round"
           id="path4121" />
      </g>
      <g
         style="stroke-linecap:butt;stroke-linejoin:round"
         id="patch_71">
        <path
           inkscape:connector-curvature="0"
           d="m 84.970353,449.20783 23.999997,0 0,-8.4 -23.999997,0 z"
           style="fill:#1f77b4;stroke-linecap:butt;stroke-linejoin:round"
           id="path4124" />
      </g>
      <g
         style="stroke-linecap:butt;stroke-linejoin:round"
         id="text_10">
        <!-- White -->
        <g
           style="stroke-linecap:butt;stroke-linejoin:round"
           transform="matrix(0.12,0,0,-0.12,118.57035,449.20783)"
           id="g4127">
          <path
             id="use4129"
             d="m 86.877334,68.742216 -7.580946,0 L 70.93711,37.935865 C 69.64508,32.970112 68.44645,28.035492 67.24782,23.069738 65.457658,15.737858 64.165628,10.600872 63.963262,8.0168119 l -0.108966,0 c -0.1868,2.6774591 -1.494396,8.3125781 -3.082192,14.6637611 -1.19863,5.261519 -2.49066,10.491905 -3.891656,15.644458 l -8.265878,30.417185 -8.359278,0 L 32.37858,39.881693 28.393524,24.112702 C 25.404732,11.628269 25.311332,9.838107 25.108966,7.8611456 l -0.108966,0 c 0,0.5915318 -0.389166,3.8605234 -3.175592,15.4576584 -1.400996,5.759651 -2.801992,11.612703 -4.296388,17.169988 l -7.6587797,28.253424 -8.5772104,0 L 20.221046,0 l 8.265878,0 7.876712,28.627023 3.985056,15.753425 c 2.693026,11.099004 3.284558,13.869863 3.486924,16.344956 l 0.0934,0 c 0,-0.389166 0.902864,-6.646949 4.79452,-21.108343 L 59.277708,0 l 8.67061,0 z"
             inkscape:connector-curvature="0"
             style="stroke-linecap:butt;stroke-linejoin:round" />
          <path
             id="use4131"
             d="m 128.99559,29.436488 c 0,6.242217 -1.4944,14.461395 -12.76463,14.461395 -6.27335,0 -10.35181,-3.066626 -13.2472,-6.429017 l 0,31.771482 -7.363014,0 0,-68.742216 7.565384,0 0,23.988169 c 0,6.22665 2.39726,13.371731 9.16874,13.371731 8.76401,0 9.05977,-5.853051 9.05977,-9.231009 l 0,-28.128891 7.58095,0 z"
             inkscape:connector-curvature="0"
             style="stroke-linecap:butt;stroke-linejoin:round" />
          <path
             id="use4133"
             d="m 151.68684,65.115192 -8.35928,0 0,-8.328144 8.35928,0 z m -0.49814,-22.478206 -7.36301,0 0,-42.636986 7.36301,0 z"
             inkscape:connector-curvature="0"
             style="stroke-linecap:butt;stroke-linejoin:round" />
          <path
             id="use4135"
             d="m 175.26855,36.861768 12.95143,0 0,5.744085 -12.95143,0 0,12.188667 -7.08281,0 0,-12.188667 -7.86115,0 0,-5.744085 7.67435,0 0,-25.202366 c 0,-5.681818 1.29203,-12.655666 7.86114,-12.655666 4.98132,0 9.57348,1.38542963 13.9477,3.6737235 l -1.5878,5.853051 c -2.39726,-2.0859277 -5.27708,-3.2845579 -8.37484,-3.2845579 -4.37422,0 -4.57659,5.5884184 -4.57659,8.0790784 z"
             inkscape:connector-curvature="0"
             style="stroke-linecap:butt;stroke-linejoin:round" />
          <path
             id="use4137"
             d="m 231.4071,21.435243 c 0,3.315691 -0.1868,9.744707 -3.37796,15.068493 -3.48693,5.728518 -9.16874,7.33188 -13.44957,7.33188 -10.36737,0 -19.13138,-9.775841 -19.13138,-22.431507 0,-12.3443332 9.05978,-22.400373 20.51681,-22.400373 4.48319,0 9.96264,1.29202988 14.94396,4.856787 0,0.4047322 -0.1868,2.5840598 -0.29576,2.6774595 0,0.2023661 -0.29577,3.2689913 -0.29577,3.6737235 -4.77895,-3.8760896 -10.2584,-5.1525529 -14.24346,-5.1525529 -6.38232,0 -13.2472,5.3237859 -13.55853,16.3760899 z m -28.0822,5.463885 c 1.29203,5.541718 5.66626,10.787671 11.25467,10.787671 1.4944,0 8.46825,0 10.25841,-10.787671 z"
             inkscape:connector-curvature="0"
             style="stroke-linecap:butt;stroke-linejoin:round" />
        </g>
      </g>
      <g
         style="stroke-linecap:butt;stroke-linejoin:round"
         id="patch_72">
        <path
           inkscape:connector-curvature="0"
           d="m 84.970353,465.93243 23.999997,0 0,-8.40001 -23.999997,0 z"
           style="fill:#ff7f0e;stroke-linecap:butt;stroke-linejoin:round"
           id="path4140" />
      </g>
      <g
         style="stroke-linecap:butt;stroke-linejoin:round"
         id="text_11">
        <!-- Asian -->
        <defs
           id="defs4143">
          <path
             style="stroke-linecap:butt;stroke-linejoin:round"
             inkscape:connector-curvature="0"
             d="m 35.5,69 -8.59375,0 -24.3125,-69 7.609375,0 7,20 L 44,20 51.09375,0 59.796875,0 Z m 6.59375,-43.421875 -23,0 c 4.8125,13.921875 10.8125,31.265625 11.5,35.75 l 0.109375,0 C 31.40625,57.234375 33.40625,51.265625 35.09375,46.1875 Z"
             id="CMSS17-65" />
        </defs>
        <g
           style="stroke-linecap:butt;stroke-linejoin:round"
           transform="matrix(0.12,0,0,-0.12,118.57035,465.93243)"
           id="g4146">
          <use
             height="100%"
             width="100%"
             y="0"
             x="0"
             style="stroke-linecap:butt;stroke-linejoin:round"
             transform="scale(0.996264,0.996264)"
             xlink:href="#CMSS17-65"
             id="use4148" />
          <path
             id="use4150"
             d="m 94.300669,40.893524 c -5.884184,2.801992 -10.460772,2.801992 -13.449564,2.801992 -7.082814,0 -15.551058,-2.475093 -15.551058,-12.515566 0,-10.024907 10.958904,-12.219801 13.947696,-12.826899 4.592154,-0.887298 9.666874,-1.883562 9.666874,-6.833748 0,-6.2733504 -7.176214,-6.2733504 -8.468244,-6.2733504 -3.985056,0 -9.464508,1.0896638 -14.445828,4.6855542 L 64.801915,3.2689913 C 70.483733,0 75.963185,-0.996264 80.555339,-0.996264 c 12.250934,0 15.333126,7.47198 15.333126,13.153798 0,4.872354 -2.786426,8.156912 -4.685554,9.651308 -3.284558,2.599626 -4.483188,2.895392 -12.6401,4.592154 -1.400996,0.202366 -6.288916,1.29203 -6.288916,5.759651 0,5.697385 6.288916,5.697385 7.674346,5.697385 6.475716,0 10.460772,-2.008095 13.153798,-3.486924 z"
             inkscape:connector-curvature="0"
             style="stroke-linecap:butt;stroke-linejoin:round" />
          <path
             id="use4152"
             d="m 113.37112,65.115192 -8.35927,0 0,-8.328144 8.35927,0 z m -0.49813,-22.478206 -7.36301,0 0,-42.636986 7.36301,0 z"
             inkscape:connector-curvature="0"
             style="stroke-linecap:butt;stroke-linejoin:round" />
          <path
             id="use4154"
             d="m 157.76542,27.879825 c 0,9.355542 -6.66252,15.831258 -15.62889,15.831258 -4.38979,0 -9.16874,-0.793898 -14.6482,-3.969489 l 0.59154,-6.50685 c 2.49066,1.759029 6.77148,4.623288 13.94769,4.623288 5.09029,0 8.17248,-3.92279 8.17248,-10.118306 l 0,-3.82939 c -15.94022,0 -25.90286,-4.638854 -25.90286,-12.608966 0,-4.1251559 2.49066,-12.297634 10.75653,-12.297634 1.4944,0 9.57348,0 15.3487,4.3742216 l 0,-3.67372348 7.36301,0 z m -7.56538,-15.177459 c 0,-1.790162 0,-4.1718555 -2.98879,-5.9464508 -2.58406,-1.6967621 -5.88419,-1.6967621 -7.26962,-1.6967621 -4.98132,0 -8.37484,2.8953923 -8.37484,6.5224159 0,7.269614 15.55106,7.269614 18.63325,7.269614 z"
             inkscape:connector-curvature="0"
             style="stroke-linecap:butt;stroke-linejoin:round" />
          <path
             id="use4156"
             d="m 205.98746,29.218555 c 0,6.32005 -1.49439,14.617061 -12.76463,14.617061 -6.36675,0 -10.55417,-3.268991 -13.3406,-6.646949 l 0,5.744085 -7.26961,0 0,-42.932752 7.56538,0 0,24.268368 c 0,6.304484 2.39726,13.527398 9.16874,13.527398 8.76401,0 9.05978,-5.915318 9.05978,-9.324409 l 0,-28.471357 7.58094,0 z"
             inkscape:connector-curvature="0"
             style="stroke-linecap:butt;stroke-linejoin:round" />
        </g>
      </g>
      <g
         style="stroke-linecap:butt;stroke-linejoin:round"
         id="patch_73">
        <path
           inkscape:connector-curvature="0"
           d="m 84.970353,482.65702 23.999997,0 0,-8.4 -23.999997,0 z"
           style="fill:#2ca02c;stroke-linecap:butt;stroke-linejoin:round"
           id="path4159" />
      </g>
      <g
         style="stroke-linecap:butt;stroke-linejoin:round"
         id="text_12">
        <!-- Black -->
        <g
           style="stroke-linecap:butt;stroke-linejoin:round"
           transform="matrix(0.12,0,0,-0.12,118.57035,482.65702)"
           id="g4162">
          <path
             id="use4164"
             d="M 8.8729763,68.742216 8.8729763,0 33.67061,0 c 13.55853,0 23.412204,8.9352428 23.412204,18.67995 0,7.549813 -6.475716,15.193026 -18.135118,17.38792 12.951432,3.751557 15.551058,11.25467 15.551058,15.504359 0,8.872976 -9.760274,17.169987 -23.412204,17.169987 z m 8.0635117,-29.88792 0,24.330635 11.457036,0 c 10.258406,0 18.337484,-5.214819 18.337484,-11.721669 0,-5.915317 -6.382316,-12.608966 -19.240348,-12.608966 z m 0,-33.2970109 0,27.2415939 13.247198,0 c 10.756538,0 19.037982,-6.662516 19.037982,-14.025529 0,-6.755915 -7.28518,-13.2160649 -18.337484,-13.2160649 z"
             inkscape:connector-curvature="0"
             style="stroke-linecap:butt;stroke-linejoin:round" />
          <path
             id="use4166"
             d="m 77.079634,68.742216 -7.363014,0 0,-68.742216 7.363014,0 z"
             inkscape:connector-curvature="0"
             style="stroke-linecap:butt;stroke-linejoin:round" />
          <path
             id="use4168"
             d="m 121.97206,27.879825 c 0,9.355542 -6.66251,15.831258 -15.62889,15.831258 -4.38979,0 -9.168741,-0.793898 -14.648193,-3.969489 l 0.591532,-6.50685 c 2.49066,1.759029 6.771482,4.623288 13.947691,4.623288 5.09029,0 8.17248,-3.92279 8.17248,-10.118306 l 0,-3.82939 c -15.940221,0 -25.902861,-4.638854 -25.902861,-12.608966 0,-4.1251559 2.49066,-12.297634 10.756538,-12.297634 1.494393,0 9.573473,0 15.348693,4.3742216 l 0,-3.67372348 7.36301,0 z m -7.56538,-15.177459 c 0,-1.790162 0,-4.1718555 -2.98879,-5.9464508 -2.58406,-1.6967621 -5.88418,-1.6967621 -7.26961,-1.6967621 -4.981323,0 -8.374847,2.8953923 -8.374847,6.5224159 0,7.269614 15.551057,7.269614 18.633247,7.269614 z"
             inkscape:connector-curvature="0"
             style="stroke-linecap:butt;stroke-linejoin:round" />
          <path
             id="use4170"
             d="m 167.79684,39.554794 c 0,0.684932 -4.57658,2.693026 -5.77521,3.082192 -3.28456,1.19863 -7.47198,1.19863 -8.57721,1.19863 -12.95144,0 -20.71918,-11.25467 -20.71918,-22.618306 0,-11.9551681 8.67061,-22.213574 20.33001,-22.213574 6.67808,0 11.45704,2.1793275 15.33313,4.7633873 l -0.59154,6.5691157 c -4.28082,-3.2845579 -9.26214,-5.0902864 -14.64819,-5.0902864 -7.76775,0 -12.84247,6.8026154 -12.84247,16.0647574 0,7.19178 3.28456,16.267123 13.2472,16.267123 5.47945,0 8.56165,-1.105231 13.1538,-4.187422 z"
             inkscape:connector-curvature="0"
             style="stroke-linecap:butt;stroke-linejoin:round" />
          <path
             id="use4172"
             d="m 197.48051,26.276463 15.44209,16.360523 -9.55791,0 -17.43462,-18.446451 0,44.551681 -7.37858,0 0,-68.742216 7.26961,0 0,13.88543 6.67809,7.036114 L 206.54028,0 l 8.46825,0 z"
             inkscape:connector-curvature="0"
             style="stroke-linecap:butt;stroke-linejoin:round" />
        </g>
      </g>
      <g
         style="stroke-linecap:butt;stroke-linejoin:round"
         id="patch_74">
        <path
           inkscape:connector-curvature="0"
           d="m 84.970353,499.38162 23.999997,0 0,-8.4 -23.999997,0 z"
           style="fill:#d62728;stroke-linecap:butt;stroke-linejoin:round"
           id="path4175" />
      </g>
      <g
         style="stroke-linecap:butt;stroke-linejoin:round"
         id="text_13">
        <!-- Hispanic -->
        <defs
           id="defs4178">
          <path
             style="stroke-linecap:butt;stroke-linejoin:round"
             inkscape:connector-curvature="0"
             d="m 15.09375,5.203125 c 3.3125,-3.1875 7.8125,-5.28125 12.609375,-5.28125 C 37,-0.078125 45,9.421875 45,22.0625 45,33.734375 39,44 30.40625,44 c -5,0 -11,-1.78125 -15.5,-5.375 l 0,4.578125 -7.40625,0 L 7.5,-19 l 7.59375,0 z m 0,27.609375 c 0.8125,1.1875 4.203125,4.921875 9.703125,4.921875 7,0 12.609375,-7.109375 12.609375,-15.671875 0,-9.765625 -6.8125,-16.0625 -13.5,-16.0625 -2,0 -4.109375,0.484375 -6.109375,2.171875 C 15.09375,10.53125 15.09375,12 15.09375,13.390625 Z"
             id="CMSS17-112-5" />
        </defs>
        <g
           style="stroke-linecap:butt;stroke-linejoin:round"
           transform="matrix(0.12,0,0,-0.12,118.57035,499.38162)"
           id="g4181">
          <path
             id="use4183"
             d="m 57.19178,68.742216 -8.374844,0 0,-29.810087 -31.678082,0 0,29.810087 -8.3748441,0 0,-68.742216 8.3748441,0 0,32.876712 31.678082,0 0,-32.876712 8.374844,0 z"
             inkscape:connector-curvature="0"
             style="stroke-linecap:butt;stroke-linejoin:round" />
          <path
             id="use4185"
             d="m 81.301245,65.115192 -8.359278,0 0,-8.328144 8.359278,0 z m -0.498132,-22.478206 -7.363014,0 0,-42.636986 7.363014,0 z"
             inkscape:connector-curvature="0"
             style="stroke-linecap:butt;stroke-linejoin:round" />
          <path
             id="use4187"
             d="m 120.32506,40.893524 c -5.88419,2.801992 -10.46078,2.801992 -13.44957,2.801992 -7.082812,0 -15.551056,-2.475093 -15.551056,-12.515566 0,-10.024907 10.958906,-12.219801 13.947696,-12.826899 4.59215,-0.887298 9.66687,-1.883562 9.66687,-6.833748 0,-6.2733504 -7.17621,-6.2733504 -8.46824,-6.2733504 -3.98506,0 -9.464508,1.0896638 -14.445828,4.6855542 L 90.826302,3.2689913 C 96.50812,0 101.98757,-0.996264 106.57973,-0.996264 c 12.25093,0 15.33312,7.47198 15.33312,13.153798 0,4.872354 -2.78642,8.156912 -4.68555,9.651308 -3.28456,2.599626 -4.48319,2.895392 -12.6401,4.592154 -1.401,0.202366 -6.288918,1.29203 -6.288918,5.759651 0,5.697385 6.288918,5.697385 7.674348,5.697385 6.47571,0 10.46077,-2.008095 13.1538,-3.486924 z"
             inkscape:connector-curvature="0"
             style="stroke-linecap:butt;stroke-linejoin:round" />
          <use
             height="100%"
             width="100%"
             y="0"
             x="0"
             style="stroke-linecap:butt;stroke-linejoin:round"
             transform="matrix(0.996264,0,0,0.996264,124.15578,0)"
             xlink:href="#CMSS17-112-5"
             id="use4189" />
          <path
             id="use4191"
             d="m 209.81403,27.879825 c 0,9.355542 -6.66252,15.831258 -15.62889,15.831258 -4.38979,0 -9.16874,-0.793898 -14.6482,-3.969489 l 0.59154,-6.50685 c 2.49066,1.759029 6.77148,4.623288 13.94769,4.623288 5.09029,0 8.17248,-3.92279 8.17248,-10.118306 l 0,-3.82939 c -15.94022,0 -25.90286,-4.638854 -25.90286,-12.608966 0,-4.1251559 2.49066,-12.297634 10.75653,-12.297634 1.4944,0 9.57348,0 15.3487,4.3742216 l 0,-3.67372348 7.36301,0 z m -7.56538,-15.177459 c 0,-1.790162 0,-4.1718555 -2.98879,-5.9464508 -2.58406,-1.6967621 -5.88419,-1.6967621 -7.26962,-1.6967621 -4.98132,0 -8.37484,2.8953923 -8.37484,6.5224159 0,7.269614 15.55106,7.269614 18.63325,7.269614 z"
             inkscape:connector-curvature="0"
             style="stroke-linecap:butt;stroke-linejoin:round" />
          <path
             id="use4193"
             d="m 258.03607,29.218555 c 0,6.32005 -1.49439,14.617061 -12.76463,14.617061 -6.36675,0 -10.55417,-3.268991 -13.3406,-6.646949 l 0,5.744085 -7.26961,0 0,-42.932752 7.56538,0 0,24.268368 c 0,6.304484 2.39726,13.527398 9.16874,13.527398 8.76401,0 9.05978,-5.915318 9.05978,-9.324409 l 0,-28.471357 7.58094,0 z"
             inkscape:connector-curvature="0"
             style="stroke-linecap:butt;stroke-linejoin:round" />
          <path
             id="use4195"
             d="m 280.72732,65.115192 -8.35928,0 0,-8.328144 8.35928,0 z m -0.49814,-22.478206 -7.36301,0 0,-42.636986 7.36301,0 z"
             inkscape:connector-curvature="0"
             style="stroke-linecap:butt;stroke-linejoin:round" />
          <path
             id="use4197"
             d="m 326.02447,39.554794 c 0,0.684932 -4.57658,2.693026 -5.77521,3.082192 -3.28456,1.19863 -7.47198,1.19863 -8.57721,1.19863 -12.95144,0 -20.71918,-11.25467 -20.71918,-22.618306 0,-11.9551681 8.67061,-22.213574 20.33001,-22.213574 6.67808,0 11.45704,2.1793275 15.33313,4.7633873 l -0.59154,6.5691157 c -4.28082,-3.2845579 -9.26214,-5.0902864 -14.64819,-5.0902864 -7.76775,0 -12.84247,6.8026154 -12.84247,16.0647574 0,7.19178 3.28456,16.267123 13.2472,16.267123 5.47945,0 8.56165,-1.105231 13.1538,-4.187422 z"
             inkscape:connector-curvature="0"
             style="stroke-linecap:butt;stroke-linejoin:round" />
        </g>
      </g>
      <g
         style="stroke-linecap:butt;stroke-linejoin:round"
         id="patch_75">
        <path
           inkscape:connector-curvature="0"
           d="m 84.970353,516.10621 23.999997,0 0,-8.4 -23.999997,0 z"
           style="fill:#9467bd;stroke-linecap:butt;stroke-linejoin:round"
           id="path4200" />
      </g>
      <g
         style="stroke-linecap:butt;stroke-linejoin:round"
         id="text_14">
        <!-- Native -->
        <g
           style="stroke-linecap:butt;stroke-linejoin:round"
           transform="matrix(0.12,0,0,-0.12,118.57035,516.10621)"
           id="g4203">
          <path
             id="use4205"
             d="m 22.820672,65.068493 -1.805728,3.673723 -12.2509341,0 0,-68.742216 7.7677461,0 0,61.11457 0.108966,0.0934 C 17.34122,59.417808 17.730386,58.53051 21.824408,49.7198 L 43.135118,3.6737235 44.92528,0 l 12.2665,0 0,68.742216 -7.783312,0 0,-61.1145697 -0.0934,-0.1089664 C 48.61457,9.3088418 48.225404,10.196139 44.131382,19.006849 Z"
             inkscape:connector-curvature="0"
             style="stroke-linecap:butt;stroke-linejoin:round" />
          <path
             id="use4207"
             d="m 103.51482,27.879825 c 0,9.355542 -6.662517,15.831258 -15.628893,15.831258 -4.389788,0 -9.168742,-0.793898 -14.648194,-3.969489 l 0.591532,-6.50685 c 2.49066,1.759029 6.771482,4.623288 13.947696,4.623288 5.090286,0 8.172478,-3.92279 8.172478,-10.118306 l 0,-3.82939 c -15.940224,0 -25.902864,-4.638854 -25.902864,-12.608966 0,-4.1251559 2.49066,-12.297634 10.756538,-12.297634 1.494396,0 9.573474,0 15.348692,4.3742216 l 0,-3.67372348 7.363015,0 z M 95.949439,12.702366 c 0,-1.790162 0,-4.1718555 -2.988792,-5.9464508 -2.58406,-1.6967621 -5.884184,-1.6967621 -7.269614,-1.6967621 -4.98132,0 -8.374844,2.8953923 -8.374844,6.5224159 0,7.269614 15.551058,7.269614 18.63325,7.269614 z"
             inkscape:connector-curvature="0"
             style="stroke-linecap:butt;stroke-linejoin:round" />
          <path
             id="use4209"
             d="m 127.62416,36.861768 12.95143,0 0,5.744085 -12.95143,0 0,12.188667 -7.08281,0 0,-12.188667 -7.86115,0 0,-5.744085 7.67435,0 0,-25.202366 c 0,-5.681818 1.29203,-12.655666 7.86114,-12.655666 4.98132,0 9.57348,1.38542963 13.9477,3.6737235 l -1.5878,5.853051 c -2.39726,-2.0859277 -5.27708,-3.2845579 -8.37484,-3.2845579 -4.37422,0 -4.57659,5.5884184 -4.57659,8.0790784 z"
             inkscape:connector-curvature="0"
             style="stroke-linecap:butt;stroke-linejoin:round" />
          <path
             id="use4211"
             d="m 160.05474,65.115192 -8.35928,0 0,-8.328144 8.35928,0 z m -0.49814,-22.478206 -7.36301,0 0,-42.636986 7.36301,0 z"
             inkscape:connector-curvature="0"
             style="stroke-linecap:butt;stroke-linejoin:round" />
          <path
             id="use4213"
             d="m 208.63645,42.839352 -7.76774,0 -6.67809,-18.617684 C 192.1047,18.135118 189.1159,9.7602739 188.61777,5.479452 l -0.10896,0 c -0.1868,1.8057285 -0.99627,4.3897883 -1.4944,6.17995 -0.59153,2.194894 -1.38543,4.778954 -1.99253,6.584682 l -8.76401,24.595268 -7.97011,0 L 184.02562,0 l 8.87297,0 z"
             inkscape:connector-curvature="0"
             style="stroke-linecap:butt;stroke-linejoin:round" />
          <path
             id="use4215"
             d="m 248.94357,21.435243 c 0,3.315691 -0.1868,9.744707 -3.37796,15.068493 -3.48693,5.728518 -9.16874,7.33188 -13.44957,7.33188 -10.36737,0 -19.13138,-9.775841 -19.13138,-22.431507 0,-12.3443332 9.05978,-22.400373 20.51681,-22.400373 4.48319,0 9.96264,1.29202988 14.94396,4.856787 0,0.4047322 -0.1868,2.5840598 -0.29576,2.6774595 0,0.2023661 -0.29577,3.2689913 -0.29577,3.6737235 -4.77895,-3.8760896 -10.2584,-5.1525529 -14.24346,-5.1525529 -6.38232,0 -13.2472,5.3237859 -13.55853,16.3760899 z m -28.0822,5.463885 c 1.29203,5.541718 5.66626,10.787671 11.25467,10.787671 1.4944,0 8.46825,0 10.25841,-10.787671 z"
             inkscape:connector-curvature="0"
             style="stroke-linecap:butt;stroke-linejoin:round" />
        </g>
      </g>
      <g
         style="stroke-linecap:butt;stroke-linejoin:round"
         id="patch_76">
        <path
           inkscape:connector-curvature="0"
           d="m 84.970353,532.83081 23.999997,0 0,-8.4 -23.999997,0 z"
           style="fill:#8c564b;stroke-linecap:butt;stroke-linejoin:round"
           id="path4218" />
      </g>
      <g
         style="stroke-linecap:butt;stroke-linejoin:round"
         id="text_15">
        <!-- Pacific -->
        <defs
           id="defs4221">
          <path
             style="stroke-linecap:butt;stroke-linejoin:round"
             inkscape:connector-curvature="0"
             d="m 32.90625,29 c 12,0 21.796875,9.328125 21.796875,20.34375 0,10.8125 -9.40625,20.234375 -22.40625,20.234375 l -23.390625,0 0,-69.578125 8.390625,0 0,29 z m -2.8125,35 C 41.703125,64 46.796875,56.671875 46.796875,49.328125 46.796875,42.5 42.09375,34.78125 30.09375,34.78125 l -13,0 0,29.21875 z"
             id="CMSS17-80-6" />
        </defs>
        <g
           style="stroke-linecap:butt;stroke-linejoin:round"
           transform="matrix(0.12,0,0,-0.12,118.57035,532.83081)"
           id="g4224">
          <use
             height="100%"
             width="100%"
             y="0"
             x="0"
             style="stroke-linecap:butt;stroke-linejoin:round"
             transform="scale(0.996264,0.996264)"
             xlink:href="#CMSS17-80-6"
             id="use4226" />
          <path
             id="use4228"
             d="m 94.586432,27.879825 c 0,9.355542 -6.662516,15.831258 -15.628892,15.831258 -4.389788,0 -9.168742,-0.793898 -14.648194,-3.969489 l 0.591532,-6.50685 c 2.49066,1.759029 6.771482,4.623288 13.947696,4.623288 5.090286,0 8.172478,-3.92279 8.172478,-10.118306 l 0,-3.82939 c -15.940224,0 -25.902864,-4.638854 -25.902864,-12.608966 0,-4.1251559 2.49066,-12.297634 10.756538,-12.297634 1.494396,0 9.573474,0 15.348692,4.3742216 l 0,-3.67372348 7.363014,0 z m -7.56538,-15.177459 c 0,-1.790162 0,-4.1718555 -2.988792,-5.9464508 -2.58406,-1.6967621 -5.884184,-1.6967621 -7.269614,-1.6967621 -4.98132,0 -8.374844,2.8953923 -8.374844,6.5224159 0,7.269614 15.551058,7.269614 18.63325,7.269614 z"
             inkscape:connector-curvature="0"
             style="stroke-linecap:butt;stroke-linejoin:round" />
          <path
             id="use4230"
             d="m 140.41121,39.554794 c 0,0.684932 -4.57658,2.693026 -5.77521,3.082192 -3.28456,1.19863 -7.47198,1.19863 -8.57721,1.19863 -12.95144,0 -20.71918,-11.25467 -20.71918,-22.618306 0,-11.9551681 8.67061,-22.213574 20.33001,-22.213574 6.67808,0 11.45704,2.1793275 15.33313,4.7633873 l -0.59154,6.5691157 c -4.28082,-3.2845579 -9.26214,-5.0902864 -14.64819,-5.0902864 -7.76775,0 -12.84247,6.8026154 -12.84247,16.0647574 0,7.19178 3.28456,16.267123 13.2472,16.267123 5.47945,0 8.56165,-1.105231 13.1538,-4.187422 z"
             inkscape:connector-curvature="0"
             style="stroke-linecap:butt;stroke-linejoin:round" />
          <path
             id="use4232"
             d="m 158.9336,65.115192 -8.35928,0 0,-8.328144 8.35928,0 z m -0.49814,-22.478206 -7.36301,0 0,-42.636986 7.36301,0 z"
             inkscape:connector-curvature="0"
             style="stroke-linecap:butt;stroke-linejoin:round" />
          <path
             id="use4234"
             d="m 208.71395,68.742216 -7.97011,0 0,-7.938979 7.97011,0 z m -0.29576,-26.136363 -7.37858,0 0,-42.605853 7.37858,0 z m -25.80947,-5.744085 10.86551,0 0,5.744085 -11.06787,0 0,13.091531 c 0,5.308219 2.39726,8.001246 5.58841,8.001246 1.88357,0 3.78269,-0.560399 5.47946,-1.556663 l 0,6.506849 c -0.7939,0.2802 -3.09776,1.089664 -5.47946,1.089664 -7.47198,0 -12.74906,-7.580946 -12.74906,-17.247821 l 0,-9.884806 -6.88045,0 0,-5.744085 6.88045,0 0,-36.861768 7.36301,0 z"
             inkscape:connector-curvature="0"
             style="stroke-linecap:butt;stroke-linejoin:round" />
          <path
             id="use4236"
             d="m 254.35749,39.554794 c 0,0.684932 -4.57658,2.693026 -5.77521,3.082192 -3.28456,1.19863 -7.47198,1.19863 -8.57721,1.19863 -12.95144,0 -20.71918,-11.25467 -20.71918,-22.618306 0,-11.9551681 8.67061,-22.213574 20.33001,-22.213574 6.67808,0 11.45704,2.1793275 15.33313,4.7633873 l -0.59154,6.5691157 c -4.28082,-3.2845579 -9.26214,-5.0902864 -14.64819,-5.0902864 -7.76775,0 -12.84247,6.8026154 -12.84247,16.0647574 0,7.19178 3.28456,16.267123 13.2472,16.267123 5.47945,0 8.56165,-1.105231 13.1538,-4.187422 z"
             inkscape:connector-curvature="0"
             style="stroke-linecap:butt;stroke-linejoin:round" />
        </g>
      </g>
      <g
         style="stroke-linecap:butt;stroke-linejoin:round"
         id="patch_77">
        <path
           inkscape:connector-curvature="0"
           d="m 84.970353,549.5554 23.999997,0 0,-8.4 -23.999997,0 z"
           style="fill:#e377c2;stroke-linecap:butt;stroke-linejoin:round"
           id="path4239" />
      </g>
      <g
         style="stroke-linecap:butt;stroke-linejoin:round"
         id="text_16">
        <!-- Other -->
        <defs
           id="defs4242">
          <path
             style="stroke-linecap:butt;stroke-linejoin:round"
             inkscape:connector-curvature="0"
             d="m 64,34.03125 c 0,20.703125 -13.703125,36.234375 -29.40625,36.234375 -15.6875,0 -29.390625,-15.625 -29.390625,-36.234375 C 5.203125,13.234375 19.09375,-2 34.59375,-2 50.09375,-2 64,13.234375 64,34.03125 Z M 34.59375,4.265625 c -11,0 -21,12.25 -21,31.0625 0,18.3125 10.609375,28.671875 21,28.671875 10.40625,0 21,-10.359375 21,-28.671875 0,-18.90625 -10.09375,-31.0625 -21,-31.0625 z"
             id="CMSS17-79-2" />
        </defs>
        <g
           style="stroke-linecap:butt;stroke-linejoin:round"
           transform="matrix(0.12,0,0,-0.12,118.57035,549.5554)"
           id="g4245">
          <use
             height="100%"
             width="100%"
             y="0"
             x="0"
             style="stroke-linecap:butt;stroke-linejoin:round"
             transform="scale(0.996264,0.996264)"
             xlink:href="#CMSS17-79-2"
             id="use4247" />
          <path
             id="use4249"
             d="m 85.664977,36.861768 12.951432,0 0,5.744085 -12.951432,0 0,12.188667 -7.082814,0 0,-12.188667 -7.861146,0 0,-5.744085 7.674346,0 0,-25.202366 c 0,-5.681818 1.29203,-12.655666 7.861146,-12.655666 4.98132,0 9.573474,1.38542963 13.947691,3.6737235 l -1.587791,5.853051 c -2.39726,-2.0859277 -5.277086,-3.2845579 -8.374844,-3.2845579 -4.374222,0 -4.576588,5.5884184 -4.576588,8.0790784 z"
             inkscape:connector-curvature="0"
             style="stroke-linecap:butt;stroke-linejoin:round" />
          <path
             id="use4251"
             d="m 143.60924,29.436488 c 0,6.242217 -1.49439,14.461395 -12.76463,14.461395 -6.27335,0 -10.3518,-3.066626 -13.2472,-6.429017 l 0,31.771482 -7.36301,0 0,-68.742216 7.56538,0 0,23.988169 c 0,6.22665 2.39726,13.371731 9.16874,13.371731 8.76401,0 9.05978,-5.853051 9.05978,-9.231009 l 0,-28.128891 7.58094,0 z"
             inkscape:connector-curvature="0"
             style="stroke-linecap:butt;stroke-linejoin:round" />
          <path
             id="use4253"
             d="m 190.00846,21.435243 c 0,3.315691 -0.1868,9.744707 -3.37796,15.068493 -3.48693,5.728518 -9.16874,7.33188 -13.44957,7.33188 -10.36737,0 -19.13138,-9.775841 -19.13138,-22.431507 0,-12.3443332 9.05978,-22.400373 20.51681,-22.400373 4.48319,0 9.96264,1.29202988 14.94396,4.856787 0,0.4047322 -0.1868,2.5840598 -0.29576,2.6774595 0,0.2023661 -0.29577,3.2689913 -0.29577,3.6737235 -4.77895,-3.8760896 -10.2584,-5.1525529 -14.24346,-5.1525529 -6.38232,0 -13.2472,5.3237859 -13.55853,16.3760899 z m -28.0822,5.463885 c 1.29203,5.541718 5.66626,10.787671 11.25467,10.787671 1.4944,0 8.46825,0 10.25841,-10.787671 z"
             inkscape:connector-curvature="0"
             style="stroke-linecap:butt;stroke-linejoin:round" />
          <path
             id="use4255"
             d="m 207.55015,21.21731 c 0,9.371108 6.86488,15.644458 15.62889,15.644458 l 0,6.553549 c -6.36675,0 -12.34433,-3.175591 -15.94022,-8.343711 l 0,7.861146 -7.06725,0 0,-42.932752 7.37858,0 z"
             inkscape:connector-curvature="0"
             style="stroke-linecap:butt;stroke-linejoin:round" />
        </g>
      </g>
    </g>
  </g>
</svg>
