<?xml version="1.0" encoding="utf-8" standalone="no"?>
<!DOCTYPE svg PUBLIC "-//W3C//DTD SVG 1.1//EN"
  "http://www.w3.org/Graphics/SVG/1.1/DTD/svg11.dtd">
<!-- Created with matplotlib (https://matplotlib.org/) -->
<svg height="432pt" version="1.1" viewBox="0 0 576 432" width="576pt" xmlns="http://www.w3.org/2000/svg" xmlns:xlink="http://www.w3.org/1999/xlink">
 <defs>
  <style type="text/css">
*{stroke-linecap:butt;stroke-linejoin:round;}
  </style>
 </defs>
 <g id="figure_1">
  <g id="patch_1">
   <path d="M 0 432 
L 576 432 
L 576 0 
L 0 0 
z
" style="fill:#ffffff;"/>
  </g>
  <g id="axes_1">
   <g id="patch_2">
    <path d="M 56.292813 400.24 
L 559.44 400.24 
L 559.44 18.36 
L 56.292813 18.36 
z
" style="fill:#ffffff;"/>
   </g>
   <g id="matplotlib.axis_1">
    <g id="xtick_1">
     <g id="line2d_1">
      <path clip-path="url(#p830f7e4abb)" d="M 108.20944 400.24 
L 108.20944 18.36 
" style="fill:none;stroke:#b2b2b2;stroke-linecap:square;stroke-width:0.5;"/>
     </g>
     <g id="line2d_2">
      <defs>
       <path d="M 0 0 
L 0 4 
" id="mc2cd056dda" style="stroke:#000000;stroke-width:0.5;"/>
      </defs>
      <g>
       <use style="stroke:#000000;stroke-width:0.5;" x="108.20944" xlink:href="#mc2cd056dda" y="400.24"/>
      </g>
     </g>
     <g id="text_1">
      <!-- 1995 -->
      <defs>
       <path d="M 37.25 0 
L 28.46875 0 
L 28.46875 56 
Q 25.296875 52.984375 20.140625 49.953125 
Q 14.984375 46.921875 10.890625 45.40625 
L 10.890625 53.90625 
Q 18.265625 57.375 23.78125 62.296875 
Q 29.296875 67.234375 31.59375 71.875 
L 37.25 71.875 
z
" id="ArialMT-49"/>
       <path d="M 5.46875 16.546875 
L 13.921875 17.328125 
Q 14.984375 11.375 18.015625 8.6875 
Q 21.046875 6 25.78125 6 
Q 29.828125 6 32.875 7.859375 
Q 35.9375 9.71875 37.890625 12.8125 
Q 39.84375 15.921875 41.15625 21.1875 
Q 42.484375 26.46875 42.484375 31.9375 
Q 42.484375 32.515625 42.4375 33.6875 
Q 39.796875 29.5 35.234375 26.875 
Q 30.671875 24.265625 25.34375 24.265625 
Q 16.453125 24.265625 10.296875 30.703125 
Q 4.15625 37.15625 4.15625 47.703125 
Q 4.15625 58.59375 10.578125 65.234375 
Q 17 71.875 26.65625 71.875 
Q 33.640625 71.875 39.421875 68.109375 
Q 45.21875 64.359375 48.21875 57.390625 
Q 51.21875 50.4375 51.21875 37.25 
Q 51.21875 23.53125 48.234375 15.40625 
Q 45.265625 7.28125 39.375 3.03125 
Q 33.5 -1.21875 25.59375 -1.21875 
Q 17.1875 -1.21875 11.859375 3.4375 
Q 6.546875 8.109375 5.46875 16.546875 
z
M 41.453125 48.140625 
Q 41.453125 55.71875 37.421875 60.15625 
Q 33.40625 64.59375 27.734375 64.59375 
Q 21.875 64.59375 17.53125 59.8125 
Q 13.1875 55.03125 13.1875 47.40625 
Q 13.1875 40.578125 17.3125 36.296875 
Q 21.4375 32.03125 27.484375 32.03125 
Q 33.59375 32.03125 37.515625 36.296875 
Q 41.453125 40.578125 41.453125 48.140625 
z
" id="ArialMT-57"/>
       <path d="M 4.15625 18.75 
L 13.375 19.53125 
Q 14.40625 12.796875 18.140625 9.390625 
Q 21.875 6 27.15625 6 
Q 33.5 6 37.890625 10.78125 
Q 42.28125 15.578125 42.28125 23.484375 
Q 42.28125 31 38.0625 35.34375 
Q 33.84375 39.703125 27 39.703125 
Q 22.75 39.703125 19.328125 37.765625 
Q 15.921875 35.84375 13.96875 32.765625 
L 5.71875 33.84375 
L 12.640625 70.609375 
L 48.25 70.609375 
L 48.25 62.203125 
L 19.671875 62.203125 
L 15.828125 42.96875 
Q 22.265625 47.46875 29.34375 47.46875 
Q 38.71875 47.46875 45.15625 40.96875 
Q 51.609375 34.46875 51.609375 24.265625 
Q 51.609375 14.546875 45.953125 7.46875 
Q 39.0625 -1.21875 27.15625 -1.21875 
Q 17.390625 -1.21875 11.203125 4.25 
Q 5.03125 9.71875 4.15625 18.75 
z
" id="ArialMT-53"/>
      </defs>
      <g transform="translate(94.86319 416.829375)scale(0.12 -0.12)">
       <use xlink:href="#ArialMT-49"/>
       <use x="55.615234" xlink:href="#ArialMT-57"/>
       <use x="111.230469" xlink:href="#ArialMT-57"/>
       <use x="166.845703" xlink:href="#ArialMT-53"/>
      </g>
     </g>
    </g>
    <g id="xtick_2">
     <g id="line2d_3">
      <path clip-path="url(#p830f7e4abb)" d="M 200.301855 400.24 
L 200.301855 18.36 
" style="fill:none;stroke:#b2b2b2;stroke-linecap:square;stroke-width:0.5;"/>
     </g>
     <g id="line2d_4">
      <g>
       <use style="stroke:#000000;stroke-width:0.5;" x="200.301855" xlink:href="#mc2cd056dda" y="400.24"/>
      </g>
     </g>
     <g id="text_2">
      <!-- 2000 -->
      <defs>
       <path d="M 50.34375 8.453125 
L 50.34375 0 
L 3.03125 0 
Q 2.9375 3.171875 4.046875 6.109375 
Q 5.859375 10.9375 9.828125 15.625 
Q 13.8125 20.3125 21.34375 26.46875 
Q 33.015625 36.03125 37.109375 41.625 
Q 41.21875 47.21875 41.21875 52.203125 
Q 41.21875 57.421875 37.46875 61 
Q 33.734375 64.59375 27.734375 64.59375 
Q 21.390625 64.59375 17.578125 60.78125 
Q 13.765625 56.984375 13.71875 50.25 
L 4.6875 51.171875 
Q 5.609375 61.28125 11.65625 66.578125 
Q 17.71875 71.875 27.9375 71.875 
Q 38.234375 71.875 44.234375 66.15625 
Q 50.25 60.453125 50.25 52 
Q 50.25 47.703125 48.484375 43.546875 
Q 46.734375 39.40625 42.65625 34.8125 
Q 38.578125 30.21875 29.109375 22.21875 
Q 21.1875 15.578125 18.9375 13.203125 
Q 16.703125 10.84375 15.234375 8.453125 
z
" id="ArialMT-50"/>
       <path d="M 4.15625 35.296875 
Q 4.15625 48 6.765625 55.734375 
Q 9.375 63.484375 14.515625 67.671875 
Q 19.671875 71.875 27.484375 71.875 
Q 33.25 71.875 37.59375 69.546875 
Q 41.9375 67.234375 44.765625 62.859375 
Q 47.609375 58.5 49.21875 52.21875 
Q 50.828125 45.953125 50.828125 35.296875 
Q 50.828125 22.703125 48.234375 14.96875 
Q 45.65625 7.234375 40.5 3 
Q 35.359375 -1.21875 27.484375 -1.21875 
Q 17.140625 -1.21875 11.234375 6.203125 
Q 4.15625 15.140625 4.15625 35.296875 
z
M 13.1875 35.296875 
Q 13.1875 17.671875 17.3125 11.828125 
Q 21.4375 6 27.484375 6 
Q 33.546875 6 37.671875 11.859375 
Q 41.796875 17.71875 41.796875 35.296875 
Q 41.796875 52.984375 37.671875 58.78125 
Q 33.546875 64.59375 27.390625 64.59375 
Q 21.34375 64.59375 17.71875 59.46875 
Q 13.1875 52.9375 13.1875 35.296875 
z
" id="ArialMT-48"/>
      </defs>
      <g transform="translate(186.955605 416.829375)scale(0.12 -0.12)">
       <use xlink:href="#ArialMT-50"/>
       <use x="55.615234" xlink:href="#ArialMT-48"/>
       <use x="111.230469" xlink:href="#ArialMT-48"/>
       <use x="166.845703" xlink:href="#ArialMT-48"/>
      </g>
     </g>
    </g>
    <g id="xtick_3">
     <g id="line2d_5">
      <path clip-path="url(#p830f7e4abb)" d="M 292.444705 400.24 
L 292.444705 18.36 
" style="fill:none;stroke:#b2b2b2;stroke-linecap:square;stroke-width:0.5;"/>
     </g>
     <g id="line2d_6">
      <g>
       <use style="stroke:#000000;stroke-width:0.5;" x="292.444705" xlink:href="#mc2cd056dda" y="400.24"/>
      </g>
     </g>
     <g id="text_3">
      <!-- 2005 -->
      <g transform="translate(279.098455 416.829375)scale(0.12 -0.12)">
       <use xlink:href="#ArialMT-50"/>
       <use x="55.615234" xlink:href="#ArialMT-48"/>
       <use x="111.230469" xlink:href="#ArialMT-48"/>
       <use x="166.845703" xlink:href="#ArialMT-53"/>
      </g>
     </g>
    </g>
    <g id="xtick_4">
     <g id="line2d_7">
      <path clip-path="url(#p830f7e4abb)" d="M 384.53712 400.24 
L 384.53712 18.36 
" style="fill:none;stroke:#b2b2b2;stroke-linecap:square;stroke-width:0.5;"/>
     </g>
     <g id="line2d_8">
      <g>
       <use style="stroke:#000000;stroke-width:0.5;" x="384.53712" xlink:href="#mc2cd056dda" y="400.24"/>
      </g>
     </g>
     <g id="text_4">
      <!-- 2010 -->
      <g transform="translate(371.19087 416.829375)scale(0.12 -0.12)">
       <use xlink:href="#ArialMT-50"/>
       <use x="55.615234" xlink:href="#ArialMT-48"/>
       <use x="111.230469" xlink:href="#ArialMT-49"/>
       <use x="166.845703" xlink:href="#ArialMT-48"/>
      </g>
     </g>
    </g>
    <g id="xtick_5">
     <g id="line2d_9">
      <path clip-path="url(#p830f7e4abb)" d="M 476.629535 400.24 
L 476.629535 18.36 
" style="fill:none;stroke:#b2b2b2;stroke-linecap:square;stroke-width:0.5;"/>
     </g>
     <g id="line2d_10">
      <g>
       <use style="stroke:#000000;stroke-width:0.5;" x="476.629535" xlink:href="#mc2cd056dda" y="400.24"/>
      </g>
     </g>
     <g id="text_5">
      <!-- 2015 -->
      <g transform="translate(463.283285 416.829375)scale(0.12 -0.12)">
       <use xlink:href="#ArialMT-50"/>
       <use x="55.615234" xlink:href="#ArialMT-48"/>
       <use x="111.230469" xlink:href="#ArialMT-49"/>
       <use x="166.845703" xlink:href="#ArialMT-53"/>
      </g>
     </g>
    </g>
   </g>
   <g id="matplotlib.axis_2">
    <g id="ytick_1">
     <g id="line2d_11">
      <path clip-path="url(#p830f7e4abb)" d="M 56.292813 382.055238 
L 559.44 382.055238 
" style="fill:none;stroke:#b2b2b2;stroke-linecap:square;stroke-width:0.5;"/>
     </g>
     <g id="line2d_12">
      <defs>
       <path d="M 0 0 
L -4 0 
" id="md46c37a4ea" style="stroke:#000000;stroke-width:0.5;"/>
      </defs>
      <g>
       <use style="stroke:#000000;stroke-width:0.5;" x="56.292813" xlink:href="#md46c37a4ea" y="382.055238"/>
      </g>
     </g>
     <g id="text_6">
      <!-- 0.0 -->
      <defs>
       <path d="M 9.078125 0 
L 9.078125 10.015625 
L 19.09375 10.015625 
L 19.09375 0 
z
" id="ArialMT-46"/>
      </defs>
      <g transform="translate(31.612813 385.157426)scale(0.12 -0.12)">
       <use xlink:href="#ArialMT-48"/>
       <use x="55.615234" xlink:href="#ArialMT-46"/>
       <use x="83.398438" xlink:href="#ArialMT-48"/>
      </g>
     </g>
    </g>
    <g id="ytick_2">
     <g id="line2d_13">
      <path clip-path="url(#p830f7e4abb)" d="M 56.292813 309.31619 
L 559.44 309.31619 
" style="fill:none;stroke:#b2b2b2;stroke-linecap:square;stroke-width:0.5;"/>
     </g>
     <g id="line2d_14">
      <g>
       <use style="stroke:#000000;stroke-width:0.5;" x="56.292813" xlink:href="#md46c37a4ea" y="309.31619"/>
      </g>
     </g>
     <g id="text_7">
      <!-- 0.2 -->
      <g transform="translate(31.612813 312.418378)scale(0.12 -0.12)">
       <use xlink:href="#ArialMT-48"/>
       <use x="55.615234" xlink:href="#ArialMT-46"/>
       <use x="83.398438" xlink:href="#ArialMT-50"/>
      </g>
     </g>
    </g>
    <g id="ytick_3">
     <g id="line2d_15">
      <path clip-path="url(#p830f7e4abb)" d="M 56.292813 236.577143 
L 559.44 236.577143 
" style="fill:none;stroke:#b2b2b2;stroke-linecap:square;stroke-width:0.5;"/>
     </g>
     <g id="line2d_16">
      <g>
       <use style="stroke:#000000;stroke-width:0.5;" x="56.292813" xlink:href="#md46c37a4ea" y="236.577143"/>
      </g>
     </g>
     <g id="text_8">
      <!-- 0.4 -->
      <defs>
       <path d="M 32.328125 0 
L 32.328125 17.140625 
L 1.265625 17.140625 
L 1.265625 25.203125 
L 33.9375 71.578125 
L 41.109375 71.578125 
L 41.109375 25.203125 
L 50.78125 25.203125 
L 50.78125 17.140625 
L 41.109375 17.140625 
L 41.109375 0 
z
M 32.328125 25.203125 
L 32.328125 57.46875 
L 9.90625 25.203125 
z
" id="ArialMT-52"/>
      </defs>
      <g transform="translate(31.612813 239.67933)scale(0.12 -0.12)">
       <use xlink:href="#ArialMT-48"/>
       <use x="55.615234" xlink:href="#ArialMT-46"/>
       <use x="83.398438" xlink:href="#ArialMT-52"/>
      </g>
     </g>
    </g>
    <g id="ytick_4">
     <g id="line2d_17">
      <path clip-path="url(#p830f7e4abb)" d="M 56.292813 163.838095 
L 559.44 163.838095 
" style="fill:none;stroke:#b2b2b2;stroke-linecap:square;stroke-width:0.5;"/>
     </g>
     <g id="line2d_18">
      <g>
       <use style="stroke:#000000;stroke-width:0.5;" x="56.292813" xlink:href="#md46c37a4ea" y="163.838095"/>
      </g>
     </g>
     <g id="text_9">
      <!-- 0.6 -->
      <defs>
       <path d="M 49.75 54.046875 
L 41.015625 53.375 
Q 39.84375 58.546875 37.703125 60.890625 
Q 34.125 64.65625 28.90625 64.65625 
Q 24.703125 64.65625 21.53125 62.3125 
Q 17.390625 59.28125 14.984375 53.46875 
Q 12.59375 47.65625 12.5 36.921875 
Q 15.671875 41.75 20.265625 44.09375 
Q 24.859375 46.4375 29.890625 46.4375 
Q 38.671875 46.4375 44.84375 39.96875 
Q 51.03125 33.5 51.03125 23.25 
Q 51.03125 16.5 48.125 10.71875 
Q 45.21875 4.9375 40.140625 1.859375 
Q 35.0625 -1.21875 28.609375 -1.21875 
Q 17.625 -1.21875 10.6875 6.859375 
Q 3.765625 14.9375 3.765625 33.5 
Q 3.765625 54.25 11.421875 63.671875 
Q 18.109375 71.875 29.4375 71.875 
Q 37.890625 71.875 43.28125 67.140625 
Q 48.6875 62.40625 49.75 54.046875 
z
M 13.875 23.1875 
Q 13.875 18.65625 15.796875 14.5 
Q 17.71875 10.359375 21.1875 8.171875 
Q 24.65625 6 28.46875 6 
Q 34.03125 6 38.03125 10.484375 
Q 42.046875 14.984375 42.046875 22.703125 
Q 42.046875 30.125 38.078125 34.390625 
Q 34.125 38.671875 28.125 38.671875 
Q 22.171875 38.671875 18.015625 34.390625 
Q 13.875 30.125 13.875 23.1875 
z
" id="ArialMT-54"/>
      </defs>
      <g transform="translate(31.612813 166.940283)scale(0.12 -0.12)">
       <use xlink:href="#ArialMT-48"/>
       <use x="55.615234" xlink:href="#ArialMT-46"/>
       <use x="83.398438" xlink:href="#ArialMT-54"/>
      </g>
     </g>
    </g>
    <g id="ytick_5">
     <g id="line2d_19">
      <path clip-path="url(#p830f7e4abb)" d="M 56.292813 91.099048 
L 559.44 91.099048 
" style="fill:none;stroke:#b2b2b2;stroke-linecap:square;stroke-width:0.5;"/>
     </g>
     <g id="line2d_20">
      <g>
       <use style="stroke:#000000;stroke-width:0.5;" x="56.292813" xlink:href="#md46c37a4ea" y="91.099048"/>
      </g>
     </g>
     <g id="text_10">
      <!-- 0.8 -->
      <defs>
       <path d="M 17.671875 38.8125 
Q 12.203125 40.828125 9.5625 44.53125 
Q 6.9375 48.25 6.9375 53.421875 
Q 6.9375 61.234375 12.546875 66.546875 
Q 18.171875 71.875 27.484375 71.875 
Q 36.859375 71.875 42.578125 66.421875 
Q 48.296875 60.984375 48.296875 53.171875 
Q 48.296875 48.1875 45.671875 44.5 
Q 43.0625 40.828125 37.75 38.8125 
Q 44.34375 36.671875 47.78125 31.875 
Q 51.21875 27.09375 51.21875 20.453125 
Q 51.21875 11.28125 44.71875 5.03125 
Q 38.234375 -1.21875 27.640625 -1.21875 
Q 17.046875 -1.21875 10.546875 5.046875 
Q 4.046875 11.328125 4.046875 20.703125 
Q 4.046875 27.6875 7.59375 32.390625 
Q 11.140625 37.109375 17.671875 38.8125 
z
M 15.921875 53.71875 
Q 15.921875 48.640625 19.1875 45.40625 
Q 22.46875 42.1875 27.6875 42.1875 
Q 32.765625 42.1875 36.015625 45.375 
Q 39.265625 48.578125 39.265625 53.21875 
Q 39.265625 58.0625 35.90625 61.359375 
Q 32.5625 64.65625 27.59375 64.65625 
Q 22.5625 64.65625 19.234375 61.421875 
Q 15.921875 58.203125 15.921875 53.71875 
z
M 13.09375 20.65625 
Q 13.09375 16.890625 14.875 13.375 
Q 16.65625 9.859375 20.171875 7.921875 
Q 23.6875 6 27.734375 6 
Q 34.03125 6 38.125 10.046875 
Q 42.234375 14.109375 42.234375 20.359375 
Q 42.234375 26.703125 38.015625 30.859375 
Q 33.796875 35.015625 27.4375 35.015625 
Q 21.234375 35.015625 17.15625 30.90625 
Q 13.09375 26.8125 13.09375 20.65625 
z
" id="ArialMT-56"/>
      </defs>
      <g transform="translate(31.612813 94.201235)scale(0.12 -0.12)">
       <use xlink:href="#ArialMT-48"/>
       <use x="55.615234" xlink:href="#ArialMT-46"/>
       <use x="83.398438" xlink:href="#ArialMT-56"/>
      </g>
     </g>
    </g>
    <g id="ytick_6">
     <g id="line2d_21">
      <path clip-path="url(#p830f7e4abb)" d="M 56.292813 18.36 
L 559.44 18.36 
" style="fill:none;stroke:#b2b2b2;stroke-linecap:square;stroke-width:0.5;"/>
     </g>
     <g id="line2d_22">
      <g>
       <use style="stroke:#000000;stroke-width:0.5;" x="56.292813" xlink:href="#md46c37a4ea" y="18.36"/>
      </g>
     </g>
     <g id="text_11">
      <!-- 1.0 -->
      <g transform="translate(31.612813 21.462187)scale(0.12 -0.12)">
       <use xlink:href="#ArialMT-49"/>
       <use x="55.615234" xlink:href="#ArialMT-46"/>
       <use x="83.398438" xlink:href="#ArialMT-48"/>
      </g>
     </g>
    </g>
    <g id="text_12">
     <!-- Fraction of papers -->
     <defs>
      <path d="M 8.203125 0 
L 8.203125 71.578125 
L 56.5 71.578125 
L 56.5 63.140625 
L 17.671875 63.140625 
L 17.671875 40.96875 
L 51.265625 40.96875 
L 51.265625 32.515625 
L 17.671875 32.515625 
L 17.671875 0 
z
" id="ArialMT-70"/>
      <path d="M 6.5 0 
L 6.5 51.859375 
L 14.40625 51.859375 
L 14.40625 44 
Q 17.4375 49.515625 20 51.265625 
Q 22.5625 53.03125 25.640625 53.03125 
Q 30.078125 53.03125 34.671875 50.203125 
L 31.640625 42.046875 
Q 28.421875 43.953125 25.203125 43.953125 
Q 22.3125 43.953125 20.015625 42.21875 
Q 17.71875 40.484375 16.75 37.40625 
Q 15.28125 32.71875 15.28125 27.15625 
L 15.28125 0 
z
" id="ArialMT-114"/>
      <path d="M 40.4375 6.390625 
Q 35.546875 2.25 31.03125 0.53125 
Q 26.515625 -1.171875 21.34375 -1.171875 
Q 12.796875 -1.171875 8.203125 3 
Q 3.609375 7.171875 3.609375 13.671875 
Q 3.609375 17.484375 5.34375 20.625 
Q 7.078125 23.78125 9.890625 25.6875 
Q 12.703125 27.59375 16.21875 28.5625 
Q 18.796875 29.25 24.03125 29.890625 
Q 34.671875 31.15625 39.703125 32.90625 
Q 39.75 34.71875 39.75 35.203125 
Q 39.75 40.578125 37.25 42.78125 
Q 33.890625 45.75 27.25 45.75 
Q 21.046875 45.75 18.09375 43.578125 
Q 15.140625 41.40625 13.71875 35.890625 
L 5.125 37.0625 
Q 6.296875 42.578125 8.984375 45.96875 
Q 11.671875 49.359375 16.75 51.1875 
Q 21.828125 53.03125 28.515625 53.03125 
Q 35.15625 53.03125 39.296875 51.46875 
Q 43.453125 49.90625 45.40625 47.53125 
Q 47.359375 45.171875 48.140625 41.546875 
Q 48.578125 39.3125 48.578125 33.453125 
L 48.578125 21.734375 
Q 48.578125 9.46875 49.140625 6.21875 
Q 49.703125 2.984375 51.375 0 
L 42.1875 0 
Q 40.828125 2.734375 40.4375 6.390625 
z
M 39.703125 26.03125 
Q 34.90625 24.078125 25.34375 22.703125 
Q 19.921875 21.921875 17.671875 20.9375 
Q 15.4375 19.96875 14.203125 18.09375 
Q 12.984375 16.21875 12.984375 13.921875 
Q 12.984375 10.40625 15.640625 8.0625 
Q 18.3125 5.71875 23.4375 5.71875 
Q 28.515625 5.71875 32.46875 7.9375 
Q 36.421875 10.15625 38.28125 14.015625 
Q 39.703125 17 39.703125 22.796875 
z
" id="ArialMT-97"/>
      <path d="M 40.4375 19 
L 49.078125 17.875 
Q 47.65625 8.9375 41.8125 3.875 
Q 35.984375 -1.171875 27.484375 -1.171875 
Q 16.84375 -1.171875 10.375 5.78125 
Q 3.90625 12.75 3.90625 25.734375 
Q 3.90625 34.125 6.6875 40.421875 
Q 9.46875 46.734375 15.15625 49.875 
Q 20.84375 53.03125 27.546875 53.03125 
Q 35.984375 53.03125 41.359375 48.75 
Q 46.734375 44.484375 48.25 36.625 
L 39.703125 35.296875 
Q 38.484375 40.53125 35.375 43.15625 
Q 32.28125 45.796875 27.875 45.796875 
Q 21.234375 45.796875 17.078125 41.03125 
Q 12.9375 36.28125 12.9375 25.984375 
Q 12.9375 15.53125 16.9375 10.796875 
Q 20.953125 6.0625 27.390625 6.0625 
Q 32.5625 6.0625 36.03125 9.234375 
Q 39.5 12.40625 40.4375 19 
z
" id="ArialMT-99"/>
      <path d="M 25.78125 7.859375 
L 27.046875 0.09375 
Q 23.34375 -0.6875 20.40625 -0.6875 
Q 15.625 -0.6875 12.984375 0.828125 
Q 10.359375 2.34375 9.28125 4.8125 
Q 8.203125 7.28125 8.203125 15.1875 
L 8.203125 45.015625 
L 1.765625 45.015625 
L 1.765625 51.859375 
L 8.203125 51.859375 
L 8.203125 64.703125 
L 16.9375 69.96875 
L 16.9375 51.859375 
L 25.78125 51.859375 
L 25.78125 45.015625 
L 16.9375 45.015625 
L 16.9375 14.703125 
Q 16.9375 10.9375 17.40625 9.859375 
Q 17.875 8.796875 18.921875 8.15625 
Q 19.96875 7.515625 21.921875 7.515625 
Q 23.390625 7.515625 25.78125 7.859375 
z
" id="ArialMT-116"/>
      <path d="M 6.640625 61.46875 
L 6.640625 71.578125 
L 15.4375 71.578125 
L 15.4375 61.46875 
z
M 6.640625 0 
L 6.640625 51.859375 
L 15.4375 51.859375 
L 15.4375 0 
z
" id="ArialMT-105"/>
      <path d="M 3.328125 25.921875 
Q 3.328125 40.328125 11.328125 47.265625 
Q 18.015625 53.03125 27.640625 53.03125 
Q 38.328125 53.03125 45.109375 46.015625 
Q 51.90625 39.015625 51.90625 26.65625 
Q 51.90625 16.65625 48.90625 10.90625 
Q 45.90625 5.171875 40.15625 2 
Q 34.421875 -1.171875 27.640625 -1.171875 
Q 16.75 -1.171875 10.03125 5.8125 
Q 3.328125 12.796875 3.328125 25.921875 
z
M 12.359375 25.921875 
Q 12.359375 15.96875 16.703125 11.015625 
Q 21.046875 6.0625 27.640625 6.0625 
Q 34.1875 6.0625 38.53125 11.03125 
Q 42.875 16.015625 42.875 26.21875 
Q 42.875 35.84375 38.5 40.796875 
Q 34.125 45.75 27.640625 45.75 
Q 21.046875 45.75 16.703125 40.8125 
Q 12.359375 35.890625 12.359375 25.921875 
z
" id="ArialMT-111"/>
      <path d="M 6.59375 0 
L 6.59375 51.859375 
L 14.5 51.859375 
L 14.5 44.484375 
Q 20.21875 53.03125 31 53.03125 
Q 35.6875 53.03125 39.625 51.34375 
Q 43.5625 49.65625 45.515625 46.921875 
Q 47.46875 44.1875 48.25 40.4375 
Q 48.734375 37.984375 48.734375 31.890625 
L 48.734375 0 
L 39.9375 0 
L 39.9375 31.546875 
Q 39.9375 36.921875 38.90625 39.578125 
Q 37.890625 42.234375 35.28125 43.8125 
Q 32.671875 45.40625 29.15625 45.40625 
Q 23.53125 45.40625 19.453125 41.84375 
Q 15.375 38.28125 15.375 28.328125 
L 15.375 0 
z
" id="ArialMT-110"/>
      <path id="ArialMT-32"/>
      <path d="M 8.6875 0 
L 8.6875 45.015625 
L 0.921875 45.015625 
L 0.921875 51.859375 
L 8.6875 51.859375 
L 8.6875 57.375 
Q 8.6875 62.59375 9.625 65.140625 
Q 10.890625 68.5625 14.078125 70.671875 
Q 17.28125 72.796875 23.046875 72.796875 
Q 26.765625 72.796875 31.25 71.921875 
L 29.9375 64.265625 
Q 27.203125 64.75 24.75 64.75 
Q 20.75 64.75 19.09375 63.03125 
Q 17.4375 61.328125 17.4375 56.640625 
L 17.4375 51.859375 
L 27.546875 51.859375 
L 27.546875 45.015625 
L 17.4375 45.015625 
L 17.4375 0 
z
" id="ArialMT-102"/>
      <path d="M 6.59375 -19.875 
L 6.59375 51.859375 
L 14.59375 51.859375 
L 14.59375 45.125 
Q 17.4375 49.078125 21 51.046875 
Q 24.5625 53.03125 29.640625 53.03125 
Q 36.28125 53.03125 41.359375 49.609375 
Q 46.4375 46.1875 49.015625 39.953125 
Q 51.609375 33.734375 51.609375 26.3125 
Q 51.609375 18.359375 48.75 11.984375 
Q 45.90625 5.609375 40.453125 2.21875 
Q 35.015625 -1.171875 29 -1.171875 
Q 24.609375 -1.171875 21.109375 0.6875 
Q 17.625 2.546875 15.375 5.375 
L 15.375 -19.875 
z
M 14.546875 25.640625 
Q 14.546875 15.625 18.59375 10.84375 
Q 22.65625 6.0625 28.421875 6.0625 
Q 34.28125 6.0625 38.453125 11.015625 
Q 42.625 15.96875 42.625 26.375 
Q 42.625 36.28125 38.546875 41.203125 
Q 34.46875 46.140625 28.8125 46.140625 
Q 23.1875 46.140625 18.859375 40.890625 
Q 14.546875 35.640625 14.546875 25.640625 
z
" id="ArialMT-112"/>
      <path d="M 42.09375 16.703125 
L 51.171875 15.578125 
Q 49.03125 7.625 43.21875 3.21875 
Q 37.40625 -1.171875 28.375 -1.171875 
Q 17 -1.171875 10.328125 5.828125 
Q 3.65625 12.84375 3.65625 25.484375 
Q 3.65625 38.578125 10.390625 45.796875 
Q 17.140625 53.03125 27.875 53.03125 
Q 38.28125 53.03125 44.875 45.953125 
Q 51.46875 38.875 51.46875 26.03125 
Q 51.46875 25.25 51.421875 23.6875 
L 12.75 23.6875 
Q 13.234375 15.140625 17.578125 10.59375 
Q 21.921875 6.0625 28.421875 6.0625 
Q 33.25 6.0625 36.671875 8.59375 
Q 40.09375 11.140625 42.09375 16.703125 
z
M 13.234375 30.90625 
L 42.1875 30.90625 
Q 41.609375 37.453125 38.875 40.71875 
Q 34.671875 45.796875 27.984375 45.796875 
Q 21.921875 45.796875 17.796875 41.75 
Q 13.671875 37.703125 13.234375 30.90625 
z
" id="ArialMT-101"/>
      <path d="M 3.078125 15.484375 
L 11.765625 16.84375 
Q 12.5 11.625 15.84375 8.84375 
Q 19.1875 6.0625 25.203125 6.0625 
Q 31.25 6.0625 34.171875 8.515625 
Q 37.109375 10.984375 37.109375 14.3125 
Q 37.109375 17.28125 34.515625 19 
Q 32.71875 20.171875 25.53125 21.96875 
Q 15.875 24.421875 12.140625 26.203125 
Q 8.40625 27.984375 6.46875 31.125 
Q 4.546875 34.28125 4.546875 38.09375 
Q 4.546875 41.546875 6.125 44.5 
Q 7.71875 47.46875 10.453125 49.421875 
Q 12.5 50.921875 16.03125 51.96875 
Q 19.578125 53.03125 23.640625 53.03125 
Q 29.734375 53.03125 34.34375 51.265625 
Q 38.96875 49.515625 41.15625 46.5 
Q 43.359375 43.5 44.1875 38.484375 
L 35.59375 37.3125 
Q 35.015625 41.3125 32.203125 43.546875 
Q 29.390625 45.796875 24.265625 45.796875 
Q 18.21875 45.796875 15.625 43.796875 
Q 13.03125 41.796875 13.03125 39.109375 
Q 13.03125 37.40625 14.109375 36.03125 
Q 15.1875 34.625 17.484375 33.6875 
Q 18.796875 33.203125 25.25 31.453125 
Q 34.578125 28.953125 38.25 27.359375 
Q 41.9375 25.78125 44.03125 22.75 
Q 46.140625 19.734375 46.140625 15.234375 
Q 46.140625 10.84375 43.578125 6.953125 
Q 41.015625 3.078125 36.171875 0.953125 
Q 31.34375 -1.171875 25.25 -1.171875 
Q 15.140625 -1.171875 9.84375 3.03125 
Q 4.546875 7.234375 3.078125 15.484375 
z
" id="ArialMT-115"/>
     </defs>
     <g transform="translate(23.830312 265.712344)rotate(-90)scale(0.14 -0.14)">
      <use xlink:href="#ArialMT-70"/>
      <use x="61.083984" xlink:href="#ArialMT-114"/>
      <use x="94.384766" xlink:href="#ArialMT-97"/>
      <use x="150" xlink:href="#ArialMT-99"/>
      <use x="200" xlink:href="#ArialMT-116"/>
      <use x="227.783203" xlink:href="#ArialMT-105"/>
      <use x="250" xlink:href="#ArialMT-111"/>
      <use x="305.615234" xlink:href="#ArialMT-110"/>
      <use x="361.230469" xlink:href="#ArialMT-32"/>
      <use x="389.013672" xlink:href="#ArialMT-111"/>
      <use x="444.628906" xlink:href="#ArialMT-102"/>
      <use x="472.412109" xlink:href="#ArialMT-32"/>
      <use x="500.195312" xlink:href="#ArialMT-112"/>
      <use x="555.810547" xlink:href="#ArialMT-97"/>
      <use x="611.425781" xlink:href="#ArialMT-112"/>
      <use x="667.041016" xlink:href="#ArialMT-101"/>
      <use x="722.65625" xlink:href="#ArialMT-114"/>
      <use x="755.957031" xlink:href="#ArialMT-115"/>
     </g>
    </g>
   </g>
   <g id="line2d_23">
    <path clip-path="url(#p830f7e4abb)" d="M 93.558374 382.055238 
L 119.681065 382.055238 
L 121.219301 360.661401 
L 122.758587 370.689762 
L 124.297874 382.055238 
L 130.4256 382.055238 
L 131.962786 372.962857 
L 133.499971 382.055238 
L 139.678131 382.055238 
L 141.217418 353.342456 
L 142.756704 382.055238 
L 144.29494 382.055238 
L 145.858393 362.396036 
L 147.346195 361.849947 
L 148.833997 354.078681 
L 150.371182 357.257835 
L 151.908367 361.072821 
L 153.446603 365.891005 
L 154.984839 343.364255 
L 156.548292 346.858925 
L 158.086527 369.294002 
L 159.625814 366.242402 
L 161.1651 327.157844 
L 162.703336 339.267563 
L 164.266789 358.335983 
L 165.754591 355.764016 
L 167.242393 337.104141 
L 168.779578 333.200654 
L 170.316763 356.077007 
L 171.854999 350.429565 
L 173.393235 349.322667 
L 174.956688 346.572776 
L 176.494924 354.778095 
L 178.03421 340.090403 
L 179.573497 362.743987 
L 181.111733 361.849947 
L 182.675185 382.055238 
L 184.162987 352.829728 
L 185.650789 342.523147 
L 187.187974 364.020763 
L 188.72516 346.651277 
L 190.263395 352.298355 
L 191.801631 369.368195 
L 193.365084 379.168768 
L 194.90332 369.294002 
L 196.442606 370.570125 
L 197.981893 351.153028 
L 199.520129 346.961838 
L 201.083582 361.468715 
L 202.596601 329.260768 
L 204.109619 356.077007 
L 205.646805 371.03417 
L 207.18399 346.134721 
L 208.722226 361.468715 
L 210.260461 351.196248 
L 211.823914 365.112913 
L 213.36215 349.191211 
L 214.901437 353.530121 
L 216.440723 359.165328 
L 217.978959 352.365831 
L 219.542412 362.071983 
L 221.030214 361.206466 
L 222.518016 350.881361 
L 224.055201 351.747302 
L 225.592386 338.804994 
L 227.130622 364.205165 
L 228.668858 349.829078 
L 230.232311 340.882192 
L 231.770546 366.126979 
L 233.309833 364.736417 
L 234.84912 360.727431 
L 236.387355 362.913383 
L 237.950808 364.251975 
L 239.43861 338.986065 
L 240.926412 344.646585 
L 242.463597 340.17518 
L 244.000782 354.566645 
L 245.539018 356.077007 
L 247.077254 357.916174 
L 248.640707 360.54638 
L 250.178943 340.154865 
L 253.257516 358.878581 
L 254.795752 363.079834 
L 256.359204 346.355092 
L 257.847006 345.858082 
L 259.334808 354.345125 
L 260.871993 353.669268 
L 262.409179 342.430854 
L 263.947414 361.206466 
L 265.48565 327.429076 
L 267.049103 327.324401 
L 268.587339 327.747804 
L 270.126626 345.685714 
L 271.665912 332.047143 
L 273.204148 344.531126 
L 274.767601 350.249191 
L 276.28062 341.483658 
L 277.793638 349.275839 
L 279.330824 347.631409 
L 280.868009 337.930448 
L 282.406245 338.302427 
L 283.94448 339.424294 
L 285.507933 341.816616 
L 287.046169 347.180352 
L 288.585456 352.994844 
L 290.124742 347.663253 
L 291.662978 343.64518 
L 293.226431 349.448079 
L 294.714233 352.48652 
L 296.202035 353.146129 
L 297.73922 343.203521 
L 299.276405 337.230055 
L 300.814641 342.088728 
L 302.352877 348.992035 
L 303.91633 350.970175 
L 305.454565 335.333684 
L 306.993852 343.771529 
L 308.533139 347.011687 
L 310.071374 343.630434 
L 311.634827 340.863236 
L 313.122629 351.272256 
L 314.610431 336.160363 
L 316.147616 340.127905 
L 317.684801 338.628941 
L 319.223037 337.70216 
L 320.761273 331.518998 
L 322.324726 347.816147 
L 323.862962 333.800833 
L 325.402248 330.098776 
L 326.941535 325.318781 
L 328.479771 346.939836 
L 330.043224 353.820118 
L 331.531025 342.126883 
L 333.017777 335.227525 
L 334.554962 330.573264 
L 336.093198 344.306431 
L 337.631433 335.527063 
L 339.169669 334.161215 
L 340.733122 340.913243 
L 342.271358 341.122748 
L 343.809594 343.661307 
L 345.34888 336.20477 
L 346.888167 340.405068 
L 348.45162 347.5999 
L 349.964639 339.666516 
L 351.476607 344.407098 
L 353.013792 333.777109 
L 354.552028 339.087024 
L 356.090264 339.915861 
L 357.6285 333.602419 
L 359.191952 335.182821 
L 360.730188 330.609153 
L 362.268424 334.32779 
L 363.807711 335.48033 
L 365.346997 338.172449 
L 366.91045 341.45404 
L 368.398252 338.252527 
L 369.885003 332.188432 
L 371.422188 338.160985 
L 372.960424 337.70216 
L 374.49866 334.338423 
L 376.036896 328.053977 
L 377.600349 333.695033 
L 379.138584 334.886572 
L 380.67682 337.552445 
L 382.216107 349.771611 
L 383.755393 334.274565 
L 385.318846 332.631365 
L 386.806648 334.172285 
L 388.293399 328.403069 
L 389.830585 328.570644 
L 391.36882 335.211712 
L 392.907056 334.273848 
L 394.445292 330.449833 
L 396.008745 329.667004 
L 397.546981 332.780399 
L 399.085217 343.059469 
L 400.624503 327.907064 
L 402.16379 331.221088 
L 403.727243 332.233973 
L 405.215044 323.333611 
L 406.701796 338.168477 
L 408.238981 331.462462 
L 409.777217 332.826944 
L 411.315452 335.225647 
L 412.853688 323.558801 
L 414.417141 328.595406 
L 415.955377 338.071769 
L 417.493613 335.811006 
L 419.032899 326.602231 
L 420.572186 336.300031 
L 422.135639 329.100623 
L 423.648658 334.107135 
L 425.160626 331.500091 
L 426.697811 325.833693 
L 428.236047 325.264324 
L 429.774283 330.972425 
L 432.875971 323.096161 
L 434.414207 324.146482 
L 435.952443 320.103761 
L 437.49173 320.183078 
L 439.031016 335.366919 
L 440.594469 318.667457 
L 442.082271 325.300249 
L 443.569022 316.426022 
L 445.106207 319.969533 
L 446.644443 323.212979 
L 448.182679 330.992954 
L 449.720915 332.242194 
L 451.284368 325.4423 
L 452.822604 326.277762 
L 454.360839 326.659871 
L 455.900126 317.793298 
L 457.439412 321.61305 
L 459.002865 312.225752 
L 461.977418 323.129006 
L 463.514604 317.297183 
L 465.052839 305.006696 
L 466.591075 320.08482 
L 468.129311 317.695146 
L 469.692764 324.348452 
L 471.231 324.848082 
L 472.769236 320.537484 
L 474.308522 313.433495 
L 475.847809 316.671825 
L 477.411262 322.819411 
L 478.899063 312.296779 
L 480.385815 322.377691 
L 481.923 317.667475 
L 483.461236 310.875369 
L 484.999472 310.656734 
L 486.537707 316.388042 
L 488.10116 315.294742 
L 489.639396 314.672272 
L 491.177632 313.826243 
L 492.716918 321.628494 
L 494.256205 319.456603 
L 495.819658 316.305773 
L 497.332677 317.510558 
L 498.844645 313.232465 
L 500.38183 318.139901 
L 501.920066 310.314776 
L 503.458302 316.9493 
L 504.996538 315.483447 
L 506.55999 327.240583 
L 508.098226 316.072793 
L 509.636462 321.853974 
L 511.175749 324.990086 
L 512.715035 320.207891 
L 514.278488 321.792663 
L 515.76629 333.740386 
L 517.253041 324.889049 
L 518.790226 332.20106 
L 520.328462 325.938199 
L 521.866698 327.850659 
L 523.404934 316.653901 
L 524.968387 331.348966 
L 526.506623 326.726348 
L 528.044858 321.475554 
L 529.584145 323.146854 
L 531.123432 326.845335 
L 532.686884 334.864848 
L 534.174686 330.715373 
L 535.661437 338.429348 
L 537.198623 334.772469 
L 538.736858 322.017347 
L 540.275094 335.401638 
L 541.81333 329.843774 
L 543.376783 330.837175 
L 544.915019 332.653488 
L 546.453255 325.102437 
L 547.992541 323.360906 
L 549.531828 322.228447 
L 551.095281 332.080166 
L 554.069834 325.591137 
L 555.607019 320.638581 
L 557.145255 319.582224 
L 558.683491 329.548 
L 558.683491 329.548 
" style="fill:none;stroke:#0072bd;stroke-linecap:square;stroke-width:1.5;"/>
   </g>
   <g id="line2d_24">
    <path clip-path="url(#p830f7e4abb)" d="M 93.558374 382.055238 
L 119.681065 382.055238 
L 121.219301 232.298375 
L 122.758587 291.131429 
L 124.297874 242.172454 
L 125.83611 256.643087 
L 127.399563 228.920401 
L 128.912582 301.234074 
L 130.4256 220.41291 
L 131.962786 263.854286 
L 133.499971 210.310265 
L 135.038207 149.290286 
L 136.576442 239.174966 
L 138.139895 280.220571 
L 139.678131 326.949899 
L 141.217418 362.913383 
L 142.756704 248.996005 
L 144.29494 332.907233 
L 145.858393 323.077632 
L 147.346195 321.439365 
L 148.833997 326.102125 
L 150.371182 307.66303 
L 151.908367 319.107985 
L 153.446603 333.56254 
L 154.984839 265.98229 
L 156.548292 340.992873 
L 158.086527 324.629674 
L 159.625814 334.616729 
L 161.1651 334.020018 
L 162.703336 323.222185 
L 164.266789 318.803892 
L 165.754591 338.236535 
L 168.779578 327.772367 
L 170.316763 308.450249 
L 171.854999 350.429565 
L 174.956688 333.266852 
L 176.494924 295.677619 
L 178.03421 334.495092 
L 179.573497 336.995651 
L 181.111733 309.31619 
L 182.675185 371.858175 
L 184.162987 307.367823 
L 185.650789 338.569938 
L 187.187974 339.974797 
L 188.72516 343.432735 
L 190.263395 312.622511 
L 191.801631 360.910166 
L 193.365084 327.212305 
L 194.90332 327.819983 
L 196.442606 324.629674 
L 197.981893 348.775935 
L 199.520129 324.629674 
L 201.083582 352.319149 
L 202.596601 320.46169 
L 204.109619 336.093752 
L 205.646805 329.705166 
L 207.18399 332.664527 
L 208.722226 338.594801 
L 210.260461 337.970967 
L 211.823914 358.335983 
L 213.36215 331.663729 
L 214.901437 339.267563 
L 216.440723 341.362065 
L 217.978959 330.098776 
L 219.542412 342.088728 
L 221.030214 333.408104 
L 222.518016 332.177034 
L 224.055201 353.912154 
L 225.592386 330.941313 
L 227.130622 344.123833 
L 228.668858 322.206655 
L 230.232311 329.445235 
L 231.770546 339.579882 
L 233.309833 353.912154 
L 234.84912 349.502269 
L 236.387355 324.629674 
L 237.950808 323.558801 
L 239.43861 317.451479 
L 240.926412 328.020517 
L 242.463597 331.358326 
L 244.000782 337.650587 
L 245.539018 338.758186 
L 247.077254 349.869819 
L 248.640707 340.992873 
L 250.178943 333.450805 
L 251.718229 348.151445 
L 253.257516 355.312941 
L 254.795752 340.941863 
L 256.359204 357.511388 
L 257.847006 342.410733 
L 259.334808 349.149478 
L 260.871993 328.831545 
L 262.409179 359.412733 
L 265.48565 344.679443 
L 267.049103 346.745021 
L 268.587339 331.039164 
L 270.126626 337.603598 
L 271.665912 341.139524 
L 273.204148 337.314951 
L 274.767601 343.334833 
L 276.28062 331.340763 
L 277.793638 338.349373 
L 279.330824 335.657903 
L 280.868009 324.5593 
L 282.406245 330.098776 
L 283.94448 330.098776 
L 285.507933 334.078419 
L 287.046169 339.707162 
L 288.585456 352.994844 
L 290.124742 348.523053 
L 291.662978 329.241408 
L 293.226431 341.92335 
L 294.714233 348.051212 
L 296.202035 353.146129 
L 297.73922 345.36195 
L 299.276405 356.586384 
L 300.814641 349.082868 
L 302.352877 348.992035 
L 303.91633 349.934006 
L 305.454565 338.08201 
L 306.993852 342.901445 
L 308.533139 351.747302 
L 310.071374 337.375233 
L 311.634827 354.928798 
L 313.122629 343.291482 
L 314.610431 350.881361 
L 316.147616 341.102959 
L 317.684801 351.294944 
L 319.223037 345.685714 
L 320.761273 355.544423 
L 322.324726 353.903096 
L 323.862962 351.672835 
L 325.402248 343.481501 
L 326.941535 347.867886 
L 328.479771 351.120241 
L 330.043224 353.820118 
L 331.531025 348.202937 
L 333.017777 353.178148 
L 334.554962 352.992833 
L 336.093198 344.306431 
L 337.631433 345.608167 
L 339.169669 347.631409 
L 340.733122 346.673122 
L 342.271358 353.201188 
L 343.809594 354.132379 
L 345.34888 340.86753 
L 346.888167 353.048869 
L 348.45162 353.980518 
L 349.964639 344.753162 
L 351.476607 355.772574 
L 353.013792 349.065183 
L 354.552028 350.596367 
L 356.090264 348.992035 
L 357.6285 358.12792 
L 359.191952 352.542975 
L 360.730188 348.472377 
L 362.268424 346.410688 
L 363.807711 349.178832 
L 365.346997 348.14581 
L 366.91045 350.031758 
L 368.398252 348.871366 
L 369.885003 346.151138 
L 371.422188 356.402753 
L 372.960424 349.740853 
L 374.49866 350.050057 
L 376.036896 354.078681 
L 377.600349 350.256747 
L 379.138584 353.505783 
L 380.67682 347.271446 
L 382.216107 354.311496 
L 383.755393 348.327704 
L 386.806648 348.160564 
L 388.293399 350.718573 
L 389.830585 349.429636 
L 391.36882 354.685987 
L 392.907056 357.468698 
L 394.445292 343.719794 
L 396.008745 345.282728 
L 397.546981 349.205346 
L 399.085217 364.149017 
L 400.624503 344.602751 
L 402.16379 353.403263 
L 403.727243 355.151755 
L 405.215044 347.485248 
L 406.701796 345.98988 
L 408.238981 344.826592 
L 409.777217 351.924127 
L 411.315452 349.668418 
L 412.853688 348.992035 
L 414.417141 354.693907 
L 415.955377 350.268866 
L 417.493613 352.848355 
L 419.032899 354.902386 
L 420.572186 349.987486 
L 422.135639 352.636008 
L 423.648658 352.576034 
L 425.160626 348.100288 
L 426.697811 351.811924 
L 428.236047 347.436119 
L 429.774283 351.477498 
L 431.312519 351.185496 
L 432.875971 346.062778 
L 434.414207 353.453962 
L 435.952443 357.70615 
L 437.49173 347.507331 
L 439.031016 354.312904 
L 440.594469 349.733746 
L 442.082271 346.535109 
L 443.569022 353.000637 
L 445.106207 354.892742 
L 446.644443 347.313266 
L 448.182679 351.417867 
L 449.720915 357.148716 
L 451.284368 348.430584 
L 452.822604 352.046304 
L 454.360839 351.022231 
L 455.900126 348.215174 
L 457.439412 349.055193 
L 459.002865 354.252758 
L 460.490667 347.549049 
L 461.977418 354.809776 
L 463.514604 348.801102 
L 465.052839 356.263565 
L 466.591075 350.900711 
L 468.129311 353.214631 
L 469.692764 356.051563 
L 471.231 349.746533 
L 472.769236 356.99245 
L 474.308522 359.066954 
L 475.847809 351.406763 
L 477.411262 345.430937 
L 478.899063 357.322694 
L 480.385815 353.623954 
L 481.923 354.642626 
L 483.461236 350.532724 
L 484.999472 351.455879 
L 486.537707 354.421531 
L 488.10116 354.819613 
L 489.639396 353.259099 
L 491.177632 354.011965 
L 492.716918 353.969568 
L 494.256205 353.730064 
L 495.819658 347.995831 
L 497.332677 357.079253 
L 498.844645 349.803562 
L 500.38183 357.16785 
L 501.920066 353.937181 
L 503.458302 353.711705 
L 504.996538 351.218954 
L 506.55999 354.64791 
L 508.098226 353.286892 
L 509.636462 358.920042 
L 511.175749 356.185702 
L 512.715035 361.804337 
L 514.278488 356.920596 
L 515.76629 355.081916 
L 517.253041 356.182609 
L 518.790226 361.933371 
L 520.328462 358.850724 
L 521.866698 356.077007 
L 523.404934 359.457215 
L 524.968387 360.691682 
L 526.506623 358.202339 
L 528.044858 359.473564 
L 529.584145 362.263884 
L 531.123432 359.511194 
L 532.686884 359.008769 
L 534.174686 359.792819 
L 535.661437 357.063522 
L 537.198623 361.995882 
L 538.736858 360.164166 
L 540.275094 363.393798 
L 541.81333 357.065136 
L 543.376783 361.145111 
L 544.915019 356.571982 
L 546.453255 360.267925 
L 547.992541 362.97958 
L 549.531828 356.661133 
L 551.095281 362.241333 
L 552.583083 358.583678 
L 554.069834 360.050846 
L 555.607019 361.165219 
L 557.145255 361.778909 
L 558.683491 362.043738 
L 558.683491 362.043738 
" style="fill:none;stroke:#d95319;stroke-linecap:square;stroke-width:1.5;"/>
   </g>
   <g id="line2d_25">
    <path clip-path="url(#p830f7e4abb)" d="M 93.558374 382.055238 
L 102.810905 382.055238 
L 104.350191 291.131429 
L 105.889478 382.055238 
L 111.96677 382.055238 
L 113.503955 354.078681 
L 115.04114 382.055238 
L 121.219301 382.055238 
L 122.758587 370.689762 
L 124.297874 382.055238 
L 127.399563 382.055238 
L 128.912582 361.849947 
L 130.4256 382.055238 
L 131.962786 372.962857 
L 133.499971 382.055238 
L 138.139895 382.055238 
L 139.678131 371.03417 
L 141.217418 353.342456 
L 142.756704 373.184623 
L 144.29494 372.225637 
L 145.858393 372.225637 
L 147.346195 351.747302 
L 148.833997 382.055238 
L 150.371182 373.789437 
L 151.908367 361.072821 
L 153.446603 357.808889 
L 154.984839 366.578845 
L 156.548292 323.394716 
L 158.086527 369.294002 
L 159.625814 360.971456 
L 161.1651 375.193064 
L 162.703336 339.267563 
L 164.266789 366.242402 
L 165.754591 364.527757 
L 167.242393 365.709385 
L 168.779578 382.055238 
L 170.316763 369.066122 
L 171.854999 354.382774 
L 173.393235 363.870476 
L 174.956688 377.61993 
L 176.494924 372.962857 
L 178.03421 359.673993 
L 179.573497 369.18107 
L 181.111733 369.932063 
L 182.675185 371.858175 
L 184.162987 369.066122 
L 185.650789 350.429565 
L 187.187974 351.99778 
L 188.72516 353.088361 
L 190.263395 358.910996 
L 191.801631 369.368195 
L 193.365084 353.190537 
L 196.442606 366.741754 
L 197.981893 365.415587 
L 199.520129 346.961838 
L 201.083582 363.756107 
L 202.596601 358.591029 
L 204.109619 364.070309 
L 205.646805 371.03417 
L 207.18399 346.134721 
L 208.722226 352.319149 
L 210.260461 366.625743 
L 211.823914 374.14882 
L 213.36215 357.954951 
L 214.901437 353.530121 
L 216.440723 366.795298 
L 217.978959 349.891714 
L 221.030214 354.256876 
L 222.518016 361.272653 
L 224.055201 343.087891 
L 225.592386 360.430116 
L 227.130622 353.048869 
L 228.668858 363.640289 
L 230.232311 366.043498 
L 231.770546 360.81756 
L 233.309833 336.593333 
L 234.84912 366.340012 
L 236.387355 371.420874 
L 237.950808 354.078681 
L 239.43861 360.520652 
L 240.926412 361.272653 
L 242.463597 351.196248 
L 244.000782 365.139181 
L 245.539018 369.066122 
L 247.077254 357.916174 
L 248.640707 360.54638 
L 250.178943 360.267044 
L 251.718229 357.397934 
L 253.257516 371.358319 
L 254.795752 361.498551 
L 256.359204 355.280129 
L 257.847006 345.858082 
L 259.334808 350.881361 
L 260.871993 348.346899 
L 262.409179 355.167263 
L 263.947414 364.681262 
L 265.48565 364.804871 
L 267.049103 360.869108 
L 268.587339 368.8898 
L 270.126626 360.502928 
L 271.665912 368.416667 
L 273.204148 348.860831 
L 274.767601 361.312164 
L 276.28062 358.871478 
L 277.793638 371.128772 
L 279.330824 358.108227 
L 280.868009 366.00986 
L 282.406245 361.546108 
L 283.94448 359.407549 
L 285.507933 360.388288 
L 287.046169 353.40801 
L 288.585456 366.204114 
L 290.124742 351.102452 
L 291.662978 365.250838 
L 293.226431 353.210443 
L 294.714233 359.878699 
L 296.202035 354.078681 
L 297.73922 364.787808 
L 299.276405 354.548876 
L 300.814641 361.072821 
L 303.91633 363.4042 
L 305.454565 357.320297 
L 306.993852 362.913383 
L 308.533139 358.377163 
L 310.071374 360.608836 
L 311.634827 351.914749 
L 313.122629 362.67336 
L 314.610431 356.942948 
L 316.147616 365.479316 
L 317.684801 352.199659 
L 319.223037 357.217515 
L 320.761273 363.00059 
L 322.324726 357.70744 
L 323.862962 360.608836 
L 325.402248 363.949198 
L 326.941535 351.504838 
L 328.479771 367.00578 
L 330.043224 359.198236 
L 333.017777 347.714915 
L 334.554962 360.466023 
L 336.093198 355.19551 
L 337.631433 357.240211 
L 339.169669 354.366506 
L 340.733122 357.370041 
L 342.271358 357.227334 
L 343.809594 356.226594 
L 345.34888 368.844086 
L 346.888167 357.511388 
L 348.45162 352.704394 
L 349.964639 351.535358 
L 351.476607 362.875997 
L 353.013792 353.892996 
L 354.552028 358.269263 
L 356.090264 347.695438 
L 357.6285 359.922469 
L 359.191952 364.695084 
L 360.730188 357.761254 
L 362.268424 352.452137 
L 363.807711 344.384357 
L 365.346997 362.108516 
L 366.91045 355.178389 
L 368.398252 356.835495 
L 369.885003 362.773406 
L 371.422188 351.272256 
L 372.960424 351.641699 
L 374.49866 352.959619 
L 376.036896 361.235475 
L 377.600349 359.531307 
L 379.138584 349.1613 
L 380.67682 333.460234 
L 382.216107 355.320359 
L 383.755393 351.700458 
L 385.318846 362.715462 
L 386.806648 355.154703 
L 388.293399 354.042158 
L 389.830585 356.917479 
L 391.36882 353.633324 
L 392.907056 354.685316 
L 394.445292 353.057915 
L 396.008745 347.801393 
L 397.546981 343.573935 
L 399.085217 319.582424 
L 400.624503 351.371273 
L 402.16379 358.024549 
L 403.727243 347.678565 
L 405.215044 355.062232 
L 406.701796 358.156507 
L 408.238981 357.713431 
L 409.777217 365.928728 
L 411.315452 353.169696 
L 412.853688 356.622005 
L 414.417141 357.640511 
L 415.955377 353.964955 
L 417.493613 339.635717 
L 419.032899 356.814559 
L 420.572186 358.591029 
L 422.135639 356.681152 
L 423.648658 353.286376 
L 425.160626 351.495783 
L 426.697811 350.260985 
L 428.236047 357.160591 
L 429.774283 355.794355 
L 431.312519 358.281988 
L 432.875971 349.833417 
L 434.414207 355.572575 
L 435.952443 339.213172 
L 437.49173 357.871703 
L 439.031016 348.899765 
L 440.594469 356.323565 
L 442.082271 355.029053 
L 443.569022 355.735188 
L 445.106207 353.834463 
L 446.644443 359.206914 
L 448.182679 356.359379 
L 449.720915 352.647537 
L 451.284368 359.066954 
L 452.822604 343.891702 
L 454.360839 336.230798 
L 455.900126 352.658818 
L 457.439412 356.697308 
L 459.002865 350.050057 
L 460.490667 347.203987 
L 461.977418 345.93916 
L 463.514604 353.351668 
L 465.052839 351.692889 
L 466.591075 353.6098 
L 468.129311 349.268021 
L 469.692764 353.201845 
L 471.231 354.489095 
L 472.769236 348.163513 
L 474.308522 349.116801 
L 475.847809 351.990543 
L 477.411262 350.208019 
L 478.899063 352.249351 
L 480.385815 352.216465 
L 481.923 357.192636 
L 483.461236 354.261194 
L 484.999472 352.038724 
L 486.537707 353.827258 
L 488.10116 351.166053 
L 489.639396 349.803562 
L 491.177632 350.8318 
L 492.716918 344.040291 
L 494.256205 350.047791 
L 495.819658 344.737974 
L 497.332677 349.502269 
L 498.844645 351.243369 
L 500.38183 346.703835 
L 501.920066 345.002472 
L 503.458302 355.11485 
L 504.996538 353.524471 
L 506.55999 350.536811 
L 508.098226 348.800086 
L 509.636462 346.73053 
L 511.175749 350.352376 
L 512.715035 350.857904 
L 514.278488 346.624478 
L 515.76629 345.300381 
L 517.253041 348.79043 
L 518.790226 343.913789 
L 520.328462 353.167986 
L 521.866698 351.081193 
L 523.404934 351.215583 
L 524.968387 345.50554 
L 526.506623 355.005558 
L 528.044858 352.525356 
L 529.584145 346.896479 
L 531.123432 343.868388 
L 532.686884 346.058848 
L 534.174686 352.29629 
L 535.661437 350.486754 
L 537.198623 345.279751 
L 538.736858 349.543745 
L 540.275094 351.020452 
L 541.81333 352.156366 
L 543.376783 345.638725 
L 544.915019 344.500966 
L 546.453255 349.947619 
L 549.531828 347.407349 
L 551.095281 349.472372 
L 552.583083 342.404253 
L 554.069834 350.294181 
L 555.607019 354.271512 
L 557.145255 352.280088 
L 558.683491 347.356399 
L 558.683491 347.356399 
" style="fill:none;stroke:#edb120;stroke-linecap:square;stroke-width:1.5;"/>
   </g>
   <g id="line2d_26">
    <path clip-path="url(#p830f7e4abb)" d="M 93.558374 382.055238 
L 158.086527 382.055238 
L 159.625814 376.784293 
L 161.1651 382.055238 
L 162.703336 376.706779 
L 164.266789 374.14882 
L 165.754591 382.055238 
L 167.242393 382.055238 
L 168.779578 371.198664 
L 170.316763 382.055238 
L 171.854999 374.14882 
L 173.393235 378.418286 
L 174.956688 382.055238 
L 178.03421 382.055238 
L 179.573497 378.836696 
L 181.111733 378.01418 
L 182.675185 378.656217 
L 184.162987 382.055238 
L 185.650789 378.102029 
L 187.187974 379.049492 
L 188.72516 382.055238 
L 190.263395 378.748918 
L 191.801631 382.055238 
L 193.365084 373.395828 
L 194.90332 382.055238 
L 199.520129 382.055238 
L 201.083582 372.905672 
L 202.596601 379.122212 
L 204.109619 382.055238 
L 205.646805 379.299971 
L 207.18399 379.810206 
L 208.722226 379.767847 
L 210.260461 377.646811 
L 211.823914 380.92575 
L 213.36215 375.482433 
L 214.901437 382.055238 
L 216.440723 379.511915 
L 217.978959 379.581121 
L 219.542412 376.060262 
L 221.030214 375.105648 
L 222.518016 382.055238 
L 224.055201 379.890385 
L 225.592386 382.055238 
L 227.130622 379.823979 
L 228.668858 382.055238 
L 230.232311 382.055238 
L 231.770546 379.400528 
L 233.309833 379.890385 
L 234.84912 380.932722 
L 236.387355 371.420874 
L 239.43861 377.269774 
L 240.926412 377.898721 
L 242.463597 382.055238 
L 245.539018 377.725533 
L 247.077254 377.227425 
L 248.640707 374.233835 
L 250.178943 382.055238 
L 251.718229 371.267667 
L 253.257516 373.141139 
L 254.795752 369.404969 
L 256.359204 366.436424 
L 257.847006 371.713193 
L 259.334808 375.12771 
L 260.871993 367.862253 
L 262.409179 376.394612 
L 263.947414 379.738708 
L 265.48565 376.305116 
L 267.049103 373.227684 
L 268.587339 368.8898 
L 270.126626 373.973122 
L 271.665912 380.539841 
L 273.204148 371.952593 
L 274.767601 376.523752 
L 276.28062 379.157268 
L 277.793638 372.689695 
L 279.330824 371.578421 
L 280.868009 376.706779 
L 282.406245 373.851586 
L 283.94448 378.058587 
L 285.507933 369.674124 
L 287.046169 379.564175 
L 288.585456 379.413384 
L 290.124742 379.475839 
L 291.662978 373.653038 
L 293.226431 368.259901 
L 294.714233 358.400263 
L 296.202035 330.764884 
L 297.73922 317.302377 
L 299.276405 335.192546 
L 300.814641 340.090403 
L 302.352877 337.970967 
L 303.91633 332.319137 
L 306.993852 347.251866 
L 308.533139 347.95881 
L 310.071374 351.672835 
L 311.634827 346.891334 
L 313.122629 341.011261 
L 314.610431 338.758186 
L 316.147616 349.878448 
L 319.223037 342.137468 
L 320.761273 336.489775 
L 322.324726 330.316167 
L 323.862962 335.588033 
L 325.402248 358.438664 
L 326.941535 354.4144 
L 328.479771 342.759431 
L 330.043224 341.047087 
L 331.531025 354.278991 
L 333.017777 354.739072 
L 334.554962 344.689289 
L 336.093198 357.373326 
L 337.631433 354.913802 
L 339.169669 351.37313 
L 340.733122 335.976203 
L 342.271358 336.425577 
L 343.809594 337.378664 
L 345.34888 347.084542 
L 346.888167 348.586351 
L 348.45162 341.857343 
L 349.964639 339.666516 
L 351.476607 338.014018 
L 353.013792 346.651277 
L 354.552028 342.923472 
L 356.090264 352.233525 
L 357.6285 344.369712 
L 359.191952 350.80696 
L 360.730188 345.614261 
L 362.268424 347.618978 
L 363.807711 351.233608 
L 365.346997 356.78939 
L 366.91045 359.753172 
L 368.398252 354.844463 
L 369.885003 348.810701 
L 371.422188 363.813471 
L 372.960424 349.107237 
L 374.49866 358.778743 
L 376.036896 344.319417 
L 377.600349 344.29453 
L 379.138584 353.505783 
L 380.67682 358.525026 
L 382.216107 319.001279 
L 383.755393 350.576207 
L 385.318846 354.120006 
L 386.806648 353.00266 
L 388.293399 347.394987 
L 389.830585 352.103866 
L 391.36882 358.896641 
L 392.907056 351.901934 
L 394.445292 362.396036 
L 396.008745 361.905917 
L 397.546981 359.060313 
L 399.085217 348.232377 
L 400.624503 354.078681 
L 402.16379 351.092619 
L 403.727243 348.67499 
L 405.215044 344.170317 
L 406.701796 351.638671 
L 408.238981 348.167624 
L 409.777217 345.5584 
L 411.315452 352.294376 
L 412.853688 356.622005 
L 414.417141 353.010132 
L 415.955377 351.747302 
L 417.493613 353.891458 
L 419.032899 357.961863 
L 420.572186 348.423205 
L 422.135639 353.371488 
L 423.648658 355.417403 
L 425.160626 352.250338 
L 426.697811 348.322311 
L 428.236047 343.546331 
L 429.774283 343.922998 
L 431.312519 343.734179 
L 432.875971 356.003553 
L 434.414207 345.332612 
L 435.952443 350.308959 
L 437.49173 354.102841 
L 439.031016 347.884802 
L 440.594469 352.871755 
L 442.082271 344.604667 
L 443.569022 340.011522 
L 446.644443 349.191211 
L 448.182679 344.829186 
L 449.720915 350.246909 
L 451.284368 341.225301 
L 452.822604 344.54407 
L 454.360839 350.442175 
L 455.900126 350.949724 
L 457.439412 351.834144 
L 459.002865 343.261079 
L 460.490667 349.964482 
L 461.977418 342.454276 
L 463.514604 351.251407 
L 465.052839 342.551536 
L 466.591075 344.466624 
L 468.129311 341.678388 
L 469.692764 349.283483 
L 471.231 347.078842 
L 472.769236 351.011557 
L 474.308522 343.283953 
L 475.847809 348.779751 
L 477.411262 347.978714 
L 478.899063 345.590589 
L 480.385815 347.149503 
L 481.923 348.586351 
L 483.461236 340.364172 
L 484.999472 347.084542 
L 486.537707 342.536066 
L 488.10116 348.508919 
L 489.639396 346.923948 
L 491.177632 357.19213 
L 492.716918 347.444615 
L 494.256205 353.446812 
L 495.819658 356.880893 
L 497.332677 346.695979 
L 498.844645 351.243369 
L 500.38183 351.794437 
L 501.920066 352.097682 
L 503.458302 345.012205 
L 504.996538 350.642575 
L 506.55999 347.247932 
L 508.098226 348.800086 
L 509.636462 349.964482 
L 511.175749 354.156719 
L 512.715035 354.689155 
L 514.278488 352.983845 
L 515.76629 356.860376 
L 517.253041 351.747302 
L 518.790226 355.025864 
L 520.328462 362.875997 
L 521.866698 349.83224 
L 523.404934 353.608315 
L 524.968387 358.632544 
L 526.506623 353.776028 
L 528.044858 358.822169 
L 529.584145 359.004131 
L 531.123432 356.520658 
L 532.686884 357.691827 
L 534.174686 352.069122 
L 535.661437 355.967394 
L 537.198623 359.607863 
L 538.736858 357.12976 
L 540.275094 362.785273 
L 541.81333 357.511388 
L 543.376783 359.73544 
L 544.915019 355.454296 
L 546.453255 361.223509 
L 547.992541 362.560335 
L 551.095281 359.379324 
L 552.583083 363.141263 
L 554.069834 359.843257 
L 555.607019 359.076217 
L 557.145255 363.422936 
L 558.683491 362.22733 
L 558.683491 362.22733 
" style="fill:none;stroke:#7e2f8e;stroke-linecap:square;stroke-width:1.5;"/>
   </g>
   <g id="line2d_27">
    <path clip-path="url(#p830f7e4abb)" d="M 93.558374 382.055238 
L 139.678131 382.055238 
L 141.217418 372.484311 
L 142.756704 382.055238 
L 145.858393 382.055238 
L 147.346195 371.952593 
L 148.833997 372.729719 
L 150.371182 365.523636 
L 151.908367 382.055238 
L 153.446603 373.973122 
L 154.984839 374.317042 
L 156.548292 358.591029 
L 158.086527 350.152147 
L 159.625814 371.513347 
L 161.1651 375.193064 
L 162.703336 349.964482 
L 164.266789 334.616729 
L 165.754591 368.909627 
L 167.242393 373.882311 
L 168.779578 376.626951 
L 170.316763 369.066122 
L 171.854999 370.195611 
L 173.393235 378.418286 
L 174.956688 377.61993 
L 176.494924 368.416667 
L 178.03421 373.662271 
L 179.573497 369.18107 
L 181.111733 349.726772 
L 182.675185 375.257196 
L 184.162987 365.818844 
L 185.650789 378.102029 
L 187.187974 364.020763 
L 188.72516 369.18107 
L 190.263395 375.442597 
L 191.801631 356.681152 
L 193.365084 367.622887 
L 194.90332 366.103693 
L 196.442606 355.256642 
L 197.981893 372.546866 
L 199.520129 378.864929 
L 201.083582 370.618281 
L 202.596601 382.055238 
L 204.109619 380.056913 
L 205.646805 365.523636 
L 207.18399 375.320141 
L 208.722226 377.480455 
L 210.260461 373.238384 
L 211.823914 368.501378 
L 213.36215 371.100562 
L 214.901437 377.301052 
L 216.440723 371.881945 
L 217.978959 369.684652 
L 219.542412 370.065285 
L 221.030214 377.422178 
L 222.518016 369.585687 
L 224.055201 379.890385 
L 225.592386 360.430116 
L 227.130622 370.898942 
L 228.668858 372.847764 
L 230.232311 372.905672 
L 231.770546 374.091109 
L 233.309833 375.56068 
L 234.84912 330.419494 
L 236.387355 365.040256 
L 237.950808 374.425268 
L 239.43861 367.698847 
L 240.926412 369.585687 
L 242.463597 364.42153 
L 244.000782 367.253688 
L 245.539018 364.736417 
L 247.077254 372.399612 
L 248.640707 360.54638 
L 250.178943 363.619074 
L 253.257516 357.095761 
L 254.795752 367.823685 
L 256.359204 373.130202 
L 257.847006 371.713193 
L 259.334808 369.932063 
L 260.871993 369.636376 
L 262.409179 362.243046 
L 263.947414 353.098611 
L 265.48565 361.92981 
L 267.049103 366.16564 
L 268.587339 368.8898 
L 270.126626 360.502928 
L 271.665912 360.839683 
L 273.204148 358.963477 
L 274.767601 365.460779 
L 276.28062 363.218433 
L 277.793638 361.763229 
L 279.330824 368.585044 
L 280.868009 372.695434 
L 282.406245 360.178833 
L 283.94448 374.061936 
L 285.507933 355.74537 
L 287.046169 359.635669 
L 288.585456 365.323496 
L 290.124742 362.279847 
L 291.662978 355.648323 
L 293.226431 368.259901 
L 294.714233 359.878699 
L 296.202035 356.876337 
L 297.73922 358.312522 
L 299.276405 369.830188 
L 302.352877 356.706782 
L 303.91633 362.368031 
L 305.454565 369.229713 
L 306.993852 359.433046 
L 308.533139 361.218532 
L 310.071374 357.928036 
L 311.634827 366.984993 
L 313.122629 368.373913 
L 314.610431 369.066122 
L 316.147616 362.554153 
L 317.684801 358.532661 
L 319.223037 363.426945 
L 320.761273 372.113683 
L 322.324726 360.750915 
L 323.862962 366.864037 
L 325.402248 363.161979 
L 326.941535 357.323962 
L 328.479771 364.497537 
L 330.043224 363.904089 
L 331.531025 362.09106 
L 333.017777 357.86092 
L 334.554962 372.090985 
L 337.631433 361.893029 
L 339.169669 364.843324 
L 340.733122 369.71264 
L 342.271358 353.872212 
L 343.809594 366.697666 
L 345.34888 363.4042 
L 346.888167 367.180177 
L 348.45162 375.67462 
L 349.964639 373.577494 
L 351.476607 377.082842 
L 353.013792 372.399612 
L 354.552028 355.967394 
L 356.090264 365.199487 
L 357.6285 356.931554 
L 359.191952 363.827076 
L 360.730188 360.619369 
L 362.268424 351.847992 
L 363.807711 356.028084 
L 365.346997 356.78939 
L 366.91045 353.462845 
L 368.398252 352.853431 
L 369.885003 369.422314 
L 371.422188 367.803857 
L 372.960424 365.581238 
L 374.49866 365.179779 
L 376.036896 361.235475 
L 377.600349 360.856244 
L 379.138584 357.850265 
L 380.67682 354.432815 
L 382.216107 349.771611 
L 383.755393 364.06722 
L 385.318846 355.194438 
L 386.806648 367.528949 
L 388.293399 365.437309 
L 389.830585 362.265938 
L 391.36882 362.054632 
L 392.907056 356.077007 
L 394.445292 357.481236 
L 396.008745 362.913383 
L 397.546981 361.406734 
L 399.085217 364.149017 
L 400.624503 364.005847 
L 402.16379 362.645835 
L 403.727243 368.105284 
L 405.215044 363.112778 
L 406.701796 364.23982 
L 408.238981 366.304657 
L 409.777217 358.714237 
L 411.315452 359.296932 
L 412.853688 362.556426 
L 414.417141 364.796552 
L 415.955377 355.073782 
L 417.493613 358.759272 
L 419.032899 356.814559 
L 420.572186 362.892801 
L 422.135639 358.152113 
L 423.648658 356.127746 
L 425.160626 354.891278 
L 426.697811 363.443968 
L 428.236047 365.329147 
L 429.774283 359.391737 
L 431.312519 360.056111 
L 432.875971 365.601542 
L 434.414207 359.809801 
L 435.952443 357.089718 
L 437.49173 357.557631 
L 439.031016 366.830786 
L 440.594469 361.344379 
L 442.082271 357.731671 
L 443.569022 356.077007 
L 445.106207 352.423424 
L 446.644443 351.382146 
L 448.182679 354.382774 
L 449.720915 342.744944 
L 451.284368 353.920323 
L 452.822604 347.479727 
L 454.360839 350.152147 
L 455.900126 349.924268 
L 457.439412 355.655202 
L 459.002865 354.252758 
L 460.490667 356.520658 
L 461.977418 351.641699 
L 465.052839 356.590042 
L 466.591075 339.387082 
L 468.129311 355.946899 
L 469.692764 347.146195 
L 471.231 351.524994 
L 472.769236 345.885077 
L 474.308522 349.803019 
L 475.847809 351.406763 
L 477.411262 349.571075 
L 478.899063 355.737274 
L 480.385815 355.875937 
L 481.923 349.861356 
L 483.461236 352.227483 
L 484.999472 345.62743 
L 486.537707 353.530121 
L 488.10116 349.173203 
L 489.639396 343.468412 
L 491.177632 343.893258 
L 492.716918 342.054436 
L 494.256205 343.816253 
L 495.819658 347.107324 
L 497.332677 351.466673 
L 498.844645 349.227639 
L 500.38183 346.138212 
L 501.920066 348.418684 
L 503.458302 349.782898 
L 504.996538 348.913437 
L 506.55999 350.536811 
L 508.098226 353.022962 
L 509.636462 348.96942 
L 511.175749 339.192968 
L 512.715035 342.92174 
L 514.278488 349.955575 
L 515.76629 346.189612 
L 517.253041 347.065588 
L 518.790226 352.022601 
L 520.328462 352.931205 
L 521.866698 355.577425 
L 523.404934 349.886288 
L 524.968387 356.058622 
L 526.506623 353.038309 
L 528.044858 340.583124 
L 529.584145 353.648824 
L 531.123432 357.900905 
L 532.686884 357.472337 
L 534.174686 360.474321 
L 535.661437 355.090492 
L 537.198623 353.876618 
L 538.736858 358.213476 
L 540.275094 335.60448 
L 541.81333 350.371358 
L 543.376783 353.391918 
L 544.915019 358.136744 
L 546.453255 357.59229 
L 547.992541 355.852411 
L 549.531828 353.863477 
L 551.095281 354.75608 
L 552.583083 360.178833 
L 554.069834 354.030776 
L 555.607019 358.031716 
L 557.145255 362.692257 
L 558.683491 362.778105 
L 558.683491 362.778105 
" style="fill:none;stroke:#77ac30;stroke-linecap:square;stroke-width:1.5;"/>
   </g>
   <g id="line2d_28">
    <path clip-path="url(#p830f7e4abb)" d="M 93.558374 18.36 
L 102.810905 18.36 
L 104.350191 109.28381 
L 105.889478 91.099048 
L 107.427714 18.36 
L 108.991166 18.36 
L 110.478968 139.591746 
L 111.96677 242.172454 
L 113.503955 186.219341 
L 115.04114 139.591746 
L 116.579376 210.904538 
L 118.117612 103.93535 
L 119.681065 78.975873 
L 121.219301 210.904538 
L 122.758587 234.304048 
L 124.297874 270.149011 
L 125.83611 219.019442 
L 127.399563 267.20411 
L 128.912582 240.618201 
L 130.4256 247.353298 
L 131.962786 254.761905 
L 133.499971 291.131429 
L 135.038207 294.768381 
L 136.576442 291.131429 
L 138.139895 192.933714 
L 139.678131 194.697085 
L 141.217418 343.771529 
L 142.756704 311.090314 
L 144.29494 323.077632 
L 145.858393 303.41843 
L 147.346195 321.439365 
L 148.833997 326.102125 
L 150.371182 324.194632 
L 151.908367 368.06696 
L 153.446603 325.480423 
L 154.984839 327.887862 
L 156.548292 340.992873 
L 158.086527 337.390911 
L 159.625814 329.345783 
L 161.1651 334.020018 
L 162.703336 355.312941 
L 164.266789 334.616729 
L 165.754591 333.854664 
L 167.242393 341.190605 
L 168.779578 344.057228 
L 170.316763 334.428481 
L 171.854999 330.66352 
L 173.393235 363.870476 
L 174.956688 342.137468 
L 176.494924 354.778095 
L 178.03421 328.89978 
L 179.573497 336.995651 
L 181.111733 361.849947 
L 182.675185 320.872862 
L 184.162987 352.829728 
L 185.650789 362.289193 
L 187.187974 358.009272 
L 188.72516 356.306903 
L 190.263395 362.217316 
L 191.801631 352.452137 
L 193.365084 361.849947 
L 194.90332 343.771529 
L 196.442606 347.5999 
L 197.981893 332.136284 
L 199.520129 369.294002 
L 202.596601 367.390108 
L 204.109619 350.08203 
L 205.646805 360.013102 
L 207.18399 355.11485 
L 208.722226 347.744367 
L 210.260461 364.42153 
L 211.823914 367.37189 
L 213.36215 362.336822 
L 214.901437 353.530121 
L 216.440723 336.275418 
L 217.978959 352.365831 
L 219.542412 356.077007 
L 221.030214 365.839527 
L 222.518016 357.116136 
L 224.055201 362.571565 
L 225.592386 348.634595 
L 227.130622 357.511388 
L 228.668858 356.734684 
L 230.232311 347.744367 
L 231.770546 331.615753 
L 233.309833 353.912154 
L 234.84912 373.075109 
L 236.387355 360.786511 
L 237.950808 356.622005 
L 239.43861 353.342456 
L 240.926412 359.194395 
L 242.463597 353.400462 
L 244.000782 356.681152 
L 245.539018 364.736417 
L 247.077254 351.47909 
L 248.640707 356.635678 
L 250.178943 355.238999 
L 251.718229 360.480097 
L 253.257516 355.312941 
L 254.795752 348.848282 
L 256.359204 348.586351 
L 257.847006 349.30543 
L 259.334808 359.540771 
L 260.871993 357.217515 
L 262.409179 359.412733 
L 263.947414 356.573406 
L 265.48565 364.804871 
L 267.049103 364.400129 
L 268.587339 362.30708 
L 270.126626 357.808889 
L 271.665912 350.231905 
L 273.204148 363.293182 
L 274.767601 359.929292 
L 276.28062 358.871478 
L 277.793638 350.836763 
L 279.330824 352.121474 
L 280.868009 355.312941 
L 282.406245 346.506079 
L 283.94448 347.417596 
L 285.507933 363.483566 
L 287.046169 364.617795 
L 288.585456 362.681642 
L 290.124742 357.980849 
L 291.662978 350.847066 
L 293.226431 355.718686 
L 294.714233 346.572776 
L 296.202035 367.134408 
L 297.73922 358.312522 
L 299.276405 360.661401 
L 300.814641 364.070309 
L 302.352877 368.829957 
L 303.91633 361.331863 
L 305.454565 356.404189 
L 306.993852 365.523636 
L 308.533139 351.747302 
L 310.071374 369.544837 
L 311.634827 357.942847 
L 313.122629 367.233802 
L 314.610431 365.602358 
L 316.147616 356.703827 
L 317.684801 366.675091 
L 319.223037 366.975192 
L 320.761273 364.657516 
L 322.324726 366.076995 
L 323.862962 365.970436 
L 325.402248 363.949198 
L 326.941535 356.596571 
L 328.479771 367.841861 
L 330.043224 366.593148 
L 331.531025 361.223053 
L 333.017777 362.543691 
L 334.554962 361.296377 
L 336.093198 366.810528 
L 337.631433 356.464742 
L 339.169669 359.604915 
L 340.733122 359.838561 
L 342.271358 366.621676 
L 343.809594 360.415022 
L 345.34888 364.958453 
L 346.888167 361.973906 
L 348.45162 364.189507 
L 349.964639 352.383132 
L 351.476607 362.875997 
L 353.013792 356.306903 
L 354.552028 366.709447 
L 356.090264 363.254593 
L 357.6285 358.726103 
L 359.191952 362.09106 
L 360.730188 362.048427 
L 362.268424 367.55576 
L 363.807711 361.507485 
L 365.346997 364.768079 
L 366.91045 370.618281 
L 368.398252 363.47227 
L 369.885003 352.800045 
L 371.422188 345.001648 
L 372.960424 360.512315 
L 374.49866 365.179779 
L 376.036896 370.344121 
L 377.600349 358.868839 
L 379.138584 359.091546 
L 380.67682 354.944341 
L 382.216107 366.417856 
L 383.755393 369.12635 
L 385.318846 356.806086 
L 386.806648 363.762874 
L 388.293399 362.113724 
L 389.830585 356.382633 
L 391.36882 357.843978 
L 392.907056 368.602225 
L 394.445292 360.430116 
L 396.008745 360.394718 
L 397.546981 362.814587 
L 399.085217 359.771941 
L 400.624503 362.200907 
L 402.16379 357.100292 
L 403.727243 357.642818 
L 405.215044 364.059901 
L 406.701796 362.936253 
L 408.238981 354.372398 
L 409.777217 356.167946 
L 411.315452 359.734592 
L 412.853688 356.622005 
L 414.417141 357.219568 
L 415.955377 359.50909 
L 417.493613 360.150076 
L 419.032899 360.638904 
L 420.572186 358.982099 
L 422.135639 358.519854 
L 423.648658 355.772574 
L 425.160626 353.759447 
L 426.697811 353.362863 
L 429.774283 360.111213 
L 431.312519 358.636813 
L 432.875971 356.346338 
L 434.414207 355.572575 
L 435.952443 361.712962 
L 437.49173 357.24356 
L 439.031016 352.282977 
L 440.594469 358.20637 
L 442.082271 360.43429 
L 443.569022 354.709731 
L 445.106207 361.242417 
L 446.644443 360.145886 
L 448.182679 355.041643 
L 449.720915 351.747302 
L 451.284368 354.606541 
L 452.822604 358.896169 
L 454.360839 360.593159 
L 455.900126 361.887927 
L 457.439412 356.34994 
L 459.002865 359.425312 
L 460.490667 352.724977 
L 461.977418 359.878699 
L 463.514604 353.001624 
L 465.052839 355.937088 
L 466.591075 360.72116 
L 469.692764 355.339133 
L 471.231 352.414224 
L 472.769236 358.98608 
L 474.308522 362.154933 
L 475.847809 354.325665 
L 477.411262 352.118852 
L 478.899063 353.834771 
L 480.385815 356.72043 
L 481.923 351.455113 
L 484.999472 356.992906 
L 486.537707 355.610078 
L 489.639396 357.290558 
L 491.177632 359.794083 
L 492.716918 360.210828 
L 494.256205 351.46405 
L 495.819658 357.7694 
L 497.332677 358.763028 
L 498.844645 352.107253 
L 500.38183 356.319416 
L 501.920066 354.462753 
L 503.458302 354.272963 
L 504.996538 357.270935 
L 506.55999 353.277544 
L 508.098226 353.286892 
L 509.636462 354.442262 
L 511.175749 351.366867 
L 512.715035 357.973085 
L 514.278488 355.709288 
L 515.76629 350.042943 
L 517.253041 355.443391 
L 518.790226 357.128149 
L 520.328462 355.535794 
L 521.866698 351.081193 
L 523.404934 358.393779 
L 524.968387 352.45513 
L 526.506623 351.808778 
L 528.044858 357.736512 
L 529.584145 357.607095 
L 531.123432 361.351524 
L 532.686884 355.935906 
L 534.174686 358.429814 
L 535.661437 353.775138 
L 537.198623 358.413854 
L 538.736858 351.711178 
L 540.275094 359.134122 
L 541.81333 359.519521 
L 543.376783 356.681152 
L 544.915019 357.242594 
L 546.453255 356.636706 
L 547.992541 358.367883 
L 549.531828 357.737154 
L 551.095281 358.058397 
L 552.583083 357.444282 
L 554.069834 363.164675 
L 555.607019 354.898213 
L 557.145255 354.106784 
L 558.683491 360.391413 
L 558.683491 360.391413 
" style="fill:none;stroke:#4dbeee;stroke-linecap:square;stroke-width:1.5;"/>
   </g>
   <g id="patch_3">
    <path d="M 56.292813 400.24 
L 56.292813 18.36 
" style="fill:none;stroke:#000000;stroke-linecap:square;stroke-linejoin:miter;"/>
   </g>
   <g id="patch_4">
    <path d="M 559.44 400.24 
L 559.44 18.36 
" style="fill:none;stroke:#000000;stroke-linecap:square;stroke-linejoin:miter;"/>
   </g>
   <g id="patch_5">
    <path d="M 56.292813 400.24 
L 559.44 400.24 
" style="fill:none;stroke:#000000;stroke-linecap:square;stroke-linejoin:miter;"/>
   </g>
   <g id="patch_6">
    <path d="M 56.292813 18.36 
L 559.44 18.36 
" style="fill:none;stroke:#000000;stroke-linecap:square;stroke-linejoin:miter;"/>
   </g>
   <g id="legend_1">
    <g id="patch_7">
     <path d="M 307.512 153.306 
L 552.24 153.306 
L 552.24 25.56 
L 307.512 25.56 
z
" style="fill:#ffffff;stroke:#000000;stroke-linejoin:miter;"/>
    </g>
    <g id="line2d_29">
     <path d="M 313.272 36.77175 
L 342.072 36.77175 
" style="fill:none;stroke:#0072bd;stroke-linecap:square;stroke-width:1.5;"/>
    </g>
    <g id="line2d_30"/>
    <g id="text_13">
     <!-- Optics -->
     <defs>
      <path d="M 4.828125 34.859375 
Q 4.828125 52.6875 14.390625 62.765625 
Q 23.96875 72.859375 39.109375 72.859375 
Q 49.03125 72.859375 56.984375 68.109375 
Q 64.9375 63.375 69.109375 54.90625 
Q 73.296875 46.4375 73.296875 35.6875 
Q 73.296875 24.8125 68.890625 16.21875 
Q 64.5 7.625 56.4375 3.203125 
Q 48.390625 -1.21875 39.0625 -1.21875 
Q 28.953125 -1.21875 20.984375 3.65625 
Q 13.03125 8.546875 8.921875 16.984375 
Q 4.828125 25.4375 4.828125 34.859375 
z
M 14.59375 34.71875 
Q 14.59375 21.78125 21.546875 14.328125 
Q 28.515625 6.890625 39.015625 6.890625 
Q 49.703125 6.890625 56.609375 14.40625 
Q 63.53125 21.921875 63.53125 35.75 
Q 63.53125 44.484375 60.578125 51 
Q 57.625 57.515625 51.921875 61.109375 
Q 46.234375 64.703125 39.15625 64.703125 
Q 29.109375 64.703125 21.84375 57.78125 
Q 14.59375 50.875 14.59375 34.71875 
z
" id="ArialMT-79"/>
     </defs>
     <g transform="translate(353.592 41.81175)scale(0.144 -0.144)">
      <use xlink:href="#ArialMT-79"/>
      <use x="77.783203" xlink:href="#ArialMT-112"/>
      <use x="133.398438" xlink:href="#ArialMT-116"/>
      <use x="161.181641" xlink:href="#ArialMT-105"/>
      <use x="183.398438" xlink:href="#ArialMT-99"/>
      <use x="233.398438" xlink:href="#ArialMT-115"/>
     </g>
    </g>
    <g id="line2d_31">
     <path d="M 313.272 57.141 
L 342.072 57.141 
" style="fill:none;stroke:#d95319;stroke-linecap:square;stroke-width:1.5;"/>
    </g>
    <g id="line2d_32"/>
    <g id="text_14">
     <!-- Atomic Physics -->
     <defs>
      <path d="M -0.140625 0 
L 27.34375 71.578125 
L 37.546875 71.578125 
L 66.84375 0 
L 56.0625 0 
L 47.703125 21.6875 
L 17.78125 21.6875 
L 9.90625 0 
z
M 20.515625 29.390625 
L 44.78125 29.390625 
L 37.3125 49.21875 
Q 33.890625 58.25 32.234375 64.0625 
Q 30.859375 57.171875 28.375 50.390625 
z
" id="ArialMT-65"/>
      <path d="M 6.59375 0 
L 6.59375 51.859375 
L 14.453125 51.859375 
L 14.453125 44.578125 
Q 16.890625 48.390625 20.9375 50.703125 
Q 25 53.03125 30.171875 53.03125 
Q 35.9375 53.03125 39.625 50.640625 
Q 43.3125 48.25 44.828125 43.953125 
Q 50.984375 53.03125 60.84375 53.03125 
Q 68.5625 53.03125 72.703125 48.75 
Q 76.859375 44.484375 76.859375 35.59375 
L 76.859375 0 
L 68.109375 0 
L 68.109375 32.671875 
Q 68.109375 37.9375 67.25 40.25 
Q 66.40625 42.578125 64.15625 43.984375 
Q 61.921875 45.40625 58.890625 45.40625 
Q 53.421875 45.40625 49.796875 41.765625 
Q 46.1875 38.140625 46.1875 30.125 
L 46.1875 0 
L 37.40625 0 
L 37.40625 33.6875 
Q 37.40625 39.546875 35.25 42.46875 
Q 33.109375 45.40625 28.21875 45.40625 
Q 24.515625 45.40625 21.359375 43.453125 
Q 18.21875 41.5 16.796875 37.734375 
Q 15.375 33.984375 15.375 26.90625 
L 15.375 0 
z
" id="ArialMT-109"/>
      <path d="M 7.71875 0 
L 7.71875 71.578125 
L 34.71875 71.578125 
Q 41.84375 71.578125 45.609375 70.90625 
Q 50.875 70.015625 54.4375 67.546875 
Q 58.015625 65.09375 60.1875 60.640625 
Q 62.359375 56.203125 62.359375 50.875 
Q 62.359375 41.75 56.546875 35.421875 
Q 50.734375 29.109375 35.546875 29.109375 
L 17.1875 29.109375 
L 17.1875 0 
z
M 17.1875 37.546875 
L 35.6875 37.546875 
Q 44.875 37.546875 48.734375 40.96875 
Q 52.59375 44.390625 52.59375 50.59375 
Q 52.59375 55.078125 50.3125 58.265625 
Q 48.046875 61.46875 44.34375 62.5 
Q 41.9375 63.140625 35.5 63.140625 
L 17.1875 63.140625 
z
" id="ArialMT-80"/>
      <path d="M 6.59375 0 
L 6.59375 71.578125 
L 15.375 71.578125 
L 15.375 45.90625 
Q 21.53125 53.03125 30.90625 53.03125 
Q 36.671875 53.03125 40.921875 50.75 
Q 45.171875 48.484375 47 44.484375 
Q 48.828125 40.484375 48.828125 32.859375 
L 48.828125 0 
L 40.046875 0 
L 40.046875 32.859375 
Q 40.046875 39.453125 37.1875 42.453125 
Q 34.328125 45.453125 29.109375 45.453125 
Q 25.203125 45.453125 21.75 43.421875 
Q 18.3125 41.40625 16.84375 37.9375 
Q 15.375 34.46875 15.375 28.375 
L 15.375 0 
z
" id="ArialMT-104"/>
      <path d="M 6.203125 -19.96875 
L 5.21875 -11.71875 
Q 8.109375 -12.5 10.25 -12.5 
Q 13.1875 -12.5 14.9375 -11.515625 
Q 16.703125 -10.546875 17.828125 -8.796875 
Q 18.65625 -7.46875 20.515625 -2.25 
Q 20.75 -1.515625 21.296875 -0.09375 
L 1.609375 51.859375 
L 11.078125 51.859375 
L 21.875 21.828125 
Q 23.96875 16.109375 25.640625 9.8125 
Q 27.15625 15.875 29.25 21.625 
L 40.328125 51.859375 
L 49.125 51.859375 
L 29.390625 -0.875 
Q 26.21875 -9.421875 24.46875 -12.640625 
Q 22.125 -17 19.09375 -19.015625 
Q 16.0625 -21.046875 11.859375 -21.046875 
Q 9.328125 -21.046875 6.203125 -19.96875 
z
" id="ArialMT-121"/>
     </defs>
     <g transform="translate(353.592 62.181)scale(0.144 -0.144)">
      <use xlink:href="#ArialMT-65"/>
      <use x="66.699219" xlink:href="#ArialMT-116"/>
      <use x="94.482422" xlink:href="#ArialMT-111"/>
      <use x="150.097656" xlink:href="#ArialMT-109"/>
      <use x="233.398438" xlink:href="#ArialMT-105"/>
      <use x="255.615234" xlink:href="#ArialMT-99"/>
      <use x="305.615234" xlink:href="#ArialMT-32"/>
      <use x="333.398438" xlink:href="#ArialMT-80"/>
      <use x="400.097656" xlink:href="#ArialMT-104"/>
      <use x="455.712891" xlink:href="#ArialMT-121"/>
      <use x="505.712891" xlink:href="#ArialMT-115"/>
      <use x="555.712891" xlink:href="#ArialMT-105"/>
      <use x="577.929688" xlink:href="#ArialMT-99"/>
      <use x="627.929688" xlink:href="#ArialMT-115"/>
     </g>
    </g>
    <g id="line2d_33">
     <path d="M 313.272 77.679 
L 342.072 77.679 
" style="fill:none;stroke:#edb120;stroke-linecap:square;stroke-width:1.5;"/>
    </g>
    <g id="line2d_34"/>
    <g id="text_15">
     <!-- Fluid Dynamics -->
     <defs>
      <path d="M 6.390625 0 
L 6.390625 71.578125 
L 15.1875 71.578125 
L 15.1875 0 
z
" id="ArialMT-108"/>
      <path d="M 40.578125 0 
L 40.578125 7.625 
Q 34.515625 -1.171875 24.125 -1.171875 
Q 19.53125 -1.171875 15.546875 0.578125 
Q 11.578125 2.34375 9.640625 5 
Q 7.71875 7.671875 6.9375 11.53125 
Q 6.390625 14.109375 6.390625 19.734375 
L 6.390625 51.859375 
L 15.1875 51.859375 
L 15.1875 23.09375 
Q 15.1875 16.21875 15.71875 13.8125 
Q 16.546875 10.359375 19.234375 8.375 
Q 21.921875 6.390625 25.875 6.390625 
Q 29.828125 6.390625 33.296875 8.421875 
Q 36.765625 10.453125 38.203125 13.9375 
Q 39.65625 17.4375 39.65625 24.078125 
L 39.65625 51.859375 
L 48.4375 51.859375 
L 48.4375 0 
z
" id="ArialMT-117"/>
      <path d="M 40.234375 0 
L 40.234375 6.546875 
Q 35.296875 -1.171875 25.734375 -1.171875 
Q 19.53125 -1.171875 14.328125 2.25 
Q 9.125 5.671875 6.265625 11.796875 
Q 3.421875 17.921875 3.421875 25.875 
Q 3.421875 33.640625 6 39.96875 
Q 8.59375 46.296875 13.765625 49.65625 
Q 18.953125 53.03125 25.34375 53.03125 
Q 30.03125 53.03125 33.6875 51.046875 
Q 37.359375 49.078125 39.65625 45.90625 
L 39.65625 71.578125 
L 48.390625 71.578125 
L 48.390625 0 
z
M 12.453125 25.875 
Q 12.453125 15.921875 16.640625 10.984375 
Q 20.84375 6.0625 26.5625 6.0625 
Q 32.328125 6.0625 36.34375 10.765625 
Q 40.375 15.484375 40.375 25.140625 
Q 40.375 35.796875 36.265625 40.765625 
Q 32.171875 45.75 26.171875 45.75 
Q 20.3125 45.75 16.375 40.96875 
Q 12.453125 36.1875 12.453125 25.875 
z
" id="ArialMT-100"/>
      <path d="M 7.71875 0 
L 7.71875 71.578125 
L 32.375 71.578125 
Q 40.71875 71.578125 45.125 70.5625 
Q 51.265625 69.140625 55.609375 65.4375 
Q 61.28125 60.640625 64.078125 53.1875 
Q 66.890625 45.75 66.890625 36.1875 
Q 66.890625 28.03125 64.984375 21.734375 
Q 63.09375 15.4375 60.109375 11.296875 
Q 57.125 7.171875 53.578125 4.796875 
Q 50.046875 2.4375 45.046875 1.21875 
Q 40.046875 0 33.546875 0 
z
M 17.1875 8.453125 
L 32.46875 8.453125 
Q 39.546875 8.453125 43.578125 9.765625 
Q 47.609375 11.078125 50 13.484375 
Q 53.375 16.84375 55.25 22.53125 
Q 57.125 28.21875 57.125 36.328125 
Q 57.125 47.5625 53.4375 53.59375 
Q 49.75 59.625 44.484375 61.671875 
Q 40.671875 63.140625 32.234375 63.140625 
L 17.1875 63.140625 
z
" id="ArialMT-68"/>
     </defs>
     <g transform="translate(353.592 82.719)scale(0.144 -0.144)">
      <use xlink:href="#ArialMT-70"/>
      <use x="61.083984" xlink:href="#ArialMT-108"/>
      <use x="83.300781" xlink:href="#ArialMT-117"/>
      <use x="138.916016" xlink:href="#ArialMT-105"/>
      <use x="161.132812" xlink:href="#ArialMT-100"/>
      <use x="216.748047" xlink:href="#ArialMT-32"/>
      <use x="244.53125" xlink:href="#ArialMT-68"/>
      <use x="316.748047" xlink:href="#ArialMT-121"/>
      <use x="366.748047" xlink:href="#ArialMT-110"/>
      <use x="422.363281" xlink:href="#ArialMT-97"/>
      <use x="477.978516" xlink:href="#ArialMT-109"/>
      <use x="561.279297" xlink:href="#ArialMT-105"/>
      <use x="583.496094" xlink:href="#ArialMT-99"/>
      <use x="633.496094" xlink:href="#ArialMT-115"/>
     </g>
    </g>
    <g id="line2d_35">
     <path d="M 313.272 98.3925 
L 342.072 98.3925 
" style="fill:none;stroke:#7e2f8e;stroke-linecap:square;stroke-width:1.5;"/>
    </g>
    <g id="line2d_36"/>
    <g id="text_16">
     <!-- Physics and Society -->
     <defs>
      <path d="M 4.5 23 
L 13.421875 23.78125 
Q 14.0625 18.40625 16.375 14.96875 
Q 18.703125 11.53125 23.578125 9.40625 
Q 28.46875 7.28125 34.578125 7.28125 
Q 39.984375 7.28125 44.140625 8.890625 
Q 48.296875 10.5 50.3125 13.296875 
Q 52.34375 16.109375 52.34375 19.4375 
Q 52.34375 22.796875 50.390625 25.3125 
Q 48.4375 27.828125 43.953125 29.546875 
Q 41.0625 30.671875 31.203125 33.03125 
Q 21.34375 35.40625 17.390625 37.5 
Q 12.25 40.1875 9.734375 44.15625 
Q 7.234375 48.140625 7.234375 53.078125 
Q 7.234375 58.5 10.296875 63.203125 
Q 13.375 67.921875 19.28125 70.359375 
Q 25.203125 72.796875 32.421875 72.796875 
Q 40.375 72.796875 46.453125 70.234375 
Q 52.546875 67.671875 55.8125 62.6875 
Q 59.078125 57.71875 59.328125 51.421875 
L 50.25 50.734375 
Q 49.515625 57.515625 45.28125 60.984375 
Q 41.0625 64.453125 32.8125 64.453125 
Q 24.21875 64.453125 20.28125 61.296875 
Q 16.359375 58.15625 16.359375 53.71875 
Q 16.359375 49.859375 19.140625 47.359375 
Q 21.875 44.875 33.421875 42.265625 
Q 44.96875 39.65625 49.265625 37.703125 
Q 55.515625 34.8125 58.484375 30.390625 
Q 61.46875 25.984375 61.46875 20.21875 
Q 61.46875 14.5 58.203125 9.4375 
Q 54.9375 4.390625 48.796875 1.578125 
Q 42.671875 -1.21875 35.015625 -1.21875 
Q 25.296875 -1.21875 18.71875 1.609375 
Q 12.15625 4.4375 8.421875 10.125 
Q 4.6875 15.828125 4.5 23 
z
" id="ArialMT-83"/>
     </defs>
     <g transform="translate(353.592 103.4325)scale(0.144 -0.144)">
      <use xlink:href="#ArialMT-80"/>
      <use x="66.699219" xlink:href="#ArialMT-104"/>
      <use x="122.314453" xlink:href="#ArialMT-121"/>
      <use x="172.314453" xlink:href="#ArialMT-115"/>
      <use x="222.314453" xlink:href="#ArialMT-105"/>
      <use x="244.53125" xlink:href="#ArialMT-99"/>
      <use x="294.53125" xlink:href="#ArialMT-115"/>
      <use x="344.53125" xlink:href="#ArialMT-32"/>
      <use x="372.314453" xlink:href="#ArialMT-97"/>
      <use x="427.929688" xlink:href="#ArialMT-110"/>
      <use x="483.544922" xlink:href="#ArialMT-100"/>
      <use x="539.160156" xlink:href="#ArialMT-32"/>
      <use x="566.943359" xlink:href="#ArialMT-83"/>
      <use x="633.642578" xlink:href="#ArialMT-111"/>
      <use x="689.257812" xlink:href="#ArialMT-99"/>
      <use x="739.257812" xlink:href="#ArialMT-105"/>
      <use x="761.474609" xlink:href="#ArialMT-101"/>
      <use x="817.089844" xlink:href="#ArialMT-116"/>
      <use x="844.873047" xlink:href="#ArialMT-121"/>
     </g>
    </g>
    <g id="line2d_37">
     <path d="M 313.272 118.9305 
L 342.072 118.9305 
" style="fill:none;stroke:#77ac30;stroke-linecap:square;stroke-width:1.5;"/>
    </g>
    <g id="line2d_38"/>
    <g id="text_17">
     <!-- Instrumentation and Detectors -->
     <defs>
      <path d="M 9.328125 0 
L 9.328125 71.578125 
L 18.796875 71.578125 
L 18.796875 0 
z
" id="ArialMT-73"/>
     </defs>
     <g transform="translate(353.592 123.9705)scale(0.144 -0.144)">
      <use xlink:href="#ArialMT-73"/>
      <use x="27.783203" xlink:href="#ArialMT-110"/>
      <use x="83.398438" xlink:href="#ArialMT-115"/>
      <use x="133.398438" xlink:href="#ArialMT-116"/>
      <use x="161.181641" xlink:href="#ArialMT-114"/>
      <use x="194.482422" xlink:href="#ArialMT-117"/>
      <use x="250.097656" xlink:href="#ArialMT-109"/>
      <use x="333.398438" xlink:href="#ArialMT-101"/>
      <use x="389.013672" xlink:href="#ArialMT-110"/>
      <use x="444.628906" xlink:href="#ArialMT-116"/>
      <use x="472.412109" xlink:href="#ArialMT-97"/>
      <use x="528.027344" xlink:href="#ArialMT-116"/>
      <use x="555.810547" xlink:href="#ArialMT-105"/>
      <use x="578.027344" xlink:href="#ArialMT-111"/>
      <use x="633.642578" xlink:href="#ArialMT-110"/>
      <use x="689.257812" xlink:href="#ArialMT-32"/>
      <use x="717.041016" xlink:href="#ArialMT-97"/>
      <use x="772.65625" xlink:href="#ArialMT-110"/>
      <use x="828.271484" xlink:href="#ArialMT-100"/>
      <use x="883.886719" xlink:href="#ArialMT-32"/>
      <use x="911.669922" xlink:href="#ArialMT-68"/>
      <use x="983.886719" xlink:href="#ArialMT-101"/>
      <use x="1039.501953" xlink:href="#ArialMT-116"/>
      <use x="1067.285156" xlink:href="#ArialMT-101"/>
      <use x="1122.900391" xlink:href="#ArialMT-99"/>
      <use x="1172.900391" xlink:href="#ArialMT-116"/>
      <use x="1200.683594" xlink:href="#ArialMT-111"/>
      <use x="1256.298828" xlink:href="#ArialMT-114"/>
      <use x="1289.599609" xlink:href="#ArialMT-115"/>
     </g>
    </g>
    <g id="line2d_39">
     <path d="M 313.272 139.47525 
L 342.072 139.47525 
" style="fill:none;stroke:#4dbeee;stroke-linecap:square;stroke-width:1.5;"/>
    </g>
    <g id="line2d_40"/>
    <g id="text_18">
     <!-- Chemical Physics -->
     <defs>
      <path d="M 58.796875 25.09375 
L 68.265625 22.703125 
Q 65.28125 11.03125 57.546875 4.90625 
Q 49.8125 -1.21875 38.625 -1.21875 
Q 27.046875 -1.21875 19.796875 3.484375 
Q 12.546875 8.203125 8.765625 17.140625 
Q 4.984375 26.078125 4.984375 36.328125 
Q 4.984375 47.515625 9.25 55.828125 
Q 13.53125 64.15625 21.40625 68.46875 
Q 29.296875 72.796875 38.765625 72.796875 
Q 49.515625 72.796875 56.828125 67.328125 
Q 64.15625 61.859375 67.046875 51.953125 
L 57.71875 49.75 
Q 55.21875 57.5625 50.484375 61.125 
Q 45.75 64.703125 38.578125 64.703125 
Q 30.328125 64.703125 24.78125 60.734375 
Q 19.234375 56.78125 16.984375 50.109375 
Q 14.75 43.453125 14.75 36.375 
Q 14.75 27.25 17.40625 20.4375 
Q 20.0625 13.625 25.671875 10.25 
Q 31.296875 6.890625 37.84375 6.890625 
Q 45.796875 6.890625 51.3125 11.46875 
Q 56.84375 16.0625 58.796875 25.09375 
z
" id="ArialMT-67"/>
     </defs>
     <g transform="translate(353.592 144.51525)scale(0.144 -0.144)">
      <use xlink:href="#ArialMT-67"/>
      <use x="72.216797" xlink:href="#ArialMT-104"/>
      <use x="127.832031" xlink:href="#ArialMT-101"/>
      <use x="183.447266" xlink:href="#ArialMT-109"/>
      <use x="266.748047" xlink:href="#ArialMT-105"/>
      <use x="288.964844" xlink:href="#ArialMT-99"/>
      <use x="338.964844" xlink:href="#ArialMT-97"/>
      <use x="394.580078" xlink:href="#ArialMT-108"/>
      <use x="416.796875" xlink:href="#ArialMT-32"/>
      <use x="444.580078" xlink:href="#ArialMT-80"/>
      <use x="511.279297" xlink:href="#ArialMT-104"/>
      <use x="566.894531" xlink:href="#ArialMT-121"/>
      <use x="616.894531" xlink:href="#ArialMT-115"/>
      <use x="666.894531" xlink:href="#ArialMT-105"/>
      <use x="689.111328" xlink:href="#ArialMT-99"/>
      <use x="739.111328" xlink:href="#ArialMT-115"/>
     </g>
    </g>
   </g>
  </g>
 </g>
 <defs>
  <clipPath id="p830f7e4abb">
   <rect height="381.88" width="503.147188" x="56.292813" y="18.36"/>
  </clipPath>
 </defs>
</svg>
