<?xml version="1.0" encoding="utf-8" standalone="no"?>
<!DOCTYPE svg PUBLIC "-//W3C//DTD SVG 1.1//EN"
  "http://www.w3.org/Graphics/SVG/1.1/DTD/svg11.dtd">
<!-- Created with matplotlib (https://matplotlib.org/) -->
<svg height="432pt" version="1.1" viewBox="0 0 576 432" width="576pt" xmlns="http://www.w3.org/2000/svg" xmlns:xlink="http://www.w3.org/1999/xlink">
 <defs>
  <style type="text/css">
*{stroke-linecap:butt;stroke-linejoin:round;}
  </style>
 </defs>
 <g id="figure_1">
  <g id="patch_1">
   <path d="M 0 432 
L 576 432 
L 576 0 
L 0 0 
z
" style="fill:#ffffff;"/>
  </g>
  <g id="axes_1">
   <g id="patch_2">
    <path d="M 56.292813 400.24 
L 559.44 400.24 
L 559.44 18.36 
L 56.292813 18.36 
z
" style="fill:#ffffff;"/>
   </g>
   <g id="matplotlib.axis_1">
    <g id="xtick_1">
     <g id="line2d_1">
      <path clip-path="url(#p5823f758d9)" d="M 108.20944 400.24 
L 108.20944 18.36 
" style="fill:none;stroke:#b2b2b2;stroke-linecap:square;stroke-width:0.5;"/>
     </g>
     <g id="line2d_2">
      <defs>
       <path d="M 0 0 
L 0 4 
" id="m0986ab88a9" style="stroke:#000000;stroke-width:0.5;"/>
      </defs>
      <g>
       <use style="stroke:#000000;stroke-width:0.5;" x="108.20944" xlink:href="#m0986ab88a9" y="400.24"/>
      </g>
     </g>
     <g id="text_1">
      <!-- 1995 -->
      <defs>
       <path d="M 37.25 0 
L 28.46875 0 
L 28.46875 56 
Q 25.296875 52.984375 20.140625 49.953125 
Q 14.984375 46.921875 10.890625 45.40625 
L 10.890625 53.90625 
Q 18.265625 57.375 23.78125 62.296875 
Q 29.296875 67.234375 31.59375 71.875 
L 37.25 71.875 
z
" id="ArialMT-49"/>
       <path d="M 5.46875 16.546875 
L 13.921875 17.328125 
Q 14.984375 11.375 18.015625 8.6875 
Q 21.046875 6 25.78125 6 
Q 29.828125 6 32.875 7.859375 
Q 35.9375 9.71875 37.890625 12.8125 
Q 39.84375 15.921875 41.15625 21.1875 
Q 42.484375 26.46875 42.484375 31.9375 
Q 42.484375 32.515625 42.4375 33.6875 
Q 39.796875 29.5 35.234375 26.875 
Q 30.671875 24.265625 25.34375 24.265625 
Q 16.453125 24.265625 10.296875 30.703125 
Q 4.15625 37.15625 4.15625 47.703125 
Q 4.15625 58.59375 10.578125 65.234375 
Q 17 71.875 26.65625 71.875 
Q 33.640625 71.875 39.421875 68.109375 
Q 45.21875 64.359375 48.21875 57.390625 
Q 51.21875 50.4375 51.21875 37.25 
Q 51.21875 23.53125 48.234375 15.40625 
Q 45.265625 7.28125 39.375 3.03125 
Q 33.5 -1.21875 25.59375 -1.21875 
Q 17.1875 -1.21875 11.859375 3.4375 
Q 6.546875 8.109375 5.46875 16.546875 
z
M 41.453125 48.140625 
Q 41.453125 55.71875 37.421875 60.15625 
Q 33.40625 64.59375 27.734375 64.59375 
Q 21.875 64.59375 17.53125 59.8125 
Q 13.1875 55.03125 13.1875 47.40625 
Q 13.1875 40.578125 17.3125 36.296875 
Q 21.4375 32.03125 27.484375 32.03125 
Q 33.59375 32.03125 37.515625 36.296875 
Q 41.453125 40.578125 41.453125 48.140625 
z
" id="ArialMT-57"/>
       <path d="M 4.15625 18.75 
L 13.375 19.53125 
Q 14.40625 12.796875 18.140625 9.390625 
Q 21.875 6 27.15625 6 
Q 33.5 6 37.890625 10.78125 
Q 42.28125 15.578125 42.28125 23.484375 
Q 42.28125 31 38.0625 35.34375 
Q 33.84375 39.703125 27 39.703125 
Q 22.75 39.703125 19.328125 37.765625 
Q 15.921875 35.84375 13.96875 32.765625 
L 5.71875 33.84375 
L 12.640625 70.609375 
L 48.25 70.609375 
L 48.25 62.203125 
L 19.671875 62.203125 
L 15.828125 42.96875 
Q 22.265625 47.46875 29.34375 47.46875 
Q 38.71875 47.46875 45.15625 40.96875 
Q 51.609375 34.46875 51.609375 24.265625 
Q 51.609375 14.546875 45.953125 7.46875 
Q 39.0625 -1.21875 27.15625 -1.21875 
Q 17.390625 -1.21875 11.203125 4.25 
Q 5.03125 9.71875 4.15625 18.75 
z
" id="ArialMT-53"/>
      </defs>
      <g transform="translate(94.86319 416.829375)scale(0.12 -0.12)">
       <use xlink:href="#ArialMT-49"/>
       <use x="55.615234" xlink:href="#ArialMT-57"/>
       <use x="111.230469" xlink:href="#ArialMT-57"/>
       <use x="166.845703" xlink:href="#ArialMT-53"/>
      </g>
     </g>
    </g>
    <g id="xtick_2">
     <g id="line2d_3">
      <path clip-path="url(#p5823f758d9)" d="M 200.301855 400.24 
L 200.301855 18.36 
" style="fill:none;stroke:#b2b2b2;stroke-linecap:square;stroke-width:0.5;"/>
     </g>
     <g id="line2d_4">
      <g>
       <use style="stroke:#000000;stroke-width:0.5;" x="200.301855" xlink:href="#m0986ab88a9" y="400.24"/>
      </g>
     </g>
     <g id="text_2">
      <!-- 2000 -->
      <defs>
       <path d="M 50.34375 8.453125 
L 50.34375 0 
L 3.03125 0 
Q 2.9375 3.171875 4.046875 6.109375 
Q 5.859375 10.9375 9.828125 15.625 
Q 13.8125 20.3125 21.34375 26.46875 
Q 33.015625 36.03125 37.109375 41.625 
Q 41.21875 47.21875 41.21875 52.203125 
Q 41.21875 57.421875 37.46875 61 
Q 33.734375 64.59375 27.734375 64.59375 
Q 21.390625 64.59375 17.578125 60.78125 
Q 13.765625 56.984375 13.71875 50.25 
L 4.6875 51.171875 
Q 5.609375 61.28125 11.65625 66.578125 
Q 17.71875 71.875 27.9375 71.875 
Q 38.234375 71.875 44.234375 66.15625 
Q 50.25 60.453125 50.25 52 
Q 50.25 47.703125 48.484375 43.546875 
Q 46.734375 39.40625 42.65625 34.8125 
Q 38.578125 30.21875 29.109375 22.21875 
Q 21.1875 15.578125 18.9375 13.203125 
Q 16.703125 10.84375 15.234375 8.453125 
z
" id="ArialMT-50"/>
       <path d="M 4.15625 35.296875 
Q 4.15625 48 6.765625 55.734375 
Q 9.375 63.484375 14.515625 67.671875 
Q 19.671875 71.875 27.484375 71.875 
Q 33.25 71.875 37.59375 69.546875 
Q 41.9375 67.234375 44.765625 62.859375 
Q 47.609375 58.5 49.21875 52.21875 
Q 50.828125 45.953125 50.828125 35.296875 
Q 50.828125 22.703125 48.234375 14.96875 
Q 45.65625 7.234375 40.5 3 
Q 35.359375 -1.21875 27.484375 -1.21875 
Q 17.140625 -1.21875 11.234375 6.203125 
Q 4.15625 15.140625 4.15625 35.296875 
z
M 13.1875 35.296875 
Q 13.1875 17.671875 17.3125 11.828125 
Q 21.4375 6 27.484375 6 
Q 33.546875 6 37.671875 11.859375 
Q 41.796875 17.71875 41.796875 35.296875 
Q 41.796875 52.984375 37.671875 58.78125 
Q 33.546875 64.59375 27.390625 64.59375 
Q 21.34375 64.59375 17.71875 59.46875 
Q 13.1875 52.9375 13.1875 35.296875 
z
" id="ArialMT-48"/>
      </defs>
      <g transform="translate(186.955605 416.829375)scale(0.12 -0.12)">
       <use xlink:href="#ArialMT-50"/>
       <use x="55.615234" xlink:href="#ArialMT-48"/>
       <use x="111.230469" xlink:href="#ArialMT-48"/>
       <use x="166.845703" xlink:href="#ArialMT-48"/>
      </g>
     </g>
    </g>
    <g id="xtick_3">
     <g id="line2d_5">
      <path clip-path="url(#p5823f758d9)" d="M 292.444705 400.24 
L 292.444705 18.36 
" style="fill:none;stroke:#b2b2b2;stroke-linecap:square;stroke-width:0.5;"/>
     </g>
     <g id="line2d_6">
      <g>
       <use style="stroke:#000000;stroke-width:0.5;" x="292.444705" xlink:href="#m0986ab88a9" y="400.24"/>
      </g>
     </g>
     <g id="text_3">
      <!-- 2005 -->
      <g transform="translate(279.098455 416.829375)scale(0.12 -0.12)">
       <use xlink:href="#ArialMT-50"/>
       <use x="55.615234" xlink:href="#ArialMT-48"/>
       <use x="111.230469" xlink:href="#ArialMT-48"/>
       <use x="166.845703" xlink:href="#ArialMT-53"/>
      </g>
     </g>
    </g>
    <g id="xtick_4">
     <g id="line2d_7">
      <path clip-path="url(#p5823f758d9)" d="M 384.53712 400.24 
L 384.53712 18.36 
" style="fill:none;stroke:#b2b2b2;stroke-linecap:square;stroke-width:0.5;"/>
     </g>
     <g id="line2d_8">
      <g>
       <use style="stroke:#000000;stroke-width:0.5;" x="384.53712" xlink:href="#m0986ab88a9" y="400.24"/>
      </g>
     </g>
     <g id="text_4">
      <!-- 2010 -->
      <g transform="translate(371.19087 416.829375)scale(0.12 -0.12)">
       <use xlink:href="#ArialMT-50"/>
       <use x="55.615234" xlink:href="#ArialMT-48"/>
       <use x="111.230469" xlink:href="#ArialMT-49"/>
       <use x="166.845703" xlink:href="#ArialMT-48"/>
      </g>
     </g>
    </g>
    <g id="xtick_5">
     <g id="line2d_9">
      <path clip-path="url(#p5823f758d9)" d="M 476.629535 400.24 
L 476.629535 18.36 
" style="fill:none;stroke:#b2b2b2;stroke-linecap:square;stroke-width:0.5;"/>
     </g>
     <g id="line2d_10">
      <g>
       <use style="stroke:#000000;stroke-width:0.5;" x="476.629535" xlink:href="#m0986ab88a9" y="400.24"/>
      </g>
     </g>
     <g id="text_5">
      <!-- 2015 -->
      <g transform="translate(463.283285 416.829375)scale(0.12 -0.12)">
       <use xlink:href="#ArialMT-50"/>
       <use x="55.615234" xlink:href="#ArialMT-48"/>
       <use x="111.230469" xlink:href="#ArialMT-49"/>
       <use x="166.845703" xlink:href="#ArialMT-53"/>
      </g>
     </g>
    </g>
   </g>
   <g id="matplotlib.axis_2">
    <g id="ytick_1">
     <g id="line2d_11">
      <path clip-path="url(#p5823f758d9)" d="M 56.292813 382.055238 
L 559.44 382.055238 
" style="fill:none;stroke:#b2b2b2;stroke-linecap:square;stroke-width:0.5;"/>
     </g>
     <g id="line2d_12">
      <defs>
       <path d="M 0 0 
L -4 0 
" id="m3946b19be9" style="stroke:#000000;stroke-width:0.5;"/>
      </defs>
      <g>
       <use style="stroke:#000000;stroke-width:0.5;" x="56.292813" xlink:href="#m3946b19be9" y="382.055238"/>
      </g>
     </g>
     <g id="text_6">
      <!-- 0.0 -->
      <defs>
       <path d="M 9.078125 0 
L 9.078125 10.015625 
L 19.09375 10.015625 
L 19.09375 0 
z
" id="ArialMT-46"/>
      </defs>
      <g transform="translate(31.612813 385.157426)scale(0.12 -0.12)">
       <use xlink:href="#ArialMT-48"/>
       <use x="55.615234" xlink:href="#ArialMT-46"/>
       <use x="83.398438" xlink:href="#ArialMT-48"/>
      </g>
     </g>
    </g>
    <g id="ytick_2">
     <g id="line2d_13">
      <path clip-path="url(#p5823f758d9)" d="M 56.292813 309.31619 
L 559.44 309.31619 
" style="fill:none;stroke:#b2b2b2;stroke-linecap:square;stroke-width:0.5;"/>
     </g>
     <g id="line2d_14">
      <g>
       <use style="stroke:#000000;stroke-width:0.5;" x="56.292813" xlink:href="#m3946b19be9" y="309.31619"/>
      </g>
     </g>
     <g id="text_7">
      <!-- 0.2 -->
      <g transform="translate(31.612813 312.418378)scale(0.12 -0.12)">
       <use xlink:href="#ArialMT-48"/>
       <use x="55.615234" xlink:href="#ArialMT-46"/>
       <use x="83.398438" xlink:href="#ArialMT-50"/>
      </g>
     </g>
    </g>
    <g id="ytick_3">
     <g id="line2d_15">
      <path clip-path="url(#p5823f758d9)" d="M 56.292813 236.577143 
L 559.44 236.577143 
" style="fill:none;stroke:#b2b2b2;stroke-linecap:square;stroke-width:0.5;"/>
     </g>
     <g id="line2d_16">
      <g>
       <use style="stroke:#000000;stroke-width:0.5;" x="56.292813" xlink:href="#m3946b19be9" y="236.577143"/>
      </g>
     </g>
     <g id="text_8">
      <!-- 0.4 -->
      <defs>
       <path d="M 32.328125 0 
L 32.328125 17.140625 
L 1.265625 17.140625 
L 1.265625 25.203125 
L 33.9375 71.578125 
L 41.109375 71.578125 
L 41.109375 25.203125 
L 50.78125 25.203125 
L 50.78125 17.140625 
L 41.109375 17.140625 
L 41.109375 0 
z
M 32.328125 25.203125 
L 32.328125 57.46875 
L 9.90625 25.203125 
z
" id="ArialMT-52"/>
      </defs>
      <g transform="translate(31.612813 239.67933)scale(0.12 -0.12)">
       <use xlink:href="#ArialMT-48"/>
       <use x="55.615234" xlink:href="#ArialMT-46"/>
       <use x="83.398438" xlink:href="#ArialMT-52"/>
      </g>
     </g>
    </g>
    <g id="ytick_4">
     <g id="line2d_17">
      <path clip-path="url(#p5823f758d9)" d="M 56.292813 163.838095 
L 559.44 163.838095 
" style="fill:none;stroke:#b2b2b2;stroke-linecap:square;stroke-width:0.5;"/>
     </g>
     <g id="line2d_18">
      <g>
       <use style="stroke:#000000;stroke-width:0.5;" x="56.292813" xlink:href="#m3946b19be9" y="163.838095"/>
      </g>
     </g>
     <g id="text_9">
      <!-- 0.6 -->
      <defs>
       <path d="M 49.75 54.046875 
L 41.015625 53.375 
Q 39.84375 58.546875 37.703125 60.890625 
Q 34.125 64.65625 28.90625 64.65625 
Q 24.703125 64.65625 21.53125 62.3125 
Q 17.390625 59.28125 14.984375 53.46875 
Q 12.59375 47.65625 12.5 36.921875 
Q 15.671875 41.75 20.265625 44.09375 
Q 24.859375 46.4375 29.890625 46.4375 
Q 38.671875 46.4375 44.84375 39.96875 
Q 51.03125 33.5 51.03125 23.25 
Q 51.03125 16.5 48.125 10.71875 
Q 45.21875 4.9375 40.140625 1.859375 
Q 35.0625 -1.21875 28.609375 -1.21875 
Q 17.625 -1.21875 10.6875 6.859375 
Q 3.765625 14.9375 3.765625 33.5 
Q 3.765625 54.25 11.421875 63.671875 
Q 18.109375 71.875 29.4375 71.875 
Q 37.890625 71.875 43.28125 67.140625 
Q 48.6875 62.40625 49.75 54.046875 
z
M 13.875 23.1875 
Q 13.875 18.65625 15.796875 14.5 
Q 17.71875 10.359375 21.1875 8.171875 
Q 24.65625 6 28.46875 6 
Q 34.03125 6 38.03125 10.484375 
Q 42.046875 14.984375 42.046875 22.703125 
Q 42.046875 30.125 38.078125 34.390625 
Q 34.125 38.671875 28.125 38.671875 
Q 22.171875 38.671875 18.015625 34.390625 
Q 13.875 30.125 13.875 23.1875 
z
" id="ArialMT-54"/>
      </defs>
      <g transform="translate(31.612813 166.940283)scale(0.12 -0.12)">
       <use xlink:href="#ArialMT-48"/>
       <use x="55.615234" xlink:href="#ArialMT-46"/>
       <use x="83.398438" xlink:href="#ArialMT-54"/>
      </g>
     </g>
    </g>
    <g id="ytick_5">
     <g id="line2d_19">
      <path clip-path="url(#p5823f758d9)" d="M 56.292813 91.099048 
L 559.44 91.099048 
" style="fill:none;stroke:#b2b2b2;stroke-linecap:square;stroke-width:0.5;"/>
     </g>
     <g id="line2d_20">
      <g>
       <use style="stroke:#000000;stroke-width:0.5;" x="56.292813" xlink:href="#m3946b19be9" y="91.099048"/>
      </g>
     </g>
     <g id="text_10">
      <!-- 0.8 -->
      <defs>
       <path d="M 17.671875 38.8125 
Q 12.203125 40.828125 9.5625 44.53125 
Q 6.9375 48.25 6.9375 53.421875 
Q 6.9375 61.234375 12.546875 66.546875 
Q 18.171875 71.875 27.484375 71.875 
Q 36.859375 71.875 42.578125 66.421875 
Q 48.296875 60.984375 48.296875 53.171875 
Q 48.296875 48.1875 45.671875 44.5 
Q 43.0625 40.828125 37.75 38.8125 
Q 44.34375 36.671875 47.78125 31.875 
Q 51.21875 27.09375 51.21875 20.453125 
Q 51.21875 11.28125 44.71875 5.03125 
Q 38.234375 -1.21875 27.640625 -1.21875 
Q 17.046875 -1.21875 10.546875 5.046875 
Q 4.046875 11.328125 4.046875 20.703125 
Q 4.046875 27.6875 7.59375 32.390625 
Q 11.140625 37.109375 17.671875 38.8125 
z
M 15.921875 53.71875 
Q 15.921875 48.640625 19.1875 45.40625 
Q 22.46875 42.1875 27.6875 42.1875 
Q 32.765625 42.1875 36.015625 45.375 
Q 39.265625 48.578125 39.265625 53.21875 
Q 39.265625 58.0625 35.90625 61.359375 
Q 32.5625 64.65625 27.59375 64.65625 
Q 22.5625 64.65625 19.234375 61.421875 
Q 15.921875 58.203125 15.921875 53.71875 
z
M 13.09375 20.65625 
Q 13.09375 16.890625 14.875 13.375 
Q 16.65625 9.859375 20.171875 7.921875 
Q 23.6875 6 27.734375 6 
Q 34.03125 6 38.125 10.046875 
Q 42.234375 14.109375 42.234375 20.359375 
Q 42.234375 26.703125 38.015625 30.859375 
Q 33.796875 35.015625 27.4375 35.015625 
Q 21.234375 35.015625 17.15625 30.90625 
Q 13.09375 26.8125 13.09375 20.65625 
z
" id="ArialMT-56"/>
      </defs>
      <g transform="translate(31.612813 94.201235)scale(0.12 -0.12)">
       <use xlink:href="#ArialMT-48"/>
       <use x="55.615234" xlink:href="#ArialMT-46"/>
       <use x="83.398438" xlink:href="#ArialMT-56"/>
      </g>
     </g>
    </g>
    <g id="ytick_6">
     <g id="line2d_21">
      <path clip-path="url(#p5823f758d9)" d="M 56.292813 18.36 
L 559.44 18.36 
" style="fill:none;stroke:#b2b2b2;stroke-linecap:square;stroke-width:0.5;"/>
     </g>
     <g id="line2d_22">
      <g>
       <use style="stroke:#000000;stroke-width:0.5;" x="56.292813" xlink:href="#m3946b19be9" y="18.36"/>
      </g>
     </g>
     <g id="text_11">
      <!-- 1.0 -->
      <g transform="translate(31.612813 21.462187)scale(0.12 -0.12)">
       <use xlink:href="#ArialMT-49"/>
       <use x="55.615234" xlink:href="#ArialMT-46"/>
       <use x="83.398438" xlink:href="#ArialMT-48"/>
      </g>
     </g>
    </g>
    <g id="text_12">
     <!-- Fraction of papers -->
     <defs>
      <path d="M 8.203125 0 
L 8.203125 71.578125 
L 56.5 71.578125 
L 56.5 63.140625 
L 17.671875 63.140625 
L 17.671875 40.96875 
L 51.265625 40.96875 
L 51.265625 32.515625 
L 17.671875 32.515625 
L 17.671875 0 
z
" id="ArialMT-70"/>
      <path d="M 6.5 0 
L 6.5 51.859375 
L 14.40625 51.859375 
L 14.40625 44 
Q 17.4375 49.515625 20 51.265625 
Q 22.5625 53.03125 25.640625 53.03125 
Q 30.078125 53.03125 34.671875 50.203125 
L 31.640625 42.046875 
Q 28.421875 43.953125 25.203125 43.953125 
Q 22.3125 43.953125 20.015625 42.21875 
Q 17.71875 40.484375 16.75 37.40625 
Q 15.28125 32.71875 15.28125 27.15625 
L 15.28125 0 
z
" id="ArialMT-114"/>
      <path d="M 40.4375 6.390625 
Q 35.546875 2.25 31.03125 0.53125 
Q 26.515625 -1.171875 21.34375 -1.171875 
Q 12.796875 -1.171875 8.203125 3 
Q 3.609375 7.171875 3.609375 13.671875 
Q 3.609375 17.484375 5.34375 20.625 
Q 7.078125 23.78125 9.890625 25.6875 
Q 12.703125 27.59375 16.21875 28.5625 
Q 18.796875 29.25 24.03125 29.890625 
Q 34.671875 31.15625 39.703125 32.90625 
Q 39.75 34.71875 39.75 35.203125 
Q 39.75 40.578125 37.25 42.78125 
Q 33.890625 45.75 27.25 45.75 
Q 21.046875 45.75 18.09375 43.578125 
Q 15.140625 41.40625 13.71875 35.890625 
L 5.125 37.0625 
Q 6.296875 42.578125 8.984375 45.96875 
Q 11.671875 49.359375 16.75 51.1875 
Q 21.828125 53.03125 28.515625 53.03125 
Q 35.15625 53.03125 39.296875 51.46875 
Q 43.453125 49.90625 45.40625 47.53125 
Q 47.359375 45.171875 48.140625 41.546875 
Q 48.578125 39.3125 48.578125 33.453125 
L 48.578125 21.734375 
Q 48.578125 9.46875 49.140625 6.21875 
Q 49.703125 2.984375 51.375 0 
L 42.1875 0 
Q 40.828125 2.734375 40.4375 6.390625 
z
M 39.703125 26.03125 
Q 34.90625 24.078125 25.34375 22.703125 
Q 19.921875 21.921875 17.671875 20.9375 
Q 15.4375 19.96875 14.203125 18.09375 
Q 12.984375 16.21875 12.984375 13.921875 
Q 12.984375 10.40625 15.640625 8.0625 
Q 18.3125 5.71875 23.4375 5.71875 
Q 28.515625 5.71875 32.46875 7.9375 
Q 36.421875 10.15625 38.28125 14.015625 
Q 39.703125 17 39.703125 22.796875 
z
" id="ArialMT-97"/>
      <path d="M 40.4375 19 
L 49.078125 17.875 
Q 47.65625 8.9375 41.8125 3.875 
Q 35.984375 -1.171875 27.484375 -1.171875 
Q 16.84375 -1.171875 10.375 5.78125 
Q 3.90625 12.75 3.90625 25.734375 
Q 3.90625 34.125 6.6875 40.421875 
Q 9.46875 46.734375 15.15625 49.875 
Q 20.84375 53.03125 27.546875 53.03125 
Q 35.984375 53.03125 41.359375 48.75 
Q 46.734375 44.484375 48.25 36.625 
L 39.703125 35.296875 
Q 38.484375 40.53125 35.375 43.15625 
Q 32.28125 45.796875 27.875 45.796875 
Q 21.234375 45.796875 17.078125 41.03125 
Q 12.9375 36.28125 12.9375 25.984375 
Q 12.9375 15.53125 16.9375 10.796875 
Q 20.953125 6.0625 27.390625 6.0625 
Q 32.5625 6.0625 36.03125 9.234375 
Q 39.5 12.40625 40.4375 19 
z
" id="ArialMT-99"/>
      <path d="M 25.78125 7.859375 
L 27.046875 0.09375 
Q 23.34375 -0.6875 20.40625 -0.6875 
Q 15.625 -0.6875 12.984375 0.828125 
Q 10.359375 2.34375 9.28125 4.8125 
Q 8.203125 7.28125 8.203125 15.1875 
L 8.203125 45.015625 
L 1.765625 45.015625 
L 1.765625 51.859375 
L 8.203125 51.859375 
L 8.203125 64.703125 
L 16.9375 69.96875 
L 16.9375 51.859375 
L 25.78125 51.859375 
L 25.78125 45.015625 
L 16.9375 45.015625 
L 16.9375 14.703125 
Q 16.9375 10.9375 17.40625 9.859375 
Q 17.875 8.796875 18.921875 8.15625 
Q 19.96875 7.515625 21.921875 7.515625 
Q 23.390625 7.515625 25.78125 7.859375 
z
" id="ArialMT-116"/>
      <path d="M 6.640625 61.46875 
L 6.640625 71.578125 
L 15.4375 71.578125 
L 15.4375 61.46875 
z
M 6.640625 0 
L 6.640625 51.859375 
L 15.4375 51.859375 
L 15.4375 0 
z
" id="ArialMT-105"/>
      <path d="M 3.328125 25.921875 
Q 3.328125 40.328125 11.328125 47.265625 
Q 18.015625 53.03125 27.640625 53.03125 
Q 38.328125 53.03125 45.109375 46.015625 
Q 51.90625 39.015625 51.90625 26.65625 
Q 51.90625 16.65625 48.90625 10.90625 
Q 45.90625 5.171875 40.15625 2 
Q 34.421875 -1.171875 27.640625 -1.171875 
Q 16.75 -1.171875 10.03125 5.8125 
Q 3.328125 12.796875 3.328125 25.921875 
z
M 12.359375 25.921875 
Q 12.359375 15.96875 16.703125 11.015625 
Q 21.046875 6.0625 27.640625 6.0625 
Q 34.1875 6.0625 38.53125 11.03125 
Q 42.875 16.015625 42.875 26.21875 
Q 42.875 35.84375 38.5 40.796875 
Q 34.125 45.75 27.640625 45.75 
Q 21.046875 45.75 16.703125 40.8125 
Q 12.359375 35.890625 12.359375 25.921875 
z
" id="ArialMT-111"/>
      <path d="M 6.59375 0 
L 6.59375 51.859375 
L 14.5 51.859375 
L 14.5 44.484375 
Q 20.21875 53.03125 31 53.03125 
Q 35.6875 53.03125 39.625 51.34375 
Q 43.5625 49.65625 45.515625 46.921875 
Q 47.46875 44.1875 48.25 40.4375 
Q 48.734375 37.984375 48.734375 31.890625 
L 48.734375 0 
L 39.9375 0 
L 39.9375 31.546875 
Q 39.9375 36.921875 38.90625 39.578125 
Q 37.890625 42.234375 35.28125 43.8125 
Q 32.671875 45.40625 29.15625 45.40625 
Q 23.53125 45.40625 19.453125 41.84375 
Q 15.375 38.28125 15.375 28.328125 
L 15.375 0 
z
" id="ArialMT-110"/>
      <path id="ArialMT-32"/>
      <path d="M 8.6875 0 
L 8.6875 45.015625 
L 0.921875 45.015625 
L 0.921875 51.859375 
L 8.6875 51.859375 
L 8.6875 57.375 
Q 8.6875 62.59375 9.625 65.140625 
Q 10.890625 68.5625 14.078125 70.671875 
Q 17.28125 72.796875 23.046875 72.796875 
Q 26.765625 72.796875 31.25 71.921875 
L 29.9375 64.265625 
Q 27.203125 64.75 24.75 64.75 
Q 20.75 64.75 19.09375 63.03125 
Q 17.4375 61.328125 17.4375 56.640625 
L 17.4375 51.859375 
L 27.546875 51.859375 
L 27.546875 45.015625 
L 17.4375 45.015625 
L 17.4375 0 
z
" id="ArialMT-102"/>
      <path d="M 6.59375 -19.875 
L 6.59375 51.859375 
L 14.59375 51.859375 
L 14.59375 45.125 
Q 17.4375 49.078125 21 51.046875 
Q 24.5625 53.03125 29.640625 53.03125 
Q 36.28125 53.03125 41.359375 49.609375 
Q 46.4375 46.1875 49.015625 39.953125 
Q 51.609375 33.734375 51.609375 26.3125 
Q 51.609375 18.359375 48.75 11.984375 
Q 45.90625 5.609375 40.453125 2.21875 
Q 35.015625 -1.171875 29 -1.171875 
Q 24.609375 -1.171875 21.109375 0.6875 
Q 17.625 2.546875 15.375 5.375 
L 15.375 -19.875 
z
M 14.546875 25.640625 
Q 14.546875 15.625 18.59375 10.84375 
Q 22.65625 6.0625 28.421875 6.0625 
Q 34.28125 6.0625 38.453125 11.015625 
Q 42.625 15.96875 42.625 26.375 
Q 42.625 36.28125 38.546875 41.203125 
Q 34.46875 46.140625 28.8125 46.140625 
Q 23.1875 46.140625 18.859375 40.890625 
Q 14.546875 35.640625 14.546875 25.640625 
z
" id="ArialMT-112"/>
      <path d="M 42.09375 16.703125 
L 51.171875 15.578125 
Q 49.03125 7.625 43.21875 3.21875 
Q 37.40625 -1.171875 28.375 -1.171875 
Q 17 -1.171875 10.328125 5.828125 
Q 3.65625 12.84375 3.65625 25.484375 
Q 3.65625 38.578125 10.390625 45.796875 
Q 17.140625 53.03125 27.875 53.03125 
Q 38.28125 53.03125 44.875 45.953125 
Q 51.46875 38.875 51.46875 26.03125 
Q 51.46875 25.25 51.421875 23.6875 
L 12.75 23.6875 
Q 13.234375 15.140625 17.578125 10.59375 
Q 21.921875 6.0625 28.421875 6.0625 
Q 33.25 6.0625 36.671875 8.59375 
Q 40.09375 11.140625 42.09375 16.703125 
z
M 13.234375 30.90625 
L 42.1875 30.90625 
Q 41.609375 37.453125 38.875 40.71875 
Q 34.671875 45.796875 27.984375 45.796875 
Q 21.921875 45.796875 17.796875 41.75 
Q 13.671875 37.703125 13.234375 30.90625 
z
" id="ArialMT-101"/>
      <path d="M 3.078125 15.484375 
L 11.765625 16.84375 
Q 12.5 11.625 15.84375 8.84375 
Q 19.1875 6.0625 25.203125 6.0625 
Q 31.25 6.0625 34.171875 8.515625 
Q 37.109375 10.984375 37.109375 14.3125 
Q 37.109375 17.28125 34.515625 19 
Q 32.71875 20.171875 25.53125 21.96875 
Q 15.875 24.421875 12.140625 26.203125 
Q 8.40625 27.984375 6.46875 31.125 
Q 4.546875 34.28125 4.546875 38.09375 
Q 4.546875 41.546875 6.125 44.5 
Q 7.71875 47.46875 10.453125 49.421875 
Q 12.5 50.921875 16.03125 51.96875 
Q 19.578125 53.03125 23.640625 53.03125 
Q 29.734375 53.03125 34.34375 51.265625 
Q 38.96875 49.515625 41.15625 46.5 
Q 43.359375 43.5 44.1875 38.484375 
L 35.59375 37.3125 
Q 35.015625 41.3125 32.203125 43.546875 
Q 29.390625 45.796875 24.265625 45.796875 
Q 18.21875 45.796875 15.625 43.796875 
Q 13.03125 41.796875 13.03125 39.109375 
Q 13.03125 37.40625 14.109375 36.03125 
Q 15.1875 34.625 17.484375 33.6875 
Q 18.796875 33.203125 25.25 31.453125 
Q 34.578125 28.953125 38.25 27.359375 
Q 41.9375 25.78125 44.03125 22.75 
Q 46.140625 19.734375 46.140625 15.234375 
Q 46.140625 10.84375 43.578125 6.953125 
Q 41.015625 3.078125 36.171875 0.953125 
Q 31.34375 -1.171875 25.25 -1.171875 
Q 15.140625 -1.171875 9.84375 3.03125 
Q 4.546875 7.234375 3.078125 15.484375 
z
" id="ArialMT-115"/>
     </defs>
     <g transform="translate(23.830312 265.712344)rotate(-90)scale(0.14 -0.14)">
      <use xlink:href="#ArialMT-70"/>
      <use x="61.083984" xlink:href="#ArialMT-114"/>
      <use x="94.384766" xlink:href="#ArialMT-97"/>
      <use x="150" xlink:href="#ArialMT-99"/>
      <use x="200" xlink:href="#ArialMT-116"/>
      <use x="227.783203" xlink:href="#ArialMT-105"/>
      <use x="250" xlink:href="#ArialMT-111"/>
      <use x="305.615234" xlink:href="#ArialMT-110"/>
      <use x="361.230469" xlink:href="#ArialMT-32"/>
      <use x="389.013672" xlink:href="#ArialMT-111"/>
      <use x="444.628906" xlink:href="#ArialMT-102"/>
      <use x="472.412109" xlink:href="#ArialMT-32"/>
      <use x="500.195312" xlink:href="#ArialMT-112"/>
      <use x="555.810547" xlink:href="#ArialMT-97"/>
      <use x="611.425781" xlink:href="#ArialMT-112"/>
      <use x="667.041016" xlink:href="#ArialMT-101"/>
      <use x="722.65625" xlink:href="#ArialMT-114"/>
      <use x="755.957031" xlink:href="#ArialMT-115"/>
     </g>
    </g>
   </g>
   <g id="line2d_23">
    <path clip-path="url(#p5823f758d9)" d="M 12.257776 382.055238 
L 13.797062 382.055238 
L 15.335298 200.207619 
L 16.898751 382.055238 
L 29.126886 382.055238 
M 32.205459 382.055238 
L 39.819936 382.055238 
L 41.357121 309.31619 
L 42.895357 382.055238 
L 55.228562 382.055238 
L 56.741581 373.395828 
L 58.278767 382.055238 
L 59.815952 382.055238 
L 61.354188 350.881361 
L 62.892423 382.055238 
L 64.455876 382.055238 
L 65.994112 375.993651 
L 67.533399 382.055238 
L 69.072685 382.055238 
L 70.610921 359.324286 
L 72.174374 373.597209 
L 73.662176 382.055238 
L 75.149978 375.993651 
L 76.687163 371.663946 
L 78.224348 382.055238 
L 79.762584 365.523636 
L 81.30082 364.168587 
L 82.864272 382.055238 
L 84.402508 358.963477 
L 85.941795 382.055238 
L 87.481081 382.055238 
L 89.019317 377.140438 
L 90.58277 371.198664 
L 92.070572 382.055238 
L 95.095559 382.055238 
L 96.632744 377.073112 
L 98.17098 367.360481 
L 99.709216 372.729719 
L 101.272669 382.055238 
L 102.810905 315.168758 
L 104.350191 359.324286 
L 105.889478 358.335983 
L 107.427714 371.279083 
L 108.991166 375.320141 
L 110.478968 321.439365 
L 111.96677 371.513347 
L 113.503955 364.314007 
L 115.04114 376.043747 
L 116.579376 373.111913 
L 118.117612 371.564029 
L 119.681065 367.057496 
L 121.219301 377.826224 
L 122.758587 382.055238 
L 124.297874 379.168768 
L 125.83611 376.043747 
L 127.399563 382.055238 
L 128.912582 382.055238 
L 130.4256 379.049492 
L 131.962786 382.055238 
L 133.499971 382.055238 
L 135.038207 370.864615 
L 136.576442 379.191496 
L 138.139895 382.055238 
L 139.678131 379.145676 
L 141.217418 382.055238 
L 142.756704 379.546995 
L 144.29494 371.166159 
L 145.858393 380.034709 
L 147.346195 368.909627 
L 148.833997 375.784631 
L 150.371182 366.468299 
L 151.908367 371.198664 
L 153.446603 371.952593 
L 154.984839 363.756107 
L 156.548292 382.055238 
L 158.086527 377.922338 
L 159.625814 382.055238 
L 161.1651 368.330889 
L 162.703336 343.836416 
L 164.266789 349.45991 
L 165.754591 361.272653 
L 167.242393 367.79268 
L 168.779578 364.314007 
L 170.316763 360.233524 
L 171.854999 360.130348 
L 173.393235 357.808889 
L 174.956688 363.161979 
L 176.494924 358.382767 
L 178.03421 364.940168 
L 179.573497 356.491995 
L 181.111733 363.870476 
L 182.675185 368.96221 
L 184.162987 368.76405 
L 185.650789 358.099264 
L 187.187974 365.867023 
L 188.72516 367.035376 
L 190.263395 361.187479 
L 191.801631 363.328383 
L 193.365084 365.02603 
L 194.90332 358.187738 
L 196.442606 355.921449 
L 197.981893 372.313401 
L 199.520129 355.835349 
L 201.083582 355.583749 
L 202.596601 359.481051 
L 204.109619 369.066122 
L 205.646805 356.827823 
L 207.18399 364.457081 
L 208.722226 366.520517 
L 210.260461 365.818844 
L 211.823914 352.050381 
L 213.36215 364.853436 
L 214.901437 360.999198 
L 216.440723 353.400462 
L 217.978959 359.742647 
L 219.542412 369.127682 
L 221.030214 357.195057 
L 222.518016 366.481387 
L 224.055201 363.601357 
L 225.592386 368.185504 
L 227.130622 356.476672 
L 228.668858 359.09468 
L 230.232311 369.838085 
L 231.770546 357.338086 
L 233.309833 353.877048 
L 234.84912 364.265797 
L 236.387355 355.443391 
L 237.950808 364.467213 
L 239.43861 361.169769 
L 240.926412 359.57969 
L 242.463597 367.767211 
L 244.000782 359.119502 
L 245.539018 366.039301 
L 247.077254 350.397555 
L 248.640707 356.915014 
L 250.178943 354.606541 
L 251.718229 361.824403 
L 253.257516 355.916051 
L 254.795752 357.846422 
L 256.359204 362.520265 
L 257.847006 358.103039 
L 259.334808 357.397934 
L 260.871993 354.331699 
L 262.409179 358.121074 
L 263.947414 357.605138 
L 265.48565 351.613786 
L 267.049103 364.192014 
L 268.587339 354.189553 
L 270.126626 352.393769 
L 271.665912 356.570655 
L 273.204148 356.238764 
L 274.767601 349.563733 
L 276.28062 355.560883 
L 277.793638 353.29794 
L 279.330824 356.769358 
L 280.868009 357.938549 
L 282.406245 351.012757 
L 283.94448 350.28416 
L 285.507933 354.486503 
L 287.046169 355.379244 
L 288.585456 357.582991 
L 290.124742 353.779612 
L 291.662978 359.222353 
L 293.226431 356.047043 
L 294.714233 360.136105 
L 296.202035 354.487471 
L 297.73922 359.046771 
L 299.276405 355.560883 
L 300.814641 355.40826 
L 302.352877 347.417596 
L 303.91633 350.753599 
L 305.454565 354.850964 
L 306.993852 357.41558 
L 308.533139 352.626951 
L 310.071374 350.940626 
L 311.634827 356.167209 
L 313.122629 350.214215 
L 314.610431 354.961377 
L 316.147616 358.04429 
L 317.684801 350.157633 
L 319.223037 354.328269 
L 320.761273 350.327382 
L 322.324726 352.97137 
L 323.862962 347.880666 
L 325.402248 355.048166 
L 326.941535 359.69799 
L 328.479771 356.385812 
L 330.043224 357.898359 
L 331.531025 357.325037 
L 333.017777 354.315771 
L 334.554962 358.120238 
L 336.093198 358.32439 
L 337.631433 350.792037 
L 339.169669 357.808889 
L 340.733122 357.826446 
L 342.271358 353.30008 
L 343.809594 353.219546 
L 345.34888 351.913524 
L 346.888167 351.865231 
L 348.45162 354.454458 
L 349.964639 357.281054 
L 351.476607 353.670394 
L 353.013792 351.403099 
L 354.552028 354.976517 
L 356.090264 347.6073 
L 357.6285 355.357713 
L 359.191952 358.79236 
L 360.730188 355.996778 
L 362.268424 355.107457 
L 363.807711 358.620105 
L 365.346997 352.771848 
L 366.91045 354.772005 
L 368.398252 354.996483 
L 369.885003 354.750233 
L 371.422188 355.556496 
L 372.960424 347.787999 
L 374.49866 351.030053 
L 376.036896 352.68722 
L 377.600349 350.633949 
L 379.138584 346.558266 
L 380.67682 355.028673 
L 382.216107 349.947619 
L 383.755393 353.251711 
L 385.318846 356.036896 
L 386.806648 347.250881 
L 388.293399 357.501973 
L 389.830585 354.857812 
L 391.36882 353.046645 
L 392.907056 352.362067 
L 394.445292 350.463904 
L 396.008745 348.882372 
L 397.546981 350.645195 
L 399.085217 351.747302 
L 400.624503 352.632702 
L 402.16379 354.195575 
L 403.727243 347.070526 
L 405.215044 348.624133 
L 406.701796 354.51416 
L 408.238981 351.113485 
L 409.777217 352.660909 
L 411.315452 347.084542 
L 412.853688 352.838723 
L 414.417141 349.126742 
L 417.493613 351.688451 
L 419.032899 349.121087 
L 420.572186 353.856204 
L 422.135639 346.762444 
L 423.648658 346.883065 
L 425.160626 348.452227 
L 426.697811 349.720057 
L 428.236047 351.829692 
L 429.774283 350.410187 
L 431.312519 348.734232 
L 432.875971 354.306523 
L 434.414207 349.701981 
L 435.952443 348.153399 
L 437.49173 351.062079 
L 439.031016 347.154509 
L 440.594469 349.609397 
L 442.082271 350.411383 
L 443.569022 347.634082 
L 445.106207 348.613493 
L 446.644443 348.826186 
L 448.182679 348.799059 
L 449.720915 350.391475 
L 451.284368 347.864135 
L 452.822604 343.468509 
L 454.360839 348.392179 
L 455.900126 349.384956 
L 457.439412 350.04816 
L 459.002865 346.144154 
L 460.490667 344.339682 
L 461.977418 349.62161 
L 463.514604 348.726049 
L 465.052839 349.315309 
L 466.591075 346.512882 
L 468.129311 349.595142 
L 469.692764 348.108574 
L 471.231 347.209514 
L 472.769236 349.899257 
L 474.308522 354.885197 
L 475.847809 349.51469 
L 477.411262 350.581612 
L 478.899063 350.101385 
L 480.385815 349.375376 
L 481.923 348.072722 
L 483.461236 351.689572 
L 484.999472 352.942619 
L 486.537707 349.138721 
L 488.10116 344.747146 
L 489.639396 351.989212 
L 491.177632 352.138701 
L 492.716918 349.980471 
L 494.256205 348.079008 
L 495.819658 347.511891 
L 497.332677 348.609518 
L 498.844645 350.717786 
L 500.38183 354.846118 
L 501.920066 348.460089 
L 503.458302 346.507685 
L 504.996538 351.508957 
L 506.55999 344.165519 
L 508.098226 347.882531 
L 509.636462 351.972281 
L 511.175749 346.560651 
L 512.715035 351.509489 
L 514.278488 345.328194 
L 515.76629 349.568049 
L 517.253041 350.808053 
L 518.790226 349.607019 
L 520.328462 347.097295 
L 521.866698 350.641049 
L 524.968387 346.043723 
L 526.506623 347.204834 
L 528.044858 349.969844 
L 529.584145 349.843018 
L 531.123432 349.938483 
L 532.686884 350.827828 
L 534.174686 350.05245 
L 535.661437 349.535539 
L 538.736858 346.66364 
L 540.275094 348.431335 
L 541.81333 342.583666 
L 543.376783 344.763556 
L 544.915019 347.507494 
L 546.453255 351.572354 
L 547.992541 351.73194 
L 549.531828 348.060677 
L 551.095281 352.504402 
L 552.583083 349.821704 
L 554.069834 350.891226 
L 555.607019 349.041506 
L 557.145255 351.538856 
L 558.683491 344.718392 
L 558.683491 344.718392 
" style="fill:none;stroke:#0072bd;stroke-linecap:square;stroke-width:1.5;"/>
   </g>
   <g id="line2d_24">
    <path clip-path="url(#p5823f758d9)" d="M 12.257776 382.055238 
L 29.126886 382.055238 
M 32.205459 382.055238 
L 49.074568 382.055238 
L 50.613855 336.593333 
L 52.152091 371.358319 
L 53.715544 382.055238 
L 55.228562 124.807387 
L 56.741581 312.779955 
L 58.278767 366.90127 
L 59.815952 275.97746 
L 61.354188 288.533605 
L 62.892423 360.661401 
L 64.455876 278.142313 
L 65.994112 339.624127 
L 67.533399 285.782969 
L 69.072685 375.442597 
L 70.610921 344.170317 
L 72.174374 322.849037 
L 73.662176 325.61977 
L 75.149978 327.500952 
L 76.687163 267.75102 
L 78.224348 281.458683 
L 79.762584 288.376162 
L 81.30082 316.470851 
L 82.864272 327.157844 
L 84.402508 312.779955 
L 85.941795 323.394716 
L 87.481081 264.734194 
L 89.019317 303.41843 
L 90.58277 300.630931 
L 92.070572 270.149011 
L 93.558374 300.841738 
L 95.095559 299.617651 
L 96.632744 282.412707 
L 98.17098 341.644656 
L 99.709216 312.113846 
L 101.272669 303.720879 
L 102.810905 340.251188 
L 104.350191 253.246508 
L 105.889478 316.16842 
L 107.427714 306.622152 
L 108.991166 331.542011 
L 110.478968 279.008254 
L 111.96677 305.626529 
L 113.503955 302.219698 
L 115.04114 252.80817 
L 116.579376 298.5842 
L 118.117612 298.125568 
L 119.681065 329.563142 
L 121.219301 343.994109 
L 122.758587 305.852426 
L 124.297874 309.893485 
L 125.83611 309.91734 
L 127.399563 292.67251 
L 128.912582 308.752322 
L 130.4256 285.871373 
L 131.962786 316.150732 
L 133.499971 338.818741 
L 135.038207 317.709158 
L 136.576442 284.688009 
L 138.139895 257.86662 
L 139.678131 294.768381 
L 141.217418 312.779955 
L 142.756704 276.709031 
L 144.29494 329.787659 
L 145.858393 323.459894 
L 147.346195 327.281859 
L 148.833997 298.447137 
L 150.371182 311.914014 
L 151.908367 289.774357 
L 153.446603 339.118995 
L 154.984839 334.020018 
L 156.548292 298.836836 
L 158.086527 291.131429 
L 159.625814 302.168423 
L 161.1651 285.984798 
L 162.703336 326.576303 
L 164.266789 320.295669 
L 165.754591 305.852426 
L 167.242393 307.889935 
L 168.779578 330.309981 
L 170.316763 315.135314 
L 171.854999 331.75696 
L 173.393235 339.624127 
L 174.956688 337.970967 
L 176.494924 333.634274 
L 178.03421 337.128179 
L 179.573497 321.633026 
L 181.111733 335.456786 
L 182.675185 315.135314 
L 184.162987 331.307065 
L 185.650789 330.876567 
L 187.187974 319.460805 
L 188.72516 330.558567 
L 190.263395 338.332313 
L 191.801631 335.730912 
L 193.365084 337.049473 
L 194.90332 333.18369 
L 196.442606 325.432027 
L 197.981893 339.840612 
L 199.520129 319.465825 
L 201.083582 327.961326 
L 202.596601 330.218216 
L 204.109619 313.398484 
L 205.646805 331.600407 
L 207.18399 317.528664 
L 208.722226 322.657775 
L 210.260461 330.098776 
L 211.823914 342.958 
L 213.36215 332.907233 
L 214.901437 338.667034 
L 216.440723 321.071996 
L 217.978959 313.629958 
L 219.542412 338.101548 
L 221.030214 331.414129 
L 222.518016 317.011505 
L 224.055201 329.769242 
L 225.592386 328.117385 
L 227.130622 346.88471 
L 228.668858 334.297278 
L 230.232311 334.126408 
L 231.770546 341.448488 
L 233.309833 327.009472 
L 234.84912 328.686915 
L 236.387355 340.43158 
L 237.950808 336.200743 
L 239.43861 339.564111 
L 240.926412 337.785218 
L 242.463597 325.552585 
L 244.000782 326.354166 
L 245.539018 329.336112 
L 247.077254 331.991926 
L 248.640707 340.992873 
L 250.178943 327.685703 
L 251.718229 334.236901 
L 253.257516 336.987675 
L 254.795752 338.704567 
L 256.359204 333.792363 
L 257.847006 334.78116 
L 259.334808 338.904956 
L 260.871993 337.885532 
L 262.409179 337.829065 
L 263.947414 336.211301 
L 265.48565 342.000696 
L 267.049103 336.325385 
L 268.587339 338.815382 
L 270.126626 332.315237 
L 271.665912 344.908219 
L 273.204148 339.933623 
L 274.767601 350.611846 
L 276.28062 337.737408 
L 277.793638 341.033798 
L 279.330824 343.283556 
L 280.868009 343.935309 
L 282.406245 352.545719 
L 283.94448 336.488823 
L 285.507933 346.003815 
L 287.046169 342.604825 
L 288.585456 343.652635 
L 290.124742 342.822807 
L 291.662978 349.029101 
L 293.226431 351.432686 
L 294.714233 339.840612 
L 296.202035 350.50177 
L 297.73922 344.918765 
L 299.276405 338.700839 
L 300.814641 345.32562 
L 302.352877 340.490068 
L 303.91633 350.38096 
L 305.454565 347.726035 
L 306.993852 352.557056 
L 308.533139 344.950007 
L 310.071374 345.063422 
L 311.634827 344.170317 
L 313.122629 339.95433 
L 314.610431 345.717589 
L 316.147616 346.391919 
L 317.684801 342.026871 
L 319.223037 351.67356 
L 320.761273 352.677594 
L 322.324726 353.558923 
L 323.862962 349.547719 
L 325.402248 347.33186 
L 326.941535 345.659717 
L 328.479771 356.656016 
L 330.043224 352.261754 
L 331.531025 352.48652 
L 333.017777 352.260995 
L 334.554962 343.233836 
L 336.093198 346.059009 
L 337.631433 345.581504 
L 339.169669 347.855124 
L 340.733122 353.349387 
L 342.271358 350.999667 
L 343.809594 343.675339 
L 345.34888 354.573087 
L 346.888167 350.450075 
L 348.45162 352.256166 
L 349.964639 347.575704 
L 351.476607 347.208803 
L 353.013792 348.577015 
L 354.552028 347.739962 
L 356.090264 351.356735 
L 357.6285 351.142314 
L 359.191952 349.43047 
L 360.730188 342.518263 
L 362.268424 351.115193 
L 363.807711 349.83193 
L 365.346997 352.324773 
L 366.91045 352.579603 
L 368.398252 349.456895 
L 369.885003 353.821491 
L 371.422188 350.256747 
L 372.960424 349.469827 
L 374.49866 350.629728 
L 376.036896 350.984726 
L 377.600349 355.08736 
L 379.138584 350.326101 
L 380.67682 354.133753 
L 382.216107 352.24102 
L 383.755393 352.034661 
L 385.318846 351.357338 
L 386.806648 353.635112 
L 388.293399 351.193148 
L 389.830585 355.04538 
L 391.36882 350.508393 
L 392.907056 351.808778 
L 394.445292 354.807712 
L 396.008745 359.939994 
L 397.546981 352.794303 
L 399.085217 355.61311 
L 400.624503 348.873156 
L 402.16379 350.987493 
L 403.727243 355.634492 
L 405.215044 355.66226 
L 406.701796 352.066064 
L 408.238981 355.953536 
L 409.777217 356.633116 
L 411.315452 353.5791 
L 412.853688 354.685744 
L 414.417141 357.523509 
L 415.955377 356.055412 
L 417.493613 353.242101 
L 419.032899 352.244153 
L 420.572186 357.616075 
L 422.135639 355.436096 
L 425.160626 354.525061 
L 426.697811 358.1816 
L 428.236047 357.338086 
L 429.774283 357.690034 
L 431.312519 358.659638 
L 432.875971 360.230406 
L 434.414207 354.722314 
L 435.952443 358.185576 
L 437.49173 356.375192 
L 439.031016 356.856642 
L 440.594469 356.651905 
L 442.082271 357.381395 
L 443.569022 352.310163 
L 445.106207 358.242634 
L 446.644443 358.208506 
L 448.182679 360.120311 
L 449.720915 358.150974 
L 451.284368 357.67424 
L 452.822604 359.883181 
L 454.360839 356.444473 
L 455.900126 358.283477 
L 457.439412 360.717186 
L 459.002865 358.496548 
L 460.490667 360.731956 
L 461.977418 360.240449 
L 463.514604 358.77569 
L 465.052839 359.125026 
L 466.591075 361.634539 
L 468.129311 359.427945 
L 469.692764 359.424129 
L 471.231 356.397133 
L 472.769236 358.437224 
L 474.308522 357.478189 
L 475.847809 359.173369 
L 477.411262 360.349289 
L 478.899063 359.536578 
L 480.385815 359.073916 
L 481.923 359.948964 
L 483.461236 358.848018 
L 484.999472 361.761405 
L 486.537707 358.497339 
L 488.10116 361.406734 
L 489.639396 360.386964 
L 491.177632 357.346016 
L 492.716918 358.243801 
L 494.256205 359.404418 
L 495.819658 359.503053 
L 497.332677 360.585243 
L 498.844645 359.255233 
L 500.38183 356.660059 
L 501.920066 361.978857 
L 503.458302 356.755628 
L 504.996538 358.716506 
L 506.55999 359.828138 
L 508.098226 357.951275 
L 509.636462 362.192773 
L 511.175749 358.789878 
L 512.715035 357.745472 
L 514.278488 358.545597 
L 515.76629 362.816371 
L 517.253041 355.57302 
L 518.790226 360.270214 
L 520.328462 359.981523 
L 521.866698 358.342592 
L 523.404934 361.106724 
L 524.968387 357.415781 
L 526.506623 360.906703 
L 528.044858 361.272653 
L 529.584145 359.112061 
L 531.123432 359.760121 
L 532.686884 359.675594 
L 534.174686 359.423983 
L 535.661437 360.31505 
L 537.198623 360.311528 
L 538.736858 360.634008 
L 540.275094 361.363605 
L 541.81333 359.585275 
L 543.376783 360.267978 
L 544.915019 358.645838 
L 546.453255 360.221767 
L 547.992541 362.239101 
L 549.531828 360.727143 
L 551.095281 362.737216 
L 552.583083 361.666557 
L 555.607019 360.65073 
L 557.145255 361.794362 
L 558.683491 360.087069 
L 558.683491 360.087069 
" style="fill:none;stroke:#d95319;stroke-linecap:square;stroke-width:1.5;"/>
   </g>
   <g id="line2d_25">
    <path clip-path="url(#p5823f758d9)" d="M 12.257776 382.055238 
L 29.126886 382.055238 
M 32.205459 382.055238 
L 50.613855 382.055238 
L 52.152091 349.964482 
L 53.715544 382.055238 
L 55.228562 382.055238 
L 56.741581 373.395828 
L 58.278767 382.055238 
L 59.815952 382.055238 
L 61.354188 371.663946 
L 62.892423 382.055238 
L 64.455876 382.055238 
L 65.994112 369.932063 
L 67.533399 382.055238 
L 69.072685 382.055238 
L 70.610921 359.324286 
L 72.174374 382.055238 
L 92.070572 382.055238 
L 93.558374 378.524216 
L 95.095559 382.055238 
L 96.632744 377.073112 
L 98.17098 382.055238 
L 108.991166 382.055238 
L 110.478968 379.024444 
L 111.96677 376.784293 
L 113.503955 382.055238 
L 124.297874 382.055238 
L 125.83611 373.038001 
L 127.399563 382.055238 
L 128.912582 379.235895 
L 130.4256 382.055238 
L 144.29494 382.055238 
L 145.858393 380.034709 
L 147.346195 382.055238 
L 148.833997 379.965036 
L 150.371182 382.055238 
L 151.908367 382.055238 
L 153.446603 379.529577 
L 154.984839 379.767847 
L 156.548292 382.055238 
L 159.625814 377.850669 
L 161.1651 382.055238 
L 162.703336 377.123777 
L 164.266789 378.624151 
L 165.754591 378.591474 
L 167.242393 372.071447 
L 168.779578 370.227751 
L 170.316763 373.326552 
L 171.854999 365.289146 
L 173.393235 368.719746 
L 174.956688 377.331923 
L 176.494924 374.523088 
L 178.03421 375.637087 
L 179.573497 368.111651 
L 181.111733 365.007024 
L 182.675185 368.96221 
L 184.162987 379.638658 
L 185.650789 366.810528 
L 187.187974 374.500738 
L 188.72516 379.909543 
L 190.263395 365.16229 
L 191.801631 372.198999 
L 193.365084 375.973378 
L 194.90332 370.689762 
L 196.442606 367.899435 
L 197.981893 367.442483 
L 199.520129 371.059801 
L 201.083582 365.942158 
L 202.596601 372.022266 
L 204.109619 375.56068 
L 205.646805 370.492673 
L 207.18399 373.25616 
L 208.722226 364.692903 
L 210.260461 373.395828 
L 211.823914 372.962857 
L 213.36215 373.863904 
L 214.901437 370.570125 
L 216.440723 370.299432 
L 217.978959 368.667683 
L 219.542412 365.680334 
L 221.030214 375.610006 
L 222.518016 371.061931 
L 224.055201 368.214827 
L 225.592386 367.414964 
L 227.130622 370.065285 
L 228.668858 370.115748 
L 230.232311 368.898304 
L 231.770546 366.16564 
L 233.309833 370.259717 
L 234.84912 372.172215 
L 236.387355 369.090492 
L 237.950808 370.120507 
L 239.43861 367.651466 
L 240.926412 367.752616 
L 242.463597 370.365034 
L 244.000782 373.536251 
L 245.539018 368.041293 
L 247.077254 369.53941 
L 250.178943 370.970187 
L 251.718229 366.882112 
L 253.257516 373.041725 
L 254.795752 366.854354 
L 256.359204 364.818497 
L 257.847006 355.581755 
L 259.334808 362.441473 
L 260.871993 362.789728 
L 262.409179 370.608464 
L 263.947414 367.79268 
L 265.48565 364.43124 
L 267.049103 370.622775 
L 268.587339 364.278853 
L 270.126626 366.540008 
L 271.665912 370.392802 
L 273.204148 366.655938 
L 274.767601 366.333542 
L 276.28062 368.085487 
L 277.793638 371.905604 
L 279.330824 370.676592 
L 280.868009 369.996893 
L 282.406245 366.725618 
L 283.94448 367.42382 
L 285.507933 367.210534 
L 287.046169 366.275073 
L 288.585456 365.489409 
L 290.124742 368.27087 
L 291.662978 362.891924 
L 293.226431 367.79268 
L 294.714233 367.848393 
L 296.202035 365.116008 
L 297.73922 359.854086 
L 299.276405 368.291937 
L 300.814641 370.532221 
L 302.352877 372.433671 
L 303.91633 365.659141 
L 305.454565 363.919055 
L 306.993852 362.968179 
L 308.533139 363.502623 
L 310.071374 369.609393 
L 311.634827 361.534239 
L 313.122629 367.549883 
L 314.610431 364.205165 
L 316.147616 365.812538 
L 317.684801 364.542828 
L 319.223037 367.011883 
L 320.761273 352.090041 
L 322.324726 364.134875 
L 323.862962 355.382402 
L 325.402248 361.735631 
L 326.941535 354.758598 
L 328.479771 362.330311 
L 330.043224 357.898359 
L 331.531025 356.787424 
L 333.017777 361.250638 
L 334.554962 357.244568 
L 336.093198 360.724139 
L 337.631433 358.086784 
L 339.169669 363.679058 
L 340.733122 364.673713 
L 342.271358 361.581566 
L 343.809594 361.342276 
L 345.34888 359.005692 
L 346.888167 356.110701 
L 348.45162 360.31657 
L 349.964639 359.324286 
L 351.476607 358.747358 
L 353.013792 360.316132 
L 354.552028 357.310889 
L 356.090264 356.277869 
L 357.6285 355.82609 
L 359.191952 364.749926 
L 360.730188 361.388183 
L 362.268424 355.107457 
L 363.807711 354.113349 
L 365.346997 356.571982 
L 366.91045 354.772005 
L 368.398252 354.144239 
L 369.885003 360.508431 
L 371.422188 348.93181 
L 372.960424 359.771021 
L 374.49866 354.632977 
L 376.036896 355.879396 
L 377.600349 354.097713 
L 379.138584 359.646535 
L 380.67682 349.122205 
L 382.216107 357.401173 
L 383.755393 358.119913 
L 385.318846 360.529272 
L 388.293399 355.11485 
L 389.830585 359.171886 
L 391.36882 357.21663 
L 392.907056 358.079386 
L 394.445292 352.240916 
L 396.008745 354.310659 
L 397.546981 348.496087 
L 399.085217 351.901934 
L 400.624503 353.449995 
L 402.16379 353.520189 
L 403.727243 357.456612 
L 405.215044 356.014166 
L 406.701796 352.678088 
L 408.238981 355.2621 
L 409.777217 347.894261 
L 411.315452 358.075332 
L 412.853688 351.495435 
L 414.417141 360.651716 
L 415.955377 353.183338 
L 417.493613 356.490641 
L 419.032899 354.799389 
L 420.572186 354.145425 
L 422.135639 355.436096 
L 423.648658 351.822136 
L 425.160626 354.120205 
L 426.697811 354.555224 
L 428.236047 350.134802 
L 429.774283 352.193007 
L 431.312519 355.540225 
L 432.875971 355.86544 
L 434.414207 352.491055 
L 435.952443 349.421835 
L 437.49173 351.315084 
L 439.031016 353.75735 
L 440.594469 353.633688 
L 442.082271 349.435581 
L 443.569022 351.790599 
L 445.106207 356.160658 
L 446.644443 351.823316 
L 448.182679 351.487856 
L 449.720915 351.643007 
L 451.284368 356.375844 
L 452.822604 351.92084 
L 454.360839 348.280342 
L 455.900126 349.766321 
L 457.439412 352.30051 
L 459.002865 352.638711 
L 460.490667 348.471068 
L 461.977418 349.852454 
L 463.514604 352.669579 
L 465.052839 352.012981 
L 466.591075 353.104373 
L 468.129311 349.002804 
L 469.692764 353.300417 
L 471.231 351.131059 
L 472.769236 352.116911 
L 474.308522 346.317051 
L 475.847809 351.92936 
L 477.411262 349.978669 
L 478.899063 348.717556 
L 480.385815 349.586214 
L 481.923 349.131001 
L 483.461236 349.842231 
L 484.999472 349.542605 
L 486.537707 352.365831 
L 488.10116 351.317124 
L 489.639396 346.805415 
L 491.177632 350.402929 
L 492.716918 351.176479 
L 494.256205 348.826913 
L 495.819658 352.682392 
L 497.332677 352.277758 
L 498.844645 350.516905 
L 500.38183 349.857779 
L 501.920066 350.376929 
L 503.458302 351.738406 
L 504.996538 350.936929 
L 506.55999 354.300155 
L 508.098226 349.509803 
L 509.636462 350.333145 
L 511.175749 353.122675 
L 512.715035 349.184207 
L 514.278488 352.045235 
L 515.76629 345.305545 
L 517.253041 347.692498 
L 518.790226 349.148386 
L 520.328462 347.381506 
L 521.866698 349.931697 
L 523.404934 347.728713 
L 524.968387 352.045643 
L 526.506623 344.821901 
L 529.584145 349.5677 
L 531.123432 348.465238 
L 532.686884 344.686437 
L 534.174686 350.351541 
L 535.661437 348.539114 
L 537.198623 350.951007 
L 538.736858 346.570504 
L 540.275094 347.337066 
L 541.81333 346.461226 
L 543.376783 351.249066 
L 544.915019 349.678527 
L 546.453255 345.358212 
L 547.992541 345.925351 
L 549.531828 348.43322 
L 551.095281 345.427503 
L 552.583083 347.006124 
L 554.069834 346.315901 
L 555.607019 347.136867 
L 557.145255 348.370489 
L 558.683491 347.611319 
L 558.683491 347.611319 
" style="fill:none;stroke:#edb120;stroke-linecap:square;stroke-width:1.5;"/>
   </g>
   <g id="line2d_26">
    <path clip-path="url(#p5823f758d9)" d="M 12.257776 382.055238 
L 13.797062 382.055238 
L 15.335298 200.207619 
L 16.898751 382.055238 
L 18.386553 260.823492 
L 19.874355 382.055238 
L 29.126886 382.055238 
M 32.205459 382.055238 
L 55.228562 382.055238 
L 56.741581 373.395828 
L 58.278767 382.055238 
L 73.662176 382.055238 
L 75.149978 375.993651 
L 76.687163 382.055238 
L 82.864272 382.055238 
L 84.402508 364.736417 
L 85.941795 382.055238 
L 96.632744 382.055238 
L 98.17098 374.70786 
L 99.709216 382.055238 
L 101.272669 382.055238 
L 102.810905 377.874833 
L 104.350191 382.055238 
L 113.503955 382.055238 
L 115.04114 376.043747 
L 116.579376 382.055238 
L 118.117612 382.055238 
L 119.681065 378.305803 
L 121.219301 382.055238 
L 122.758587 378.591474 
L 124.297874 382.055238 
L 125.83611 382.055238 
L 127.399563 378.973075 
L 128.912582 382.055238 
L 130.4256 379.049492 
L 131.962786 382.055238 
L 135.038207 382.055238 
L 136.576442 373.464012 
L 138.139895 382.055238 
L 139.678131 379.145676 
L 141.217418 382.055238 
L 144.29494 382.055238 
L 145.858393 365.891005 
L 147.346195 377.673368 
L 148.833997 379.965036 
L 150.371182 379.457415 
L 151.908367 379.341095 
L 153.446603 382.055238 
L 154.984839 382.055238 
L 156.548292 378.973075 
L 158.086527 382.055238 
L 159.625814 382.055238 
L 161.1651 379.767847 
L 162.703336 377.123777 
L 164.266789 375.193064 
L 165.754591 371.663946 
L 167.242393 367.79268 
L 168.779578 365.792443 
L 170.316763 376.236114 
L 171.854999 367.868544 
L 173.393235 375.993651 
L 174.956688 375.757485 
L 176.494924 364.838895 
L 178.03421 374.567395 
L 179.573497 372.759513 
L 181.111733 371.82631 
L 182.675185 370.41699 
L 184.162987 376.013789 
L 185.650789 373.343975 
L 187.187974 369.104666 
L 188.72516 367.035376 
L 190.263395 372.11821 
L 191.801631 371.213375 
L 193.365084 373.540634 
L 194.90332 368.416667 
L 196.442606 370.077251 
L 197.981893 373.937041 
L 199.520129 373.597209 
L 201.083582 368.244027 
L 202.596601 371.186185 
L 204.109619 367.210534 
L 205.646805 367.339246 
L 207.18399 368.856621 
L 208.722226 368.348131 
L 210.260461 366.90127 
L 211.823914 370.235143 
L 213.36215 368.949103 
L 214.901437 375.036558 
L 216.440723 367.360481 
L 217.978959 368.667683 
L 219.542412 369.127682 
L 221.030214 368.244027 
L 222.518016 369.229713 
L 224.055201 368.983739 
L 225.592386 366.644423 
L 227.130622 370.065285 
L 228.668858 363.686792 
L 230.232311 367.958523 
L 231.770546 368.813907 
L 233.309833 368.949103 
L 234.84912 370.195611 
L 236.387355 365.678717 
L 237.950808 371.376794 
L 239.43861 368.371655 
L 240.926412 368.433694 
L 242.463597 365.818844 
L 244.000782 363.70665 
L 245.539018 368.708624 
L 247.077254 366.594509 
L 248.640707 375.351178 
L 250.178943 369.914468 
L 251.718229 368.721279 
L 253.257516 368.985645 
L 254.795752 361.787392 
L 256.359204 368.840403 
L 257.847006 368.188175 
L 259.334808 369.166193 
L 260.871993 361.380057 
L 262.409179 360.202305 
L 265.48565 369.237785 
L 267.049103 362.762956 
L 268.587339 364.759295 
L 270.126626 364.258357 
L 271.665912 371.256686 
L 273.204148 364.844255 
L 274.767601 364.237316 
L 276.28062 365.676909 
L 277.793638 360.910166 
L 279.330824 353.819339 
L 280.868009 353.270802 
L 282.406245 357.527846 
L 283.94448 354.882605 
L 285.507933 366.680367 
L 287.046169 361.390736 
L 288.585456 341.393659 
L 290.124742 364.382972 
L 291.662978 355.145052 
L 293.226431 354.788582 
L 294.714233 363.789294 
L 296.202035 330.573264 
L 297.73922 361.468715 
L 299.276405 348.679232 
L 300.814641 361.169769 
L 302.352877 354.729987 
L 303.91633 354.852623 
L 305.454565 353.879383 
L 306.993852 355.680393 
L 308.533139 354.86606 
L 310.071374 350.594909 
L 311.634827 356.167209 
L 313.122629 350.214215 
L 314.610431 345.080087 
L 316.147616 350.982247 
L 317.684801 356.412066 
L 319.223037 351.968527 
L 320.761273 353.265147 
L 322.324726 352.97137 
L 323.862962 354.826718 
L 325.402248 345.788598 
L 326.941535 351.379014 
L 328.479771 352.06254 
L 330.043224 353.603802 
L 331.531025 348.723228 
L 333.017777 346.610363 
L 334.554962 355.201336 
L 336.093198 357.791113 
L 337.631433 351.052564 
L 339.169669 346.579001 
L 340.733122 355.192882 
L 343.809594 357.280911 
L 345.34888 353.686566 
L 346.888167 345.025308 
L 348.45162 348.8366 
L 349.964639 353.960803 
L 351.476607 358.516587 
L 353.013792 351.403099 
L 354.552028 355.209954 
L 356.090264 352.997113 
L 357.6285 355.357713 
L 359.191952 356.239117 
L 360.730188 353.525717 
L 362.268424 356.704363 
L 363.807711 352.535984 
L 365.346997 352.995385 
L 366.91045 349.899999 
L 368.398252 354.783422 
L 369.885003 357.164961 
L 371.422188 355.11485 
L 372.960424 357.878965 
L 374.49866 354.432815 
L 376.036896 346.51568 
L 377.600349 347.665008 
L 379.138584 355.283778 
L 380.67682 352.343915 
L 382.216107 346.507516 
L 383.755393 351.223294 
L 385.318846 353.977891 
L 386.806648 356.31237 
L 388.293399 353.921289 
L 389.830585 347.917779 
L 391.36882 350.327089 
L 392.907056 354.206363 
L 394.445292 347.699662 
L 396.008745 353.104373 
L 397.546981 347.834823 
L 399.085217 352.829728 
L 400.624503 351.325034 
L 402.16379 353.520189 
L 403.727243 350.532555 
L 406.701796 349.464962 
L 408.238981 348.002024 
L 409.777217 351.866468 
L 411.315452 352.746464 
L 412.853688 348.473037 
L 414.417141 354.559944 
L 415.955377 353.939147 
L 417.493613 350.841006 
L 419.032899 351.960238 
L 420.572186 350.240943 
L 422.135639 348.706538 
L 423.648658 349.726772 
L 425.160626 352.635735 
L 426.697811 351.533245 
L 428.236047 355.219473 
L 429.774283 351.89587 
L 431.312519 349.868564 
L 432.875971 354.306523 
L 434.414207 354.443406 
L 435.952443 351.843395 
L 437.49173 353.086122 
L 439.031016 351.466569 
L 440.594469 353.759447 
L 442.082271 353.617588 
L 443.569022 356.077007 
L 445.106207 353.818434 
L 446.644443 352.344556 
L 448.182679 348.516027 
L 449.720915 351.142394 
L 451.284368 353.490519 
L 452.822604 349.348391 
L 454.360839 349.846066 
L 455.900126 352.054512 
L 457.439412 350.166705 
L 459.002865 355.312941 
L 460.490667 352.335913 
L 461.977418 352.738008 
L 463.514604 349.870945 
L 465.052839 351.645117 
L 466.591075 353.879843 
L 468.129311 351.964492 
L 469.692764 354.099162 
L 471.231 354.492383 
L 472.769236 352.560441 
L 474.308522 355.674368 
L 475.847809 351.239454 
L 477.411262 350.099257 
L 478.899063 354.001264 
L 480.385815 356.016767 
L 481.923 351.247559 
L 483.461236 353.421454 
L 484.999472 350.71136 
L 486.537707 353.118823 
L 488.10116 350.495877 
L 489.639396 353.233324 
L 491.177632 350.505034 
L 492.716918 354.873232 
L 494.256205 354.169087 
L 495.819658 353.232445 
L 497.332677 355.406551 
L 498.844645 352.023513 
L 500.38183 353.032177 
L 501.920066 353.605292 
L 503.458302 353.126148 
L 504.996538 353.797068 
L 506.55999 355.221486 
L 508.098226 352.967755 
L 509.636462 353.032898 
L 511.175749 355.011743 
L 512.715035 354.891717 
L 514.278488 352.261914 
L 515.76629 354.752175 
L 517.253041 356.855896 
L 518.790226 353.276075 
L 520.328462 359.981523 
L 521.866698 353.579796 
L 523.404934 352.395461 
L 526.506623 354.949369 
L 528.044858 355.530097 
L 529.584145 354.339881 
L 531.123432 356.224331 
L 532.686884 354.05466 
L 534.174686 353.741245 
L 535.661437 355.876428 
L 537.198623 353.973675 
L 538.736858 355.790947 
L 540.275094 352.808411 
L 541.81333 353.122675 
L 543.376783 352.667771 
L 544.915019 354.303772 
L 546.453255 355.267249 
L 547.992541 356.52468 
L 549.531828 353.74196 
L 551.095281 357.286091 
L 552.583083 357.977176 
L 554.069834 353.653687 
L 555.607019 355.027512 
L 557.145255 355.207492 
L 558.683491 354.391618 
L 558.683491 354.391618 
" style="fill:none;stroke:#7e2f8e;stroke-linecap:square;stroke-width:1.5;"/>
   </g>
   <g id="line2d_27">
    <path clip-path="url(#p5823f758d9)" d="M 12.257776 382.055238 
L 29.126886 382.055238 
M 32.205459 382.055238 
L 33.743695 291.131429 
L 35.307147 382.055238 
L 47.535282 382.055238 
L 49.074568 348.992035 
L 50.613855 382.055238 
L 52.152091 317.873725 
L 53.715544 327.500952 
L 55.228562 373.184623 
L 56.741581 347.417596 
L 58.278767 382.055238 
L 59.815952 382.055238 
L 61.354188 350.881361 
L 62.892423 382.055238 
L 64.455876 356.077007 
L 65.994112 363.870476 
L 67.533399 349.964482 
L 69.072685 382.055238 
L 70.610921 366.90127 
L 72.174374 382.055238 
L 73.662176 382.055238 
L 75.149978 357.808889 
L 76.687163 361.272653 
L 78.224348 366.578845 
L 79.762584 365.523636 
L 81.30082 382.055238 
L 82.864272 375.193064 
L 84.402508 370.509358 
L 85.941795 364.457081 
L 87.481081 364.457081 
L 89.019317 377.140438 
L 90.58277 376.626951 
L 92.070572 376.459927 
L 93.558374 367.931151 
L 95.095559 377.205968 
L 96.632744 372.090985 
L 98.17098 341.644656 
L 99.709216 279.47453 
L 101.272669 354.078681 
L 102.810905 348.611998 
L 104.350191 347.95881 
L 105.889478 334.616729 
L 107.427714 355.11485 
L 108.991166 348.379753 
L 110.478968 342.654921 
L 111.96677 316.16842 
L 113.503955 355.443391 
L 115.04114 348.992035 
L 116.579376 343.300827 
L 118.117612 343.587473 
L 119.681065 303.317094 
L 121.219301 356.681152 
L 122.758587 340.490068 
L 124.297874 318.552895 
L 125.83611 339.974797 
L 127.399563 326.576303 
L 128.912582 336.945751 
L 130.4256 315.928831 
L 131.962786 338.118901 
L 133.499971 348.992035 
L 135.038207 331.697436 
L 136.576442 339.099108 
L 138.139895 340.659032 
L 139.678131 329.683124 
L 141.217418 307.83172 
L 142.756704 329.382135 
L 144.29494 321.076396 
L 145.858393 345.685714 
L 147.346195 320.709053 
L 148.833997 319.349163 
L 150.371182 322.305306 
L 151.908367 341.343085 
L 153.446603 329.016349 
L 154.984839 313.433495 
L 156.548292 320.411977 
L 158.086527 322.128182 
L 159.625814 285.350146 
L 161.1651 324.870452 
L 162.703336 342.603551 
L 164.266789 337.451105 
L 165.754591 342.22195 
L 167.242393 343.546331 
L 168.779578 343.615904 
L 170.316763 342.776152 
L 171.854999 348.523053 
L 173.393235 332.350222 
L 174.956688 333.247652 
L 176.494924 355.154703 
L 178.03421 344.616022 
L 179.573497 358.815926 
L 181.111733 340.002976 
L 182.675185 336.957029 
L 184.162987 338.556804 
L 185.650789 336.321106 
L 187.187974 351.837236 
L 188.72516 341.28704 
L 190.263395 354.231559 
L 191.801631 353.472144 
L 193.365084 343.131333 
L 194.90332 340.002976 
L 196.442606 338.498922 
L 197.981893 343.899711 
L 199.520129 354.989546 
L 201.083582 337.1688 
L 202.596601 341.92335 
L 205.646805 346.3164 
L 207.18399 345.392412 
L 208.722226 350.071989 
L 210.260461 342.005465 
L 211.823914 356.596571 
L 213.36215 341.917701 
L 214.901437 347.5999 
L 216.440723 347.522559 
L 217.978959 358.998894 
L 219.542412 348.443593 
L 221.030214 347.987583 
L 222.518016 353.655862 
L 224.055201 340.534006 
L 225.592386 344.298741 
L 227.130622 348.48337 
L 228.668858 353.584146 
L 230.232311 351.042466 
L 231.770546 345.862265 
L 233.309833 347.323981 
L 234.84912 343.182015 
L 236.387355 339.749225 
L 237.950808 338.085175 
L 239.43861 349.646752 
L 240.926412 346.639222 
L 242.463597 345.685714 
L 244.000782 347.979288 
L 245.539018 351.358025 
L 247.077254 357.023582 
L 248.640707 343.506895 
L 250.178943 354.606541 
L 251.718229 352.168777 
L 253.257516 340.59308 
L 254.795752 359.535409 
L 256.359204 351.029104 
L 257.847006 344.235976 
L 259.334808 350.112821 
L 260.871993 352.922028 
L 262.409179 346.153991 
L 265.48565 351.613786 
L 267.049103 348.472377 
L 268.587339 361.876638 
L 270.126626 345.548815 
L 271.665912 344.908219 
L 273.204148 361.220891 
L 274.767601 355.328355 
L 276.28062 343.517994 
L 277.793638 351.183433 
L 279.330824 355.926496 
L 280.868009 349.381013 
L 282.406245 344.880909 
L 283.94448 351.120241 
L 285.507933 351.305495 
L 287.046169 354.627808 
L 288.585456 359.465472 
L 290.124742 352.719276 
L 291.662978 351.883212 
L 293.226431 351.432686 
L 294.714233 353.641548 
L 296.202035 361.79459 
L 297.73922 346.533395 
L 299.276405 350.743728 
L 300.814641 352.527506 
L 302.352877 358.193752 
L 303.91633 358.951647 
L 305.454565 358.737289 
L 306.993852 352.210018 
L 310.071374 360.620728 
L 311.634827 359.008578 
L 313.122629 353.044528 
L 314.610431 356.236382 
L 316.147616 348.863634 
L 317.684801 348.281304 
L 319.223037 356.688011 
L 320.761273 362.372216 
L 322.324726 355.615358 
L 323.862962 352.603981 
L 325.402248 356.077007 
L 326.941535 355.79847 
L 328.479771 349.090291 
L 330.043224 356.55631 
L 331.531025 353.830552 
L 333.017777 353.031536 
L 334.554962 355.201336 
L 336.093198 358.857668 
L 337.631433 356.523624 
L 339.169669 357.298439 
L 340.733122 355.719594 
L 342.271358 354.910369 
L 343.809594 353.219546 
L 345.34888 357.23265 
L 346.888167 358.941014 
L 348.45162 359.583806 
L 349.964639 356.259438 
L 351.476607 358.055045 
L 353.013792 352.707445 
L 354.552028 358.711513 
L 356.090264 354.168812 
L 357.6285 356.762845 
L 359.191952 352.5511 
L 360.730188 356.895345 
L 362.268424 354.309004 
L 363.807711 359.746794 
L 365.346997 355.677833 
L 366.91045 362.080014 
L 368.398252 354.996483 
L 369.885003 359.393941 
L 371.422188 356.881433 
L 372.960424 359.140336 
L 374.49866 355.63379 
L 376.036896 357.369078 
L 377.600349 351.871007 
L 379.138584 356.671928 
L 380.67682 355.923592 
L 382.216107 359.885691 
L 383.755393 352.643186 
L 385.318846 359.967725 
L 386.806648 361.460944 
L 388.293399 353.239253 
L 389.830585 357.48377 
L 391.36882 362.837045 
L 392.907056 361.952408 
L 394.445292 359.546412 
L 396.008745 360.141042 
L 397.546981 359.57226 
L 399.085217 356.231639 
L 400.624503 358.680668 
L 402.16379 358.24789 
L 403.727243 362.011913 
L 405.215044 361.996575 
L 406.701796 360.022376 
L 408.238981 356.99069 
L 409.777217 358.06311 
L 411.315452 362.904619 
L 412.853688 361.066362 
L 414.417141 358.017436 
L 415.955377 358.020515 
L 417.493613 358.750495 
L 419.032899 357.922455 
L 420.572186 361.954388 
L 422.135639 358.726103 
L 423.648658 366.489681 
L 425.160626 360.058086 
L 426.697811 358.634897 
L 428.236047 358.326772 
L 429.774283 358.581444 
L 431.312519 358.659638 
L 432.875971 362.724673 
L 434.414207 360.439915 
L 435.952443 360.722448 
L 437.49173 359.031748 
L 439.031016 360.629694 
L 440.594469 359.418605 
L 442.082271 357.938996 
L 443.569022 362.961238 
L 445.106207 364.098192 
L 446.644443 357.556956 
L 448.182679 362.384562 
L 449.720915 361.780418 
L 452.822604 363.558107 
L 454.360839 360.358782 
L 455.900126 358.283477 
L 457.439412 361.546999 
L 459.002865 360.916089 
L 460.490667 362.197931 
L 461.977418 364.626491 
L 465.052839 361.209591 
L 466.591075 363.314723 
L 468.129311 363.337372 
L 469.692764 358.891632 
L 471.231 364.240222 
L 472.769236 360.876643 
L 474.308522 356.238062 
L 475.847809 362.277944 
L 477.411262 361.313998 
L 478.899063 361.423616 
L 480.385815 358.125146 
L 481.923 361.12483 
L 483.461236 359.887147 
L 484.999472 363.567662 
L 486.537707 363.338003 
L 488.10116 363.401192 
L 489.639396 366.089142 
L 491.177632 363.574374 
L 492.716918 361.723098 
L 494.256205 362.930253 
L 495.819658 363.683458 
L 497.332677 365.00871 
L 498.844645 365.281666 
L 500.38183 360.628056 
L 501.920066 362.281516 
L 503.458302 365.188831 
L 504.996538 361.462239 
L 506.55999 365.701621 
L 508.098226 365.273998 
L 509.636462 361.324995 
L 511.175749 364.357657 
L 512.715035 365.249791 
L 514.278488 362.445814 
L 515.76629 364.42921 
L 517.253041 363.63681 
L 518.790226 364.856535 
L 520.328462 363.297318 
L 521.866698 364.62543 
L 523.404934 364.321595 
L 524.968387 364.575965 
L 526.506623 360.906703 
L 528.044858 364.098355 
L 529.584145 364.343106 
L 531.123432 361.724448 
L 532.686884 364.359706 
L 535.661437 364.210167 
L 537.198623 364.894283 
L 538.736858 363.614353 
L 540.275094 364.745891 
L 541.81333 364.357657 
L 543.376783 362.902717 
L 544.915019 364.970152 
L 546.453255 364.168587 
L 549.531828 364.731982 
L 551.095281 363.789187 
L 552.583083 365.550115 
L 554.069834 364.530877 
L 555.607019 364.550704 
L 557.145255 365.713132 
L 558.683491 366.68656 
L 558.683491 366.68656 
" style="fill:none;stroke:#77ac30;stroke-linecap:square;stroke-width:1.5;"/>
   </g>
   <g id="line2d_28">
    <path clip-path="url(#p5823f758d9)" d="M 12.257776 382.055238 
L 29.126886 382.055238 
M 32.205459 382.055238 
L 55.228562 382.055238 
L 56.741581 356.077007 
L 58.278767 382.055238 
L 59.815952 382.055238 
L 61.354188 371.663946 
L 62.892423 382.055238 
L 64.455876 382.055238 
L 65.994112 375.993651 
L 67.533399 382.055238 
L 73.662176 382.055238 
L 75.149978 375.993651 
L 76.687163 382.055238 
L 78.224348 382.055238 
L 79.762584 376.544704 
L 81.30082 382.055238 
L 96.632744 382.055238 
L 98.17098 374.70786 
L 99.709216 372.729719 
L 101.272669 382.055238 
L 102.810905 369.514023 
L 104.350191 378.266746 
L 105.889478 371.513347 
L 107.427714 368.585044 
L 108.991166 382.055238 
L 110.478968 379.024444 
L 111.96677 368.877874 
L 113.503955 382.055238 
L 115.04114 379.049492 
L 116.579376 379.07413 
L 118.117612 371.564029 
L 119.681065 370.806932 
L 121.219301 377.826224 
L 122.758587 378.591474 
L 124.297874 379.168768 
L 127.399563 378.973075 
L 128.912582 376.416552 
L 130.4256 382.055238 
L 131.962786 377.173423 
L 133.499971 376.968591 
L 135.038207 382.055238 
L 138.139895 382.055238 
L 139.678131 376.236114 
L 141.217418 377.107004 
L 142.756704 377.038752 
L 144.29494 377.699607 
L 145.858393 373.973122 
L 147.346195 382.055238 
L 150.371182 382.055238 
L 151.908367 376.626951 
L 153.446603 379.529577 
L 154.984839 370.618281 
L 156.548292 372.808749 
L 158.086527 377.922338 
L 159.625814 373.6461 
L 161.1651 377.480455 
L 162.703336 379.589508 
L 164.266789 373.47752 
L 165.754591 376.859592 
L 168.779578 367.270879 
L 170.316763 376.236114 
L 171.854999 370.447943 
L 173.393235 371.144381 
L 174.956688 361.587541 
L 176.494924 360.53481 
L 178.03421 371.358319 
L 181.111733 362.733929 
L 182.675185 364.597867 
L 184.162987 368.76405 
L 185.650789 366.810528 
L 187.187974 372.342309 
L 188.72516 372.399612 
L 190.263395 365.16229 
L 191.801631 368.256503 
L 193.365084 368.675146 
L 194.90332 357.05119 
L 196.442606 366.810528 
L 197.981893 367.442483 
L 199.520129 367.676589 
L 201.083582 372.847764 
L 202.596601 366.169699 
L 204.109619 363.499359 
L 205.646805 374.697242 
L 207.18399 365.190338 
L 208.722226 362.865288 
L 210.260461 372.313401 
L 211.823914 370.235143 
L 213.36215 366.491703 
L 214.901437 364.827569 
L 216.440723 368.829957 
L 217.978959 352.305116 
L 219.542412 371.713193 
L 221.030214 368.244027 
L 222.518016 365.565278 
L 224.055201 363.601357 
L 225.592386 359.709556 
L 227.130622 368.466625 
L 228.668858 371.952593 
L 230.232311 369.838085 
L 231.770546 366.16564 
L 233.309833 363.70665 
L 234.84912 368.877874 
L 236.387355 367.725782 
L 237.950808 366.351644 
L 239.43861 364.050523 
L 242.463597 363.22102 
L 244.000782 369.60441 
L 247.077254 358.496032 
L 248.640707 369.485126 
L 250.178943 359.357277 
L 251.718229 355.387319 
L 253.257516 364.028213 
L 254.795752 364.602371 
L 256.359204 364.818497 
L 257.847006 361.254644 
L 259.334808 366.364226 
L 260.871993 352.922028 
L 262.409179 355.519534 
L 263.947414 367.283303 
L 265.48565 365.499361 
L 267.049103 363.477485 
L 268.587339 364.759295 
L 271.665912 356.570655 
L 273.204148 362.579652 
L 274.767601 358.472694 
L 276.28062 363.268332 
L 277.793638 361.333068 
L 279.330824 355.083633 
L 280.868009 360.272422 
L 282.406245 361.743491 
L 283.94448 361.989294 
L 285.507933 356.077007 
L 287.046169 353.876372 
L 288.585456 366.242402 
L 290.124742 361.201964 
L 291.662978 358.406893 
L 293.226431 364.017297 
L 294.714233 356.077007 
L 296.202035 360.133881 
L 297.73922 364.697974 
L 299.276405 364.507029 
L 300.814641 363.690429 
L 302.352877 360.88779 
L 303.91633 359.324286 
L 305.454565 362.299753 
L 306.993852 362.968179 
L 308.533139 358.704532 
L 310.071374 359.583574 
L 311.634827 359.324286 
L 313.122629 362.596835 
L 314.610431 363.567662 
L 316.147616 361.928414 
L 317.684801 364.230106 
L 319.223037 358.457818 
L 320.761273 360.903334 
L 322.324726 360.609558 
L 323.862962 363.161979 
L 325.402248 361.478421 
L 326.941535 363.337542 
L 328.479771 363.140924 
L 330.043224 365.413832 
L 331.531025 365.926846 
L 333.017777 360.22325 
L 334.554962 369.212068 
L 336.093198 363.657165 
L 337.631433 360.431524 
L 339.169669 359.340237 
L 340.733122 360.46001 
L 342.271358 359.971277 
L 343.809594 359.311594 
L 345.34888 361.443625 
L 346.888167 360.356171 
L 348.45162 360.80508 
L 349.964639 359.57969 
L 351.476607 357.593503 
L 353.013792 365.316127 
L 354.552028 363.847132 
L 356.090264 363.308061 
L 357.6285 360.275678 
L 359.191952 358.508667 
L 360.730188 365.656379 
L 362.268424 361.495079 
L 363.807711 358.845443 
L 365.346997 362.831028 
L 366.91045 365.490418 
L 368.398252 363.945048 
L 369.885003 363.480405 
L 371.422188 364.831056 
L 372.960424 361.873306 
L 374.49866 364.240777 
L 376.036896 357.58189 
L 377.600349 362.2623 
L 379.138584 359.646535 
L 380.67682 361.83006 
L 382.216107 360.650158 
L 383.755393 356.294337 
L 385.318846 359.218996 
L 386.806648 362.696601 
L 388.293399 361.594184 
L 389.830585 359.734592 
L 391.36882 359.936186 
L 392.907056 360.84583 
L 394.445292 363.692775 
L 396.008745 358.130565 
L 397.546981 365.35832 
L 399.085217 361.489138 
L 400.624503 365.219009 
L 402.16379 360.949433 
L 403.727243 363.834034 
L 405.215044 360.237043 
L 406.701796 360.6344 
L 408.238981 363.386471 
L 409.777217 360.128658 
L 411.315452 359.074495 
L 412.853688 363.249205 
L 414.417141 357.358866 
L 415.955377 362.555369 
L 417.493613 363.270202 
L 419.032899 360.903563 
L 420.572186 362.67744 
L 422.135639 362.464746 
L 423.648658 357.509551 
L 425.160626 362.082364 
L 426.697811 361.203579 
L 428.236047 360.162903 
L 429.774283 363.632767 
L 431.312519 363.48055 
L 432.875971 356.956681 
L 434.414207 362.531721 
L 435.952443 363.259321 
L 437.49173 360.802786 
L 439.031016 361.168702 
L 440.594469 360.424678 
L 442.082271 363.793806 
L 446.644443 362.117807 
L 448.182679 360.544858 
L 449.720915 358.77674 
L 451.284368 361.425163 
L 452.822604 359.883181 
L 454.360839 360.135107 
L 455.900126 360.063181 
L 457.439412 360.480097 
L 459.002865 360.279368 
L 460.490667 358.732898 
L 461.977418 362.548892 
L 463.514604 360.938271 
L 465.052839 363.294155 
L 466.591075 362.410008 
L 468.129311 359.783347 
L 469.692764 360.355998 
L 471.231 356.733265 
L 472.769236 361.874588 
L 474.308522 363.002388 
L 475.847809 361.588038 
L 477.411262 362.88165 
L 478.899063 363.56226 
L 480.385815 361.814807 
L 481.923 361.12483 
L 483.461236 362.658159 
L 484.999472 361.336403 
L 486.537707 362.36987 
L 488.10116 361.524055 
L 489.639396 364.534002 
L 491.177632 360.409143 
L 492.716918 357.917617 
L 494.256205 361.327601 
L 495.819658 359.833085 
L 497.332677 359.39846 
L 498.844645 359.757436 
L 500.38183 359.380971 
L 501.920066 361.777085 
L 503.458302 359.851361 
L 504.996538 363.178323 
L 506.55999 358.21581 
L 508.098226 358.358093 
L 509.636462 361.132156 
L 511.175749 361.076645 
L 512.715035 362.924509 
L 514.278488 361.145741 
L 515.76629 362.009951 
L 517.253041 359.971451 
L 518.790226 363.251323 
L 520.328462 362.823633 
L 521.866698 359.051945 
L 523.404934 359.136319 
L 524.968387 362.470028 
L 526.506623 361.800303 
L 528.044858 360.361136 
L 529.584145 362.140561 
L 531.123432 363.688776 
L 532.686884 361.549239 
L 534.174686 362.813686 
L 535.661437 362.760821 
L 537.198623 364.11424 
L 538.736858 361.47223 
L 540.275094 359.970899 
L 541.81333 362.965712 
L 543.376783 364.017414 
L 544.915019 357.796303 
L 547.992541 362.146933 
L 549.531828 361.565366 
L 551.095281 362.06778 
L 552.583083 363.414158 
L 555.607019 363.371642 
L 557.145255 365.046107 
L 558.683491 363.793633 
L 558.683491 363.793633 
" style="fill:none;stroke:#4dbeee;stroke-linecap:square;stroke-width:1.5;"/>
   </g>
   <g id="patch_3">
    <path d="M 56.292813 400.24 
L 56.292813 18.36 
" style="fill:none;stroke:#000000;stroke-linecap:square;stroke-linejoin:miter;"/>
   </g>
   <g id="patch_4">
    <path d="M 559.44 400.24 
L 559.44 18.36 
" style="fill:none;stroke:#000000;stroke-linecap:square;stroke-linejoin:miter;"/>
   </g>
   <g id="patch_5">
    <path d="M 56.292813 400.24 
L 559.44 400.24 
" style="fill:none;stroke:#000000;stroke-linecap:square;stroke-linejoin:miter;"/>
   </g>
   <g id="patch_6">
    <path d="M 56.292813 18.36 
L 559.44 18.36 
" style="fill:none;stroke:#000000;stroke-linecap:square;stroke-linejoin:miter;"/>
   </g>
   <g id="legend_1">
    <g id="patch_7">
     <path d="M 364.36275 153.46575 
L 552.24 153.46575 
L 552.24 25.56 
L 364.36275 25.56 
z
" style="fill:#ffffff;stroke:#000000;stroke-linejoin:miter;"/>
    </g>
    <g id="line2d_29">
     <path d="M 370.12275 36.58725 
L 398.92275 36.58725 
" style="fill:none;stroke:#0072bd;stroke-linecap:square;stroke-width:1.5;"/>
    </g>
    <g id="line2d_30"/>
    <g id="text_13">
     <!-- Combinatorics -->
     <defs>
      <path d="M 58.796875 25.09375 
L 68.265625 22.703125 
Q 65.28125 11.03125 57.546875 4.90625 
Q 49.8125 -1.21875 38.625 -1.21875 
Q 27.046875 -1.21875 19.796875 3.484375 
Q 12.546875 8.203125 8.765625 17.140625 
Q 4.984375 26.078125 4.984375 36.328125 
Q 4.984375 47.515625 9.25 55.828125 
Q 13.53125 64.15625 21.40625 68.46875 
Q 29.296875 72.796875 38.765625 72.796875 
Q 49.515625 72.796875 56.828125 67.328125 
Q 64.15625 61.859375 67.046875 51.953125 
L 57.71875 49.75 
Q 55.21875 57.5625 50.484375 61.125 
Q 45.75 64.703125 38.578125 64.703125 
Q 30.328125 64.703125 24.78125 60.734375 
Q 19.234375 56.78125 16.984375 50.109375 
Q 14.75 43.453125 14.75 36.375 
Q 14.75 27.25 17.40625 20.4375 
Q 20.0625 13.625 25.671875 10.25 
Q 31.296875 6.890625 37.84375 6.890625 
Q 45.796875 6.890625 51.3125 11.46875 
Q 56.84375 16.0625 58.796875 25.09375 
z
" id="ArialMT-67"/>
      <path d="M 6.59375 0 
L 6.59375 51.859375 
L 14.453125 51.859375 
L 14.453125 44.578125 
Q 16.890625 48.390625 20.9375 50.703125 
Q 25 53.03125 30.171875 53.03125 
Q 35.9375 53.03125 39.625 50.640625 
Q 43.3125 48.25 44.828125 43.953125 
Q 50.984375 53.03125 60.84375 53.03125 
Q 68.5625 53.03125 72.703125 48.75 
Q 76.859375 44.484375 76.859375 35.59375 
L 76.859375 0 
L 68.109375 0 
L 68.109375 32.671875 
Q 68.109375 37.9375 67.25 40.25 
Q 66.40625 42.578125 64.15625 43.984375 
Q 61.921875 45.40625 58.890625 45.40625 
Q 53.421875 45.40625 49.796875 41.765625 
Q 46.1875 38.140625 46.1875 30.125 
L 46.1875 0 
L 37.40625 0 
L 37.40625 33.6875 
Q 37.40625 39.546875 35.25 42.46875 
Q 33.109375 45.40625 28.21875 45.40625 
Q 24.515625 45.40625 21.359375 43.453125 
Q 18.21875 41.5 16.796875 37.734375 
Q 15.375 33.984375 15.375 26.90625 
L 15.375 0 
z
" id="ArialMT-109"/>
      <path d="M 14.703125 0 
L 6.546875 0 
L 6.546875 71.578125 
L 15.328125 71.578125 
L 15.328125 46.046875 
Q 20.90625 53.03125 29.546875 53.03125 
Q 34.328125 53.03125 38.59375 51.09375 
Q 42.875 49.171875 45.625 45.671875 
Q 48.390625 42.1875 49.953125 37.25 
Q 51.515625 32.328125 51.515625 26.703125 
Q 51.515625 13.375 44.921875 6.09375 
Q 38.328125 -1.171875 29.109375 -1.171875 
Q 19.921875 -1.171875 14.703125 6.5 
z
M 14.59375 26.3125 
Q 14.59375 17 17.140625 12.84375 
Q 21.296875 6.0625 28.375 6.0625 
Q 34.125 6.0625 38.328125 11.0625 
Q 42.53125 16.0625 42.53125 25.984375 
Q 42.53125 36.140625 38.5 40.96875 
Q 34.46875 45.796875 28.765625 45.796875 
Q 23 45.796875 18.796875 40.796875 
Q 14.59375 35.796875 14.59375 26.3125 
z
" id="ArialMT-98"/>
     </defs>
     <g transform="translate(410.44275 41.62725)scale(0.144 -0.144)">
      <use xlink:href="#ArialMT-67"/>
      <use x="72.216797" xlink:href="#ArialMT-111"/>
      <use x="127.832031" xlink:href="#ArialMT-109"/>
      <use x="211.132812" xlink:href="#ArialMT-98"/>
      <use x="266.748047" xlink:href="#ArialMT-105"/>
      <use x="288.964844" xlink:href="#ArialMT-110"/>
      <use x="344.580078" xlink:href="#ArialMT-97"/>
      <use x="400.195312" xlink:href="#ArialMT-116"/>
      <use x="427.978516" xlink:href="#ArialMT-111"/>
      <use x="483.59375" xlink:href="#ArialMT-114"/>
      <use x="516.894531" xlink:href="#ArialMT-105"/>
      <use x="539.111328" xlink:href="#ArialMT-99"/>
      <use x="589.111328" xlink:href="#ArialMT-115"/>
     </g>
    </g>
    <g id="line2d_31">
     <path d="M 370.12275 57.132 
L 398.92275 57.132 
" style="fill:none;stroke:#d95319;stroke-linecap:square;stroke-width:1.5;"/>
    </g>
    <g id="line2d_32"/>
    <g id="text_14">
     <!-- Algebraic Geometry -->
     <defs>
      <path d="M -0.140625 0 
L 27.34375 71.578125 
L 37.546875 71.578125 
L 66.84375 0 
L 56.0625 0 
L 47.703125 21.6875 
L 17.78125 21.6875 
L 9.90625 0 
z
M 20.515625 29.390625 
L 44.78125 29.390625 
L 37.3125 49.21875 
Q 33.890625 58.25 32.234375 64.0625 
Q 30.859375 57.171875 28.375 50.390625 
z
" id="ArialMT-65"/>
      <path d="M 6.390625 0 
L 6.390625 71.578125 
L 15.1875 71.578125 
L 15.1875 0 
z
" id="ArialMT-108"/>
      <path d="M 4.984375 -4.296875 
L 13.53125 -5.5625 
Q 14.0625 -9.515625 16.5 -11.328125 
Q 19.78125 -13.765625 25.4375 -13.765625 
Q 31.546875 -13.765625 34.859375 -11.328125 
Q 38.1875 -8.890625 39.359375 -4.5 
Q 40.046875 -1.8125 39.984375 6.78125 
Q 34.234375 0 25.640625 0 
Q 14.9375 0 9.078125 7.71875 
Q 3.21875 15.4375 3.21875 26.21875 
Q 3.21875 33.640625 5.90625 39.90625 
Q 8.59375 46.1875 13.6875 49.609375 
Q 18.796875 53.03125 25.6875 53.03125 
Q 34.859375 53.03125 40.828125 45.609375 
L 40.828125 51.859375 
L 48.921875 51.859375 
L 48.921875 7.03125 
Q 48.921875 -5.078125 46.453125 -10.125 
Q 44 -15.1875 38.640625 -18.109375 
Q 33.296875 -21.046875 25.484375 -21.046875 
Q 16.21875 -21.046875 10.5 -16.875 
Q 4.78125 -12.703125 4.984375 -4.296875 
z
M 12.25 26.859375 
Q 12.25 16.65625 16.296875 11.96875 
Q 20.359375 7.28125 26.46875 7.28125 
Q 32.515625 7.28125 36.609375 11.9375 
Q 40.71875 16.609375 40.71875 26.5625 
Q 40.71875 36.078125 36.5 40.90625 
Q 32.28125 45.75 26.3125 45.75 
Q 20.453125 45.75 16.34375 40.984375 
Q 12.25 36.234375 12.25 26.859375 
z
" id="ArialMT-103"/>
      <path d="M 41.21875 28.078125 
L 41.21875 36.46875 
L 71.53125 36.53125 
L 71.53125 9.96875 
Q 64.546875 4.390625 57.125 1.578125 
Q 49.703125 -1.21875 41.890625 -1.21875 
Q 31.34375 -1.21875 22.71875 3.296875 
Q 14.109375 7.8125 9.71875 16.359375 
Q 5.328125 24.90625 5.328125 35.453125 
Q 5.328125 45.90625 9.6875 54.953125 
Q 14.0625 64.015625 22.265625 68.40625 
Q 30.46875 72.796875 41.15625 72.796875 
Q 48.921875 72.796875 55.1875 70.28125 
Q 61.46875 67.78125 65.03125 63.28125 
Q 68.609375 58.796875 70.453125 51.5625 
L 61.921875 49.21875 
Q 60.296875 54.6875 57.90625 57.8125 
Q 55.515625 60.9375 51.0625 62.8125 
Q 46.625 64.703125 41.21875 64.703125 
Q 34.71875 64.703125 29.984375 62.71875 
Q 25.25 60.75 22.34375 57.515625 
Q 19.4375 54.296875 17.828125 50.4375 
Q 15.09375 43.796875 15.09375 36.03125 
Q 15.09375 26.46875 18.390625 20.015625 
Q 21.6875 13.578125 27.984375 10.453125 
Q 34.28125 7.328125 41.359375 7.328125 
Q 47.515625 7.328125 53.375 9.6875 
Q 59.234375 12.0625 62.25 14.75 
L 62.25 28.078125 
z
" id="ArialMT-71"/>
      <path d="M 6.203125 -19.96875 
L 5.21875 -11.71875 
Q 8.109375 -12.5 10.25 -12.5 
Q 13.1875 -12.5 14.9375 -11.515625 
Q 16.703125 -10.546875 17.828125 -8.796875 
Q 18.65625 -7.46875 20.515625 -2.25 
Q 20.75 -1.515625 21.296875 -0.09375 
L 1.609375 51.859375 
L 11.078125 51.859375 
L 21.875 21.828125 
Q 23.96875 16.109375 25.640625 9.8125 
Q 27.15625 15.875 29.25 21.625 
L 40.328125 51.859375 
L 49.125 51.859375 
L 29.390625 -0.875 
Q 26.21875 -9.421875 24.46875 -12.640625 
Q 22.125 -17 19.09375 -19.015625 
Q 16.0625 -21.046875 11.859375 -21.046875 
Q 9.328125 -21.046875 6.203125 -19.96875 
z
" id="ArialMT-121"/>
     </defs>
     <g transform="translate(410.44275 62.172)scale(0.144 -0.144)">
      <use xlink:href="#ArialMT-65"/>
      <use x="66.699219" xlink:href="#ArialMT-108"/>
      <use x="88.916016" xlink:href="#ArialMT-103"/>
      <use x="144.53125" xlink:href="#ArialMT-101"/>
      <use x="200.146484" xlink:href="#ArialMT-98"/>
      <use x="255.761719" xlink:href="#ArialMT-114"/>
      <use x="289.0625" xlink:href="#ArialMT-97"/>
      <use x="344.677734" xlink:href="#ArialMT-105"/>
      <use x="366.894531" xlink:href="#ArialMT-99"/>
      <use x="416.894531" xlink:href="#ArialMT-32"/>
      <use x="444.677734" xlink:href="#ArialMT-71"/>
      <use x="522.460938" xlink:href="#ArialMT-101"/>
      <use x="578.076172" xlink:href="#ArialMT-111"/>
      <use x="633.691406" xlink:href="#ArialMT-109"/>
      <use x="716.992188" xlink:href="#ArialMT-101"/>
      <use x="772.607422" xlink:href="#ArialMT-116"/>
      <use x="800.390625" xlink:href="#ArialMT-114"/>
      <use x="833.691406" xlink:href="#ArialMT-121"/>
     </g>
    </g>
    <g id="line2d_33">
     <path d="M 370.12275 77.8455 
L 398.92275 77.8455 
" style="fill:none;stroke:#edb120;stroke-linecap:square;stroke-width:1.5;"/>
    </g>
    <g id="line2d_34"/>
    <g id="text_15">
     <!-- Analysis of PDEs -->
     <defs>
      <path d="M 7.71875 0 
L 7.71875 71.578125 
L 34.71875 71.578125 
Q 41.84375 71.578125 45.609375 70.90625 
Q 50.875 70.015625 54.4375 67.546875 
Q 58.015625 65.09375 60.1875 60.640625 
Q 62.359375 56.203125 62.359375 50.875 
Q 62.359375 41.75 56.546875 35.421875 
Q 50.734375 29.109375 35.546875 29.109375 
L 17.1875 29.109375 
L 17.1875 0 
z
M 17.1875 37.546875 
L 35.6875 37.546875 
Q 44.875 37.546875 48.734375 40.96875 
Q 52.59375 44.390625 52.59375 50.59375 
Q 52.59375 55.078125 50.3125 58.265625 
Q 48.046875 61.46875 44.34375 62.5 
Q 41.9375 63.140625 35.5 63.140625 
L 17.1875 63.140625 
z
" id="ArialMT-80"/>
      <path d="M 7.71875 0 
L 7.71875 71.578125 
L 32.375 71.578125 
Q 40.71875 71.578125 45.125 70.5625 
Q 51.265625 69.140625 55.609375 65.4375 
Q 61.28125 60.640625 64.078125 53.1875 
Q 66.890625 45.75 66.890625 36.1875 
Q 66.890625 28.03125 64.984375 21.734375 
Q 63.09375 15.4375 60.109375 11.296875 
Q 57.125 7.171875 53.578125 4.796875 
Q 50.046875 2.4375 45.046875 1.21875 
Q 40.046875 0 33.546875 0 
z
M 17.1875 8.453125 
L 32.46875 8.453125 
Q 39.546875 8.453125 43.578125 9.765625 
Q 47.609375 11.078125 50 13.484375 
Q 53.375 16.84375 55.25 22.53125 
Q 57.125 28.21875 57.125 36.328125 
Q 57.125 47.5625 53.4375 53.59375 
Q 49.75 59.625 44.484375 61.671875 
Q 40.671875 63.140625 32.234375 63.140625 
L 17.1875 63.140625 
z
" id="ArialMT-68"/>
      <path d="M 7.90625 0 
L 7.90625 71.578125 
L 59.671875 71.578125 
L 59.671875 63.140625 
L 17.390625 63.140625 
L 17.390625 41.21875 
L 56.984375 41.21875 
L 56.984375 32.8125 
L 17.390625 32.8125 
L 17.390625 8.453125 
L 61.328125 8.453125 
L 61.328125 0 
z
" id="ArialMT-69"/>
     </defs>
     <g transform="translate(410.44275 82.8855)scale(0.144 -0.144)">
      <use xlink:href="#ArialMT-65"/>
      <use x="66.699219" xlink:href="#ArialMT-110"/>
      <use x="122.314453" xlink:href="#ArialMT-97"/>
      <use x="177.929688" xlink:href="#ArialMT-108"/>
      <use x="200.146484" xlink:href="#ArialMT-121"/>
      <use x="250.146484" xlink:href="#ArialMT-115"/>
      <use x="300.146484" xlink:href="#ArialMT-105"/>
      <use x="322.363281" xlink:href="#ArialMT-115"/>
      <use x="372.363281" xlink:href="#ArialMT-32"/>
      <use x="400.146484" xlink:href="#ArialMT-111"/>
      <use x="455.761719" xlink:href="#ArialMT-102"/>
      <use x="483.544922" xlink:href="#ArialMT-32"/>
      <use x="511.328125" xlink:href="#ArialMT-80"/>
      <use x="578.027344" xlink:href="#ArialMT-68"/>
      <use x="650.244141" xlink:href="#ArialMT-69"/>
      <use x="716.943359" xlink:href="#ArialMT-115"/>
     </g>
    </g>
    <g id="line2d_35">
     <path d="M 370.12275 98.3835 
L 398.92275 98.3835 
" style="fill:none;stroke:#7e2f8e;stroke-linecap:square;stroke-width:1.5;"/>
    </g>
    <g id="line2d_36"/>
    <g id="text_16">
     <!-- Probability -->
     <g transform="translate(410.44275 103.4235)scale(0.144 -0.144)">
      <use xlink:href="#ArialMT-80"/>
      <use x="66.699219" xlink:href="#ArialMT-114"/>
      <use x="100" xlink:href="#ArialMT-111"/>
      <use x="155.615234" xlink:href="#ArialMT-98"/>
      <use x="211.230469" xlink:href="#ArialMT-97"/>
      <use x="266.845703" xlink:href="#ArialMT-98"/>
      <use x="322.460938" xlink:href="#ArialMT-105"/>
      <use x="344.677734" xlink:href="#ArialMT-108"/>
      <use x="366.894531" xlink:href="#ArialMT-105"/>
      <use x="389.111328" xlink:href="#ArialMT-116"/>
      <use x="416.894531" xlink:href="#ArialMT-121"/>
     </g>
    </g>
    <g id="line2d_37">
     <path d="M 370.12275 119.097 
L 398.92275 119.097 
" style="fill:none;stroke:#77ac30;stroke-linecap:square;stroke-width:1.5;"/>
    </g>
    <g id="line2d_38"/>
    <g id="text_17">
     <!-- Differential Geometry -->
     <g transform="translate(410.44275 124.137)scale(0.144 -0.144)">
      <use xlink:href="#ArialMT-68"/>
      <use x="72.216797" xlink:href="#ArialMT-105"/>
      <use x="94.433594" xlink:href="#ArialMT-102"/>
      <use x="122.201172" xlink:href="#ArialMT-102"/>
      <use x="149.984375" xlink:href="#ArialMT-101"/>
      <use x="205.599609" xlink:href="#ArialMT-114"/>
      <use x="238.900391" xlink:href="#ArialMT-101"/>
      <use x="294.515625" xlink:href="#ArialMT-110"/>
      <use x="350.130859" xlink:href="#ArialMT-116"/>
      <use x="377.914062" xlink:href="#ArialMT-105"/>
      <use x="400.130859" xlink:href="#ArialMT-97"/>
      <use x="455.746094" xlink:href="#ArialMT-108"/>
      <use x="477.962891" xlink:href="#ArialMT-32"/>
      <use x="505.746094" xlink:href="#ArialMT-71"/>
      <use x="583.529297" xlink:href="#ArialMT-101"/>
      <use x="639.144531" xlink:href="#ArialMT-111"/>
      <use x="694.759766" xlink:href="#ArialMT-109"/>
      <use x="778.060547" xlink:href="#ArialMT-101"/>
      <use x="833.675781" xlink:href="#ArialMT-116"/>
      <use x="861.458984" xlink:href="#ArialMT-114"/>
      <use x="894.759766" xlink:href="#ArialMT-121"/>
     </g>
    </g>
    <g id="line2d_39">
     <path d="M 370.12275 139.635 
L 398.92275 139.635 
" style="fill:none;stroke:#4dbeee;stroke-linecap:square;stroke-width:1.5;"/>
    </g>
    <g id="line2d_40"/>
    <g id="text_18">
     <!-- Number Theory -->
     <defs>
      <path d="M 7.625 0 
L 7.625 71.578125 
L 17.328125 71.578125 
L 54.9375 15.375 
L 54.9375 71.578125 
L 64.015625 71.578125 
L 64.015625 0 
L 54.296875 0 
L 16.703125 56.25 
L 16.703125 0 
z
" id="ArialMT-78"/>
      <path d="M 40.578125 0 
L 40.578125 7.625 
Q 34.515625 -1.171875 24.125 -1.171875 
Q 19.53125 -1.171875 15.546875 0.578125 
Q 11.578125 2.34375 9.640625 5 
Q 7.71875 7.671875 6.9375 11.53125 
Q 6.390625 14.109375 6.390625 19.734375 
L 6.390625 51.859375 
L 15.1875 51.859375 
L 15.1875 23.09375 
Q 15.1875 16.21875 15.71875 13.8125 
Q 16.546875 10.359375 19.234375 8.375 
Q 21.921875 6.390625 25.875 6.390625 
Q 29.828125 6.390625 33.296875 8.421875 
Q 36.765625 10.453125 38.203125 13.9375 
Q 39.65625 17.4375 39.65625 24.078125 
L 39.65625 51.859375 
L 48.4375 51.859375 
L 48.4375 0 
z
" id="ArialMT-117"/>
      <path d="M 25.921875 0 
L 25.921875 63.140625 
L 2.34375 63.140625 
L 2.34375 71.578125 
L 59.078125 71.578125 
L 59.078125 63.140625 
L 35.40625 63.140625 
L 35.40625 0 
z
" id="ArialMT-84"/>
      <path d="M 6.59375 0 
L 6.59375 71.578125 
L 15.375 71.578125 
L 15.375 45.90625 
Q 21.53125 53.03125 30.90625 53.03125 
Q 36.671875 53.03125 40.921875 50.75 
Q 45.171875 48.484375 47 44.484375 
Q 48.828125 40.484375 48.828125 32.859375 
L 48.828125 0 
L 40.046875 0 
L 40.046875 32.859375 
Q 40.046875 39.453125 37.1875 42.453125 
Q 34.328125 45.453125 29.109375 45.453125 
Q 25.203125 45.453125 21.75 43.421875 
Q 18.3125 41.40625 16.84375 37.9375 
Q 15.375 34.46875 15.375 28.375 
L 15.375 0 
z
" id="ArialMT-104"/>
     </defs>
     <g transform="translate(410.44275 144.675)scale(0.144 -0.144)">
      <use xlink:href="#ArialMT-78"/>
      <use x="72.216797" xlink:href="#ArialMT-117"/>
      <use x="127.832031" xlink:href="#ArialMT-109"/>
      <use x="211.132812" xlink:href="#ArialMT-98"/>
      <use x="266.748047" xlink:href="#ArialMT-101"/>
      <use x="322.363281" xlink:href="#ArialMT-114"/>
      <use x="355.664062" xlink:href="#ArialMT-32"/>
      <use x="383.431641" xlink:href="#ArialMT-84"/>
      <use x="444.515625" xlink:href="#ArialMT-104"/>
      <use x="500.130859" xlink:href="#ArialMT-101"/>
      <use x="555.746094" xlink:href="#ArialMT-111"/>
      <use x="611.361328" xlink:href="#ArialMT-114"/>
      <use x="644.662109" xlink:href="#ArialMT-121"/>
     </g>
    </g>
   </g>
  </g>
 </g>
 <defs>
  <clipPath id="p5823f758d9">
   <rect height="381.88" width="503.147188" x="56.292813" y="18.36"/>
  </clipPath>
 </defs>
</svg>
