<?xml version="1.0" encoding="utf-8" standalone="no"?>
<!DOCTYPE svg PUBLIC "-//W3C//DTD SVG 1.1//EN"
  "http://www.w3.org/Graphics/SVG/1.1/DTD/svg11.dtd">
<!-- Created with matplotlib (https://matplotlib.org/) -->
<svg height="432pt" version="1.1" viewBox="0 0 576 432" width="576pt" xmlns="http://www.w3.org/2000/svg" xmlns:xlink="http://www.w3.org/1999/xlink">
 <defs>
  <style type="text/css">
*{stroke-linecap:butt;stroke-linejoin:round;}
  </style>
 </defs>
 <g id="figure_1">
  <g id="patch_1">
   <path d="M 0 432 
L 576 432 
L 576 0 
L 0 0 
z
" style="fill:#ffffff;"/>
  </g>
  <g id="axes_1">
   <g id="patch_2">
    <path d="M 56.292813 400.24 
L 559.44 400.24 
L 559.44 18.36 
L 56.292813 18.36 
z
" style="fill:#ffffff;"/>
   </g>
   <g id="matplotlib.axis_1">
    <g id="xtick_1">
     <g id="line2d_1">
      <path clip-path="url(#p1dd1b64f85)" d="M 108.20944 400.24 
L 108.20944 18.36 
" style="fill:none;stroke:#b2b2b2;stroke-linecap:square;stroke-width:0.5;"/>
     </g>
     <g id="line2d_2">
      <defs>
       <path d="M 0 0 
L 0 4 
" id="m71ba37e7f3" style="stroke:#000000;stroke-width:0.5;"/>
      </defs>
      <g>
       <use style="stroke:#000000;stroke-width:0.5;" x="108.20944" xlink:href="#m71ba37e7f3" y="400.24"/>
      </g>
     </g>
     <g id="text_1">
      <!-- 1995 -->
      <defs>
       <path d="M 37.25 0 
L 28.46875 0 
L 28.46875 56 
Q 25.296875 52.984375 20.140625 49.953125 
Q 14.984375 46.921875 10.890625 45.40625 
L 10.890625 53.90625 
Q 18.265625 57.375 23.78125 62.296875 
Q 29.296875 67.234375 31.59375 71.875 
L 37.25 71.875 
z
" id="ArialMT-49"/>
       <path d="M 5.46875 16.546875 
L 13.921875 17.328125 
Q 14.984375 11.375 18.015625 8.6875 
Q 21.046875 6 25.78125 6 
Q 29.828125 6 32.875 7.859375 
Q 35.9375 9.71875 37.890625 12.8125 
Q 39.84375 15.921875 41.15625 21.1875 
Q 42.484375 26.46875 42.484375 31.9375 
Q 42.484375 32.515625 42.4375 33.6875 
Q 39.796875 29.5 35.234375 26.875 
Q 30.671875 24.265625 25.34375 24.265625 
Q 16.453125 24.265625 10.296875 30.703125 
Q 4.15625 37.15625 4.15625 47.703125 
Q 4.15625 58.59375 10.578125 65.234375 
Q 17 71.875 26.65625 71.875 
Q 33.640625 71.875 39.421875 68.109375 
Q 45.21875 64.359375 48.21875 57.390625 
Q 51.21875 50.4375 51.21875 37.25 
Q 51.21875 23.53125 48.234375 15.40625 
Q 45.265625 7.28125 39.375 3.03125 
Q 33.5 -1.21875 25.59375 -1.21875 
Q 17.1875 -1.21875 11.859375 3.4375 
Q 6.546875 8.109375 5.46875 16.546875 
z
M 41.453125 48.140625 
Q 41.453125 55.71875 37.421875 60.15625 
Q 33.40625 64.59375 27.734375 64.59375 
Q 21.875 64.59375 17.53125 59.8125 
Q 13.1875 55.03125 13.1875 47.40625 
Q 13.1875 40.578125 17.3125 36.296875 
Q 21.4375 32.03125 27.484375 32.03125 
Q 33.59375 32.03125 37.515625 36.296875 
Q 41.453125 40.578125 41.453125 48.140625 
z
" id="ArialMT-57"/>
       <path d="M 4.15625 18.75 
L 13.375 19.53125 
Q 14.40625 12.796875 18.140625 9.390625 
Q 21.875 6 27.15625 6 
Q 33.5 6 37.890625 10.78125 
Q 42.28125 15.578125 42.28125 23.484375 
Q 42.28125 31 38.0625 35.34375 
Q 33.84375 39.703125 27 39.703125 
Q 22.75 39.703125 19.328125 37.765625 
Q 15.921875 35.84375 13.96875 32.765625 
L 5.71875 33.84375 
L 12.640625 70.609375 
L 48.25 70.609375 
L 48.25 62.203125 
L 19.671875 62.203125 
L 15.828125 42.96875 
Q 22.265625 47.46875 29.34375 47.46875 
Q 38.71875 47.46875 45.15625 40.96875 
Q 51.609375 34.46875 51.609375 24.265625 
Q 51.609375 14.546875 45.953125 7.46875 
Q 39.0625 -1.21875 27.15625 -1.21875 
Q 17.390625 -1.21875 11.203125 4.25 
Q 5.03125 9.71875 4.15625 18.75 
z
" id="ArialMT-53"/>
      </defs>
      <g transform="translate(94.86319 416.829375)scale(0.12 -0.12)">
       <use xlink:href="#ArialMT-49"/>
       <use x="55.615234" xlink:href="#ArialMT-57"/>
       <use x="111.230469" xlink:href="#ArialMT-57"/>
       <use x="166.845703" xlink:href="#ArialMT-53"/>
      </g>
     </g>
    </g>
    <g id="xtick_2">
     <g id="line2d_3">
      <path clip-path="url(#p1dd1b64f85)" d="M 200.301855 400.24 
L 200.301855 18.36 
" style="fill:none;stroke:#b2b2b2;stroke-linecap:square;stroke-width:0.5;"/>
     </g>
     <g id="line2d_4">
      <g>
       <use style="stroke:#000000;stroke-width:0.5;" x="200.301855" xlink:href="#m71ba37e7f3" y="400.24"/>
      </g>
     </g>
     <g id="text_2">
      <!-- 2000 -->
      <defs>
       <path d="M 50.34375 8.453125 
L 50.34375 0 
L 3.03125 0 
Q 2.9375 3.171875 4.046875 6.109375 
Q 5.859375 10.9375 9.828125 15.625 
Q 13.8125 20.3125 21.34375 26.46875 
Q 33.015625 36.03125 37.109375 41.625 
Q 41.21875 47.21875 41.21875 52.203125 
Q 41.21875 57.421875 37.46875 61 
Q 33.734375 64.59375 27.734375 64.59375 
Q 21.390625 64.59375 17.578125 60.78125 
Q 13.765625 56.984375 13.71875 50.25 
L 4.6875 51.171875 
Q 5.609375 61.28125 11.65625 66.578125 
Q 17.71875 71.875 27.9375 71.875 
Q 38.234375 71.875 44.234375 66.15625 
Q 50.25 60.453125 50.25 52 
Q 50.25 47.703125 48.484375 43.546875 
Q 46.734375 39.40625 42.65625 34.8125 
Q 38.578125 30.21875 29.109375 22.21875 
Q 21.1875 15.578125 18.9375 13.203125 
Q 16.703125 10.84375 15.234375 8.453125 
z
" id="ArialMT-50"/>
       <path d="M 4.15625 35.296875 
Q 4.15625 48 6.765625 55.734375 
Q 9.375 63.484375 14.515625 67.671875 
Q 19.671875 71.875 27.484375 71.875 
Q 33.25 71.875 37.59375 69.546875 
Q 41.9375 67.234375 44.765625 62.859375 
Q 47.609375 58.5 49.21875 52.21875 
Q 50.828125 45.953125 50.828125 35.296875 
Q 50.828125 22.703125 48.234375 14.96875 
Q 45.65625 7.234375 40.5 3 
Q 35.359375 -1.21875 27.484375 -1.21875 
Q 17.140625 -1.21875 11.234375 6.203125 
Q 4.15625 15.140625 4.15625 35.296875 
z
M 13.1875 35.296875 
Q 13.1875 17.671875 17.3125 11.828125 
Q 21.4375 6 27.484375 6 
Q 33.546875 6 37.671875 11.859375 
Q 41.796875 17.71875 41.796875 35.296875 
Q 41.796875 52.984375 37.671875 58.78125 
Q 33.546875 64.59375 27.390625 64.59375 
Q 21.34375 64.59375 17.71875 59.46875 
Q 13.1875 52.9375 13.1875 35.296875 
z
" id="ArialMT-48"/>
      </defs>
      <g transform="translate(186.955605 416.829375)scale(0.12 -0.12)">
       <use xlink:href="#ArialMT-50"/>
       <use x="55.615234" xlink:href="#ArialMT-48"/>
       <use x="111.230469" xlink:href="#ArialMT-48"/>
       <use x="166.845703" xlink:href="#ArialMT-48"/>
      </g>
     </g>
    </g>
    <g id="xtick_3">
     <g id="line2d_5">
      <path clip-path="url(#p1dd1b64f85)" d="M 292.444705 400.24 
L 292.444705 18.36 
" style="fill:none;stroke:#b2b2b2;stroke-linecap:square;stroke-width:0.5;"/>
     </g>
     <g id="line2d_6">
      <g>
       <use style="stroke:#000000;stroke-width:0.5;" x="292.444705" xlink:href="#m71ba37e7f3" y="400.24"/>
      </g>
     </g>
     <g id="text_3">
      <!-- 2005 -->
      <g transform="translate(279.098455 416.829375)scale(0.12 -0.12)">
       <use xlink:href="#ArialMT-50"/>
       <use x="55.615234" xlink:href="#ArialMT-48"/>
       <use x="111.230469" xlink:href="#ArialMT-48"/>
       <use x="166.845703" xlink:href="#ArialMT-53"/>
      </g>
     </g>
    </g>
    <g id="xtick_4">
     <g id="line2d_7">
      <path clip-path="url(#p1dd1b64f85)" d="M 384.53712 400.24 
L 384.53712 18.36 
" style="fill:none;stroke:#b2b2b2;stroke-linecap:square;stroke-width:0.5;"/>
     </g>
     <g id="line2d_8">
      <g>
       <use style="stroke:#000000;stroke-width:0.5;" x="384.53712" xlink:href="#m71ba37e7f3" y="400.24"/>
      </g>
     </g>
     <g id="text_4">
      <!-- 2010 -->
      <g transform="translate(371.19087 416.829375)scale(0.12 -0.12)">
       <use xlink:href="#ArialMT-50"/>
       <use x="55.615234" xlink:href="#ArialMT-48"/>
       <use x="111.230469" xlink:href="#ArialMT-49"/>
       <use x="166.845703" xlink:href="#ArialMT-48"/>
      </g>
     </g>
    </g>
    <g id="xtick_5">
     <g id="line2d_9">
      <path clip-path="url(#p1dd1b64f85)" d="M 476.629535 400.24 
L 476.629535 18.36 
" style="fill:none;stroke:#b2b2b2;stroke-linecap:square;stroke-width:0.5;"/>
     </g>
     <g id="line2d_10">
      <g>
       <use style="stroke:#000000;stroke-width:0.5;" x="476.629535" xlink:href="#m71ba37e7f3" y="400.24"/>
      </g>
     </g>
     <g id="text_5">
      <!-- 2015 -->
      <g transform="translate(463.283285 416.829375)scale(0.12 -0.12)">
       <use xlink:href="#ArialMT-50"/>
       <use x="55.615234" xlink:href="#ArialMT-48"/>
       <use x="111.230469" xlink:href="#ArialMT-49"/>
       <use x="166.845703" xlink:href="#ArialMT-53"/>
      </g>
     </g>
    </g>
   </g>
   <g id="matplotlib.axis_2">
    <g id="ytick_1">
     <g id="line2d_11">
      <path clip-path="url(#p1dd1b64f85)" d="M 56.292813 382.055238 
L 559.44 382.055238 
" style="fill:none;stroke:#b2b2b2;stroke-linecap:square;stroke-width:0.5;"/>
     </g>
     <g id="line2d_12">
      <defs>
       <path d="M 0 0 
L -4 0 
" id="me2a655e863" style="stroke:#000000;stroke-width:0.5;"/>
      </defs>
      <g>
       <use style="stroke:#000000;stroke-width:0.5;" x="56.292813" xlink:href="#me2a655e863" y="382.055238"/>
      </g>
     </g>
     <g id="text_6">
      <!-- 0.0 -->
      <defs>
       <path d="M 9.078125 0 
L 9.078125 10.015625 
L 19.09375 10.015625 
L 19.09375 0 
z
" id="ArialMT-46"/>
      </defs>
      <g transform="translate(31.612813 385.157426)scale(0.12 -0.12)">
       <use xlink:href="#ArialMT-48"/>
       <use x="55.615234" xlink:href="#ArialMT-46"/>
       <use x="83.398438" xlink:href="#ArialMT-48"/>
      </g>
     </g>
    </g>
    <g id="ytick_2">
     <g id="line2d_13">
      <path clip-path="url(#p1dd1b64f85)" d="M 56.292813 309.31619 
L 559.44 309.31619 
" style="fill:none;stroke:#b2b2b2;stroke-linecap:square;stroke-width:0.5;"/>
     </g>
     <g id="line2d_14">
      <g>
       <use style="stroke:#000000;stroke-width:0.5;" x="56.292813" xlink:href="#me2a655e863" y="309.31619"/>
      </g>
     </g>
     <g id="text_7">
      <!-- 0.2 -->
      <g transform="translate(31.612813 312.418378)scale(0.12 -0.12)">
       <use xlink:href="#ArialMT-48"/>
       <use x="55.615234" xlink:href="#ArialMT-46"/>
       <use x="83.398438" xlink:href="#ArialMT-50"/>
      </g>
     </g>
    </g>
    <g id="ytick_3">
     <g id="line2d_15">
      <path clip-path="url(#p1dd1b64f85)" d="M 56.292813 236.577143 
L 559.44 236.577143 
" style="fill:none;stroke:#b2b2b2;stroke-linecap:square;stroke-width:0.5;"/>
     </g>
     <g id="line2d_16">
      <g>
       <use style="stroke:#000000;stroke-width:0.5;" x="56.292813" xlink:href="#me2a655e863" y="236.577143"/>
      </g>
     </g>
     <g id="text_8">
      <!-- 0.4 -->
      <defs>
       <path d="M 32.328125 0 
L 32.328125 17.140625 
L 1.265625 17.140625 
L 1.265625 25.203125 
L 33.9375 71.578125 
L 41.109375 71.578125 
L 41.109375 25.203125 
L 50.78125 25.203125 
L 50.78125 17.140625 
L 41.109375 17.140625 
L 41.109375 0 
z
M 32.328125 25.203125 
L 32.328125 57.46875 
L 9.90625 25.203125 
z
" id="ArialMT-52"/>
      </defs>
      <g transform="translate(31.612813 239.67933)scale(0.12 -0.12)">
       <use xlink:href="#ArialMT-48"/>
       <use x="55.615234" xlink:href="#ArialMT-46"/>
       <use x="83.398438" xlink:href="#ArialMT-52"/>
      </g>
     </g>
    </g>
    <g id="ytick_4">
     <g id="line2d_17">
      <path clip-path="url(#p1dd1b64f85)" d="M 56.292813 163.838095 
L 559.44 163.838095 
" style="fill:none;stroke:#b2b2b2;stroke-linecap:square;stroke-width:0.5;"/>
     </g>
     <g id="line2d_18">
      <g>
       <use style="stroke:#000000;stroke-width:0.5;" x="56.292813" xlink:href="#me2a655e863" y="163.838095"/>
      </g>
     </g>
     <g id="text_9">
      <!-- 0.6 -->
      <defs>
       <path d="M 49.75 54.046875 
L 41.015625 53.375 
Q 39.84375 58.546875 37.703125 60.890625 
Q 34.125 64.65625 28.90625 64.65625 
Q 24.703125 64.65625 21.53125 62.3125 
Q 17.390625 59.28125 14.984375 53.46875 
Q 12.59375 47.65625 12.5 36.921875 
Q 15.671875 41.75 20.265625 44.09375 
Q 24.859375 46.4375 29.890625 46.4375 
Q 38.671875 46.4375 44.84375 39.96875 
Q 51.03125 33.5 51.03125 23.25 
Q 51.03125 16.5 48.125 10.71875 
Q 45.21875 4.9375 40.140625 1.859375 
Q 35.0625 -1.21875 28.609375 -1.21875 
Q 17.625 -1.21875 10.6875 6.859375 
Q 3.765625 14.9375 3.765625 33.5 
Q 3.765625 54.25 11.421875 63.671875 
Q 18.109375 71.875 29.4375 71.875 
Q 37.890625 71.875 43.28125 67.140625 
Q 48.6875 62.40625 49.75 54.046875 
z
M 13.875 23.1875 
Q 13.875 18.65625 15.796875 14.5 
Q 17.71875 10.359375 21.1875 8.171875 
Q 24.65625 6 28.46875 6 
Q 34.03125 6 38.03125 10.484375 
Q 42.046875 14.984375 42.046875 22.703125 
Q 42.046875 30.125 38.078125 34.390625 
Q 34.125 38.671875 28.125 38.671875 
Q 22.171875 38.671875 18.015625 34.390625 
Q 13.875 30.125 13.875 23.1875 
z
" id="ArialMT-54"/>
      </defs>
      <g transform="translate(31.612813 166.940283)scale(0.12 -0.12)">
       <use xlink:href="#ArialMT-48"/>
       <use x="55.615234" xlink:href="#ArialMT-46"/>
       <use x="83.398438" xlink:href="#ArialMT-54"/>
      </g>
     </g>
    </g>
    <g id="ytick_5">
     <g id="line2d_19">
      <path clip-path="url(#p1dd1b64f85)" d="M 56.292813 91.099048 
L 559.44 91.099048 
" style="fill:none;stroke:#b2b2b2;stroke-linecap:square;stroke-width:0.5;"/>
     </g>
     <g id="line2d_20">
      <g>
       <use style="stroke:#000000;stroke-width:0.5;" x="56.292813" xlink:href="#me2a655e863" y="91.099048"/>
      </g>
     </g>
     <g id="text_10">
      <!-- 0.8 -->
      <defs>
       <path d="M 17.671875 38.8125 
Q 12.203125 40.828125 9.5625 44.53125 
Q 6.9375 48.25 6.9375 53.421875 
Q 6.9375 61.234375 12.546875 66.546875 
Q 18.171875 71.875 27.484375 71.875 
Q 36.859375 71.875 42.578125 66.421875 
Q 48.296875 60.984375 48.296875 53.171875 
Q 48.296875 48.1875 45.671875 44.5 
Q 43.0625 40.828125 37.75 38.8125 
Q 44.34375 36.671875 47.78125 31.875 
Q 51.21875 27.09375 51.21875 20.453125 
Q 51.21875 11.28125 44.71875 5.03125 
Q 38.234375 -1.21875 27.640625 -1.21875 
Q 17.046875 -1.21875 10.546875 5.046875 
Q 4.046875 11.328125 4.046875 20.703125 
Q 4.046875 27.6875 7.59375 32.390625 
Q 11.140625 37.109375 17.671875 38.8125 
z
M 15.921875 53.71875 
Q 15.921875 48.640625 19.1875 45.40625 
Q 22.46875 42.1875 27.6875 42.1875 
Q 32.765625 42.1875 36.015625 45.375 
Q 39.265625 48.578125 39.265625 53.21875 
Q 39.265625 58.0625 35.90625 61.359375 
Q 32.5625 64.65625 27.59375 64.65625 
Q 22.5625 64.65625 19.234375 61.421875 
Q 15.921875 58.203125 15.921875 53.71875 
z
M 13.09375 20.65625 
Q 13.09375 16.890625 14.875 13.375 
Q 16.65625 9.859375 20.171875 7.921875 
Q 23.6875 6 27.734375 6 
Q 34.03125 6 38.125 10.046875 
Q 42.234375 14.109375 42.234375 20.359375 
Q 42.234375 26.703125 38.015625 30.859375 
Q 33.796875 35.015625 27.4375 35.015625 
Q 21.234375 35.015625 17.15625 30.90625 
Q 13.09375 26.8125 13.09375 20.65625 
z
" id="ArialMT-56"/>
      </defs>
      <g transform="translate(31.612813 94.201235)scale(0.12 -0.12)">
       <use xlink:href="#ArialMT-48"/>
       <use x="55.615234" xlink:href="#ArialMT-46"/>
       <use x="83.398438" xlink:href="#ArialMT-56"/>
      </g>
     </g>
    </g>
    <g id="ytick_6">
     <g id="line2d_21">
      <path clip-path="url(#p1dd1b64f85)" d="M 56.292813 18.36 
L 559.44 18.36 
" style="fill:none;stroke:#b2b2b2;stroke-linecap:square;stroke-width:0.5;"/>
     </g>
     <g id="line2d_22">
      <g>
       <use style="stroke:#000000;stroke-width:0.5;" x="56.292813" xlink:href="#me2a655e863" y="18.36"/>
      </g>
     </g>
     <g id="text_11">
      <!-- 1.0 -->
      <g transform="translate(31.612813 21.462187)scale(0.12 -0.12)">
       <use xlink:href="#ArialMT-49"/>
       <use x="55.615234" xlink:href="#ArialMT-46"/>
       <use x="83.398438" xlink:href="#ArialMT-48"/>
      </g>
     </g>
    </g>
    <g id="text_12">
     <!-- Fraction of papers -->
     <defs>
      <path d="M 8.203125 0 
L 8.203125 71.578125 
L 56.5 71.578125 
L 56.5 63.140625 
L 17.671875 63.140625 
L 17.671875 40.96875 
L 51.265625 40.96875 
L 51.265625 32.515625 
L 17.671875 32.515625 
L 17.671875 0 
z
" id="ArialMT-70"/>
      <path d="M 6.5 0 
L 6.5 51.859375 
L 14.40625 51.859375 
L 14.40625 44 
Q 17.4375 49.515625 20 51.265625 
Q 22.5625 53.03125 25.640625 53.03125 
Q 30.078125 53.03125 34.671875 50.203125 
L 31.640625 42.046875 
Q 28.421875 43.953125 25.203125 43.953125 
Q 22.3125 43.953125 20.015625 42.21875 
Q 17.71875 40.484375 16.75 37.40625 
Q 15.28125 32.71875 15.28125 27.15625 
L 15.28125 0 
z
" id="ArialMT-114"/>
      <path d="M 40.4375 6.390625 
Q 35.546875 2.25 31.03125 0.53125 
Q 26.515625 -1.171875 21.34375 -1.171875 
Q 12.796875 -1.171875 8.203125 3 
Q 3.609375 7.171875 3.609375 13.671875 
Q 3.609375 17.484375 5.34375 20.625 
Q 7.078125 23.78125 9.890625 25.6875 
Q 12.703125 27.59375 16.21875 28.5625 
Q 18.796875 29.25 24.03125 29.890625 
Q 34.671875 31.15625 39.703125 32.90625 
Q 39.75 34.71875 39.75 35.203125 
Q 39.75 40.578125 37.25 42.78125 
Q 33.890625 45.75 27.25 45.75 
Q 21.046875 45.75 18.09375 43.578125 
Q 15.140625 41.40625 13.71875 35.890625 
L 5.125 37.0625 
Q 6.296875 42.578125 8.984375 45.96875 
Q 11.671875 49.359375 16.75 51.1875 
Q 21.828125 53.03125 28.515625 53.03125 
Q 35.15625 53.03125 39.296875 51.46875 
Q 43.453125 49.90625 45.40625 47.53125 
Q 47.359375 45.171875 48.140625 41.546875 
Q 48.578125 39.3125 48.578125 33.453125 
L 48.578125 21.734375 
Q 48.578125 9.46875 49.140625 6.21875 
Q 49.703125 2.984375 51.375 0 
L 42.1875 0 
Q 40.828125 2.734375 40.4375 6.390625 
z
M 39.703125 26.03125 
Q 34.90625 24.078125 25.34375 22.703125 
Q 19.921875 21.921875 17.671875 20.9375 
Q 15.4375 19.96875 14.203125 18.09375 
Q 12.984375 16.21875 12.984375 13.921875 
Q 12.984375 10.40625 15.640625 8.0625 
Q 18.3125 5.71875 23.4375 5.71875 
Q 28.515625 5.71875 32.46875 7.9375 
Q 36.421875 10.15625 38.28125 14.015625 
Q 39.703125 17 39.703125 22.796875 
z
" id="ArialMT-97"/>
      <path d="M 40.4375 19 
L 49.078125 17.875 
Q 47.65625 8.9375 41.8125 3.875 
Q 35.984375 -1.171875 27.484375 -1.171875 
Q 16.84375 -1.171875 10.375 5.78125 
Q 3.90625 12.75 3.90625 25.734375 
Q 3.90625 34.125 6.6875 40.421875 
Q 9.46875 46.734375 15.15625 49.875 
Q 20.84375 53.03125 27.546875 53.03125 
Q 35.984375 53.03125 41.359375 48.75 
Q 46.734375 44.484375 48.25 36.625 
L 39.703125 35.296875 
Q 38.484375 40.53125 35.375 43.15625 
Q 32.28125 45.796875 27.875 45.796875 
Q 21.234375 45.796875 17.078125 41.03125 
Q 12.9375 36.28125 12.9375 25.984375 
Q 12.9375 15.53125 16.9375 10.796875 
Q 20.953125 6.0625 27.390625 6.0625 
Q 32.5625 6.0625 36.03125 9.234375 
Q 39.5 12.40625 40.4375 19 
z
" id="ArialMT-99"/>
      <path d="M 25.78125 7.859375 
L 27.046875 0.09375 
Q 23.34375 -0.6875 20.40625 -0.6875 
Q 15.625 -0.6875 12.984375 0.828125 
Q 10.359375 2.34375 9.28125 4.8125 
Q 8.203125 7.28125 8.203125 15.1875 
L 8.203125 45.015625 
L 1.765625 45.015625 
L 1.765625 51.859375 
L 8.203125 51.859375 
L 8.203125 64.703125 
L 16.9375 69.96875 
L 16.9375 51.859375 
L 25.78125 51.859375 
L 25.78125 45.015625 
L 16.9375 45.015625 
L 16.9375 14.703125 
Q 16.9375 10.9375 17.40625 9.859375 
Q 17.875 8.796875 18.921875 8.15625 
Q 19.96875 7.515625 21.921875 7.515625 
Q 23.390625 7.515625 25.78125 7.859375 
z
" id="ArialMT-116"/>
      <path d="M 6.640625 61.46875 
L 6.640625 71.578125 
L 15.4375 71.578125 
L 15.4375 61.46875 
z
M 6.640625 0 
L 6.640625 51.859375 
L 15.4375 51.859375 
L 15.4375 0 
z
" id="ArialMT-105"/>
      <path d="M 3.328125 25.921875 
Q 3.328125 40.328125 11.328125 47.265625 
Q 18.015625 53.03125 27.640625 53.03125 
Q 38.328125 53.03125 45.109375 46.015625 
Q 51.90625 39.015625 51.90625 26.65625 
Q 51.90625 16.65625 48.90625 10.90625 
Q 45.90625 5.171875 40.15625 2 
Q 34.421875 -1.171875 27.640625 -1.171875 
Q 16.75 -1.171875 10.03125 5.8125 
Q 3.328125 12.796875 3.328125 25.921875 
z
M 12.359375 25.921875 
Q 12.359375 15.96875 16.703125 11.015625 
Q 21.046875 6.0625 27.640625 6.0625 
Q 34.1875 6.0625 38.53125 11.03125 
Q 42.875 16.015625 42.875 26.21875 
Q 42.875 35.84375 38.5 40.796875 
Q 34.125 45.75 27.640625 45.75 
Q 21.046875 45.75 16.703125 40.8125 
Q 12.359375 35.890625 12.359375 25.921875 
z
" id="ArialMT-111"/>
      <path d="M 6.59375 0 
L 6.59375 51.859375 
L 14.5 51.859375 
L 14.5 44.484375 
Q 20.21875 53.03125 31 53.03125 
Q 35.6875 53.03125 39.625 51.34375 
Q 43.5625 49.65625 45.515625 46.921875 
Q 47.46875 44.1875 48.25 40.4375 
Q 48.734375 37.984375 48.734375 31.890625 
L 48.734375 0 
L 39.9375 0 
L 39.9375 31.546875 
Q 39.9375 36.921875 38.90625 39.578125 
Q 37.890625 42.234375 35.28125 43.8125 
Q 32.671875 45.40625 29.15625 45.40625 
Q 23.53125 45.40625 19.453125 41.84375 
Q 15.375 38.28125 15.375 28.328125 
L 15.375 0 
z
" id="ArialMT-110"/>
      <path id="ArialMT-32"/>
      <path d="M 8.6875 0 
L 8.6875 45.015625 
L 0.921875 45.015625 
L 0.921875 51.859375 
L 8.6875 51.859375 
L 8.6875 57.375 
Q 8.6875 62.59375 9.625 65.140625 
Q 10.890625 68.5625 14.078125 70.671875 
Q 17.28125 72.796875 23.046875 72.796875 
Q 26.765625 72.796875 31.25 71.921875 
L 29.9375 64.265625 
Q 27.203125 64.75 24.75 64.75 
Q 20.75 64.75 19.09375 63.03125 
Q 17.4375 61.328125 17.4375 56.640625 
L 17.4375 51.859375 
L 27.546875 51.859375 
L 27.546875 45.015625 
L 17.4375 45.015625 
L 17.4375 0 
z
" id="ArialMT-102"/>
      <path d="M 6.59375 -19.875 
L 6.59375 51.859375 
L 14.59375 51.859375 
L 14.59375 45.125 
Q 17.4375 49.078125 21 51.046875 
Q 24.5625 53.03125 29.640625 53.03125 
Q 36.28125 53.03125 41.359375 49.609375 
Q 46.4375 46.1875 49.015625 39.953125 
Q 51.609375 33.734375 51.609375 26.3125 
Q 51.609375 18.359375 48.75 11.984375 
Q 45.90625 5.609375 40.453125 2.21875 
Q 35.015625 -1.171875 29 -1.171875 
Q 24.609375 -1.171875 21.109375 0.6875 
Q 17.625 2.546875 15.375 5.375 
L 15.375 -19.875 
z
M 14.546875 25.640625 
Q 14.546875 15.625 18.59375 10.84375 
Q 22.65625 6.0625 28.421875 6.0625 
Q 34.28125 6.0625 38.453125 11.015625 
Q 42.625 15.96875 42.625 26.375 
Q 42.625 36.28125 38.546875 41.203125 
Q 34.46875 46.140625 28.8125 46.140625 
Q 23.1875 46.140625 18.859375 40.890625 
Q 14.546875 35.640625 14.546875 25.640625 
z
" id="ArialMT-112"/>
      <path d="M 42.09375 16.703125 
L 51.171875 15.578125 
Q 49.03125 7.625 43.21875 3.21875 
Q 37.40625 -1.171875 28.375 -1.171875 
Q 17 -1.171875 10.328125 5.828125 
Q 3.65625 12.84375 3.65625 25.484375 
Q 3.65625 38.578125 10.390625 45.796875 
Q 17.140625 53.03125 27.875 53.03125 
Q 38.28125 53.03125 44.875 45.953125 
Q 51.46875 38.875 51.46875 26.03125 
Q 51.46875 25.25 51.421875 23.6875 
L 12.75 23.6875 
Q 13.234375 15.140625 17.578125 10.59375 
Q 21.921875 6.0625 28.421875 6.0625 
Q 33.25 6.0625 36.671875 8.59375 
Q 40.09375 11.140625 42.09375 16.703125 
z
M 13.234375 30.90625 
L 42.1875 30.90625 
Q 41.609375 37.453125 38.875 40.71875 
Q 34.671875 45.796875 27.984375 45.796875 
Q 21.921875 45.796875 17.796875 41.75 
Q 13.671875 37.703125 13.234375 30.90625 
z
" id="ArialMT-101"/>
      <path d="M 3.078125 15.484375 
L 11.765625 16.84375 
Q 12.5 11.625 15.84375 8.84375 
Q 19.1875 6.0625 25.203125 6.0625 
Q 31.25 6.0625 34.171875 8.515625 
Q 37.109375 10.984375 37.109375 14.3125 
Q 37.109375 17.28125 34.515625 19 
Q 32.71875 20.171875 25.53125 21.96875 
Q 15.875 24.421875 12.140625 26.203125 
Q 8.40625 27.984375 6.46875 31.125 
Q 4.546875 34.28125 4.546875 38.09375 
Q 4.546875 41.546875 6.125 44.5 
Q 7.71875 47.46875 10.453125 49.421875 
Q 12.5 50.921875 16.03125 51.96875 
Q 19.578125 53.03125 23.640625 53.03125 
Q 29.734375 53.03125 34.34375 51.265625 
Q 38.96875 49.515625 41.15625 46.5 
Q 43.359375 43.5 44.1875 38.484375 
L 35.59375 37.3125 
Q 35.015625 41.3125 32.203125 43.546875 
Q 29.390625 45.796875 24.265625 45.796875 
Q 18.21875 45.796875 15.625 43.796875 
Q 13.03125 41.796875 13.03125 39.109375 
Q 13.03125 37.40625 14.109375 36.03125 
Q 15.1875 34.625 17.484375 33.6875 
Q 18.796875 33.203125 25.25 31.453125 
Q 34.578125 28.953125 38.25 27.359375 
Q 41.9375 25.78125 44.03125 22.75 
Q 46.140625 19.734375 46.140625 15.234375 
Q 46.140625 10.84375 43.578125 6.953125 
Q 41.015625 3.078125 36.171875 0.953125 
Q 31.34375 -1.171875 25.25 -1.171875 
Q 15.140625 -1.171875 9.84375 3.03125 
Q 4.546875 7.234375 3.078125 15.484375 
z
" id="ArialMT-115"/>
     </defs>
     <g transform="translate(23.830312 265.712344)rotate(-90)scale(0.14 -0.14)">
      <use xlink:href="#ArialMT-70"/>
      <use x="61.083984" xlink:href="#ArialMT-114"/>
      <use x="94.384766" xlink:href="#ArialMT-97"/>
      <use x="150" xlink:href="#ArialMT-99"/>
      <use x="200" xlink:href="#ArialMT-116"/>
      <use x="227.783203" xlink:href="#ArialMT-105"/>
      <use x="250" xlink:href="#ArialMT-111"/>
      <use x="305.615234" xlink:href="#ArialMT-110"/>
      <use x="361.230469" xlink:href="#ArialMT-32"/>
      <use x="389.013672" xlink:href="#ArialMT-111"/>
      <use x="444.628906" xlink:href="#ArialMT-102"/>
      <use x="472.412109" xlink:href="#ArialMT-32"/>
      <use x="500.195312" xlink:href="#ArialMT-112"/>
      <use x="555.810547" xlink:href="#ArialMT-97"/>
      <use x="611.425781" xlink:href="#ArialMT-112"/>
      <use x="667.041016" xlink:href="#ArialMT-101"/>
      <use x="722.65625" xlink:href="#ArialMT-114"/>
      <use x="755.957031" xlink:href="#ArialMT-115"/>
     </g>
    </g>
   </g>
   <g id="line2d_23">
    <path clip-path="url(#p1dd1b64f85)" d="M 56.741581 382.055238 
L 87.481081 382.055238 
L 89.019317 378.591474 
L 90.58277 382.055238 
L 96.632744 382.055238 
L 98.17098 379.361199 
L 99.709216 382.055238 
L 121.219301 382.055238 
L 122.758587 380.289727 
L 124.297874 382.055238 
L 127.399563 382.055238 
L 128.912582 380.190134 
L 130.4256 380.546129 
L 131.962786 377.583575 
L 133.499971 377.708283 
L 135.038207 379.351184 
L 136.576442 379.538316 
L 138.139895 373.713604 
L 139.678131 378.758907 
L 141.217418 340.410745 
L 142.756704 326.949899 
L 144.29494 335.427643 
L 145.858393 321.840795 
L 147.346195 333.93556 
L 148.833997 341.899612 
L 150.371182 340.552478 
L 151.908367 345.417634 
L 153.446603 347.457779 
L 154.984839 337.419913 
L 156.548292 350.881361 
L 158.086527 344.290044 
L 159.625814 329.066528 
L 161.1651 336.381883 
L 162.703336 342.126883 
L 164.266789 345.042006 
L 165.754591 348.457526 
L 167.242393 342.963236 
L 168.779578 346.153991 
L 170.316763 351.157236 
L 171.854999 343.470675 
L 173.393235 341.352883 
L 174.956688 344.679443 
L 176.494924 339.694728 
L 178.03421 335.187295 
L 179.573497 340.279434 
L 181.111733 338.098694 
L 182.675185 344.899732 
L 184.162987 338.741817 
L 185.650789 337.462032 
L 187.187974 348.19597 
L 188.72516 341.386442 
L 190.263395 344.872338 
L 191.801631 334.526883 
L 193.365084 332.631365 
L 194.90332 335.398817 
L 196.442606 340.070218 
L 197.981893 341.974538 
L 199.520129 335.960159 
L 201.083582 350.782081 
L 202.596601 343.224619 
L 204.109619 340.127905 
L 205.646805 347.074649 
L 207.18399 345.825061 
L 208.722226 342.490066 
L 210.260461 345.832563 
L 211.823914 346.388246 
L 213.36215 332.000549 
L 214.901437 341.644656 
L 216.440723 337.408512 
L 217.978959 337.390911 
L 219.542412 342.896311 
L 221.030214 342.696438 
L 222.518016 348.314364 
L 224.055201 343.243636 
L 225.592386 336.904007 
L 227.130622 333.161359 
L 228.668858 344.573622 
L 230.232311 346.223195 
L 231.770546 338.524148 
L 233.309833 345.409889 
L 234.84912 341.874785 
L 236.387355 335.615658 
L 237.950808 340.440527 
L 239.43861 337.872313 
L 240.926412 342.906127 
L 242.463597 337.580506 
L 244.000782 343.364255 
L 245.539018 341.266987 
L 247.077254 345.581504 
L 248.640707 336.488823 
L 250.178943 337.019095 
L 251.718229 340.751156 
L 253.257516 343.657135 
L 254.795752 338.804994 
L 256.359204 347.535012 
L 257.847006 337.521127 
L 259.334808 336.690267 
L 260.871993 336.775911 
L 262.409179 345.756198 
L 263.947414 337.660514 
L 265.48565 333.899295 
L 267.049103 336.338216 
L 268.587339 343.309816 
L 270.126626 333.274946 
L 271.665912 333.95361 
L 273.204148 339.521999 
L 274.767601 335.829268 
L 276.28062 330.199564 
L 277.793638 329.63939 
L 279.330824 334.06997 
L 280.868009 330.436155 
L 282.406245 331.043438 
L 283.94448 329.035728 
L 285.507933 333.846123 
L 287.046169 337.782148 
L 288.585456 335.000329 
L 290.124742 324.325835 
L 291.662978 337.374466 
L 293.226431 336.756279 
L 294.714233 333.734674 
L 296.202035 334.740159 
L 297.73922 336.400535 
L 299.276405 332.313616 
L 300.814641 338.41181 
L 302.352877 334.131497 
L 303.91633 332.519686 
L 305.454565 334.858146 
L 306.993852 331.126395 
L 308.533139 333.923791 
L 310.071374 328.07694 
L 311.634827 335.766753 
L 313.122629 328.174462 
L 314.610431 334.155313 
L 316.147616 329.533473 
L 317.684801 335.178963 
L 319.223037 328.890486 
L 320.761273 329.968232 
L 322.324726 330.773535 
L 323.862962 328.471012 
L 325.402248 328.65554 
L 326.941535 321.935403 
L 328.479771 328.226926 
L 330.043224 327.421543 
L 331.531025 330.098776 
L 333.017777 323.709992 
L 334.554962 330.769181 
L 336.093198 323.325645 
L 337.631433 328.380114 
L 339.169669 318.204643 
L 340.733122 330.233378 
L 342.271358 332.875396 
L 343.809594 329.22489 
L 345.34888 328.004812 
L 346.888167 318.65882 
L 348.45162 324.088388 
L 349.964639 322.180669 
L 351.476607 329.859529 
L 353.013792 334.628512 
L 354.552028 332.124698 
L 356.090264 331.433845 
L 357.6285 329.149799 
L 359.191952 337.597224 
L 360.730188 330.883492 
L 362.268424 330.974446 
L 363.807711 337.331694 
L 365.346997 329.270124 
L 366.91045 329.245558 
L 368.398252 332.578798 
L 369.885003 328.978219 
L 371.422188 314.725136 
L 372.960424 315.549376 
L 374.49866 309.538464 
L 376.036896 319.942677 
L 377.600349 309.613085 
L 379.138584 317.380851 
L 380.67682 312.720358 
L 382.216107 319.677276 
L 383.755393 315.157281 
L 385.318846 317.140032 
L 388.293399 303.011821 
L 389.830585 311.534811 
L 391.36882 314.674793 
L 392.907056 312.69464 
L 394.445292 312.540082 
L 396.008745 310.778282 
L 397.546981 308.024377 
L 399.085217 303.510727 
L 400.624503 311.868438 
L 402.16379 312.123845 
L 403.727243 313.744254 
L 405.215044 312.729166 
L 406.701796 305.133114 
L 408.238981 307.77945 
L 409.777217 311.939566 
L 411.315452 306.21796 
L 412.853688 311.939235 
L 414.417141 311.560319 
L 415.955377 308.690789 
L 417.493613 310.929355 
L 419.032899 301.451335 
L 420.572186 307.32334 
L 422.135639 306.816398 
L 423.648658 304.597209 
L 425.160626 311.33672 
L 426.697811 301.308632 
L 428.236047 308.755941 
L 429.774283 308.274581 
L 431.312519 310.060959 
L 432.875971 307.23664 
L 434.414207 307.367823 
L 435.952443 303.832537 
L 437.49173 301.330004 
L 439.031016 307.731868 
L 440.594469 302.38251 
L 442.082271 297.901755 
L 443.569022 296.60746 
L 445.106207 299.679821 
L 446.644443 297.423156 
L 448.182679 301.859383 
L 449.720915 303.008414 
L 451.284368 305.2515 
L 452.822604 306.259224 
L 454.360839 302.991056 
L 455.900126 299.025136 
L 457.439412 292.864411 
L 459.002865 301.340839 
L 460.490667 306.257282 
L 461.977418 300.896757 
L 463.514604 301.551642 
L 465.052839 298.0363 
L 466.591075 303.424158 
L 468.129311 294.791195 
L 469.692764 293.768563 
L 471.231 305.123738 
L 472.769236 298.080077 
L 474.308522 303.620031 
L 475.847809 301.033026 
L 477.411262 304.928756 
L 478.899063 294.942606 
L 480.385815 296.769747 
L 481.923 294.057463 
L 483.461236 299.164652 
L 484.999472 297.314439 
L 486.537707 299.327915 
L 488.10116 303.863932 
L 489.639396 297.226049 
L 491.177632 301.699327 
L 492.716918 288.737356 
L 494.256205 292.771935 
L 495.819658 286.019869 
L 497.332677 297.781914 
L 498.844645 299.145989 
L 500.38183 298.797255 
L 501.920066 295.646065 
L 503.458302 295.105972 
L 504.996538 299.82674 
L 506.55999 300.782559 
L 508.098226 293.37234 
L 509.636462 292.11922 
L 511.175749 301.918999 
L 512.715035 297.094453 
L 514.278488 293.284451 
L 515.76629 291.899181 
L 517.253041 299.35724 
L 518.790226 299.505279 
L 520.328462 306.417036 
L 521.866698 301.844506 
L 523.404934 301.657222 
L 524.968387 298.978708 
L 526.506623 300.413555 
L 528.044858 304.120544 
L 529.584145 297.343614 
L 531.123432 302.111634 
L 532.686884 293.705715 
L 534.174686 297.249272 
L 535.661437 304.326624 
L 537.198623 304.628307 
L 538.736858 300.287266 
L 540.275094 299.870527 
L 541.81333 297.589996 
L 543.376783 304.601623 
L 544.915019 295.415293 
L 546.453255 300.762649 
L 547.992541 300.582653 
L 549.531828 289.057305 
L 551.095281 298.302076 
L 552.583083 303.212214 
L 554.069834 294.768381 
L 555.607019 299.066759 
L 557.145255 295.802744 
L 558.683491 301.326167 
L 558.683491 301.326167 
" style="fill:none;stroke:#0072bd;stroke-linecap:square;stroke-width:1.5;"/>
   </g>
   <g id="line2d_24">
    <path clip-path="url(#p1dd1b64f85)" d="M 56.741581 382.055238 
L 79.762584 382.055238 
L 81.30082 377.776471 
L 82.864272 382.055238 
L 87.481081 382.055238 
L 89.019317 375.12771 
L 90.58277 382.055238 
L 92.070572 373.395828 
L 93.558374 382.055238 
L 102.810905 382.055238 
L 104.350191 379.438726 
L 105.889478 353.6098 
L 107.427714 360.087069 
L 108.991166 367.167129 
L 110.478968 357.954951 
L 111.96677 357.257835 
L 113.503955 377.238083 
L 115.04114 349.45991 
L 116.579376 357.43004 
L 118.117612 361.747382 
L 119.681065 351.904338 
L 121.219301 356.562581 
L 122.758587 362.634619 
L 124.297874 362.181181 
L 125.83611 363.619074 
L 127.399563 372.278484 
L 128.912582 368.999512 
L 130.4256 363.945932 
L 131.962786 361.187479 
L 133.499971 371.912343 
L 135.038207 367.182942 
L 136.576442 355.627556 
L 138.139895 363.703644 
L 139.678131 365.573581 
L 141.217418 355.680393 
L 142.756704 352.665724 
L 144.29494 357.575751 
L 145.858393 370.012349 
L 147.346195 359.673993 
L 148.833997 360.25647 
L 150.371182 362.396036 
L 151.908367 359.715236 
L 153.446603 366.86611 
L 154.984839 352.298355 
L 156.548292 362.427241 
L 158.086527 357.425764 
L 159.625814 357.166601 
L 161.1651 357.526955 
L 162.703336 356.883014 
L 164.266789 357.111538 
L 165.754591 361.896611 
L 167.242393 356.924665 
L 168.779578 348.495377 
L 170.316763 353.088361 
L 171.854999 355.617667 
L 173.393235 355.139165 
L 174.956688 340.366851 
L 176.494924 359.059533 
L 178.03421 362.058249 
L 179.573497 351.952085 
L 181.111733 350.141583 
L 182.675185 351.330493 
L 184.162987 363.492343 
L 185.650789 349.623816 
L 187.187974 352.866214 
L 188.72516 347.777252 
L 190.263395 355.330029 
L 191.801631 352.608323 
L 193.365084 348.21063 
L 194.90332 347.765579 
L 196.442606 352.140911 
L 197.981893 359.293359 
L 199.520129 354.195575 
L 201.083582 346.14902 
L 202.596601 354.709731 
L 204.109619 354.266192 
L 205.646805 345.016968 
L 207.18399 350.469956 
L 208.722226 347.562524 
L 210.260461 345.832563 
L 211.823914 336.660884 
L 213.36215 352.235424 
L 214.901437 346.190847 
L 216.440723 350.451376 
L 217.978959 352.606231 
L 219.542412 345.042006 
L 221.030214 353.158904 
L 222.518016 340.075313 
L 224.055201 344.987978 
L 225.592386 344.360174 
L 227.130622 344.820669 
L 228.668858 349.516253 
L 230.232311 346.671095 
L 231.770546 349.757978 
L 233.309833 343.439709 
L 234.84912 334.418618 
L 236.387355 347.347762 
L 237.950808 340.440527 
L 239.43861 338.80248 
L 240.926412 335.859288 
L 242.463597 344.646585 
L 244.000782 337.947518 
L 245.539018 343.391375 
L 247.077254 335.507806 
L 248.640707 326.037811 
L 250.178943 337.39755 
L 251.718229 335.999359 
L 253.257516 334.963225 
L 254.795752 338.41181 
L 256.359204 337.67209 
L 257.847006 336.696422 
L 259.334808 339.792145 
L 260.871993 336.0456 
L 262.409179 339.060258 
L 263.947414 339.709501 
L 265.48565 331.205256 
L 267.049103 335.521841 
L 268.587339 346.233999 
L 270.126626 335.597817 
L 271.665912 333.17147 
L 273.204148 344.928767 
L 274.767601 336.211301 
L 276.28062 335.490959 
L 277.793638 330.925669 
L 279.330824 327.451312 
L 280.868009 326.05022 
L 282.406245 332.302989 
L 283.94448 322.52456 
L 285.507933 324.984153 
L 287.046169 322.040605 
L 288.585456 325.850763 
L 290.124742 324.005116 
L 291.662978 333.62503 
L 293.226431 329.912552 
L 294.714233 333.734674 
L 297.73922 316.65796 
L 299.276405 324.238677 
L 300.814641 324.173528 
L 302.352877 330.19256 
L 303.91633 321.439365 
L 305.454565 327.454681 
L 306.993852 322.494388 
L 308.533139 321.811242 
L 310.071374 332.684844 
L 311.634827 322.872104 
L 313.122629 318.958014 
L 314.610431 324.403233 
L 316.147616 329.533473 
L 317.684801 325.803708 
L 319.223037 324.057326 
L 320.761273 328.749822 
L 322.324726 315.928831 
L 323.862962 322.00395 
L 325.402248 324.903129 
L 326.941535 319.55442 
L 328.479771 325.039724 
L 330.043224 322.021701 
L 331.531025 316.936472 
L 333.017777 314.528761 
L 334.554962 317.025859 
L 336.093198 324.855062 
L 337.631433 326.529248 
L 339.169669 314.829281 
L 340.733122 304.793555 
L 342.271358 318.739873 
L 343.809594 315.878276 
L 345.34888 324.035007 
L 346.888167 319.326151 
L 349.964639 316.364283 
L 351.476607 320.3694 
L 353.013792 315.657821 
L 354.552028 319.715924 
L 356.090264 320.790373 
L 357.6285 317.999325 
L 359.191952 316.372108 
L 360.730188 320.186573 
L 362.268424 311.563745 
L 363.807711 319.611044 
L 365.346997 318.539084 
L 366.91045 311.642331 
L 368.398252 318.98001 
L 369.885003 322.180177 
L 371.422188 320.359454 
L 372.960424 324.732194 
L 374.49866 323.152724 
L 376.036896 325.181086 
L 377.600349 321.191953 
L 379.138584 326.283398 
L 380.67682 317.225874 
L 382.216107 324.434917 
L 383.755393 328.387101 
L 385.318846 313.738362 
L 386.806648 319.894433 
L 388.293399 326.653206 
L 389.830585 326.06149 
L 391.36882 326.346996 
L 392.907056 329.075003 
L 394.445292 317.577412 
L 396.008745 317.044388 
L 397.546981 319.451959 
L 399.085217 319.365985 
L 400.624503 317.738607 
L 402.16379 320.702789 
L 405.215044 317.528664 
L 406.701796 324.88653 
L 408.238981 317.768263 
L 409.777217 321.002136 
L 411.315452 316.622465 
L 412.853688 319.253494 
L 414.417141 306.437851 
L 415.955377 321.920443 
L 417.493613 322.41704 
L 419.032899 321.004843 
L 420.572186 324.642161 
L 422.135639 311.963029 
L 423.648658 321.518809 
L 425.160626 320.092346 
L 426.697811 318.084243 
L 428.236047 321.828427 
L 429.774283 317.605664 
L 431.312519 320.818725 
L 432.875971 315.147972 
L 434.414207 305.512235 
L 435.952443 306.856611 
L 437.49173 316.439005 
L 439.031016 322.876128 
L 440.594469 302.813173 
L 442.082271 312.673377 
L 443.569022 311.354792 
L 445.106207 314.334208 
L 446.644443 321.476484 
L 448.182679 318.039248 
L 449.720915 313.787526 
L 451.284368 310.923161 
L 452.822604 306.468605 
L 454.360839 312.924761 
L 455.900126 302.53345 
L 457.439412 316.432972 
L 459.002865 309.268146 
L 460.490667 309.631078 
L 461.977418 309.599537 
L 463.514604 313.698635 
L 465.052839 312.426284 
L 466.591075 311.689959 
L 468.129311 314.943676 
L 469.692764 312.343162 
L 471.231 306.171851 
L 472.769236 314.047185 
L 474.308522 315.826087 
L 475.847809 314.302173 
L 477.411262 307.930685 
L 478.899063 303.436088 
L 480.385815 297.717364 
L 481.923 305.761601 
L 483.461236 310.626066 
L 484.999472 306.51706 
L 486.537707 309.811792 
L 488.10116 303.229948 
L 489.639396 304.361214 
L 491.177632 308.678129 
L 492.716918 309.723692 
L 494.256205 314.446501 
L 495.819658 306.053053 
L 497.332677 311.793623 
L 498.844645 306.884186 
L 500.38183 296.766573 
L 501.920066 309.044341 
L 503.458302 314.733346 
L 504.996538 316.312649 
L 506.55999 310.535281 
L 508.098226 316.25825 
L 509.636462 303.784561 
L 511.175749 308.083325 
L 512.715035 313.258686 
L 514.278488 302.338188 
L 515.76629 303.086429 
L 517.253041 301.468678 
L 518.790226 300.585776 
L 520.328462 304.558603 
L 521.866698 303.492672 
L 523.404934 312.447482 
L 524.968387 305.465792 
L 526.506623 310.259788 
L 528.044858 303.764678 
L 529.584145 309.579738 
L 531.123432 304.615892 
L 532.686884 300.913718 
L 534.174686 309.484959 
L 535.661437 303.308346 
L 537.198623 295.790493 
L 538.736858 302.825518 
L 541.81333 307.667194 
L 543.376783 308.563444 
L 544.915019 305.234486 
L 546.453255 300.423222 
L 547.992541 303.210801 
L 549.531828 309.702074 
L 551.095281 303.847377 
L 552.583083 300.473251 
L 554.069834 304.171233 
L 555.607019 300.308039 
L 557.145255 311.985513 
L 558.683491 302.486544 
L 558.683491 302.486544 
" style="fill:none;stroke:#d95319;stroke-linecap:square;stroke-width:1.5;"/>
   </g>
   <g id="line2d_25">
    <path clip-path="url(#p1dd1b64f85)" d="M 56.741581 382.055238 
L 70.610921 382.055238 
L 72.174374 374.632886 
L 73.662176 382.055238 
L 78.224348 382.055238 
L 79.762584 377.073112 
L 81.30082 382.055238 
L 87.481081 382.055238 
L 89.019317 375.12771 
L 90.58277 382.055238 
L 92.070572 382.055238 
L 93.558374 378.946732 
L 95.095559 382.055238 
L 96.632744 382.055238 
L 98.17098 379.361199 
L 99.709216 382.055238 
L 101.272669 375.67462 
L 102.810905 382.055238 
L 104.350191 382.055238 
L 105.889478 380.023421 
L 107.427714 379.61433 
L 108.991166 379.928365 
L 110.478968 382.055238 
L 111.96677 382.055238 
L 113.503955 379.64666 
L 115.04114 382.055238 
L 116.579376 382.055238 
L 118.117612 380.209069 
L 119.681065 382.055238 
L 121.219301 378.656217 
L 124.297874 382.055238 
L 125.83611 380.379223 
L 127.399563 378.144537 
L 128.912582 378.325031 
L 130.4256 382.055238 
L 131.962786 377.583575 
L 133.499971 377.708283 
L 135.038207 379.351184 
L 136.576442 377.021394 
L 138.139895 380.386911 
L 139.678131 374.363798 
L 141.217418 283.496605 
L 142.756704 298.784948 
L 144.29494 303.954017 
L 145.858393 303.776462 
L 147.346195 318.268689 
L 148.833997 312.069719 
L 150.371182 308.879319 
L 151.908367 306.99283 
L 153.446603 297.671192 
L 154.984839 310.969351 
L 156.548292 295.461134 
L 158.086527 301.598955 
L 159.625814 313.812202 
L 161.1651 298.320753 
L 162.703336 292.650442 
L 164.266789 293.545335 
L 165.754591 298.9009 
L 167.242393 294.796304 
L 168.779578 288.399812 
L 170.316763 288.073814 
L 171.854999 300.598937 
L 173.393235 309.841382 
L 174.956688 308.741178 
L 176.494924 294.308467 
L 178.03421 298.317847 
L 179.573497 309.561931 
L 181.111733 308.593617 
L 182.675185 292.739119 
L 184.162987 308.491173 
L 185.650789 306.768007 
L 187.187974 298.57463 
L 188.72516 300.136662 
L 190.263395 296.069782 
L 191.801631 312.829156 
L 193.365084 309.531077 
L 194.90332 302.795534 
L 196.442606 301.234074 
L 197.981893 292.987017 
L 199.520129 304.048181 
L 201.083582 292.868826 
L 202.596601 294.002707 
L 204.109619 300.638208 
L 205.646805 299.747971 
L 207.18399 293.337753 
L 208.722226 305.461122 
L 210.260461 299.819976 
L 211.823914 302.615119 
L 213.36215 293.128291 
L 214.901437 297.193016 
L 216.440723 302.794759 
L 217.978959 300.088835 
L 219.542412 298.373148 
L 221.030214 306.326915 
L 222.518016 304.37276 
L 224.055201 307.484632 
L 225.592386 304.593952 
L 227.130622 305.329459 
L 228.668858 307.503893 
L 230.232311 305.464246 
L 231.770546 297.333439 
L 233.309833 299.307676 
L 234.84912 304.593952 
L 236.387355 296.997481 
L 237.950808 303.594168 
L 239.43861 308.572057 
L 240.926412 306.497455 
L 242.463597 308.069235 
L 244.000782 304.673273 
L 245.539018 314.499697 
L 247.077254 302.855129 
L 248.640707 321.439365 
L 250.178943 309.013426 
L 251.718229 302.736779 
L 253.257516 310.33048 
L 254.795752 301.845694 
L 256.359204 301.508044 
L 257.847006 304.532897 
L 259.334808 295.978114 
L 260.871993 310.484689 
L 262.409179 308.752322 
L 263.947414 311.365178 
L 265.48565 301.570829 
L 267.049103 321.235271 
L 268.587339 307.854099 
L 270.126626 307.059687 
L 271.665912 308.14298 
L 273.204148 295.186504 
L 274.767601 298.008019 
L 276.28062 307.622944 
L 277.793638 306.164808 
L 279.330824 311.566534 
L 280.868009 311.880276 
L 282.406245 308.686415 
L 283.94448 319.734059 
L 285.507933 314.704268 
L 287.046169 308.594703 
L 288.585456 306.898091 
L 290.124742 311.817798 
L 291.662978 306.754076 
L 293.226431 304.1671 
L 294.714233 307.545666 
L 296.202035 308.874583 
L 297.73922 312.956228 
L 299.276405 312.610765 
L 300.814641 315.19722 
L 302.352877 307.871913 
L 303.91633 318.506339 
L 305.454565 301.85103 
L 306.993852 314.150115 
L 308.533139 313.204956 
L 310.071374 308.328783 
L 311.634827 313.283775 
L 313.122629 316.476662 
L 314.610431 312.930197 
L 316.147616 314.064734 
L 317.684801 311.255898 
L 319.223037 317.713805 
L 320.761273 315.956522 
L 322.324726 316.94097 
L 323.862962 318.924397 
L 325.402248 323.459894 
L 326.941535 315.685321 
L 328.479771 308.749577 
L 330.043224 310.269104 
L 331.531025 317.629224 
L 333.017777 312.159411 
L 334.554962 319.707483 
L 336.093198 319.043279 
L 337.631433 319.43426 
L 339.169669 324.674087 
L 340.733122 327.092659 
L 342.271358 319.328853 
L 345.34888 308.155786 
L 346.888167 320.327147 
L 348.45162 319.725292 
L 349.964639 315.680002 
L 351.476607 319.811157 
L 353.013792 322.975088 
L 354.552028 318.238689 
L 356.090264 330.135861 
L 357.6285 323.218696 
L 359.191952 326.411014 
L 360.730188 317.873725 
L 362.268424 317.438036 
L 363.807711 324.111527 
L 365.346997 324.049618 
L 366.91045 329.245558 
L 368.398252 326.502743 
L 369.885003 322.703104 
L 371.422188 335.853829 
L 372.960424 327.793133 
L 374.49866 329.543091 
L 376.036896 320.691021 
L 377.600349 330.39567 
L 379.138584 330.210992 
L 380.67682 326.737518 
L 382.216107 322.056096 
L 383.755393 328.137481 
L 385.318846 329.896295 
L 386.806648 334.344094 
L 388.293399 322.832376 
L 389.830585 329.230948 
L 391.36882 327.93866 
L 392.907056 329.075003 
L 394.445292 329.918871 
L 396.008745 332.187478 
L 397.546981 325.414176 
L 399.085217 325.464161 
L 400.624503 327.692371 
L 402.16379 319.662917 
L 403.727243 326.974445 
L 405.215044 330.593962 
L 406.701796 330.231572 
L 408.238981 318.024386 
L 409.777217 322.433068 
L 411.315452 329.10787 
L 412.853688 330.350991 
L 414.417141 331.806265 
L 415.955377 325.76907 
L 417.493613 330.238443 
L 419.032899 326.870895 
L 420.572186 320.846255 
L 422.135639 329.363543 
L 423.648658 324.855463 
L 425.160626 327.276449 
L 426.697811 331.728406 
L 428.236047 326.497172 
L 429.774283 326.285742 
L 431.312519 326.818248 
L 432.875971 333.683093 
L 434.414207 329.866827 
L 435.952443 334.879692 
L 437.49173 327.231149 
L 439.031016 322.410151 
L 440.594469 333.390274 
L 442.082271 333.487936 
L 443.569022 334.126408 
L 445.106207 333.429318 
L 446.644443 325.930805 
L 448.182679 327.418881 
L 449.720915 328.159676 
L 451.284368 337.154591 
L 452.822604 330.966212 
L 454.360839 336.238558 
L 455.900126 338.318254 
L 457.439412 330.758959 
L 459.002865 328.726082 
L 460.490667 330.323695 
L 461.977418 333.683974 
L 463.514604 328.703743 
L 465.052839 330.529812 
L 466.591075 331.824602 
L 468.129311 331.293801 
L 469.692764 335.733398 
L 471.231 330.697697 
L 472.769236 336.716536 
L 474.308522 332.326865 
L 475.847809 326.163985 
L 477.411262 328.020517 
L 478.899063 333.707727 
L 480.385815 334.10584 
L 481.923 341.95773 
L 483.461236 336.618917 
L 486.537707 331.732627 
L 488.10116 340.634979 
L 489.639396 336.27126 
L 491.177632 331.010292 
L 492.716918 336.822553 
L 494.256205 334.331423 
L 495.819658 336.412622 
L 497.332677 330.069766 
L 498.844645 335.626059 
L 500.38183 339.004769 
L 501.920066 335.25836 
L 503.458302 336.716004 
L 504.996538 335.211131 
L 506.55999 336.74572 
L 508.098226 331.896954 
L 509.636462 341.414694 
L 511.175749 329.273196 
L 512.715035 333.16829 
L 514.278488 334.357502 
L 515.76629 337.086888 
L 517.253041 334.723831 
L 518.790226 332.784582 
L 520.328462 331.320031 
L 521.866698 334.80782 
L 523.404934 330.008101 
L 524.968387 334.34378 
L 526.506623 331.593293 
L 528.044858 337.571965 
L 529.584145 330.851768 
L 531.123432 334.474346 
L 532.686884 340.660706 
L 534.174686 332.690571 
L 535.661437 332.83843 
L 537.198623 335.944907 
L 538.736858 334.73497 
L 540.275094 332.595661 
L 541.81333 335.333684 
L 543.376783 330.551555 
L 544.915019 334.692068 
L 546.453255 336.741832 
L 547.992541 337.781054 
L 549.531828 335.942155 
L 551.095281 338.648919 
L 552.583083 334.319015 
L 554.069834 336.637686 
L 555.607019 334.531921 
L 557.145255 330.170275 
L 558.683491 328.180602 
L 558.683491 328.180602 
" style="fill:none;stroke:#edb120;stroke-linecap:square;stroke-width:1.5;"/>
   </g>
   <g id="line2d_26">
    <path clip-path="url(#p1dd1b64f85)" d="M 56.741581 382.055238 
L 87.481081 382.055238 
L 89.019317 378.591474 
L 90.58277 382.055238 
L 102.810905 382.055238 
L 104.350191 379.438726 
L 105.889478 382.055238 
L 111.96677 382.055238 
L 113.503955 379.64666 
L 115.04114 382.055238 
L 116.579376 382.055238 
L 118.117612 380.209069 
L 119.681065 382.055238 
L 121.219301 380.355728 
L 122.758587 382.055238 
L 124.297874 382.055238 
L 125.83611 380.379223 
L 127.399563 382.055238 
L 128.912582 380.190134 
L 130.4256 382.055238 
L 131.962786 379.07413 
L 133.499971 382.055238 
L 135.038207 382.055238 
L 136.576442 380.796777 
L 138.139895 382.055238 
L 139.678131 377.660129 
L 141.217418 340.410745 
L 142.756704 334.297278 
L 144.29494 334.261954 
L 145.858393 318.227928 
L 147.346195 317.149626 
L 148.833997 333.868487 
L 150.371182 325.261988 
L 151.908367 323.971232 
L 153.446603 320.454885 
L 154.984839 329.980693 
L 156.548292 345.10842 
L 158.086527 327.049412 
L 159.625814 342.715135 
L 161.1651 328.769657 
L 162.703336 329.974774 
L 164.266789 335.38638 
L 165.754591 326.619012 
L 167.242393 326.20952 
L 168.779578 332.886139 
L 170.316763 323.477775 
L 171.854999 319.891219 
L 173.393235 326.910112 
L 174.956688 314.491301 
L 176.494924 331.222626 
L 178.03421 320.814459 
L 179.573497 324.920682 
L 181.111733 321.840795 
L 182.675185 327.751038 
L 184.162987 322.241465 
L 185.650789 320.667188 
L 187.187974 316.671825 
L 188.72516 328.60482 
L 190.263395 326.861871 
L 191.801631 320.578344 
L 193.365084 322.961477 
L 194.90332 319.659301 
L 196.442606 320.652146 
L 197.981893 323.171247 
L 199.520129 314.178968 
L 201.083582 325.300249 
L 202.596601 332.833326 
L 204.109619 319.164238 
L 205.646805 320.324787 
L 207.18399 325.387525 
L 208.722226 321.185742 
L 210.260461 319.3998 
L 211.823914 321.529433 
L 213.36215 327.208079 
L 214.901437 317.903439 
L 217.978959 327.083758 
L 219.542412 330.558567 
L 221.030214 319.280444 
L 222.518016 332.228598 
L 224.055201 327.108476 
L 227.130622 325.263117 
L 228.668858 314.505953 
L 230.232311 326.067671 
L 231.770546 322.609556 
L 233.309833 325.708089 
L 234.84912 334.83285 
L 236.387355 325.838904 
L 237.950808 326.568956 
L 239.43861 327.640477 
L 240.926412 329.203939 
L 242.463597 323.864 
L 244.000782 328.274772 
L 245.539018 321.297739 
L 247.077254 327.170952 
L 248.640707 328.546054 
L 250.178943 331.34227 
L 251.718229 327.22681 
L 253.257516 317.213159 
L 254.795752 329.761761 
L 256.359204 328.220124 
L 257.847006 323.088777 
L 259.334808 337.078002 
L 260.871993 315.962027 
L 262.409179 326.373215 
L 263.947414 325.366591 
L 265.48565 334.909559 
L 267.049103 323.684397 
L 268.587339 328.688902 
L 270.126626 325.974494 
L 271.665912 323.785786 
L 273.204148 321.859891 
L 274.767601 323.604218 
L 276.28062 328.435766 
L 277.793638 323.529568 
L 279.330824 326.127581 
L 280.868009 328.074498 
L 282.406245 321.596809 
L 283.94448 328.105561 
L 285.507933 321.793844 
L 287.046169 322.696502 
L 288.585456 335.327099 
L 290.124742 333.947402 
L 291.662978 324.876348 
L 293.226431 320.46169 
L 294.714233 317.504866 
L 296.202035 324.330842 
L 297.73922 323.44447 
L 299.276405 324.238677 
L 300.814641 328.506918 
L 302.352877 324.940643 
L 303.91633 324.046499 
L 305.454565 318.508827 
L 306.993852 326.810392 
L 308.533139 322.448744 
L 310.071374 322.152493 
L 311.634827 325.847792 
L 313.122629 322.148323 
L 314.610431 324.116407 
L 316.147616 323.417925 
L 317.684801 322.247577 
L 319.223037 320.432457 
L 320.761273 325.094594 
L 322.324726 319.977387 
L 323.862962 326.931235 
L 325.402248 316.532366 
L 326.941535 327.590239 
L 328.479771 325.747991 
L 330.043224 321.386425 
L 331.531025 323.517624 
L 333.017777 330.225705 
L 334.554962 322.72431 
L 336.093198 322.713879 
L 337.631433 321.593604 
L 339.169669 322.705126 
L 340.733122 317.984574 
L 342.271358 331.697436 
L 343.809594 323.941855 
L 345.34888 325.256486 
L 346.888167 323.663801 
L 348.45162 319.725292 
L 349.964639 331.41846 
L 351.476607 319.532035 
L 353.013792 312.947723 
L 354.552028 321.784053 
L 356.090264 317.156016 
L 357.6285 320.371767 
L 359.191952 316.372108 
L 360.730188 316.13909 
L 362.268424 325.866367 
L 363.807711 310.891359 
L 365.346997 320.859309 
L 366.91045 322.644348 
L 368.398252 316.375987 
L 369.885003 328.19383 
L 371.422188 322.04975 
L 372.960424 322.506056 
L 374.49866 316.484515 
L 376.036896 324.931638 
L 377.600349 324.160894 
L 379.138584 321.308445 
L 380.67682 328.489663 
L 382.216107 328.135305 
L 383.755393 326.390147 
L 385.318846 327.345042 
L 386.806648 323.438689 
L 388.293399 325.459196 
L 389.830585 323.420276 
L 391.36882 323.428945 
L 392.907056 319.605106 
L 394.445292 324.125941 
L 396.008745 323.832669 
L 397.546981 331.376393 
L 399.085217 335.221244 
L 400.624503 332.541641 
L 402.16379 326.682053 
L 403.727243 323.734398 
L 405.215044 330.593962 
L 406.701796 325.583709 
L 408.238981 329.806063 
L 409.777217 319.332715 
L 411.315452 325.408491 
L 412.853688 326.315538 
L 414.417141 328.635213 
L 415.955377 324.806914 
L 417.493613 318.506339 
L 419.032899 325.132805 
L 420.572186 325.828381 
L 422.135639 328.383232 
L 423.648658 332.005435 
L 425.160626 328.847972 
L 426.697811 325.018162 
L 428.236047 322.762176 
L 429.774283 327.587753 
L 431.312519 322.473766 
L 432.875971 324.189495 
L 434.414207 332.186312 
L 435.952443 326.412286 
L 437.49173 329.173735 
L 439.031016 327.302912 
L 440.594469 332.098284 
L 442.082271 329.683124 
L 443.569022 326.318997 
L 445.106207 328.988595 
L 446.644443 330.607841 
L 448.182679 328.122353 
L 449.720915 329.357355 
L 451.284368 322.502801 
L 452.822604 328.244256 
L 454.360839 323.466652 
L 455.900126 327.559424 
L 457.439412 328.67938 
L 459.002865 336.172946 
L 460.490667 329.873856 
L 461.977418 322.552511 
L 463.514604 328.703743 
L 465.052839 327.97675 
L 466.591075 318.048267 
L 468.129311 326.540858 
L 469.692764 323.808964 
L 471.231 323.570528 
L 472.769236 327.254546 
L 474.308522 323.059305 
L 475.847809 328.978653 
L 477.411262 324.78767 
L 478.899063 331.094348 
L 480.385815 332.589653 
L 481.923 329.603362 
L 483.461236 328.63686 
L 484.999472 328.565005 
L 486.537707 326.585996 
L 488.10116 323.72875 
L 489.639396 331.316284 
L 491.177632 331.608475 
L 492.716918 334.785045 
L 494.256205 327.172851 
L 495.819658 331.455957 
L 497.332677 328.242151 
L 498.844645 325.676949 
L 500.38183 331.085107 
L 501.920066 331.180624 
L 503.458302 325.920949 
L 504.996538 325.158747 
L 506.55999 319.475275 
L 508.098226 331.515522 
L 509.636462 327.115244 
L 511.175749 330.621642 
L 512.715035 327.845921 
L 514.278488 333.695033 
L 515.76629 330.067439 
L 517.253041 334.020018 
L 518.790226 331.704085 
L 520.328462 323.700458 
L 521.866698 329.497064 
L 523.404934 328.950232 
L 524.968387 327.856696 
L 526.506623 329.747124 
L 528.044858 326.89598 
L 529.584145 328.592791 
L 531.123432 331.392183 
L 532.686884 331.80516 
L 534.174686 326.150808 
L 535.661437 328.765315 
L 537.198623 327.683472 
L 538.736858 324.763266 
L 540.275094 322.926871 
L 541.81333 326.172594 
L 543.376783 321.637456 
L 544.915019 327.375806 
L 546.453255 328.935028 
L 547.992541 323.022993 
L 549.531828 327.066833 
L 551.095281 324.690059 
L 552.583083 325.906484 
L 554.069834 325.992948 
L 555.607019 327.79354 
L 557.145255 321.494976 
L 558.683491 328.34637 
L 558.683491 328.34637 
" style="fill:none;stroke:#7e2f8e;stroke-linecap:square;stroke-width:1.5;"/>
   </g>
   <g id="line2d_27">
    <path clip-path="url(#p1dd1b64f85)" d="M 56.741581 382.055238 
L 79.762584 382.055238 
L 81.30082 377.776471 
L 82.864272 374.14882 
L 84.402508 382.055238 
L 87.481081 382.055238 
L 89.019317 378.591474 
L 90.58277 382.055238 
L 92.070572 376.282298 
L 93.558374 382.055238 
L 102.810905 382.055238 
L 104.350191 379.438726 
L 105.889478 365.800702 
L 107.427714 369.8507 
L 108.991166 375.67462 
L 110.478968 362.336822 
L 111.96677 365.523636 
L 113.503955 370.012349 
L 115.04114 366.615346 
L 116.579376 368.795516 
L 118.117612 354.362707 
L 119.681065 357.557631 
L 121.219301 368.459154 
L 122.758587 373.227684 
L 124.297874 370.130804 
L 125.83611 370.323134 
L 127.399563 374.233835 
L 128.912582 370.864615 
L 130.4256 376.018803 
L 131.962786 367.149696 
L 133.499971 371.912343 
L 135.038207 373.943077 
L 136.576442 364.436784 
L 138.139895 357.030336 
L 139.678131 373.265021 
L 141.217418 337.634446 
L 142.756704 345.318345 
L 144.29494 338.924713 
L 145.858393 350.743728 
L 147.346195 335.054623 
L 148.833997 325.837362 
L 150.371182 338.368122 
L 151.908367 336.481633 
L 153.446603 344.082417 
L 154.984839 349.818615 
L 156.548292 347.417596 
L 158.086527 341.827097 
L 159.625814 335.489402 
L 161.1651 338.073488 
L 162.703336 342.126883 
L 164.266789 337.800287 
L 165.754591 346.77764 
L 167.242393 346.453593 
L 168.779578 353.178148 
L 170.316763 343.432735 
L 171.854999 340.612559 
L 173.393235 342.665862 
L 174.956688 342.523147 
L 176.494924 347.56168 
L 178.03421 346.435601 
L 179.573497 331.678533 
L 181.111733 330.872961 
L 182.675185 344.185203 
L 184.162987 335.991758 
L 185.650789 332.828972 
L 187.187974 340.606824 
L 188.72516 336.738579 
L 190.263395 333.833665 
L 191.801631 328.327532 
L 193.365084 329.945285 
L 194.90332 343.268574 
L 196.442606 335.871716 
L 197.981893 338.015951 
L 199.520129 324.816294 
L 201.083582 329.354177 
L 202.596601 336.114787 
L 204.109619 332.814998 
L 205.646805 336.271821 
L 207.18399 343.967103 
L 208.722226 336.910362 
L 210.260461 340.448111 
L 211.823914 333.418431 
L 213.36215 347.442953 
L 214.901437 338.613862 
L 216.440723 331.388729 
L 217.978959 336.900094 
L 219.542412 347.187701 
L 221.030214 317.785806 
L 222.518016 322.027869 
L 224.055201 312.717657 
L 225.592386 328.619377 
L 227.130622 331.656932 
L 228.668858 325.626872 
L 230.232311 323.828168 
L 231.770546 334.779538 
L 233.309833 330.042485 
L 234.84912 330.690535 
L 236.387355 339.526359 
L 237.950808 327.435929 
L 239.43861 337.407229 
L 240.926412 331.161394 
L 242.463597 329.267472 
L 244.000782 337.947518 
L 245.539018 339.567477 
L 247.077254 332.728854 
L 248.640707 328.964094 
L 250.178943 338.532915 
L 251.718229 342.57877 
L 253.257516 335.325471 
L 254.795752 339.984546 
L 256.359204 341.781641 
L 257.847006 331.335834 
L 259.334808 335.914797 
L 260.871993 331.298573 
L 262.409179 332.011901 
L 263.947414 334.587033 
L 265.48565 340.634392 
L 267.049103 335.521841 
L 270.126626 344.889301 
L 271.665912 339.428592 
L 273.204148 335.196585 
L 274.767601 342.323826 
L 276.28062 342.193393 
L 277.793638 346.68258 
L 279.330824 331.422507 
L 280.868009 335.834229 
L 282.406245 340.804956 
L 283.94448 338.337396 
L 285.507933 334.909559 
L 287.046169 338.765994 
L 288.585456 335.980639 
L 290.124742 339.720343 
L 291.662978 342.373713 
L 293.226431 343.274115 
L 294.714233 345.90703 
L 296.202035 344.834043 
L 297.73922 342.878567 
L 299.276405 346.848505 
L 300.814641 343.983311 
L 302.352877 342.994107 
L 303.91633 340.341089 
L 305.454565 345.346389 
L 306.993852 342.348005 
L 308.533139 346.992595 
L 310.071374 347.495962 
L 311.634827 342.048762 
L 313.122629 342.353614 
L 314.610431 347.062479 
L 316.147616 342.484045 
L 317.684801 343.261079 
L 319.223037 338.556804 
L 320.761273 338.192496 
L 322.324726 342.244442 
L 323.862962 346.640376 
L 325.402248 338.180892 
L 326.941535 348.126222 
L 328.479771 343.100539 
L 330.043224 348.385635 
L 331.531025 346.032091 
L 333.017777 352.142193 
L 334.554962 346.858925 
L 336.093198 346.572776 
L 337.631433 347.197255 
L 339.169669 351.395701 
L 340.733122 349.391762 
L 342.271358 349.66133 
L 343.809594 351.469247 
L 345.34888 352.739753 
L 346.888167 349.356033 
L 348.45162 351.201915 
L 349.964639 347.841199 
L 351.476607 339.070536 
L 353.013792 335.983561 
L 354.552028 336.556402 
L 356.090264 322.607551 
L 357.6285 332.233973 
L 359.191952 332.147532 
L 360.730188 342.736834 
L 362.268424 335.316314 
L 363.807711 333.112491 
L 365.346997 334.200602 
L 366.91045 333.960708 
L 368.398252 331.421454 
L 369.885003 335.514798 
L 371.422188 337.544125 
L 372.960424 345.880501 
L 374.49866 345.380088 
L 376.036896 346.384169 
L 377.600349 342.568327 
L 379.138584 343.564813 
L 380.67682 344.258968 
L 382.216107 347.694496 
L 383.755393 339.619967 
L 385.318846 345.770756 
L 386.806648 342.250512 
L 388.293399 344.085742 
L 389.830585 342.965263 
L 391.36882 344.120578 
L 392.907056 342.128104 
L 394.445292 341.50473 
L 396.008745 340.02011 
L 399.085217 349.856867 
L 400.624503 347.344675 
L 402.16379 345.659717 
L 403.727243 342.63467 
L 405.215044 343.125982 
L 406.701796 342.7808 
L 408.238981 352.344923 
L 409.777217 346.520425 
L 411.315452 343.442966 
L 412.853688 345.483942 
L 414.417141 346.197961 
L 415.955377 342.847352 
L 417.493613 342.459386 
L 419.032899 345.338096 
L 420.572186 345.756888 
L 422.135639 352.890997 
L 423.648658 344.875384 
L 425.160626 348.82876 
L 426.697811 349.622391 
L 428.236047 343.538092 
L 429.774283 343.645896 
L 431.312519 346.058098 
L 432.875971 338.881969 
L 434.414207 350.742191 
L 435.952443 348.38722 
L 437.49173 350.110493 
L 439.031016 351.533729 
L 440.594469 351.693469 
L 442.082271 348.707182 
L 443.569022 346.27127 
L 445.106207 347.417596 
L 446.644443 347.088825 
L 448.182679 352.978378 
L 449.720915 351.115193 
L 451.284368 343.29889 
L 452.822604 353.370006 
L 454.360839 350.632294 
L 455.900126 346.738209 
L 457.439412 351.554748 
L 459.002865 350.826453 
L 460.490667 348.767115 
L 461.977418 351.696704 
L 463.514604 351.568669 
L 465.052839 351.186402 
L 466.591075 349.627865 
L 468.129311 352.206753 
L 469.692764 349.492361 
L 471.231 354.385053 
L 472.769236 350.712396 
L 474.308522 353.348405 
L 475.847809 351.093897 
L 477.411262 352.497784 
L 478.899063 352.436943 
L 480.385815 356.090544 
L 481.923 355.395814 
L 483.461236 349.717676 
L 484.999472 354.639097 
L 486.537707 354.797157 
L 488.10116 352.469338 
L 489.639396 353.910974 
L 491.177632 355.137005 
L 492.716918 354.752626 
L 494.256205 353.2221 
L 495.819658 352.934836 
L 497.332677 353.016478 
L 498.844645 352.94488 
L 500.38183 355.250229 
L 501.920066 354.287796 
L 503.458302 350.258892 
L 504.996538 349.08342 
L 506.55999 356.454344 
L 508.098226 354.973579 
L 509.636462 359.289007 
L 511.175749 356.627393 
L 512.715035 357.02039 
L 514.278488 357.102256 
L 515.76629 358.364595 
L 517.253041 351.615337 
L 518.790226 353.96232 
L 520.328462 357.152243 
L 521.866698 356.417104 
L 523.404934 357.301112 
L 524.968387 355.479119 
L 526.506623 354.362707 
L 528.044858 354.119743 
L 529.584145 356.077007 
L 531.123432 352.582054 
L 532.686884 356.930199 
L 534.174686 353.997543 
L 535.661437 356.767982 
L 537.198623 356.50243 
L 538.736858 355.403593 
L 540.275094 359.556709 
L 541.81333 354.938414 
L 543.376783 352.539666 
L 544.915019 357.988587 
L 546.453255 356.767982 
L 547.992541 356.98675 
L 549.531828 357.551633 
L 551.095281 353.372648 
L 552.583083 356.035084 
L 554.069834 355.443391 
L 555.607019 356.520321 
L 557.145255 356.863504 
L 558.683491 356.195413 
L 558.683491 356.195413 
" style="fill:none;stroke:#77ac30;stroke-linecap:square;stroke-width:1.5;"/>
   </g>
   <g id="line2d_28">
    <path clip-path="url(#p1dd1b64f85)" d="M 56.741581 382.055238 
L 124.297874 382.055238 
L 125.83611 380.379223 
L 127.399563 382.055238 
L 130.4256 382.055238 
L 131.962786 380.564684 
L 133.499971 380.606253 
L 135.038207 379.351184 
L 136.576442 380.796777 
L 138.139895 382.055238 
L 139.678131 380.956461 
L 141.217418 362.621141 
L 142.756704 371.03417 
L 144.29494 366.90127 
L 145.858393 360.378038 
L 147.346195 368.626491 
L 148.833997 371.729506 
L 150.371182 362.396036 
L 151.908367 357.928036 
L 153.446603 358.427705 
L 154.984839 363.043896 
L 156.548292 337.026304 
L 158.086527 358.246746 
L 159.625814 363.589475 
L 161.1651 359.21856 
L 162.703336 362.09106 
L 164.266789 359.525445 
L 165.754591 361.056668 
L 167.242393 357.622736 
L 168.779578 357.080458 
L 170.316763 356.950611 
L 171.854999 357.761254 
L 173.393235 359.734592 
L 174.956688 361.92981 
L 176.494924 362.085283 
L 178.03421 355.184284 
L 179.573497 354.409485 
L 181.111733 358.571605 
L 182.675185 358.475783 
L 184.162987 356.617197 
L 185.650789 358.889936 
L 187.187974 356.368897 
L 188.72516 357.65396 
L 190.263395 355.911012 
L 191.801631 362.940574 
L 193.365084 359.492166 
L 194.90332 357.883839 
L 196.442606 358.963477 
L 197.981893 358.303712 
L 199.520129 358.24789 
L 201.083582 360.627334 
L 202.596601 356.350462 
L 204.109619 357.191355 
L 205.646805 350.675592 
L 207.18399 347.218529 
L 208.722226 352.634982 
L 210.260461 350.238023 
L 211.823914 356.656016 
L 213.36215 354.897907 
L 214.901437 351.242169 
L 216.440723 357.976105 
L 217.978959 352.115414 
L 219.542412 337.532075 
L 221.030214 354.155329 
L 222.518016 347.529692 
L 224.055201 351.965344 
L 225.592386 354.715961 
L 227.130622 349.710057 
L 228.668858 354.046998 
L 230.232311 346.223195 
L 231.770546 350.226054 
L 233.309833 348.956213 
L 234.84912 346.017099 
L 236.387355 352.236139 
L 237.950808 348.676772 
L 239.43861 351.359732 
L 240.926412 349.169985 
L 242.463597 349.218754 
L 244.000782 344.911895 
L 245.539018 344.666008 
L 247.077254 351.486775 
L 248.640707 345.685714 
L 250.178943 344.96665 
L 251.718229 347.330567 
L 253.257516 344.381628 
L 254.795752 345.489122 
L 256.359204 345.891192 
L 257.847006 352.365831 
L 259.334808 345.220433 
L 260.871993 351.01699 
L 262.409179 341.174766 
L 263.947414 342.782982 
L 265.48565 345.012205 
L 267.049103 340.420093 
L 268.587339 345.502953 
L 270.126626 347.87585 
L 271.665912 344.512504 
L 273.204148 347.812376 
L 274.767601 350.346515 
L 277.793638 343.466884 
L 279.330824 343.997957 
L 280.868009 348.317275 
L 282.406245 351.826024 
L 283.94448 351.669788 
L 285.507933 358.305159 
L 287.046169 355.491384 
L 288.585456 355.586851 
L 290.124742 353.190537 
L 293.226431 349.791951 
L 294.714233 352.177637 
L 296.202035 351.458154 
L 297.73922 357.068542 
L 299.276405 354.277449 
L 300.814641 341.816616 
L 302.352877 352.841451 
L 303.91633 351.747302 
L 305.454565 353.983765 
L 306.993852 348.39041 
L 308.533139 349.861356 
L 310.071374 350.12905 
L 311.634827 347.008242 
L 313.122629 354.760371 
L 316.147616 345.002212 
L 317.684801 349.080203 
L 319.223037 357.587369 
L 320.761273 354.031819 
L 322.324726 354.052729 
L 323.862962 348.796063 
L 325.402248 356.365654 
L 326.941535 352.292944 
L 328.479771 357.620018 
L 330.043224 354.420753 
L 331.531025 352.266866 
L 333.017777 351.549856 
L 334.554962 351.551767 
L 336.093198 346.878659 
L 337.631433 348.739644 
L 339.169669 355.333624 
L 340.733122 356.301344 
L 342.271358 343.182549 
L 343.809594 347.854539 
L 345.34888 354.571971 
L 346.888167 358.364998 
L 348.45162 356.18831 
L 349.964639 355.026147 
L 351.476607 357.771673 
L 353.013792 358.47738 
L 354.552028 353.101434 
L 356.090264 358.172325 
L 357.6285 355.721141 
L 359.191952 354.519952 
L 360.730188 355.168388 
L 362.268424 360.856709 
L 363.807711 356.740024 
L 365.346997 354.792597 
L 366.91045 360.365548 
L 368.398252 358.908365 
L 369.885003 352.771366 
L 371.422188 360.363113 
L 372.960424 358.124258 
L 374.49866 361.217085 
L 376.036896 355.613746 
L 377.600349 359.194395 
L 379.138584 359.275191 
L 382.216107 353.509391 
L 383.755393 357.842171 
L 385.318846 357.109657 
L 386.806648 356.972808 
L 388.293399 360.56307 
L 389.830585 351.681271 
L 391.36882 354.201117 
L 392.907056 354.157433 
L 394.445292 358.883519 
L 396.008745 355.685375 
L 397.546981 356.964241 
L 399.085217 352.296137 
L 400.624503 351.683495 
L 403.727243 359.104908 
L 405.215044 354.058171 
L 406.701796 355.330029 
L 408.238981 356.186774 
L 409.777217 358.683347 
L 411.315452 357.084427 
L 412.853688 353.807064 
L 414.417141 360.833584 
L 415.955377 358.00132 
L 417.493613 359.813123 
L 419.032899 360.329119 
L 420.572186 361.177755 
L 422.135639 353.136075 
L 423.648658 354.885345 
L 425.160626 351.522798 
L 426.697811 356.332635 
L 428.236047 358.478076 
L 429.774283 360.355045 
L 431.312519 358.057145 
L 432.875971 358.54728 
L 434.414207 352.133882 
L 435.952443 356.653021 
L 437.49173 355.938251 
L 439.031016 356.193501 
L 440.594469 354.062117 
L 442.082271 351.392932 
L 443.569022 356.247407 
L 445.106207 350.526103 
L 446.644443 350.429565 
L 448.182679 349.929998 
L 449.720915 350.31674 
L 451.284368 353.224297 
L 452.822604 350.229287 
L 454.360839 345.361348 
L 455.900126 353.988725 
L 457.439412 351.323684 
L 459.002865 346.022024 
L 460.490667 349.666794 
L 461.977418 352.101484 
L 463.514604 353.712256 
L 465.052839 354.203656 
L 466.591075 353.866738 
L 468.129311 352.396871 
L 469.692764 355.225262 
L 472.769236 348.938273 
L 474.308522 351.766138 
L 475.847809 352.099135 
L 477.411262 354.114207 
L 478.899063 352.436943 
L 480.385815 349.078182 
L 481.923 344.775392 
L 483.461236 352.58303 
L 484.999472 352.338442 
L 486.537707 347.744367 
L 488.10116 348.454109 
L 489.639396 350.145193 
L 491.177632 346.762444 
L 492.716918 348.2326 
L 494.256205 354.812894 
L 495.819658 352.934836 
L 497.332677 345.909089 
L 498.844645 347.786082 
L 500.38183 350.173523 
L 501.920066 347.491569 
L 503.458302 353.202998 
L 504.996538 350.088658 
L 506.55999 347.920713 
L 508.098226 348.107806 
L 509.636462 351.762981 
L 511.175749 349.114621 
L 512.715035 346.178526 
L 514.278488 349.594279 
L 515.76629 352.003219 
L 517.253041 351.087477 
L 518.790226 359.148705 
L 520.328462 356.037183 
L 521.866698 349.275053 
L 523.404934 352.011769 
L 524.968387 351.293903 
L 526.506623 343.901085 
L 528.044858 349.493482 
L 529.584145 347.794092 
L 531.123432 348.921985 
L 532.686884 349.104367 
L 534.174686 349.14546 
L 535.661437 346.415481 
L 537.198623 353.236281 
L 538.736858 352.502734 
L 540.275094 351.189487 
L 541.81333 352.006866 
L 543.376783 348.974026 
L 546.453255 348.961178 
L 547.992541 347.484985 
L 549.531828 350.605729 
L 551.095281 347.827348 
L 552.583083 347.622553 
L 554.069834 352.427382 
L 555.607019 352.087176 
L 557.145255 351.02436 
L 558.683491 348.901616 
L 558.683491 348.901616 
" style="fill:none;stroke:#4dbeee;stroke-linecap:square;stroke-width:1.5;"/>
   </g>
   <g id="patch_3">
    <path d="M 56.292813 400.24 
L 56.292813 18.36 
" style="fill:none;stroke:#000000;stroke-linecap:square;stroke-linejoin:miter;"/>
   </g>
   <g id="patch_4">
    <path d="M 559.44 400.24 
L 559.44 18.36 
" style="fill:none;stroke:#000000;stroke-linecap:square;stroke-linejoin:miter;"/>
   </g>
   <g id="patch_5">
    <path d="M 56.292813 400.24 
L 559.44 400.24 
" style="fill:none;stroke:#000000;stroke-linecap:square;stroke-linejoin:miter;"/>
   </g>
   <g id="patch_6">
    <path d="M 56.292813 18.36 
L 559.44 18.36 
" style="fill:none;stroke:#000000;stroke-linecap:square;stroke-linejoin:miter;"/>
   </g>
   <g id="legend_1">
    <g id="patch_7">
     <path d="M 277.89975 152.95275 
L 552.24 152.95275 
L 552.24 25.56 
L 277.89975 25.56 
z
" style="fill:#ffffff;stroke:#000000;stroke-linejoin:miter;"/>
    </g>
    <g id="line2d_29">
     <path d="M 283.65975 36.58725 
L 312.45975 36.58725 
" style="fill:none;stroke:#0072bd;stroke-linecap:square;stroke-width:1.5;"/>
    </g>
    <g id="line2d_30"/>
    <g id="text_13">
     <!-- Mesoscale and Nanoscale Physics -->
     <defs>
      <path d="M 7.421875 0 
L 7.421875 71.578125 
L 21.6875 71.578125 
L 38.625 20.90625 
Q 40.96875 13.8125 42.046875 10.296875 
Q 43.265625 14.203125 45.84375 21.78125 
L 62.984375 71.578125 
L 75.734375 71.578125 
L 75.734375 0 
L 66.609375 0 
L 66.609375 59.90625 
L 45.796875 0 
L 37.25 0 
L 16.546875 60.9375 
L 16.546875 0 
z
" id="ArialMT-77"/>
      <path d="M 6.390625 0 
L 6.390625 71.578125 
L 15.1875 71.578125 
L 15.1875 0 
z
" id="ArialMT-108"/>
      <path d="M 40.234375 0 
L 40.234375 6.546875 
Q 35.296875 -1.171875 25.734375 -1.171875 
Q 19.53125 -1.171875 14.328125 2.25 
Q 9.125 5.671875 6.265625 11.796875 
Q 3.421875 17.921875 3.421875 25.875 
Q 3.421875 33.640625 6 39.96875 
Q 8.59375 46.296875 13.765625 49.65625 
Q 18.953125 53.03125 25.34375 53.03125 
Q 30.03125 53.03125 33.6875 51.046875 
Q 37.359375 49.078125 39.65625 45.90625 
L 39.65625 71.578125 
L 48.390625 71.578125 
L 48.390625 0 
z
M 12.453125 25.875 
Q 12.453125 15.921875 16.640625 10.984375 
Q 20.84375 6.0625 26.5625 6.0625 
Q 32.328125 6.0625 36.34375 10.765625 
Q 40.375 15.484375 40.375 25.140625 
Q 40.375 35.796875 36.265625 40.765625 
Q 32.171875 45.75 26.171875 45.75 
Q 20.3125 45.75 16.375 40.96875 
Q 12.453125 36.1875 12.453125 25.875 
z
" id="ArialMT-100"/>
      <path d="M 7.625 0 
L 7.625 71.578125 
L 17.328125 71.578125 
L 54.9375 15.375 
L 54.9375 71.578125 
L 64.015625 71.578125 
L 64.015625 0 
L 54.296875 0 
L 16.703125 56.25 
L 16.703125 0 
z
" id="ArialMT-78"/>
      <path d="M 7.71875 0 
L 7.71875 71.578125 
L 34.71875 71.578125 
Q 41.84375 71.578125 45.609375 70.90625 
Q 50.875 70.015625 54.4375 67.546875 
Q 58.015625 65.09375 60.1875 60.640625 
Q 62.359375 56.203125 62.359375 50.875 
Q 62.359375 41.75 56.546875 35.421875 
Q 50.734375 29.109375 35.546875 29.109375 
L 17.1875 29.109375 
L 17.1875 0 
z
M 17.1875 37.546875 
L 35.6875 37.546875 
Q 44.875 37.546875 48.734375 40.96875 
Q 52.59375 44.390625 52.59375 50.59375 
Q 52.59375 55.078125 50.3125 58.265625 
Q 48.046875 61.46875 44.34375 62.5 
Q 41.9375 63.140625 35.5 63.140625 
L 17.1875 63.140625 
z
" id="ArialMT-80"/>
      <path d="M 6.59375 0 
L 6.59375 71.578125 
L 15.375 71.578125 
L 15.375 45.90625 
Q 21.53125 53.03125 30.90625 53.03125 
Q 36.671875 53.03125 40.921875 50.75 
Q 45.171875 48.484375 47 44.484375 
Q 48.828125 40.484375 48.828125 32.859375 
L 48.828125 0 
L 40.046875 0 
L 40.046875 32.859375 
Q 40.046875 39.453125 37.1875 42.453125 
Q 34.328125 45.453125 29.109375 45.453125 
Q 25.203125 45.453125 21.75 43.421875 
Q 18.3125 41.40625 16.84375 37.9375 
Q 15.375 34.46875 15.375 28.375 
L 15.375 0 
z
" id="ArialMT-104"/>
      <path d="M 6.203125 -19.96875 
L 5.21875 -11.71875 
Q 8.109375 -12.5 10.25 -12.5 
Q 13.1875 -12.5 14.9375 -11.515625 
Q 16.703125 -10.546875 17.828125 -8.796875 
Q 18.65625 -7.46875 20.515625 -2.25 
Q 20.75 -1.515625 21.296875 -0.09375 
L 1.609375 51.859375 
L 11.078125 51.859375 
L 21.875 21.828125 
Q 23.96875 16.109375 25.640625 9.8125 
Q 27.15625 15.875 29.25 21.625 
L 40.328125 51.859375 
L 49.125 51.859375 
L 29.390625 -0.875 
Q 26.21875 -9.421875 24.46875 -12.640625 
Q 22.125 -17 19.09375 -19.015625 
Q 16.0625 -21.046875 11.859375 -21.046875 
Q 9.328125 -21.046875 6.203125 -19.96875 
z
" id="ArialMT-121"/>
     </defs>
     <g transform="translate(323.97975 41.62725)scale(0.144 -0.144)">
      <use xlink:href="#ArialMT-77"/>
      <use x="83.300781" xlink:href="#ArialMT-101"/>
      <use x="138.916016" xlink:href="#ArialMT-115"/>
      <use x="188.916016" xlink:href="#ArialMT-111"/>
      <use x="244.53125" xlink:href="#ArialMT-115"/>
      <use x="294.53125" xlink:href="#ArialMT-99"/>
      <use x="344.53125" xlink:href="#ArialMT-97"/>
      <use x="400.146484" xlink:href="#ArialMT-108"/>
      <use x="422.363281" xlink:href="#ArialMT-101"/>
      <use x="477.978516" xlink:href="#ArialMT-32"/>
      <use x="505.761719" xlink:href="#ArialMT-97"/>
      <use x="561.376953" xlink:href="#ArialMT-110"/>
      <use x="616.992188" xlink:href="#ArialMT-100"/>
      <use x="672.607422" xlink:href="#ArialMT-32"/>
      <use x="700.390625" xlink:href="#ArialMT-78"/>
      <use x="772.607422" xlink:href="#ArialMT-97"/>
      <use x="828.222656" xlink:href="#ArialMT-110"/>
      <use x="883.837891" xlink:href="#ArialMT-111"/>
      <use x="939.453125" xlink:href="#ArialMT-115"/>
      <use x="989.453125" xlink:href="#ArialMT-99"/>
      <use x="1039.453125" xlink:href="#ArialMT-97"/>
      <use x="1095.068359" xlink:href="#ArialMT-108"/>
      <use x="1117.285156" xlink:href="#ArialMT-101"/>
      <use x="1172.900391" xlink:href="#ArialMT-32"/>
      <use x="1200.683594" xlink:href="#ArialMT-80"/>
      <use x="1267.382812" xlink:href="#ArialMT-104"/>
      <use x="1322.998047" xlink:href="#ArialMT-121"/>
      <use x="1372.998047" xlink:href="#ArialMT-115"/>
      <use x="1422.998047" xlink:href="#ArialMT-105"/>
      <use x="1445.214844" xlink:href="#ArialMT-99"/>
      <use x="1495.214844" xlink:href="#ArialMT-115"/>
     </g>
    </g>
    <g id="line2d_31">
     <path d="M 283.65975 57.12525 
L 312.45975 57.12525 
" style="fill:none;stroke:#d95319;stroke-linecap:square;stroke-width:1.5;"/>
    </g>
    <g id="line2d_32"/>
    <g id="text_14">
     <!-- Materials Science -->
     <defs>
      <path d="M 4.5 23 
L 13.421875 23.78125 
Q 14.0625 18.40625 16.375 14.96875 
Q 18.703125 11.53125 23.578125 9.40625 
Q 28.46875 7.28125 34.578125 7.28125 
Q 39.984375 7.28125 44.140625 8.890625 
Q 48.296875 10.5 50.3125 13.296875 
Q 52.34375 16.109375 52.34375 19.4375 
Q 52.34375 22.796875 50.390625 25.3125 
Q 48.4375 27.828125 43.953125 29.546875 
Q 41.0625 30.671875 31.203125 33.03125 
Q 21.34375 35.40625 17.390625 37.5 
Q 12.25 40.1875 9.734375 44.15625 
Q 7.234375 48.140625 7.234375 53.078125 
Q 7.234375 58.5 10.296875 63.203125 
Q 13.375 67.921875 19.28125 70.359375 
Q 25.203125 72.796875 32.421875 72.796875 
Q 40.375 72.796875 46.453125 70.234375 
Q 52.546875 67.671875 55.8125 62.6875 
Q 59.078125 57.71875 59.328125 51.421875 
L 50.25 50.734375 
Q 49.515625 57.515625 45.28125 60.984375 
Q 41.0625 64.453125 32.8125 64.453125 
Q 24.21875 64.453125 20.28125 61.296875 
Q 16.359375 58.15625 16.359375 53.71875 
Q 16.359375 49.859375 19.140625 47.359375 
Q 21.875 44.875 33.421875 42.265625 
Q 44.96875 39.65625 49.265625 37.703125 
Q 55.515625 34.8125 58.484375 30.390625 
Q 61.46875 25.984375 61.46875 20.21875 
Q 61.46875 14.5 58.203125 9.4375 
Q 54.9375 4.390625 48.796875 1.578125 
Q 42.671875 -1.21875 35.015625 -1.21875 
Q 25.296875 -1.21875 18.71875 1.609375 
Q 12.15625 4.4375 8.421875 10.125 
Q 4.6875 15.828125 4.5 23 
z
" id="ArialMT-83"/>
     </defs>
     <g transform="translate(323.97975 62.16525)scale(0.144 -0.144)">
      <use xlink:href="#ArialMT-77"/>
      <use x="83.300781" xlink:href="#ArialMT-97"/>
      <use x="138.916016" xlink:href="#ArialMT-116"/>
      <use x="166.699219" xlink:href="#ArialMT-101"/>
      <use x="222.314453" xlink:href="#ArialMT-114"/>
      <use x="255.615234" xlink:href="#ArialMT-105"/>
      <use x="277.832031" xlink:href="#ArialMT-97"/>
      <use x="333.447266" xlink:href="#ArialMT-108"/>
      <use x="355.664062" xlink:href="#ArialMT-115"/>
      <use x="405.664062" xlink:href="#ArialMT-32"/>
      <use x="433.447266" xlink:href="#ArialMT-83"/>
      <use x="500.146484" xlink:href="#ArialMT-99"/>
      <use x="550.146484" xlink:href="#ArialMT-105"/>
      <use x="572.363281" xlink:href="#ArialMT-101"/>
      <use x="627.978516" xlink:href="#ArialMT-110"/>
      <use x="683.59375" xlink:href="#ArialMT-99"/>
      <use x="733.59375" xlink:href="#ArialMT-101"/>
     </g>
    </g>
    <g id="line2d_33">
     <path d="M 283.65975 77.4945 
L 312.45975 77.4945 
" style="fill:none;stroke:#edb120;stroke-linecap:square;stroke-width:1.5;"/>
    </g>
    <g id="line2d_34"/>
    <g id="text_15">
     <!-- Statistical Mechanics -->
     <g transform="translate(323.97975 82.5345)scale(0.144 -0.144)">
      <use xlink:href="#ArialMT-83"/>
      <use x="66.699219" xlink:href="#ArialMT-116"/>
      <use x="94.482422" xlink:href="#ArialMT-97"/>
      <use x="150.097656" xlink:href="#ArialMT-116"/>
      <use x="177.880859" xlink:href="#ArialMT-105"/>
      <use x="200.097656" xlink:href="#ArialMT-115"/>
      <use x="250.097656" xlink:href="#ArialMT-116"/>
      <use x="277.880859" xlink:href="#ArialMT-105"/>
      <use x="300.097656" xlink:href="#ArialMT-99"/>
      <use x="350.097656" xlink:href="#ArialMT-97"/>
      <use x="405.712891" xlink:href="#ArialMT-108"/>
      <use x="427.929688" xlink:href="#ArialMT-32"/>
      <use x="455.712891" xlink:href="#ArialMT-77"/>
      <use x="539.013672" xlink:href="#ArialMT-101"/>
      <use x="594.628906" xlink:href="#ArialMT-99"/>
      <use x="644.628906" xlink:href="#ArialMT-104"/>
      <use x="700.244141" xlink:href="#ArialMT-97"/>
      <use x="755.859375" xlink:href="#ArialMT-110"/>
      <use x="811.474609" xlink:href="#ArialMT-105"/>
      <use x="833.691406" xlink:href="#ArialMT-99"/>
      <use x="883.691406" xlink:href="#ArialMT-115"/>
     </g>
    </g>
    <g id="line2d_35">
     <path d="M 283.65975 98.03925 
L 312.45975 98.03925 
" style="fill:none;stroke:#7e2f8e;stroke-linecap:square;stroke-width:1.5;"/>
    </g>
    <g id="line2d_36"/>
    <g id="text_16">
     <!-- Strongly Correlated Electrons -->
     <defs>
      <path d="M 4.984375 -4.296875 
L 13.53125 -5.5625 
Q 14.0625 -9.515625 16.5 -11.328125 
Q 19.78125 -13.765625 25.4375 -13.765625 
Q 31.546875 -13.765625 34.859375 -11.328125 
Q 38.1875 -8.890625 39.359375 -4.5 
Q 40.046875 -1.8125 39.984375 6.78125 
Q 34.234375 0 25.640625 0 
Q 14.9375 0 9.078125 7.71875 
Q 3.21875 15.4375 3.21875 26.21875 
Q 3.21875 33.640625 5.90625 39.90625 
Q 8.59375 46.1875 13.6875 49.609375 
Q 18.796875 53.03125 25.6875 53.03125 
Q 34.859375 53.03125 40.828125 45.609375 
L 40.828125 51.859375 
L 48.921875 51.859375 
L 48.921875 7.03125 
Q 48.921875 -5.078125 46.453125 -10.125 
Q 44 -15.1875 38.640625 -18.109375 
Q 33.296875 -21.046875 25.484375 -21.046875 
Q 16.21875 -21.046875 10.5 -16.875 
Q 4.78125 -12.703125 4.984375 -4.296875 
z
M 12.25 26.859375 
Q 12.25 16.65625 16.296875 11.96875 
Q 20.359375 7.28125 26.46875 7.28125 
Q 32.515625 7.28125 36.609375 11.9375 
Q 40.71875 16.609375 40.71875 26.5625 
Q 40.71875 36.078125 36.5 40.90625 
Q 32.28125 45.75 26.3125 45.75 
Q 20.453125 45.75 16.34375 40.984375 
Q 12.25 36.234375 12.25 26.859375 
z
" id="ArialMT-103"/>
      <path d="M 58.796875 25.09375 
L 68.265625 22.703125 
Q 65.28125 11.03125 57.546875 4.90625 
Q 49.8125 -1.21875 38.625 -1.21875 
Q 27.046875 -1.21875 19.796875 3.484375 
Q 12.546875 8.203125 8.765625 17.140625 
Q 4.984375 26.078125 4.984375 36.328125 
Q 4.984375 47.515625 9.25 55.828125 
Q 13.53125 64.15625 21.40625 68.46875 
Q 29.296875 72.796875 38.765625 72.796875 
Q 49.515625 72.796875 56.828125 67.328125 
Q 64.15625 61.859375 67.046875 51.953125 
L 57.71875 49.75 
Q 55.21875 57.5625 50.484375 61.125 
Q 45.75 64.703125 38.578125 64.703125 
Q 30.328125 64.703125 24.78125 60.734375 
Q 19.234375 56.78125 16.984375 50.109375 
Q 14.75 43.453125 14.75 36.375 
Q 14.75 27.25 17.40625 20.4375 
Q 20.0625 13.625 25.671875 10.25 
Q 31.296875 6.890625 37.84375 6.890625 
Q 45.796875 6.890625 51.3125 11.46875 
Q 56.84375 16.0625 58.796875 25.09375 
z
" id="ArialMT-67"/>
      <path d="M 7.90625 0 
L 7.90625 71.578125 
L 59.671875 71.578125 
L 59.671875 63.140625 
L 17.390625 63.140625 
L 17.390625 41.21875 
L 56.984375 41.21875 
L 56.984375 32.8125 
L 17.390625 32.8125 
L 17.390625 8.453125 
L 61.328125 8.453125 
L 61.328125 0 
z
" id="ArialMT-69"/>
     </defs>
     <g transform="translate(323.97975 103.07925)scale(0.144 -0.144)">
      <use xlink:href="#ArialMT-83"/>
      <use x="66.699219" xlink:href="#ArialMT-116"/>
      <use x="94.482422" xlink:href="#ArialMT-114"/>
      <use x="127.783203" xlink:href="#ArialMT-111"/>
      <use x="183.398438" xlink:href="#ArialMT-110"/>
      <use x="239.013672" xlink:href="#ArialMT-103"/>
      <use x="294.628906" xlink:href="#ArialMT-108"/>
      <use x="316.845703" xlink:href="#ArialMT-121"/>
      <use x="366.845703" xlink:href="#ArialMT-32"/>
      <use x="394.628906" xlink:href="#ArialMT-67"/>
      <use x="466.845703" xlink:href="#ArialMT-111"/>
      <use x="522.460938" xlink:href="#ArialMT-114"/>
      <use x="555.761719" xlink:href="#ArialMT-114"/>
      <use x="589.0625" xlink:href="#ArialMT-101"/>
      <use x="644.677734" xlink:href="#ArialMT-108"/>
      <use x="666.894531" xlink:href="#ArialMT-97"/>
      <use x="722.509766" xlink:href="#ArialMT-116"/>
      <use x="750.292969" xlink:href="#ArialMT-101"/>
      <use x="805.908203" xlink:href="#ArialMT-100"/>
      <use x="861.523438" xlink:href="#ArialMT-32"/>
      <use x="889.306641" xlink:href="#ArialMT-69"/>
      <use x="956.005859" xlink:href="#ArialMT-108"/>
      <use x="978.222656" xlink:href="#ArialMT-101"/>
      <use x="1033.837891" xlink:href="#ArialMT-99"/>
      <use x="1083.837891" xlink:href="#ArialMT-116"/>
      <use x="1111.621094" xlink:href="#ArialMT-114"/>
      <use x="1144.921875" xlink:href="#ArialMT-111"/>
      <use x="1200.537109" xlink:href="#ArialMT-110"/>
      <use x="1256.152344" xlink:href="#ArialMT-115"/>
     </g>
    </g>
    <g id="line2d_37">
     <path d="M 283.65975 118.75275 
L 312.45975 118.75275 
" style="fill:none;stroke:#77ac30;stroke-linecap:square;stroke-width:1.5;"/>
    </g>
    <g id="line2d_38"/>
    <g id="text_17">
     <!-- Superconductivity -->
     <defs>
      <path d="M 40.578125 0 
L 40.578125 7.625 
Q 34.515625 -1.171875 24.125 -1.171875 
Q 19.53125 -1.171875 15.546875 0.578125 
Q 11.578125 2.34375 9.640625 5 
Q 7.71875 7.671875 6.9375 11.53125 
Q 6.390625 14.109375 6.390625 19.734375 
L 6.390625 51.859375 
L 15.1875 51.859375 
L 15.1875 23.09375 
Q 15.1875 16.21875 15.71875 13.8125 
Q 16.546875 10.359375 19.234375 8.375 
Q 21.921875 6.390625 25.875 6.390625 
Q 29.828125 6.390625 33.296875 8.421875 
Q 36.765625 10.453125 38.203125 13.9375 
Q 39.65625 17.4375 39.65625 24.078125 
L 39.65625 51.859375 
L 48.4375 51.859375 
L 48.4375 0 
z
" id="ArialMT-117"/>
      <path d="M 21 0 
L 1.265625 51.859375 
L 10.546875 51.859375 
L 21.6875 20.796875 
Q 23.484375 15.765625 25 10.359375 
Q 26.171875 14.453125 28.265625 20.21875 
L 39.796875 51.859375 
L 48.828125 51.859375 
L 29.203125 0 
z
" id="ArialMT-118"/>
     </defs>
     <g transform="translate(323.97975 123.79275)scale(0.144 -0.144)">
      <use xlink:href="#ArialMT-83"/>
      <use x="66.699219" xlink:href="#ArialMT-117"/>
      <use x="122.314453" xlink:href="#ArialMT-112"/>
      <use x="177.929688" xlink:href="#ArialMT-101"/>
      <use x="233.544922" xlink:href="#ArialMT-114"/>
      <use x="266.845703" xlink:href="#ArialMT-99"/>
      <use x="316.845703" xlink:href="#ArialMT-111"/>
      <use x="372.460938" xlink:href="#ArialMT-110"/>
      <use x="428.076172" xlink:href="#ArialMT-100"/>
      <use x="483.691406" xlink:href="#ArialMT-117"/>
      <use x="539.306641" xlink:href="#ArialMT-99"/>
      <use x="589.306641" xlink:href="#ArialMT-116"/>
      <use x="617.089844" xlink:href="#ArialMT-105"/>
      <use x="639.306641" xlink:href="#ArialMT-118"/>
      <use x="689.306641" xlink:href="#ArialMT-105"/>
      <use x="711.523438" xlink:href="#ArialMT-116"/>
      <use x="739.306641" xlink:href="#ArialMT-121"/>
     </g>
    </g>
    <g id="line2d_39">
     <path d="M 283.65975 139.29075 
L 312.45975 139.29075 
" style="fill:none;stroke:#4dbeee;stroke-linecap:square;stroke-width:1.5;"/>
    </g>
    <g id="line2d_40"/>
    <g id="text_18">
     <!-- Soft Condensed Matter -->
     <g transform="translate(323.97975 144.33075)scale(0.144 -0.144)">
      <use xlink:href="#ArialMT-83"/>
      <use x="66.699219" xlink:href="#ArialMT-111"/>
      <use x="122.314453" xlink:href="#ArialMT-102"/>
      <use x="150.097656" xlink:href="#ArialMT-116"/>
      <use x="177.880859" xlink:href="#ArialMT-32"/>
      <use x="205.664062" xlink:href="#ArialMT-67"/>
      <use x="277.880859" xlink:href="#ArialMT-111"/>
      <use x="333.496094" xlink:href="#ArialMT-110"/>
      <use x="389.111328" xlink:href="#ArialMT-100"/>
      <use x="444.726562" xlink:href="#ArialMT-101"/>
      <use x="500.341797" xlink:href="#ArialMT-110"/>
      <use x="555.957031" xlink:href="#ArialMT-115"/>
      <use x="605.957031" xlink:href="#ArialMT-101"/>
      <use x="661.572266" xlink:href="#ArialMT-100"/>
      <use x="717.1875" xlink:href="#ArialMT-32"/>
      <use x="744.970703" xlink:href="#ArialMT-77"/>
      <use x="828.271484" xlink:href="#ArialMT-97"/>
      <use x="883.886719" xlink:href="#ArialMT-116"/>
      <use x="911.669922" xlink:href="#ArialMT-116"/>
      <use x="939.453125" xlink:href="#ArialMT-101"/>
      <use x="995.068359" xlink:href="#ArialMT-114"/>
     </g>
    </g>
   </g>
  </g>
 </g>
 <defs>
  <clipPath id="p1dd1b64f85">
   <rect height="381.88" width="503.147188" x="56.292813" y="18.36"/>
  </clipPath>
 </defs>
</svg>
