<?xml version="1.0" encoding="utf-8" standalone="no"?>
<!DOCTYPE svg PUBLIC "-//W3C//DTD SVG 1.1//EN"
  "http://www.w3.org/Graphics/SVG/1.1/DTD/svg11.dtd">
<!-- Created with matplotlib (https://matplotlib.org/) -->
<svg height="432pt" version="1.1" viewBox="0 0 576 432" width="576pt" xmlns="http://www.w3.org/2000/svg" xmlns:xlink="http://www.w3.org/1999/xlink">
 <defs>
  <style type="text/css">
*{stroke-linecap:butt;stroke-linejoin:round;}
  </style>
 </defs>
 <g id="figure_1">
  <g id="patch_1">
   <path d="M 0 432 
L 576 432 
L 576 0 
L 0 0 
z
" style="fill:#ffffff;"/>
  </g>
  <g id="axes_1">
   <g id="patch_2">
    <path d="M 56.292813 400.24 
L 559.44 400.24 
L 559.44 18.36 
L 56.292813 18.36 
z
" style="fill:#ffffff;"/>
   </g>
   <g id="matplotlib.axis_1">
    <g id="xtick_1">
     <g id="line2d_1">
      <path clip-path="url(#p50cf5847d8)" d="M 108.20944 400.24 
L 108.20944 18.36 
" style="fill:none;stroke:#b2b2b2;stroke-linecap:square;stroke-width:0.5;"/>
     </g>
     <g id="line2d_2">
      <defs>
       <path d="M 0 0 
L 0 4 
" id="m2b477729d3" style="stroke:#000000;stroke-width:0.5;"/>
      </defs>
      <g>
       <use style="stroke:#000000;stroke-width:0.5;" x="108.20944" xlink:href="#m2b477729d3" y="400.24"/>
      </g>
     </g>
     <g id="text_1">
      <!-- 1995 -->
      <defs>
       <path d="M 37.25 0 
L 28.46875 0 
L 28.46875 56 
Q 25.296875 52.984375 20.140625 49.953125 
Q 14.984375 46.921875 10.890625 45.40625 
L 10.890625 53.90625 
Q 18.265625 57.375 23.78125 62.296875 
Q 29.296875 67.234375 31.59375 71.875 
L 37.25 71.875 
z
" id="ArialMT-49"/>
       <path d="M 5.46875 16.546875 
L 13.921875 17.328125 
Q 14.984375 11.375 18.015625 8.6875 
Q 21.046875 6 25.78125 6 
Q 29.828125 6 32.875 7.859375 
Q 35.9375 9.71875 37.890625 12.8125 
Q 39.84375 15.921875 41.15625 21.1875 
Q 42.484375 26.46875 42.484375 31.9375 
Q 42.484375 32.515625 42.4375 33.6875 
Q 39.796875 29.5 35.234375 26.875 
Q 30.671875 24.265625 25.34375 24.265625 
Q 16.453125 24.265625 10.296875 30.703125 
Q 4.15625 37.15625 4.15625 47.703125 
Q 4.15625 58.59375 10.578125 65.234375 
Q 17 71.875 26.65625 71.875 
Q 33.640625 71.875 39.421875 68.109375 
Q 45.21875 64.359375 48.21875 57.390625 
Q 51.21875 50.4375 51.21875 37.25 
Q 51.21875 23.53125 48.234375 15.40625 
Q 45.265625 7.28125 39.375 3.03125 
Q 33.5 -1.21875 25.59375 -1.21875 
Q 17.1875 -1.21875 11.859375 3.4375 
Q 6.546875 8.109375 5.46875 16.546875 
z
M 41.453125 48.140625 
Q 41.453125 55.71875 37.421875 60.15625 
Q 33.40625 64.59375 27.734375 64.59375 
Q 21.875 64.59375 17.53125 59.8125 
Q 13.1875 55.03125 13.1875 47.40625 
Q 13.1875 40.578125 17.3125 36.296875 
Q 21.4375 32.03125 27.484375 32.03125 
Q 33.59375 32.03125 37.515625 36.296875 
Q 41.453125 40.578125 41.453125 48.140625 
z
" id="ArialMT-57"/>
       <path d="M 4.15625 18.75 
L 13.375 19.53125 
Q 14.40625 12.796875 18.140625 9.390625 
Q 21.875 6 27.15625 6 
Q 33.5 6 37.890625 10.78125 
Q 42.28125 15.578125 42.28125 23.484375 
Q 42.28125 31 38.0625 35.34375 
Q 33.84375 39.703125 27 39.703125 
Q 22.75 39.703125 19.328125 37.765625 
Q 15.921875 35.84375 13.96875 32.765625 
L 5.71875 33.84375 
L 12.640625 70.609375 
L 48.25 70.609375 
L 48.25 62.203125 
L 19.671875 62.203125 
L 15.828125 42.96875 
Q 22.265625 47.46875 29.34375 47.46875 
Q 38.71875 47.46875 45.15625 40.96875 
Q 51.609375 34.46875 51.609375 24.265625 
Q 51.609375 14.546875 45.953125 7.46875 
Q 39.0625 -1.21875 27.15625 -1.21875 
Q 17.390625 -1.21875 11.203125 4.25 
Q 5.03125 9.71875 4.15625 18.75 
z
" id="ArialMT-53"/>
      </defs>
      <g transform="translate(94.86319 416.829375)scale(0.12 -0.12)">
       <use xlink:href="#ArialMT-49"/>
       <use x="55.615234" xlink:href="#ArialMT-57"/>
       <use x="111.230469" xlink:href="#ArialMT-57"/>
       <use x="166.845703" xlink:href="#ArialMT-53"/>
      </g>
     </g>
    </g>
    <g id="xtick_2">
     <g id="line2d_3">
      <path clip-path="url(#p50cf5847d8)" d="M 200.301855 400.24 
L 200.301855 18.36 
" style="fill:none;stroke:#b2b2b2;stroke-linecap:square;stroke-width:0.5;"/>
     </g>
     <g id="line2d_4">
      <g>
       <use style="stroke:#000000;stroke-width:0.5;" x="200.301855" xlink:href="#m2b477729d3" y="400.24"/>
      </g>
     </g>
     <g id="text_2">
      <!-- 2000 -->
      <defs>
       <path d="M 50.34375 8.453125 
L 50.34375 0 
L 3.03125 0 
Q 2.9375 3.171875 4.046875 6.109375 
Q 5.859375 10.9375 9.828125 15.625 
Q 13.8125 20.3125 21.34375 26.46875 
Q 33.015625 36.03125 37.109375 41.625 
Q 41.21875 47.21875 41.21875 52.203125 
Q 41.21875 57.421875 37.46875 61 
Q 33.734375 64.59375 27.734375 64.59375 
Q 21.390625 64.59375 17.578125 60.78125 
Q 13.765625 56.984375 13.71875 50.25 
L 4.6875 51.171875 
Q 5.609375 61.28125 11.65625 66.578125 
Q 17.71875 71.875 27.9375 71.875 
Q 38.234375 71.875 44.234375 66.15625 
Q 50.25 60.453125 50.25 52 
Q 50.25 47.703125 48.484375 43.546875 
Q 46.734375 39.40625 42.65625 34.8125 
Q 38.578125 30.21875 29.109375 22.21875 
Q 21.1875 15.578125 18.9375 13.203125 
Q 16.703125 10.84375 15.234375 8.453125 
z
" id="ArialMT-50"/>
       <path d="M 4.15625 35.296875 
Q 4.15625 48 6.765625 55.734375 
Q 9.375 63.484375 14.515625 67.671875 
Q 19.671875 71.875 27.484375 71.875 
Q 33.25 71.875 37.59375 69.546875 
Q 41.9375 67.234375 44.765625 62.859375 
Q 47.609375 58.5 49.21875 52.21875 
Q 50.828125 45.953125 50.828125 35.296875 
Q 50.828125 22.703125 48.234375 14.96875 
Q 45.65625 7.234375 40.5 3 
Q 35.359375 -1.21875 27.484375 -1.21875 
Q 17.140625 -1.21875 11.234375 6.203125 
Q 4.15625 15.140625 4.15625 35.296875 
z
M 13.1875 35.296875 
Q 13.1875 17.671875 17.3125 11.828125 
Q 21.4375 6 27.484375 6 
Q 33.546875 6 37.671875 11.859375 
Q 41.796875 17.71875 41.796875 35.296875 
Q 41.796875 52.984375 37.671875 58.78125 
Q 33.546875 64.59375 27.390625 64.59375 
Q 21.34375 64.59375 17.71875 59.46875 
Q 13.1875 52.9375 13.1875 35.296875 
z
" id="ArialMT-48"/>
      </defs>
      <g transform="translate(186.955605 416.829375)scale(0.12 -0.12)">
       <use xlink:href="#ArialMT-50"/>
       <use x="55.615234" xlink:href="#ArialMT-48"/>
       <use x="111.230469" xlink:href="#ArialMT-48"/>
       <use x="166.845703" xlink:href="#ArialMT-48"/>
      </g>
     </g>
    </g>
    <g id="xtick_3">
     <g id="line2d_5">
      <path clip-path="url(#p50cf5847d8)" d="M 292.444705 400.24 
L 292.444705 18.36 
" style="fill:none;stroke:#b2b2b2;stroke-linecap:square;stroke-width:0.5;"/>
     </g>
     <g id="line2d_6">
      <g>
       <use style="stroke:#000000;stroke-width:0.5;" x="292.444705" xlink:href="#m2b477729d3" y="400.24"/>
      </g>
     </g>
     <g id="text_3">
      <!-- 2005 -->
      <g transform="translate(279.098455 416.829375)scale(0.12 -0.12)">
       <use xlink:href="#ArialMT-50"/>
       <use x="55.615234" xlink:href="#ArialMT-48"/>
       <use x="111.230469" xlink:href="#ArialMT-48"/>
       <use x="166.845703" xlink:href="#ArialMT-53"/>
      </g>
     </g>
    </g>
    <g id="xtick_4">
     <g id="line2d_7">
      <path clip-path="url(#p50cf5847d8)" d="M 384.53712 400.24 
L 384.53712 18.36 
" style="fill:none;stroke:#b2b2b2;stroke-linecap:square;stroke-width:0.5;"/>
     </g>
     <g id="line2d_8">
      <g>
       <use style="stroke:#000000;stroke-width:0.5;" x="384.53712" xlink:href="#m2b477729d3" y="400.24"/>
      </g>
     </g>
     <g id="text_4">
      <!-- 2010 -->
      <g transform="translate(371.19087 416.829375)scale(0.12 -0.12)">
       <use xlink:href="#ArialMT-50"/>
       <use x="55.615234" xlink:href="#ArialMT-48"/>
       <use x="111.230469" xlink:href="#ArialMT-49"/>
       <use x="166.845703" xlink:href="#ArialMT-48"/>
      </g>
     </g>
    </g>
    <g id="xtick_5">
     <g id="line2d_9">
      <path clip-path="url(#p50cf5847d8)" d="M 476.629535 400.24 
L 476.629535 18.36 
" style="fill:none;stroke:#b2b2b2;stroke-linecap:square;stroke-width:0.5;"/>
     </g>
     <g id="line2d_10">
      <g>
       <use style="stroke:#000000;stroke-width:0.5;" x="476.629535" xlink:href="#m2b477729d3" y="400.24"/>
      </g>
     </g>
     <g id="text_5">
      <!-- 2015 -->
      <g transform="translate(463.283285 416.829375)scale(0.12 -0.12)">
       <use xlink:href="#ArialMT-50"/>
       <use x="55.615234" xlink:href="#ArialMT-48"/>
       <use x="111.230469" xlink:href="#ArialMT-49"/>
       <use x="166.845703" xlink:href="#ArialMT-53"/>
      </g>
     </g>
    </g>
   </g>
   <g id="matplotlib.axis_2">
    <g id="ytick_1">
     <g id="line2d_11">
      <path clip-path="url(#p50cf5847d8)" d="M 56.292813 382.055238 
L 559.44 382.055238 
" style="fill:none;stroke:#b2b2b2;stroke-linecap:square;stroke-width:0.5;"/>
     </g>
     <g id="line2d_12">
      <defs>
       <path d="M 0 0 
L -4 0 
" id="m03ea2e3d95" style="stroke:#000000;stroke-width:0.5;"/>
      </defs>
      <g>
       <use style="stroke:#000000;stroke-width:0.5;" x="56.292813" xlink:href="#m03ea2e3d95" y="382.055238"/>
      </g>
     </g>
     <g id="text_6">
      <!-- 0.0 -->
      <defs>
       <path d="M 9.078125 0 
L 9.078125 10.015625 
L 19.09375 10.015625 
L 19.09375 0 
z
" id="ArialMT-46"/>
      </defs>
      <g transform="translate(31.612813 385.157426)scale(0.12 -0.12)">
       <use xlink:href="#ArialMT-48"/>
       <use x="55.615234" xlink:href="#ArialMT-46"/>
       <use x="83.398438" xlink:href="#ArialMT-48"/>
      </g>
     </g>
    </g>
    <g id="ytick_2">
     <g id="line2d_13">
      <path clip-path="url(#p50cf5847d8)" d="M 56.292813 309.31619 
L 559.44 309.31619 
" style="fill:none;stroke:#b2b2b2;stroke-linecap:square;stroke-width:0.5;"/>
     </g>
     <g id="line2d_14">
      <g>
       <use style="stroke:#000000;stroke-width:0.5;" x="56.292813" xlink:href="#m03ea2e3d95" y="309.31619"/>
      </g>
     </g>
     <g id="text_7">
      <!-- 0.2 -->
      <g transform="translate(31.612813 312.418378)scale(0.12 -0.12)">
       <use xlink:href="#ArialMT-48"/>
       <use x="55.615234" xlink:href="#ArialMT-46"/>
       <use x="83.398438" xlink:href="#ArialMT-50"/>
      </g>
     </g>
    </g>
    <g id="ytick_3">
     <g id="line2d_15">
      <path clip-path="url(#p50cf5847d8)" d="M 56.292813 236.577143 
L 559.44 236.577143 
" style="fill:none;stroke:#b2b2b2;stroke-linecap:square;stroke-width:0.5;"/>
     </g>
     <g id="line2d_16">
      <g>
       <use style="stroke:#000000;stroke-width:0.5;" x="56.292813" xlink:href="#m03ea2e3d95" y="236.577143"/>
      </g>
     </g>
     <g id="text_8">
      <!-- 0.4 -->
      <defs>
       <path d="M 32.328125 0 
L 32.328125 17.140625 
L 1.265625 17.140625 
L 1.265625 25.203125 
L 33.9375 71.578125 
L 41.109375 71.578125 
L 41.109375 25.203125 
L 50.78125 25.203125 
L 50.78125 17.140625 
L 41.109375 17.140625 
L 41.109375 0 
z
M 32.328125 25.203125 
L 32.328125 57.46875 
L 9.90625 25.203125 
z
" id="ArialMT-52"/>
      </defs>
      <g transform="translate(31.612813 239.67933)scale(0.12 -0.12)">
       <use xlink:href="#ArialMT-48"/>
       <use x="55.615234" xlink:href="#ArialMT-46"/>
       <use x="83.398438" xlink:href="#ArialMT-52"/>
      </g>
     </g>
    </g>
    <g id="ytick_4">
     <g id="line2d_17">
      <path clip-path="url(#p50cf5847d8)" d="M 56.292813 163.838095 
L 559.44 163.838095 
" style="fill:none;stroke:#b2b2b2;stroke-linecap:square;stroke-width:0.5;"/>
     </g>
     <g id="line2d_18">
      <g>
       <use style="stroke:#000000;stroke-width:0.5;" x="56.292813" xlink:href="#m03ea2e3d95" y="163.838095"/>
      </g>
     </g>
     <g id="text_9">
      <!-- 0.6 -->
      <defs>
       <path d="M 49.75 54.046875 
L 41.015625 53.375 
Q 39.84375 58.546875 37.703125 60.890625 
Q 34.125 64.65625 28.90625 64.65625 
Q 24.703125 64.65625 21.53125 62.3125 
Q 17.390625 59.28125 14.984375 53.46875 
Q 12.59375 47.65625 12.5 36.921875 
Q 15.671875 41.75 20.265625 44.09375 
Q 24.859375 46.4375 29.890625 46.4375 
Q 38.671875 46.4375 44.84375 39.96875 
Q 51.03125 33.5 51.03125 23.25 
Q 51.03125 16.5 48.125 10.71875 
Q 45.21875 4.9375 40.140625 1.859375 
Q 35.0625 -1.21875 28.609375 -1.21875 
Q 17.625 -1.21875 10.6875 6.859375 
Q 3.765625 14.9375 3.765625 33.5 
Q 3.765625 54.25 11.421875 63.671875 
Q 18.109375 71.875 29.4375 71.875 
Q 37.890625 71.875 43.28125 67.140625 
Q 48.6875 62.40625 49.75 54.046875 
z
M 13.875 23.1875 
Q 13.875 18.65625 15.796875 14.5 
Q 17.71875 10.359375 21.1875 8.171875 
Q 24.65625 6 28.46875 6 
Q 34.03125 6 38.03125 10.484375 
Q 42.046875 14.984375 42.046875 22.703125 
Q 42.046875 30.125 38.078125 34.390625 
Q 34.125 38.671875 28.125 38.671875 
Q 22.171875 38.671875 18.015625 34.390625 
Q 13.875 30.125 13.875 23.1875 
z
" id="ArialMT-54"/>
      </defs>
      <g transform="translate(31.612813 166.940283)scale(0.12 -0.12)">
       <use xlink:href="#ArialMT-48"/>
       <use x="55.615234" xlink:href="#ArialMT-46"/>
       <use x="83.398438" xlink:href="#ArialMT-54"/>
      </g>
     </g>
    </g>
    <g id="ytick_5">
     <g id="line2d_19">
      <path clip-path="url(#p50cf5847d8)" d="M 56.292813 91.099048 
L 559.44 91.099048 
" style="fill:none;stroke:#b2b2b2;stroke-linecap:square;stroke-width:0.5;"/>
     </g>
     <g id="line2d_20">
      <g>
       <use style="stroke:#000000;stroke-width:0.5;" x="56.292813" xlink:href="#m03ea2e3d95" y="91.099048"/>
      </g>
     </g>
     <g id="text_10">
      <!-- 0.8 -->
      <defs>
       <path d="M 17.671875 38.8125 
Q 12.203125 40.828125 9.5625 44.53125 
Q 6.9375 48.25 6.9375 53.421875 
Q 6.9375 61.234375 12.546875 66.546875 
Q 18.171875 71.875 27.484375 71.875 
Q 36.859375 71.875 42.578125 66.421875 
Q 48.296875 60.984375 48.296875 53.171875 
Q 48.296875 48.1875 45.671875 44.5 
Q 43.0625 40.828125 37.75 38.8125 
Q 44.34375 36.671875 47.78125 31.875 
Q 51.21875 27.09375 51.21875 20.453125 
Q 51.21875 11.28125 44.71875 5.03125 
Q 38.234375 -1.21875 27.640625 -1.21875 
Q 17.046875 -1.21875 10.546875 5.046875 
Q 4.046875 11.328125 4.046875 20.703125 
Q 4.046875 27.6875 7.59375 32.390625 
Q 11.140625 37.109375 17.671875 38.8125 
z
M 15.921875 53.71875 
Q 15.921875 48.640625 19.1875 45.40625 
Q 22.46875 42.1875 27.6875 42.1875 
Q 32.765625 42.1875 36.015625 45.375 
Q 39.265625 48.578125 39.265625 53.21875 
Q 39.265625 58.0625 35.90625 61.359375 
Q 32.5625 64.65625 27.59375 64.65625 
Q 22.5625 64.65625 19.234375 61.421875 
Q 15.921875 58.203125 15.921875 53.71875 
z
M 13.09375 20.65625 
Q 13.09375 16.890625 14.875 13.375 
Q 16.65625 9.859375 20.171875 7.921875 
Q 23.6875 6 27.734375 6 
Q 34.03125 6 38.125 10.046875 
Q 42.234375 14.109375 42.234375 20.359375 
Q 42.234375 26.703125 38.015625 30.859375 
Q 33.796875 35.015625 27.4375 35.015625 
Q 21.234375 35.015625 17.15625 30.90625 
Q 13.09375 26.8125 13.09375 20.65625 
z
" id="ArialMT-56"/>
      </defs>
      <g transform="translate(31.612813 94.201235)scale(0.12 -0.12)">
       <use xlink:href="#ArialMT-48"/>
       <use x="55.615234" xlink:href="#ArialMT-46"/>
       <use x="83.398438" xlink:href="#ArialMT-56"/>
      </g>
     </g>
    </g>
    <g id="ytick_6">
     <g id="line2d_21">
      <path clip-path="url(#p50cf5847d8)" d="M 56.292813 18.36 
L 559.44 18.36 
" style="fill:none;stroke:#b2b2b2;stroke-linecap:square;stroke-width:0.5;"/>
     </g>
     <g id="line2d_22">
      <g>
       <use style="stroke:#000000;stroke-width:0.5;" x="56.292813" xlink:href="#m03ea2e3d95" y="18.36"/>
      </g>
     </g>
     <g id="text_11">
      <!-- 1.0 -->
      <g transform="translate(31.612813 21.462187)scale(0.12 -0.12)">
       <use xlink:href="#ArialMT-49"/>
       <use x="55.615234" xlink:href="#ArialMT-46"/>
       <use x="83.398438" xlink:href="#ArialMT-48"/>
      </g>
     </g>
    </g>
    <g id="text_12">
     <!-- Fraction of papers -->
     <defs>
      <path d="M 8.203125 0 
L 8.203125 71.578125 
L 56.5 71.578125 
L 56.5 63.140625 
L 17.671875 63.140625 
L 17.671875 40.96875 
L 51.265625 40.96875 
L 51.265625 32.515625 
L 17.671875 32.515625 
L 17.671875 0 
z
" id="ArialMT-70"/>
      <path d="M 6.5 0 
L 6.5 51.859375 
L 14.40625 51.859375 
L 14.40625 44 
Q 17.4375 49.515625 20 51.265625 
Q 22.5625 53.03125 25.640625 53.03125 
Q 30.078125 53.03125 34.671875 50.203125 
L 31.640625 42.046875 
Q 28.421875 43.953125 25.203125 43.953125 
Q 22.3125 43.953125 20.015625 42.21875 
Q 17.71875 40.484375 16.75 37.40625 
Q 15.28125 32.71875 15.28125 27.15625 
L 15.28125 0 
z
" id="ArialMT-114"/>
      <path d="M 40.4375 6.390625 
Q 35.546875 2.25 31.03125 0.53125 
Q 26.515625 -1.171875 21.34375 -1.171875 
Q 12.796875 -1.171875 8.203125 3 
Q 3.609375 7.171875 3.609375 13.671875 
Q 3.609375 17.484375 5.34375 20.625 
Q 7.078125 23.78125 9.890625 25.6875 
Q 12.703125 27.59375 16.21875 28.5625 
Q 18.796875 29.25 24.03125 29.890625 
Q 34.671875 31.15625 39.703125 32.90625 
Q 39.75 34.71875 39.75 35.203125 
Q 39.75 40.578125 37.25 42.78125 
Q 33.890625 45.75 27.25 45.75 
Q 21.046875 45.75 18.09375 43.578125 
Q 15.140625 41.40625 13.71875 35.890625 
L 5.125 37.0625 
Q 6.296875 42.578125 8.984375 45.96875 
Q 11.671875 49.359375 16.75 51.1875 
Q 21.828125 53.03125 28.515625 53.03125 
Q 35.15625 53.03125 39.296875 51.46875 
Q 43.453125 49.90625 45.40625 47.53125 
Q 47.359375 45.171875 48.140625 41.546875 
Q 48.578125 39.3125 48.578125 33.453125 
L 48.578125 21.734375 
Q 48.578125 9.46875 49.140625 6.21875 
Q 49.703125 2.984375 51.375 0 
L 42.1875 0 
Q 40.828125 2.734375 40.4375 6.390625 
z
M 39.703125 26.03125 
Q 34.90625 24.078125 25.34375 22.703125 
Q 19.921875 21.921875 17.671875 20.9375 
Q 15.4375 19.96875 14.203125 18.09375 
Q 12.984375 16.21875 12.984375 13.921875 
Q 12.984375 10.40625 15.640625 8.0625 
Q 18.3125 5.71875 23.4375 5.71875 
Q 28.515625 5.71875 32.46875 7.9375 
Q 36.421875 10.15625 38.28125 14.015625 
Q 39.703125 17 39.703125 22.796875 
z
" id="ArialMT-97"/>
      <path d="M 40.4375 19 
L 49.078125 17.875 
Q 47.65625 8.9375 41.8125 3.875 
Q 35.984375 -1.171875 27.484375 -1.171875 
Q 16.84375 -1.171875 10.375 5.78125 
Q 3.90625 12.75 3.90625 25.734375 
Q 3.90625 34.125 6.6875 40.421875 
Q 9.46875 46.734375 15.15625 49.875 
Q 20.84375 53.03125 27.546875 53.03125 
Q 35.984375 53.03125 41.359375 48.75 
Q 46.734375 44.484375 48.25 36.625 
L 39.703125 35.296875 
Q 38.484375 40.53125 35.375 43.15625 
Q 32.28125 45.796875 27.875 45.796875 
Q 21.234375 45.796875 17.078125 41.03125 
Q 12.9375 36.28125 12.9375 25.984375 
Q 12.9375 15.53125 16.9375 10.796875 
Q 20.953125 6.0625 27.390625 6.0625 
Q 32.5625 6.0625 36.03125 9.234375 
Q 39.5 12.40625 40.4375 19 
z
" id="ArialMT-99"/>
      <path d="M 25.78125 7.859375 
L 27.046875 0.09375 
Q 23.34375 -0.6875 20.40625 -0.6875 
Q 15.625 -0.6875 12.984375 0.828125 
Q 10.359375 2.34375 9.28125 4.8125 
Q 8.203125 7.28125 8.203125 15.1875 
L 8.203125 45.015625 
L 1.765625 45.015625 
L 1.765625 51.859375 
L 8.203125 51.859375 
L 8.203125 64.703125 
L 16.9375 69.96875 
L 16.9375 51.859375 
L 25.78125 51.859375 
L 25.78125 45.015625 
L 16.9375 45.015625 
L 16.9375 14.703125 
Q 16.9375 10.9375 17.40625 9.859375 
Q 17.875 8.796875 18.921875 8.15625 
Q 19.96875 7.515625 21.921875 7.515625 
Q 23.390625 7.515625 25.78125 7.859375 
z
" id="ArialMT-116"/>
      <path d="M 6.640625 61.46875 
L 6.640625 71.578125 
L 15.4375 71.578125 
L 15.4375 61.46875 
z
M 6.640625 0 
L 6.640625 51.859375 
L 15.4375 51.859375 
L 15.4375 0 
z
" id="ArialMT-105"/>
      <path d="M 3.328125 25.921875 
Q 3.328125 40.328125 11.328125 47.265625 
Q 18.015625 53.03125 27.640625 53.03125 
Q 38.328125 53.03125 45.109375 46.015625 
Q 51.90625 39.015625 51.90625 26.65625 
Q 51.90625 16.65625 48.90625 10.90625 
Q 45.90625 5.171875 40.15625 2 
Q 34.421875 -1.171875 27.640625 -1.171875 
Q 16.75 -1.171875 10.03125 5.8125 
Q 3.328125 12.796875 3.328125 25.921875 
z
M 12.359375 25.921875 
Q 12.359375 15.96875 16.703125 11.015625 
Q 21.046875 6.0625 27.640625 6.0625 
Q 34.1875 6.0625 38.53125 11.03125 
Q 42.875 16.015625 42.875 26.21875 
Q 42.875 35.84375 38.5 40.796875 
Q 34.125 45.75 27.640625 45.75 
Q 21.046875 45.75 16.703125 40.8125 
Q 12.359375 35.890625 12.359375 25.921875 
z
" id="ArialMT-111"/>
      <path d="M 6.59375 0 
L 6.59375 51.859375 
L 14.5 51.859375 
L 14.5 44.484375 
Q 20.21875 53.03125 31 53.03125 
Q 35.6875 53.03125 39.625 51.34375 
Q 43.5625 49.65625 45.515625 46.921875 
Q 47.46875 44.1875 48.25 40.4375 
Q 48.734375 37.984375 48.734375 31.890625 
L 48.734375 0 
L 39.9375 0 
L 39.9375 31.546875 
Q 39.9375 36.921875 38.90625 39.578125 
Q 37.890625 42.234375 35.28125 43.8125 
Q 32.671875 45.40625 29.15625 45.40625 
Q 23.53125 45.40625 19.453125 41.84375 
Q 15.375 38.28125 15.375 28.328125 
L 15.375 0 
z
" id="ArialMT-110"/>
      <path id="ArialMT-32"/>
      <path d="M 8.6875 0 
L 8.6875 45.015625 
L 0.921875 45.015625 
L 0.921875 51.859375 
L 8.6875 51.859375 
L 8.6875 57.375 
Q 8.6875 62.59375 9.625 65.140625 
Q 10.890625 68.5625 14.078125 70.671875 
Q 17.28125 72.796875 23.046875 72.796875 
Q 26.765625 72.796875 31.25 71.921875 
L 29.9375 64.265625 
Q 27.203125 64.75 24.75 64.75 
Q 20.75 64.75 19.09375 63.03125 
Q 17.4375 61.328125 17.4375 56.640625 
L 17.4375 51.859375 
L 27.546875 51.859375 
L 27.546875 45.015625 
L 17.4375 45.015625 
L 17.4375 0 
z
" id="ArialMT-102"/>
      <path d="M 6.59375 -19.875 
L 6.59375 51.859375 
L 14.59375 51.859375 
L 14.59375 45.125 
Q 17.4375 49.078125 21 51.046875 
Q 24.5625 53.03125 29.640625 53.03125 
Q 36.28125 53.03125 41.359375 49.609375 
Q 46.4375 46.1875 49.015625 39.953125 
Q 51.609375 33.734375 51.609375 26.3125 
Q 51.609375 18.359375 48.75 11.984375 
Q 45.90625 5.609375 40.453125 2.21875 
Q 35.015625 -1.171875 29 -1.171875 
Q 24.609375 -1.171875 21.109375 0.6875 
Q 17.625 2.546875 15.375 5.375 
L 15.375 -19.875 
z
M 14.546875 25.640625 
Q 14.546875 15.625 18.59375 10.84375 
Q 22.65625 6.0625 28.421875 6.0625 
Q 34.28125 6.0625 38.453125 11.015625 
Q 42.625 15.96875 42.625 26.375 
Q 42.625 36.28125 38.546875 41.203125 
Q 34.46875 46.140625 28.8125 46.140625 
Q 23.1875 46.140625 18.859375 40.890625 
Q 14.546875 35.640625 14.546875 25.640625 
z
" id="ArialMT-112"/>
      <path d="M 42.09375 16.703125 
L 51.171875 15.578125 
Q 49.03125 7.625 43.21875 3.21875 
Q 37.40625 -1.171875 28.375 -1.171875 
Q 17 -1.171875 10.328125 5.828125 
Q 3.65625 12.84375 3.65625 25.484375 
Q 3.65625 38.578125 10.390625 45.796875 
Q 17.140625 53.03125 27.875 53.03125 
Q 38.28125 53.03125 44.875 45.953125 
Q 51.46875 38.875 51.46875 26.03125 
Q 51.46875 25.25 51.421875 23.6875 
L 12.75 23.6875 
Q 13.234375 15.140625 17.578125 10.59375 
Q 21.921875 6.0625 28.421875 6.0625 
Q 33.25 6.0625 36.671875 8.59375 
Q 40.09375 11.140625 42.09375 16.703125 
z
M 13.234375 30.90625 
L 42.1875 30.90625 
Q 41.609375 37.453125 38.875 40.71875 
Q 34.671875 45.796875 27.984375 45.796875 
Q 21.921875 45.796875 17.796875 41.75 
Q 13.671875 37.703125 13.234375 30.90625 
z
" id="ArialMT-101"/>
      <path d="M 3.078125 15.484375 
L 11.765625 16.84375 
Q 12.5 11.625 15.84375 8.84375 
Q 19.1875 6.0625 25.203125 6.0625 
Q 31.25 6.0625 34.171875 8.515625 
Q 37.109375 10.984375 37.109375 14.3125 
Q 37.109375 17.28125 34.515625 19 
Q 32.71875 20.171875 25.53125 21.96875 
Q 15.875 24.421875 12.140625 26.203125 
Q 8.40625 27.984375 6.46875 31.125 
Q 4.546875 34.28125 4.546875 38.09375 
Q 4.546875 41.546875 6.125 44.5 
Q 7.71875 47.46875 10.453125 49.421875 
Q 12.5 50.921875 16.03125 51.96875 
Q 19.578125 53.03125 23.640625 53.03125 
Q 29.734375 53.03125 34.34375 51.265625 
Q 38.96875 49.515625 41.15625 46.5 
Q 43.359375 43.5 44.1875 38.484375 
L 35.59375 37.3125 
Q 35.015625 41.3125 32.203125 43.546875 
Q 29.390625 45.796875 24.265625 45.796875 
Q 18.21875 45.796875 15.625 43.796875 
Q 13.03125 41.796875 13.03125 39.109375 
Q 13.03125 37.40625 14.109375 36.03125 
Q 15.1875 34.625 17.484375 33.6875 
Q 18.796875 33.203125 25.25 31.453125 
Q 34.578125 28.953125 38.25 27.359375 
Q 41.9375 25.78125 44.03125 22.75 
Q 46.140625 19.734375 46.140625 15.234375 
Q 46.140625 10.84375 43.578125 6.953125 
Q 41.015625 3.078125 36.171875 0.953125 
Q 31.34375 -1.171875 25.25 -1.171875 
Q 15.140625 -1.171875 9.84375 3.03125 
Q 4.546875 7.234375 3.078125 15.484375 
z
" id="ArialMT-115"/>
     </defs>
     <g transform="translate(23.830312 265.712344)rotate(-90)scale(0.14 -0.14)">
      <use xlink:href="#ArialMT-70"/>
      <use x="61.083984" xlink:href="#ArialMT-114"/>
      <use x="94.384766" xlink:href="#ArialMT-97"/>
      <use x="150" xlink:href="#ArialMT-99"/>
      <use x="200" xlink:href="#ArialMT-116"/>
      <use x="227.783203" xlink:href="#ArialMT-105"/>
      <use x="250" xlink:href="#ArialMT-111"/>
      <use x="305.615234" xlink:href="#ArialMT-110"/>
      <use x="361.230469" xlink:href="#ArialMT-32"/>
      <use x="389.013672" xlink:href="#ArialMT-111"/>
      <use x="444.628906" xlink:href="#ArialMT-102"/>
      <use x="472.412109" xlink:href="#ArialMT-32"/>
      <use x="500.195312" xlink:href="#ArialMT-112"/>
      <use x="555.810547" xlink:href="#ArialMT-97"/>
      <use x="611.425781" xlink:href="#ArialMT-112"/>
      <use x="667.041016" xlink:href="#ArialMT-101"/>
      <use x="722.65625" xlink:href="#ArialMT-114"/>
      <use x="755.957031" xlink:href="#ArialMT-115"/>
     </g>
    </g>
   </g>
   <g id="line2d_23">
    <path clip-path="url(#p50cf5847d8)" d="M 49.074568 382.055238 
L 50.613855 382.055238 
M 81.30082 382.055238 
L 92.070572 382.055238 
M 95.095559 382.055238 
L 161.1651 382.055238 
L 162.703336 354.078681 
L 164.266789 382.055238 
L 174.956688 382.055238 
L 176.494924 375.482433 
L 178.03421 374.14882 
L 179.573497 366.242402 
L 181.111733 371.03417 
L 182.675185 348.992035 
L 184.162987 369.294002 
L 185.650789 382.055238 
L 187.187974 382.055238 
L 188.72516 284.478467 
L 190.263395 361.849947 
L 191.801631 375.784631 
L 193.365084 362.396036 
L 194.90332 382.055238 
L 196.442606 372.729719 
L 197.981893 382.055238 
L 199.520129 360.661401 
L 201.083582 355.443391 
L 202.596601 370.689762 
L 204.109619 379.024444 
L 205.646805 359.324286 
L 207.18399 372.484311 
L 208.722226 372.225637 
L 210.260461 372.847764 
L 211.823914 361.468715 
L 213.36215 322.433068 
L 214.901437 367.310837 
L 216.440723 359.036552 
L 217.978959 365.139181 
L 219.542412 376.626951 
L 221.030214 368.330889 
L 222.518016 368.585044 
L 224.055201 354.078681 
L 225.592386 352.244153 
L 227.130622 372.886451 
L 228.668858 370.689762 
L 230.232311 371.952593 
L 231.770546 379.529577 
L 233.309833 371.252409 
L 234.84912 382.055238 
L 236.387355 382.055238 
L 237.950808 352.365831 
L 239.43861 377.003915 
L 240.926412 363.870476 
L 242.463597 366.412432 
L 244.000782 374.582048 
L 245.539018 370.689762 
L 247.077254 379.864303 
L 248.640707 382.055238 
L 250.178943 382.055238 
L 251.718229 376.093021 
L 253.257516 369.066122 
L 254.795752 305.119707 
L 256.359204 369.726586 
L 257.847006 371.810302 
L 259.334808 375.993651 
L 260.871993 382.055238 
L 262.409179 376.586137 
L 263.947414 372.433671 
L 265.48565 370.509358 
L 267.049103 373.497703 
L 268.587339 368.585044 
L 270.126626 382.055238 
L 271.665912 367.79268 
L 274.767601 367.79268 
L 276.28062 371.858175 
L 277.793638 370.195611 
L 279.330824 370.92171 
L 280.868009 377.699607 
L 282.406245 372.567536 
L 283.94448 362.743987 
L 285.507933 369.621213 
L 287.046169 382.055238 
L 288.585456 369.8507 
L 290.124742 374.530509 
L 291.662978 374.632886 
L 293.226431 374.261769 
L 294.714233 363.983425 
L 296.202035 372.022266 
L 297.73922 364.644296 
L 299.276405 374.261769 
L 300.814641 361.597381 
L 302.352877 365.269304 
L 303.91633 370.839966 
L 305.454565 379.61433 
L 306.993852 376.89644 
L 308.533139 363.134677 
L 311.634827 372.777298 
L 313.122629 369.142981 
L 314.610431 376.59981 
L 316.147616 369.585687 
L 317.684801 368.909627 
L 319.223037 372.633082 
L 320.761273 367.507429 
L 322.324726 374.888829 
L 323.862962 370.821408 
L 325.402248 371.871771 
L 326.941535 366.668132 
L 328.479771 375.702483 
L 330.043224 375.784631 
L 331.531025 380.634554 
L 333.017777 374.540874 
L 334.554962 370.152485 
L 336.093198 376.220555 
L 337.631433 375.890912 
L 339.169669 371.983678 
L 340.733122 371.279083 
L 342.271358 365.858284 
L 343.809594 377.793185 
L 345.34888 373.836137 
L 346.888167 370.323134 
L 348.45162 376.474237 
L 349.964639 375.006881 
L 351.476607 377.61993 
L 353.013792 373.900636 
L 354.552028 375.402276 
L 356.090264 371.061931 
L 357.6285 373.265021 
L 359.191952 375.730104 
L 360.730188 367.667295 
L 362.268424 367.651466 
L 363.807711 374.497934 
L 365.346997 360.984733 
L 366.91045 371.821389 
L 368.398252 370.34831 
L 369.885003 368.609943 
L 371.422188 365.968718 
L 372.960424 372.122385 
L 374.49866 371.05172 
L 376.036896 371.03417 
L 377.600349 373.973122 
L 379.138584 368.352435 
L 380.67682 365.904298 
L 382.216107 370.053817 
L 383.755393 369.200031 
L 385.318846 373.276388 
L 386.806648 365.198577 
L 388.293399 367.736528 
L 389.830585 372.392772 
L 391.36882 363.092518 
L 392.907056 370.806932 
L 394.445292 371.663946 
L 396.008745 365.902584 
L 397.546981 368.272167 
L 399.085217 371.939821 
L 400.624503 370.12356 
L 402.16379 371.568063 
L 403.727243 369.567848 
L 405.215044 370.74676 
L 406.701796 370.074689 
L 408.238981 368.662548 
L 409.777217 368.196182 
L 411.315452 364.507029 
L 412.853688 365.195194 
L 414.417141 369.932063 
L 415.955377 364.624683 
L 417.493613 362.009044 
L 419.032899 368.028425 
L 420.572186 364.644296 
L 422.135639 368.109306 
L 423.648658 358.980126 
L 425.160626 356.077007 
L 426.697811 364.776231 
L 428.236047 347.357514 
L 429.774283 305.954111 
L 431.312519 355.259052 
L 432.875971 364.692124 
L 434.414207 358.698663 
L 435.952443 345.866657 
L 437.49173 353.027919 
L 439.031016 353.277544 
L 440.594469 339.701389 
L 442.082271 357.614559 
L 443.569022 363.290111 
L 445.106207 366.103693 
L 446.644443 360.168675 
L 448.182679 352.137533 
L 449.720915 356.124908 
L 451.284368 363.28754 
L 452.822604 354.619814 
L 454.360839 355.333806 
L 455.900126 352.152488 
L 457.439412 339.96777 
L 459.002865 358.123149 
L 460.490667 350.9243 
L 461.977418 358.039807 
L 463.514604 358.661976 
L 465.052839 356.297161 
L 466.591075 342.934356 
L 468.129311 354.673585 
L 469.692764 351.99172 
L 471.231 352.899147 
L 472.769236 348.857475 
L 474.308522 348.045163 
L 475.847809 340.111085 
L 477.411262 355.935906 
L 478.899063 345.114465 
L 480.385815 346.662696 
L 481.923 351.021363 
L 483.461236 350.67689 
L 484.999472 335.718265 
L 486.537707 349.446889 
L 488.10116 348.675551 
L 489.639396 350.544373 
L 491.177632 346.839992 
L 492.716918 322.078388 
L 494.256205 343.489888 
L 495.819658 352.868648 
L 497.332677 334.446417 
L 498.844645 341.035865 
L 500.38183 350.628204 
L 501.920066 335.340846 
L 503.458302 338.148368 
L 504.996538 349.045862 
L 506.55999 346.183101 
L 508.098226 341.902628 
L 509.636462 336.081759 
L 511.175749 331.030364 
L 512.715035 334.346424 
L 514.278488 349.767863 
L 515.76629 335.588033 
L 517.253041 333.994775 
L 518.790226 340.644965 
L 520.328462 329.396266 
L 521.866698 330.292522 
L 523.404934 338.8408 
L 524.968387 344.101561 
L 526.506623 337.366787 
L 528.044858 327.538075 
L 529.584145 322.895777 
L 531.123432 330.776469 
L 532.686884 341.620038 
L 534.174686 313.392012 
L 535.661437 325.339964 
L 537.198623 334.281711 
L 538.736858 314.931667 
L 540.275094 309.630738 
L 543.376783 322.242816 
L 544.915019 309.751664 
L 546.453255 296.105983 
L 547.992541 299.691366 
L 549.531828 298.580423 
L 551.095281 295.357738 
L 552.583083 291.655701 
L 554.069834 304.623803 
L 555.607019 307.731051 
L 557.145255 281.862617 
L 558.683491 282.473227 
L 558.683491 282.473227 
" style="fill:none;stroke:#0072bd;stroke-linecap:square;stroke-width:1.5;"/>
   </g>
   <g id="line2d_24">
    <path clip-path="url(#p50cf5847d8)" d="M 49.074568 382.055238 
L 50.613855 382.055238 
M 81.30082 382.055238 
L 92.070572 382.055238 
M 95.095559 382.055238 
L 164.266789 382.055238 
L 165.754591 336.593333 
L 167.242393 382.055238 
L 176.494924 382.055238 
L 178.03421 366.242402 
L 179.573497 382.055238 
L 184.162987 382.055238 
L 185.650789 371.952593 
L 187.187974 382.055238 
L 188.72516 364.314007 
L 190.263395 382.055238 
L 191.801631 382.055238 
L 193.365084 372.225637 
L 194.90332 382.055238 
L 199.520129 382.055238 
L 201.083582 364.314007 
L 202.596601 382.055238 
L 204.109619 375.993651 
L 205.646805 370.689762 
L 207.18399 358.12792 
L 208.722226 372.225637 
L 210.260461 377.451501 
L 211.823914 382.055238 
L 213.36215 382.055238 
L 214.901437 372.225637 
L 216.440723 382.055238 
L 217.978959 382.055238 
L 219.542412 371.198664 
L 221.030214 382.055238 
L 224.055201 382.055238 
L 225.592386 376.093021 
L 227.130622 382.055238 
L 230.232311 382.055238 
L 231.770546 379.529577 
L 233.309833 382.055238 
L 234.84912 378.144537 
L 236.387355 382.055238 
L 237.950808 374.632886 
L 239.43861 371.952593 
L 240.926412 382.055238 
L 247.077254 382.055238 
L 248.640707 376.859592 
L 250.178943 382.055238 
L 251.718229 376.093021 
L 253.257516 377.725533 
L 254.795752 347.084542 
L 256.359204 375.890912 
L 257.847006 371.810302 
L 259.334808 369.932063 
L 260.871993 377.140438 
L 262.409179 376.586137 
L 263.947414 382.055238 
L 265.48565 364.736417 
L 267.049103 352.103866 
L 268.587339 378.68769 
L 270.126626 382.055238 
L 271.665912 374.923959 
L 273.204148 378.489599 
L 274.767601 360.661401 
L 276.28062 375.257196 
L 277.793638 382.055238 
L 279.330824 374.632886 
L 280.868009 375.521791 
L 282.406245 369.404969 
L 283.94448 378.836696 
L 285.507933 372.729719 
L 287.046169 374.70786 
L 288.585456 369.8507 
L 290.124742 379.546995 
L 291.662978 365.354947 
L 293.226431 382.055238 
L 294.714233 377.537285 
L 296.202035 372.022266 
L 297.73922 378.18614 
L 299.276405 371.663946 
L 300.814641 377.509048 
L 302.352877 373.662271 
L 303.91633 377.248693 
L 305.454565 369.8507 
L 306.993852 374.317042 
L 308.533139 377.850669 
L 310.071374 379.693581 
L 311.634827 374.632886 
L 313.122629 373.447067 
L 314.610431 376.59981 
L 316.147616 373.742204 
L 317.684801 376.212744 
L 319.223037 376.401944 
L 320.761273 380.438815 
L 322.324726 374.888829 
L 323.862962 372.225637 
L 325.402248 379.145676 
L 326.941535 380.65641 
L 328.479771 380.467049 
L 330.043224 375.784631 
L 331.531025 380.634554 
L 333.017777 377.546619 
L 334.554962 379.410182 
L 336.093198 369.413425 
L 337.631433 377.431994 
L 339.169669 379.817114 
L 340.733122 375.320141 
L 342.271358 376.165437 
L 343.809594 375.662158 
L 345.34888 377.945687 
L 346.888167 372.278484 
L 348.45162 380.194904 
L 349.964639 377.121388 
L 353.013792 376.347017 
L 354.552028 377.61993 
L 356.090264 368.313604 
L 357.6285 376.561352 
L 359.191952 377.838482 
L 360.730188 377.259257 
L 362.268424 373.052881 
L 363.807711 376.38726 
L 365.346997 371.97804 
L 366.91045 377.331923 
L 368.398252 377.372467 
L 369.885003 373.988061 
L 371.422188 377.858755 
L 372.960424 375.178647 
L 374.49866 371.630852 
L 376.036896 374.70786 
L 377.600349 373.238384 
L 379.138584 374.632886 
L 380.67682 371.287945 
L 382.216107 375.271826 
L 383.755393 370.271298 
L 385.318846 373.694428 
L 386.806648 369.28504 
L 388.293399 363.918205 
L 389.830585 369.687281 
L 391.36882 372.330766 
L 392.907056 371.931762 
L 394.445292 368.026993 
L 396.008745 375.281545 
L 397.546981 370.050628 
L 399.085217 372.399612 
L 400.624503 373.658872 
L 402.16379 371.98755 
L 403.727243 369.04754 
L 405.215044 374.759446 
L 406.701796 370.930443 
L 408.238981 369.08107 
L 409.777217 369.456096 
L 411.315452 371.044597 
L 412.853688 364.392335 
L 414.417141 372.962857 
L 415.955377 369.317525 
L 417.493613 370.242302 
L 419.032899 367.694453 
L 420.572186 368.900304 
L 422.135639 368.843302 
L 423.648658 371.042116 
L 425.160626 370.246951 
L 426.697811 368.120555 
L 428.236047 370.384185 
L 429.774283 371.605531 
L 431.312519 369.229713 
L 432.875971 369.342958 
L 434.414207 365.978635 
L 435.952443 366.222734 
L 437.49173 365.834089 
L 439.031016 368.077501 
L 440.594469 367.515857 
L 442.082271 370.619691 
L 443.569022 366.38539 
L 445.106207 365.647934 
L 446.644443 366.923787 
L 448.182679 362.283537 
L 449.720915 367.078237 
L 451.284368 367.552926 
L 452.822604 366.109863 
L 454.360839 364.319775 
L 455.900126 363.33563 
L 457.439412 356.760245 
L 459.002865 369.363979 
L 460.490667 362.517891 
L 461.977418 358.270724 
L 463.514604 364.260364 
L 465.052839 364.442878 
L 466.591075 355.83135 
L 469.692764 361.035218 
L 471.231 358.730365 
L 472.769236 358.795659 
L 474.308522 348.257726 
L 475.847809 344.233801 
L 477.411262 349.790181 
L 478.899063 346.256963 
L 480.385815 354.220478 
L 481.923 349.025032 
L 483.461236 342.602929 
L 484.999472 347.219168 
L 486.537707 358.936091 
L 488.10116 356.252535 
L 489.639396 350.016258 
L 491.177632 349.578955 
L 492.716918 331.663729 
L 494.256205 345.88869 
L 495.819658 350.025798 
L 497.332677 355.237611 
L 498.844645 334.372068 
L 500.38183 334.845464 
L 501.920066 340.486199 
L 503.458302 351.68632 
L 504.996538 337.796029 
L 506.55999 338.044045 
L 508.098226 338.488291 
L 509.636462 342.220651 
L 511.175749 329.657497 
L 512.715035 327.318497 
L 514.278488 345.074103 
L 515.76629 341.460262 
L 517.253041 328.128723 
L 518.790226 327.495185 
L 520.328462 330.625658 
L 521.866698 335.378379 
L 523.404934 327.905759 
L 524.968387 321.439365 
L 526.506623 327.938015 
L 528.044858 337.720269 
L 529.584145 323.332701 
L 531.123432 322.87005 
L 532.686884 333.089873 
L 534.174686 336.392502 
L 535.661437 318.763042 
L 537.198623 322.520826 
L 538.736858 329.625727 
L 540.275094 325.358099 
L 541.81333 316.759043 
L 543.376783 328.491875 
L 544.915019 330.549265 
L 546.453255 334.451511 
L 547.992541 320.109564 
L 549.531828 318.777181 
L 551.095281 329.788588 
L 552.583083 334.646036 
L 554.069834 322.026501 
L 555.607019 312.940949 
L 557.145255 331.809831 
L 558.683491 333.102123 
L 558.683491 333.102123 
" style="fill:none;stroke:#d95319;stroke-linecap:square;stroke-width:1.5;"/>
   </g>
   <g id="line2d_25">
    <path clip-path="url(#p50cf5847d8)" d="M 49.074568 382.055238 
L 50.613855 382.055238 
M 81.30082 382.055238 
L 82.864272 382.055238 
L 84.402508 18.36 
L 85.941795 382.055238 
L 92.070572 382.055238 
M 95.095559 382.055238 
L 118.117612 382.055238 
L 119.681065 356.077007 
L 121.219301 382.055238 
L 136.576442 382.055238 
L 138.139895 367.507429 
L 139.678131 382.055238 
L 174.956688 382.055238 
L 176.494924 379.864303 
L 178.03421 382.055238 
L 181.111733 382.055238 
L 182.675185 371.03417 
L 184.162987 382.055238 
L 187.187974 382.055238 
L 188.72516 373.184623 
L 190.263395 375.320141 
L 191.801631 382.055238 
L 193.365084 382.055238 
L 194.90332 370.689762 
L 196.442606 335.427643 
L 197.981893 366.90127 
L 199.520129 382.055238 
L 204.109619 382.055238 
L 205.646805 370.689762 
L 207.18399 372.484311 
L 210.260461 382.055238 
L 211.823914 382.055238 
L 213.36215 376.093021 
L 214.901437 377.140438 
L 216.440723 382.055238 
L 217.978959 365.139181 
L 219.542412 376.626951 
L 221.030214 375.193064 
L 222.518016 361.849947 
L 224.055201 354.078681 
L 225.592386 382.055238 
L 227.130622 378.998976 
L 228.668858 376.3725 
L 230.232311 351.747302 
L 231.770546 382.055238 
L 233.309833 371.252409 
L 234.84912 378.144537 
L 236.387355 373.973122 
L 237.950808 382.055238 
L 239.43861 382.055238 
L 240.926412 363.870476 
L 242.463597 382.055238 
L 244.000782 372.090985 
L 245.539018 382.055238 
L 247.077254 357.954951 
L 248.640707 371.663946 
L 250.178943 376.282298 
L 251.718229 376.093021 
L 253.257516 369.066122 
L 254.795752 375.061099 
L 256.359204 375.890912 
L 257.847006 361.565366 
L 259.334808 369.932063 
L 260.871993 377.140438 
L 262.409179 373.851586 
L 263.947414 376.282298 
L 265.48565 373.395828 
L 267.049103 373.497703 
L 268.587339 361.849947 
L 270.126626 368.200181 
L 271.665912 367.79268 
L 273.204148 374.923959 
L 274.767601 360.661401 
L 276.28062 382.055238 
L 277.793638 370.195611 
L 279.330824 378.344062 
L 280.868009 373.343975 
L 282.406245 356.7547 
L 283.94448 362.743987 
L 285.507933 360.295694 
L 287.046169 356.339413 
L 288.585456 355.205254 
L 290.124742 361.989294 
L 291.662978 365.354947 
L 293.226431 288.533605 
L 294.714233 336.875705 
L 296.202035 329.382135 
L 297.73922 329.822411 
L 299.276405 348.283537 
L 300.814641 284.312143 
L 302.352877 337.292747 
L 303.91633 276.311248 
L 305.454565 279.537117 
L 306.993852 296.935076 
L 308.533139 302.168423 
L 310.071374 313.567174 
L 311.634827 296.698192 
L 313.122629 313.189868 
L 314.610431 312.953143 
L 316.147616 319.707483 
L 317.684801 314.86656 
L 319.223037 336.828887 
L 320.761273 330.329693 
L 322.324726 337.265184 
L 323.862962 330.098776 
L 325.402248 312.225752 
L 326.941535 317.709158 
L 328.479771 321.704063 
L 330.043224 285.487882 
L 331.531025 302.496905 
L 333.017777 317.431704 
L 334.554962 274.930459 
L 336.093198 318.846173 
L 337.631433 326.576303 
L 339.169669 308.197128 
L 340.733122 312.010229 
L 342.271358 321.684773 
L 343.809594 320.965804 
L 345.34888 312.192876 
L 346.888167 325.350067 
L 348.45162 306.711723 
L 349.964639 320.029694 
L 351.476607 330.605668 
L 353.013792 312.741123 
L 354.552028 314.786403 
L 356.090264 306.018198 
L 357.6285 302.943283 
L 359.191952 307.207812 
L 360.730188 305.31954 
L 362.268424 306.435436 
L 363.807711 308.371528 
L 365.346997 317.927614 
L 366.91045 259.249054 
L 368.398252 322.740135 
L 369.885003 313.484232 
L 371.422188 319.807399 
L 372.960424 305.648675 
L 374.49866 325.300249 
L 376.036896 334.909559 
L 377.600349 306.377239 
L 379.138584 324.960224 
L 380.67682 319.844211 
L 382.216107 334.571355 
L 383.755393 341.347082 
L 385.318846 300.119299 
L 386.806648 331.485254 
L 388.293399 344.349301 
L 389.830585 320.98845 
L 391.36882 331.001762 
L 392.907056 329.188198 
L 394.445292 326.981388 
L 396.008745 317.444623 
L 397.546981 326.478337 
L 399.085217 305.729815 
L 400.624503 333.002782 
L 402.16379 339.68705 
L 403.727243 320.658903 
L 405.215044 300.342366 
L 406.701796 316.590095 
L 408.238981 325.973349 
L 409.777217 316.119727 
L 411.315452 342.141664 
L 412.853688 331.073676 
L 414.417141 337.351032 
L 415.955377 332.780399 
L 417.493613 337.309269 
L 419.032899 334.297278 
L 420.572186 333.69151 
L 422.135639 327.739501 
L 423.648658 320.958634 
L 425.160626 336.593333 
L 426.697811 339.6938 
L 428.236047 327.800615 
L 429.774283 349.115944 
L 431.312519 334.875629 
L 432.875971 342.058064 
L 434.414207 335.342088 
L 435.952443 338.628941 
L 437.49173 333.676372 
L 439.031016 338.75166 
L 440.594469 320.526264 
L 442.082271 329.362032 
L 443.569022 333.884965 
L 445.106207 334.200602 
L 446.644443 328.014341 
L 448.182679 334.707217 
L 449.720915 338.465458 
L 451.284368 334.567275 
L 452.822604 339.612402 
L 454.360839 332.39594 
L 455.900126 334.891551 
L 457.439412 341.030585 
L 459.002865 326.032392 
L 460.490667 344.054024 
L 461.977418 330.560611 
L 463.514604 331.669752 
L 465.052839 336.923565 
L 466.591075 346.588504 
L 468.129311 340.042167 
L 469.692764 336.348914 
L 471.231 341.452682 
L 472.769236 332.364319 
L 474.308522 339.755207 
L 475.847809 344.054553 
L 477.411262 322.792888 
L 478.899063 339.592391 
L 480.385815 335.233854 
L 481.923 323.98015 
L 483.461236 333.794972 
L 484.999472 341.385376 
L 486.537707 341.510465 
L 488.10116 334.5455 
L 489.639396 335.757151 
L 491.177632 334.123375 
L 492.716918 347.95881 
L 494.256205 342.198226 
L 495.819658 316.669695 
L 497.332677 337.760955 
L 498.844645 348.143915 
L 500.38183 340.383268 
L 501.920066 338.861351 
L 503.458302 350.832575 
L 504.996538 340.904536 
L 506.55999 347.53961 
L 508.098226 345.726686 
L 509.636462 348.359543 
L 511.175749 353.568257 
L 512.715035 346.239839 
L 514.278488 322.600952 
L 515.76629 344.013406 
L 517.253041 350.152147 
L 518.790226 348.142647 
L 520.328462 348.451847 
L 521.866698 352.218214 
L 523.404934 354.507348 
L 524.968387 354.442563 
L 526.506623 354.947518 
L 528.044858 352.145044 
L 529.584145 358.461362 
L 531.123432 353.027388 
L 532.686884 334.751593 
L 534.174686 358.293703 
L 537.198623 359.506782 
L 538.736858 360.048641 
L 540.275094 360.430116 
L 541.81333 363.410054 
L 543.376783 361.344071 
L 546.453255 366.993391 
L 547.992541 367.793912 
L 549.531828 365.467786 
L 551.095281 352.975128 
L 552.583083 363.406121 
L 554.069834 363.243415 
L 555.607019 365.871299 
L 557.145255 368.189295 
L 558.683491 370.223209 
L 558.683491 370.223209 
" style="fill:none;stroke:#edb120;stroke-linecap:square;stroke-width:1.5;"/>
   </g>
   <g id="line2d_26">
    <path clip-path="url(#p50cf5847d8)" d="M 49.074568 382.055238 
L 50.613855 382.055238 
M 81.30082 18.36 
L 82.864272 18.36 
L 84.402508 382.055238 
L 85.941795 18.36 
L 87.481081 18.36 
L 89.019317 200.207619 
L 90.58277 18.36 
L 92.070572 18.36 
M 95.095559 382.055238 
L 96.632744 362.396036 
L 98.17098 382.055238 
L 99.709216 348.992035 
L 102.810905 382.055238 
L 104.350191 382.055238 
L 105.889478 354.078681 
L 107.427714 282.865628 
L 108.991166 382.055238 
L 110.478968 364.314007 
L 111.96677 367.507429 
L 113.503955 337.70216 
L 115.04114 366.578845 
L 116.579376 368.06696 
L 118.117612 339.267563 
L 119.681065 382.055238 
L 121.219301 260.823492 
L 122.758587 336.593333 
L 124.297874 200.207619 
L 125.83611 321.439365 
L 127.399563 326.102125 
L 128.912582 200.207619 
L 130.4256 272.946667 
L 131.962786 315.928831 
L 133.499971 363.4042 
L 135.038207 382.055238 
L 136.576442 363.870476 
L 138.139895 352.959619 
L 139.678131 321.439365 
L 141.217418 336.593333 
L 142.756704 272.946667 
L 144.29494 278.142313 
L 145.858393 382.055238 
L 147.346195 362.913383 
L 148.833997 351.747302 
L 150.371182 339.267563 
L 153.446603 347.95881 
L 154.984839 382.055238 
L 156.548292 333.56254 
L 158.086527 359.324286 
L 159.625814 282.865628 
L 161.1651 336.593333 
L 162.703336 326.102125 
L 164.266789 382.055238 
L 165.754591 245.669524 
L 167.242393 382.055238 
L 168.779578 336.593333 
L 170.316763 336.593333 
L 171.854999 382.055238 
L 174.956688 336.593333 
L 176.494924 368.909627 
L 178.03421 342.523147 
L 179.573497 366.242402 
L 181.111733 337.970967 
L 182.675185 315.928831 
L 184.162987 369.294002 
L 185.650789 351.747302 
L 187.187974 372.962857 
L 188.72516 373.184623 
L 190.263395 341.644656 
L 191.801631 369.514023 
L 193.365084 352.566435 
L 194.90332 325.227857 
L 196.442606 363.4042 
L 197.981893 366.90127 
L 199.520129 371.358319 
L 201.083582 364.314007 
L 202.596601 302.496905 
L 204.109619 218.392381 
L 205.646805 336.593333 
L 207.18399 315.058747 
L 208.722226 352.566435 
L 210.260461 317.602917 
L 211.823914 361.468715 
L 213.36215 340.319719 
L 214.901437 362.396036 
L 216.440723 354.432815 
L 217.978959 348.223123 
L 219.542412 365.770377 
L 221.030214 361.468715 
L 222.518016 361.849947 
L 224.055201 363.4042 
L 225.592386 334.357502 
L 227.130622 339.267563 
L 228.668858 336.593333 
L 230.232311 361.849947 
L 231.770546 364.375608 
L 233.309833 364.050523 
L 234.84912 362.501731 
L 236.387355 325.480423 
L 237.950808 344.943479 
L 239.43861 286.080106 
L 240.926412 321.439365 
L 242.463597 346.858925 
L 244.000782 364.617795 
L 245.539018 330.910595 
L 247.077254 320.709053 
L 248.640707 350.881361 
L 250.178943 353.190537 
L 251.718229 346.281936 
L 253.257516 325.76907 
L 254.795752 371.564029 
L 256.359204 345.069282 
L 257.847006 346.197961 
L 259.334808 351.747302 
L 260.871993 372.225637 
L 262.409179 310.956921 
L 263.947414 358.963477 
L 265.48565 335.871716 
L 267.049103 356.382633 
L 268.587339 351.747302 
L 270.126626 350.881361 
L 271.665912 325.005005 
L 273.204148 314.308086 
L 274.767601 367.79268 
L 276.28062 344.666008 
L 277.793638 342.523147 
L 279.330824 337.521127 
L 280.868009 305.831685 
L 282.406245 363.079834 
L 283.94448 330.558567 
L 285.507933 344.753162 
L 287.046169 352.665724 
L 288.585456 357.646162 
L 290.124742 351.956322 
L 291.662978 324.532012 
L 293.226431 348.283537 
L 294.714233 343.652635 
L 296.202035 354.464565 
L 297.73922 331.75696 
L 299.276405 353.479184 
L 300.814641 361.597381 
L 302.352877 340.090403 
L 303.91633 367.635603 
L 305.454565 357.646162 
L 306.993852 348.523053 
L 308.533139 350.520969 
L 310.071374 365.523636 
L 311.634827 352.365831 
L 313.122629 362.686853 
L 314.610431 365.688952 
L 316.147616 361.272653 
L 317.684801 352.842769 
L 319.223037 357.557631 
L 320.761273 354.576042 
L 322.324726 364.139217 
L 323.862962 362.396036 
L 325.402248 351.504838 
L 326.941535 352.679853 
L 328.479771 367.761539 
L 330.043224 367.00578 
L 331.531025 369.269077 
L 333.017777 365.523636 
L 334.554962 354.282147 
L 336.093198 348.992035 
L 337.631433 369.726586 
L 339.169669 366.388366 
L 340.733122 367.238025 
L 342.271358 352.606231 
L 343.809594 372.110446 
L 346.888167 359.568705 
L 348.45162 367.172569 
L 349.964639 372.892374 
L 351.476607 360.765761 
L 353.013792 363.299654 
L 354.552028 359.878699 
L 356.090264 354.571971 
L 357.6285 361.178472 
L 359.191952 371.513347 
L 360.730188 358.075332 
L 362.268424 358.649109 
L 363.807711 359.383327 
L 365.346997 352.739753 
L 366.91045 366.310855 
L 368.398252 358.641382 
L 369.885003 349.114265 
L 371.422188 354.778095 
L 374.49866 360.627334 
L 376.036896 359.400821 
L 377.600349 372.503646 
L 379.138584 362.642933 
L 380.67682 359.922469 
L 382.216107 368.488414 
L 383.755393 367.057496 
L 385.318846 366.169699 
L 386.806648 363.155345 
L 388.293399 363.918205 
L 389.830585 365.435796 
L 391.36882 363.578742 
L 392.907056 359.933569 
L 394.445292 363.350912 
L 396.008745 360.170997 
L 397.546981 368.716782 
L 399.085217 370.560445 
L 400.624503 367.030161 
L 402.16379 358.144478 
L 403.727243 370.088156 
L 405.215044 365.639706 
L 406.701796 362.800784 
L 408.238981 367.406983 
L 409.777217 358.116868 
L 411.315452 315.647309 
L 412.853688 354.758024 
L 414.417141 359.703135 
L 415.955377 348.53494 
L 417.493613 349.83814 
L 419.032899 369.364312 
L 420.572186 368.900304 
L 422.135639 365.17332 
L 423.648658 356.620171 
L 425.160626 356.962628 
L 426.697811 361.7106 
L 428.236047 364.075508 
L 429.774283 335.258724 
L 431.312519 344.265745 
L 432.875971 369.342958 
L 434.414207 363.551977 
L 435.952443 348.806979 
L 437.49173 367.541578 
L 439.031016 353.551617 
L 440.594469 316.944098 
L 442.082271 317.253805 
L 443.569022 283.586687 
L 445.106207 361.09035 
L 446.644443 366.383378 
L 448.182679 364.624923 
L 449.720915 365.737013 
L 451.284368 367.837285 
L 452.822604 360.951066 
L 454.360839 367.866867 
L 455.900126 369.170313 
L 457.439412 365.262764 
L 459.002865 346.519711 
L 460.490667 361.873802 
L 461.977418 371.433028 
L 463.514604 366.45973 
L 465.052839 357.838243 
L 466.591075 365.719045 
L 468.129311 366.79676 
L 469.692764 366.412432 
L 471.231 370.608773 
L 472.769236 369.156744 
L 474.308522 362.499445 
L 475.847809 367.715357 
L 477.411262 368.446847 
L 478.899063 366.250681 
L 480.385815 365.833656 
L 481.923 367.899435 
L 483.461236 363.338329 
L 484.999472 366.7207 
L 486.537707 364.28455 
L 488.10116 366.082136 
L 489.639396 364.979518 
L 491.177632 367.577859 
L 492.716918 364.390823 
L 494.256205 359.72793 
L 495.819658 365.56671 
L 497.332677 362.017348 
L 498.844645 363.692775 
L 500.38183 356.442897 
L 501.920066 360.119784 
L 503.458302 355.223262 
L 504.996538 359.259525 
L 506.55999 358.693132 
L 508.098226 361.978933 
L 509.636462 359.545968 
L 511.175749 356.886017 
L 512.715035 356.511425 
L 514.278488 362.71126 
L 515.76629 363.800265 
L 517.253041 357.356071 
L 518.790226 357.485912 
L 520.328462 352.652271 
L 521.866698 357.078032 
L 523.404934 354.822782 
L 524.968387 357.522861 
L 526.506623 351.902811 
L 528.044858 356.705818 
L 529.584145 352.781354 
L 531.123432 359.578421 
L 532.686884 356.243179 
L 534.174686 352.797263 
L 535.661437 357.455842 
L 537.198623 355.126866 
L 538.736858 351.839283 
L 540.275094 350.915062 
L 541.81333 355.951981 
L 543.376783 358.57663 
L 544.915019 350.370806 
L 546.453255 352.829728 
L 547.992541 352.904333 
L 549.531828 358.325967 
L 551.095281 359.101338 
L 552.583083 360.485175 
L 554.069834 357.536458 
L 555.607019 360.273429 
L 557.145255 354.174256 
L 558.683491 358.492743 
L 558.683491 358.492743 
" style="fill:none;stroke:#7e2f8e;stroke-linecap:square;stroke-width:1.5;"/>
   </g>
   <g id="line2d_27">
    <path clip-path="url(#p50cf5847d8)" d="M 49.074568 382.055238 
L 50.613855 382.055238 
M 81.30082 382.055238 
L 92.070572 382.055238 
M 95.095559 18.36 
L 96.632744 38.019202 
L 98.17098 18.36 
L 99.709216 51.423203 
L 101.272669 34.891602 
L 102.810905 152.352982 
L 104.350191 38.565291 
L 105.889478 83.638632 
L 107.427714 117.54961 
L 108.991166 18.36 
L 110.478968 36.101231 
L 111.96677 32.90781 
L 113.503955 71.583693 
L 115.04114 33.836393 
L 116.579376 32.348278 
L 118.117612 61.147675 
L 119.681065 70.316463 
L 121.219301 139.591746 
L 122.758587 63.821905 
L 124.297874 200.207619 
L 125.83611 78.975873 
L 127.399563 74.313114 
L 128.912582 200.207619 
L 130.4256 163.838095 
L 131.962786 95.507475 
L 133.499971 37.011038 
L 135.038207 18.36 
L 136.576442 45.637143 
L 138.139895 76.551238 
L 139.678131 78.975873 
L 141.217418 109.28381 
L 142.756704 163.838095 
L 144.29494 122.272925 
L 145.858393 18.36 
L 147.346195 75.785564 
L 148.833997 230.515556 
L 150.371182 82.541513 
L 151.908367 75.785564 
L 153.446603 52.456429 
L 154.984839 18.36 
L 156.548292 66.852698 
L 158.086527 41.090952 
L 159.625814 117.54961 
L 161.1651 63.821905 
L 162.703336 102.28967 
L 164.266789 122.272925 
L 165.754591 291.131429 
L 167.242393 18.36 
L 168.779578 154.745714 
L 170.316763 86.552857 
L 171.854999 36.544762 
L 173.393235 86.552857 
L 174.956688 188.842143 
L 176.494924 342.618405 
L 178.03421 350.429565 
L 179.573497 310.897474 
L 181.111733 326.949899 
L 182.675185 360.013102 
L 184.162987 356.532765 
L 185.650789 351.747302 
L 187.187974 345.685714 
L 188.72516 337.70216 
L 190.263395 287.76388 
L 191.801631 313.078555 
L 193.365084 372.225637 
L 194.90332 370.689762 
L 196.442606 354.078681 
L 197.981893 351.747302 
L 199.520129 296.479888 
L 201.083582 311.090314 
L 202.596601 359.324286 
L 204.109619 354.778095 
L 205.646805 359.324286 
L 207.18399 348.556992 
L 208.722226 283.759228 
L 210.260461 322.206655 
L 211.823914 196.776532 
L 213.36215 292.621983 
L 214.901437 337.822033 
L 216.440723 336.017866 
L 217.978959 382.055238 
L 219.542412 382.055238 
L 221.030214 347.744367 
L 222.518016 334.909559 
L 224.055201 307.451087 
L 225.592386 316.470851 
L 227.130622 354.548876 
L 228.668858 325.227857 
L 231.770546 356.798624 
L 233.309833 353.247694 
L 234.84912 374.233835 
L 236.387355 341.644656 
L 239.43861 377.003915 
L 240.926412 375.993651 
L 242.463597 323.394716 
L 244.000782 347.180352 
L 245.539018 330.910595 
L 247.077254 371.100562 
L 248.640707 356.077007 
L 250.178943 353.190537 
L 251.718229 376.093021 
L 253.257516 377.725533 
L 254.795752 361.072821 
L 256.359204 382.055238 
L 257.847006 366.687834 
L 259.334808 369.932063 
L 260.871993 342.736834 
L 262.409179 373.851586 
L 263.947414 368.585044 
L 265.48565 364.736417 
L 267.049103 343.546331 
L 268.587339 365.217496 
L 270.126626 368.200181 
L 271.665912 374.923959 
L 273.204148 360.661401 
L 274.767601 382.055238 
L 276.28062 378.656217 
L 277.793638 374.14882 
L 279.330824 352.365831 
L 280.868009 375.521791 
L 282.406245 369.404969 
L 283.94448 359.525445 
L 285.507933 354.078681 
L 287.046169 371.03417 
L 288.585456 360.087069 
L 290.124742 379.546995 
L 291.662978 369.066122 
L 293.226431 374.261769 
L 294.714233 379.796261 
L 296.202035 372.022266 
L 297.73922 374.317042 
L 299.276405 382.055238 
L 300.814641 377.509048 
L 302.352877 376.459927 
L 303.91633 377.248693 
L 305.454565 379.61433 
L 306.993852 376.89644 
L 308.533139 377.850669 
L 310.071374 379.693581 
L 311.634827 374.632886 
L 313.122629 377.751152 
L 314.610431 382.055238 
L 316.147616 377.898721 
L 317.684801 376.212744 
L 319.223037 370.74865 
L 320.761273 372.356698 
L 322.324726 380.263636 
L 323.862962 362.396036 
L 325.402248 371.871771 
L 326.941535 376.459927 
L 328.479771 378.87886 
L 330.043224 375.784631 
L 331.531025 380.634554 
L 334.554962 374.120069 
L 336.093198 379.137897 
L 337.631433 382.055238 
L 339.169669 375.340864 
L 340.733122 378.01418 
L 342.271358 377.637887 
L 343.809594 372.110446 
L 345.34888 363.56226 
L 346.888167 378.144537 
L 348.45162 373.683736 
L 349.964639 378.531059 
L 351.476607 381.168177 
L 353.013792 376.347017 
L 354.552028 374.663058 
L 356.090264 379.306911 
L 357.6285 376.561352 
L 359.191952 370.459158 
L 360.730188 379.657248 
L 362.268424 373.052881 
L 363.807711 378.276586 
L 365.346997 380.22302 
L 366.91045 374.970266 
L 368.398252 377.372467 
L 369.885003 380.710709 
L 371.422188 381.355824 
L 372.960424 376.706779 
L 374.49866 377.422178 
L 376.036896 373.483296 
L 377.600349 380.585762 
L 379.138584 374.061936 
L 380.67682 378.46614 
L 382.216107 374.228224 
L 383.755393 378.305803 
L 385.318846 379.965036 
L 386.806648 375.414735 
L 388.293399 375.850464 
L 389.830585 380.895742 
L 391.36882 379.137897 
L 392.907056 378.305803 
L 394.445292 379.97698 
L 396.008745 377.886811 
L 397.546981 379.832162 
L 399.085217 380.216071 
L 400.624503 377.636098 
L 402.16379 379.957803 
L 403.727243 378.413083 
L 405.215044 380.960869 
L 406.701796 376.49284 
L 408.238981 379.125587 
L 409.777217 379.115438 
L 411.315452 378.614413 
L 412.853688 376.033794 
L 414.417141 375.614802 
L 415.955377 378.368005 
L 417.493613 376.685722 
L 419.032899 378.047577 
L 420.572186 378.959959 
L 422.135639 378.018258 
L 423.648658 379.433066 
L 425.160626 371.42778 
L 426.697811 374.809203 
L 428.236047 377.32373 
L 429.774283 377.28472 
L 431.312519 378.61983 
L 434.414207 378.11192 
L 435.952443 375.722236 
L 437.49173 378.924841 
L 439.031016 374.65526 
L 440.594469 377.419493 
L 442.082271 375.328446 
L 443.569022 375.477771 
L 445.106207 378.181291 
L 446.644443 375.300126 
L 448.182679 375.551389 
L 449.720915 376.690342 
L 451.284368 373.240107 
L 452.822604 372.206624 
L 454.360839 374.251634 
L 455.900126 377.436114 
L 457.439412 375.465786 
L 459.002865 369.726586 
L 460.490667 374.75557 
L 461.977418 373.280369 
L 463.514604 374.657369 
L 465.052839 369.506431 
L 466.591075 370.877843 
L 468.129311 375.993651 
L 469.692764 375.700348 
L 471.231 372.12057 
L 472.769236 371.271251 
L 474.308522 373.127593 
L 475.847809 368.253102 
L 477.411262 375.251042 
L 478.899063 373.867335 
L 480.385815 372.83843 
L 481.923 370.80319 
L 483.461236 370.494794 
L 484.999472 365.553942 
L 486.537707 371.185788 
L 488.10116 365.263003 
L 489.639396 369.0284 
L 491.177632 368.55606 
L 492.716918 364.390823 
L 494.256205 369.692183 
L 495.819658 368.40956 
L 497.332677 369.098407 
L 498.844645 361.915762 
L 500.38183 368.072285 
L 501.920066 365.806754 
L 503.458302 352.174174 
L 504.996538 364.292345 
L 506.55999 361.255428 
L 508.098226 360.476625 
L 509.636462 358.18177 
L 511.175749 359.631751 
L 512.715035 362.322981 
L 514.278488 366.409373 
L 515.76629 361.75775 
L 517.253041 364.971647 
L 518.790226 354.717537 
L 520.328462 362.180062 
L 521.866698 361.146718 
L 523.404934 351.668443 
L 524.968387 356.972808 
L 526.506623 359.760121 
L 528.044858 361.584786 
L 529.584145 360.733364 
L 531.123432 363.418681 
L 532.686884 365.881158 
L 534.174686 364.973992 
L 535.661437 363.605691 
L 537.198623 353.099127 
L 538.736858 352.184214 
L 540.275094 357.913738 
L 541.81333 363.181746 
L 543.376783 343.489616 
L 544.915019 351.647193 
L 546.453255 358.771557 
L 547.992541 356.296895 
L 549.531828 364.162292 
L 551.095281 366.235658 
L 552.583083 364.379769 
L 554.069834 363.877522 
L 555.607019 355.784049 
L 557.145255 361.629064 
L 558.683491 349.301339 
L 558.683491 349.301339 
" style="fill:none;stroke:#77ac30;stroke-linecap:square;stroke-width:1.5;"/>
   </g>
   <g id="line2d_28">
    <path clip-path="url(#p50cf5847d8)" d="M 49.074568 382.055238 
L 50.613855 18.36 
M 81.30082 382.055238 
L 92.070572 382.055238 
M 95.095559 382.055238 
L 135.038207 382.055238 
L 136.576442 372.962857 
L 138.139895 367.507429 
L 139.678131 382.055238 
L 141.217418 336.593333 
L 142.756704 382.055238 
L 145.858393 382.055238 
L 147.346195 343.771529 
L 148.833997 321.439365 
L 150.371182 360.661401 
L 151.908367 382.055238 
L 162.703336 382.055238 
L 164.266789 330.098776 
L 165.754591 382.055238 
L 174.956688 382.055238 
L 176.494924 373.291497 
L 178.03421 366.242402 
L 179.573497 374.14882 
L 181.111733 360.013102 
L 182.675185 360.013102 
L 184.162987 362.913383 
L 185.650789 331.542011 
L 187.187974 372.962857 
L 188.72516 382.055238 
L 190.263395 355.11485 
L 191.801631 363.243415 
L 193.365084 382.055238 
L 194.90332 382.055238 
L 196.442606 372.729719 
L 197.981893 366.90127 
L 199.520129 349.964482 
L 201.083582 382.055238 
L 202.596601 370.689762 
L 204.109619 375.993651 
L 205.646805 370.689762 
L 207.18399 348.556992 
L 208.722226 367.310837 
L 210.260461 363.640289 
L 211.823914 368.330889 
L 213.36215 364.168587 
L 214.901437 357.481236 
L 216.440723 340.621603 
L 217.978959 356.681152 
L 219.542412 306.059218 
L 221.030214 340.882192 
L 222.518016 348.379753 
L 224.055201 363.4042 
L 225.592386 364.168587 
L 227.130622 375.942713 
L 228.668858 359.324286 
L 230.232311 382.055238 
L 231.770546 377.003915 
L 233.309833 374.853352 
L 234.84912 354.680328 
L 236.387355 349.726772 
L 237.950808 352.365831 
L 239.43861 371.952593 
L 240.926412 375.993651 
L 242.463597 362.501731 
L 244.000782 302.341213 
L 245.539018 365.007024 
L 247.077254 355.764016 
L 248.640707 371.663946 
L 250.178943 358.963477 
L 251.718229 340.319719 
L 253.257516 351.747302 
L 254.795752 371.564029 
L 256.359204 345.069282 
L 257.847006 346.197961 
L 259.334808 363.870476 
L 260.871993 372.225637 
L 262.409179 371.117035 
L 263.947414 364.736417 
L 265.48565 367.622887 
L 267.049103 356.382633 
L 268.587339 358.482399 
L 270.126626 333.56254 
L 271.665912 367.79268 
L 273.204148 371.358319 
L 274.767601 353.530121 
L 276.28062 361.661113 
L 277.793638 358.335983 
L 279.330824 363.499359 
L 280.868009 355.921449 
L 282.406245 344.104431 
L 283.94448 369.18107 
L 287.046169 363.686792 
L 288.585456 364.968885 
L 290.124742 364.497537 
L 291.662978 359.788183 
L 293.226431 371.663946 
L 294.714233 361.724448 
L 296.202035 369.514023 
L 297.73922 366.578845 
L 299.276405 348.283537 
L 300.814641 375.235952 
L 302.352877 368.06696 
L 303.91633 359.624695 
L 305.454565 362.527977 
L 306.993852 366.578845 
L 308.533139 365.236961 
L 310.071374 356.077007 
L 311.634827 365.354947 
L 313.122629 354.078681 
L 314.610431 362.052 
L 316.147616 348.803102 
L 317.684801 367.449004 
L 319.223037 361.326494 
L 320.761273 364.274582 
L 322.324726 360.556012 
L 323.862962 362.396036 
L 325.402248 368.96221 
L 326.941535 363.870476 
L 328.479771 358.232406 
L 330.043224 361.989294 
L 331.531025 357.903601 
L 333.017777 355.003526 
L 334.554962 366.1849 
L 336.093198 357.744059 
L 337.631433 365.103341 
L 339.169669 364.150242 
L 340.733122 365.891005 
L 342.271358 362.913383 
L 343.809594 372.110446 
L 345.34888 363.56226 
L 346.888167 363.479406 
L 348.45162 367.172569 
L 349.964639 348.223123 
L 351.476607 361.652822 
L 353.013792 355.960512 
L 354.552028 368.010097 
L 356.090264 359.152515 
L 357.6285 357.882141 
L 359.191952 356.7547 
L 360.730188 358.874662 
L 362.268424 353.247694 
L 363.807711 349.936698 
L 365.346997 346.326991 
L 366.91045 357.651445 
L 368.398252 350.056301 
L 369.885003 361.887295 
L 371.422188 345.685714 
L 372.960424 353.020744 
L 374.49866 355.994274 
L 376.036896 355.11485 
L 377.600349 360.013102 
L 379.138584 350.08203 
L 380.67682 354.538822 
L 382.216107 359.617799 
L 383.755393 354.202289 
L 385.318846 359.899091 
L 386.806648 361.622921 
L 388.293399 364.872786 
L 389.830585 351.521844 
L 391.36882 361.633848 
L 392.907056 357.683908 
L 394.445292 351.92049 
L 396.008745 358.086784 
L 397.546981 358.935247 
L 399.085217 355.387319 
L 400.624503 352.446999 
L 402.16379 358.563966 
L 403.727243 358.121074 
L 405.215044 354.331228 
L 406.701796 360.233524 
L 408.238981 343.551254 
L 409.777217 360.636696 
L 411.315452 365.195194 
L 412.853688 351.546587 
L 414.417141 358.945437 
L 417.493613 356.997495 
L 419.032899 353.333667 
L 420.572186 357.679919 
L 422.135639 358.567352 
L 423.648658 361.34008 
L 425.160626 362.276357 
L 426.697811 356.415421 
L 428.236047 359.974868 
L 429.774283 365.24484 
L 431.312519 359.152515 
L 432.875971 360.971456 
L 434.414207 357.182002 
L 435.952443 362.377697 
L 437.49173 360.142458 
L 439.031016 362.047889 
L 440.594469 365.197985 
L 442.082271 362.995993 
L 443.569022 367.15921 
L 445.106207 349.696389 
L 446.644443 358.277243 
L 448.182679 360.982767 
L 449.720915 356.571982 
L 451.284368 362.150104 
L 452.822604 361.889029 
L 454.360839 365.738612 
L 455.900126 360.904512 
L 457.439412 361.861756 
L 459.002865 363.199652 
L 460.490667 356.935791 
L 461.977418 367.045593 
L 463.514604 355.262956 
L 465.052839 366.424268 
L 466.591075 365.504095 
L 468.129311 357.390848 
L 469.692764 359.568705 
L 471.231 362.833815 
L 472.769236 362.17887 
L 474.308522 358.460749 
L 475.847809 362.51715 
L 477.411262 364.715513 
L 478.899063 360.347774 
L 480.385815 361.225252 
L 481.923 356.284418 
L 483.461236 363.705327 
L 484.999472 363.720464 
L 486.537707 355.830534 
L 488.10116 363.82952 
L 489.639396 363.571211 
L 491.177632 365.425816 
L 492.716918 362.747622 
L 494.256205 361.757685 
L 495.819658 366.324803 
L 497.332677 360.962722 
L 498.844645 365.914041 
L 500.38183 363.088261 
L 501.920066 366.619178 
L 503.458302 367.785505 
L 504.996538 361.923959 
L 506.55999 364.571339 
L 508.098226 366.485859 
L 509.636462 363.911402 
L 511.175749 362.491889 
L 514.278488 370.534192 
L 515.76629 364.949179 
L 517.253041 368.26487 
L 518.790226 362.561266 
L 520.328462 368.736821 
L 521.866698 367.475783 
L 523.404934 365.968111 
L 524.968387 366.433725 
L 526.506623 371.055004 
L 528.044858 368.372915 
L 529.584145 367.199834 
L 531.123432 368.501378 
L 532.686884 372.52804 
L 534.174686 367.257129 
L 535.661437 370.268027 
L 537.198623 368.023285 
L 538.736858 370.741502 
L 540.275094 371.046085 
L 541.81333 368.280633 
L 543.376783 371.074749 
L 544.915019 374.396916 
L 546.453255 370.86249 
L 547.992541 369.553018 
L 549.531828 372.916781 
L 551.095281 372.129227 
L 552.583083 368.873533 
L 554.069834 374.023224 
L 555.607019 371.635442 
L 557.145255 371.966398 
L 558.683491 374.641177 
L 558.683491 374.641177 
" style="fill:none;stroke:#4dbeee;stroke-linecap:square;stroke-width:1.5;"/>
   </g>
   <g id="patch_3">
    <path d="M 56.292813 400.24 
L 56.292813 18.36 
" style="fill:none;stroke:#000000;stroke-linecap:square;stroke-linejoin:miter;"/>
   </g>
   <g id="patch_4">
    <path d="M 559.44 400.24 
L 559.44 18.36 
" style="fill:none;stroke:#000000;stroke-linecap:square;stroke-linejoin:miter;"/>
   </g>
   <g id="patch_5">
    <path d="M 56.292813 400.24 
L 559.44 400.24 
" style="fill:none;stroke:#000000;stroke-linecap:square;stroke-linejoin:miter;"/>
   </g>
   <g id="patch_6">
    <path d="M 56.292813 18.36 
L 559.44 18.36 
" style="fill:none;stroke:#000000;stroke-linecap:square;stroke-linejoin:miter;"/>
   </g>
   <g id="legend_1">
    <g id="patch_7">
     <path d="M 235.467 153.9855 
L 552.24 153.9855 
L 552.24 25.56 
L 235.467 25.56 
z
" style="fill:#ffffff;stroke:#000000;stroke-linejoin:miter;"/>
    </g>
    <g id="line2d_29">
     <path d="M 241.227 36.58725 
L 270.027 36.58725 
" style="fill:none;stroke:#0072bd;stroke-linecap:square;stroke-width:1.5;"/>
    </g>
    <g id="line2d_30"/>
    <g id="text_13">
     <!-- Machine Learning -->
     <defs>
      <path d="M 7.421875 0 
L 7.421875 71.578125 
L 21.6875 71.578125 
L 38.625 20.90625 
Q 40.96875 13.8125 42.046875 10.296875 
Q 43.265625 14.203125 45.84375 21.78125 
L 62.984375 71.578125 
L 75.734375 71.578125 
L 75.734375 0 
L 66.609375 0 
L 66.609375 59.90625 
L 45.796875 0 
L 37.25 0 
L 16.546875 60.9375 
L 16.546875 0 
z
" id="ArialMT-77"/>
      <path d="M 6.59375 0 
L 6.59375 71.578125 
L 15.375 71.578125 
L 15.375 45.90625 
Q 21.53125 53.03125 30.90625 53.03125 
Q 36.671875 53.03125 40.921875 50.75 
Q 45.171875 48.484375 47 44.484375 
Q 48.828125 40.484375 48.828125 32.859375 
L 48.828125 0 
L 40.046875 0 
L 40.046875 32.859375 
Q 40.046875 39.453125 37.1875 42.453125 
Q 34.328125 45.453125 29.109375 45.453125 
Q 25.203125 45.453125 21.75 43.421875 
Q 18.3125 41.40625 16.84375 37.9375 
Q 15.375 34.46875 15.375 28.375 
L 15.375 0 
z
" id="ArialMT-104"/>
      <path d="M 7.328125 0 
L 7.328125 71.578125 
L 16.796875 71.578125 
L 16.796875 8.453125 
L 52.046875 8.453125 
L 52.046875 0 
z
" id="ArialMT-76"/>
      <path d="M 4.984375 -4.296875 
L 13.53125 -5.5625 
Q 14.0625 -9.515625 16.5 -11.328125 
Q 19.78125 -13.765625 25.4375 -13.765625 
Q 31.546875 -13.765625 34.859375 -11.328125 
Q 38.1875 -8.890625 39.359375 -4.5 
Q 40.046875 -1.8125 39.984375 6.78125 
Q 34.234375 0 25.640625 0 
Q 14.9375 0 9.078125 7.71875 
Q 3.21875 15.4375 3.21875 26.21875 
Q 3.21875 33.640625 5.90625 39.90625 
Q 8.59375 46.1875 13.6875 49.609375 
Q 18.796875 53.03125 25.6875 53.03125 
Q 34.859375 53.03125 40.828125 45.609375 
L 40.828125 51.859375 
L 48.921875 51.859375 
L 48.921875 7.03125 
Q 48.921875 -5.078125 46.453125 -10.125 
Q 44 -15.1875 38.640625 -18.109375 
Q 33.296875 -21.046875 25.484375 -21.046875 
Q 16.21875 -21.046875 10.5 -16.875 
Q 4.78125 -12.703125 4.984375 -4.296875 
z
M 12.25 26.859375 
Q 12.25 16.65625 16.296875 11.96875 
Q 20.359375 7.28125 26.46875 7.28125 
Q 32.515625 7.28125 36.609375 11.9375 
Q 40.71875 16.609375 40.71875 26.5625 
Q 40.71875 36.078125 36.5 40.90625 
Q 32.28125 45.75 26.3125 45.75 
Q 20.453125 45.75 16.34375 40.984375 
Q 12.25 36.234375 12.25 26.859375 
z
" id="ArialMT-103"/>
     </defs>
     <g transform="translate(281.547 41.62725)scale(0.144 -0.144)">
      <use xlink:href="#ArialMT-77"/>
      <use x="83.300781" xlink:href="#ArialMT-97"/>
      <use x="138.916016" xlink:href="#ArialMT-99"/>
      <use x="188.916016" xlink:href="#ArialMT-104"/>
      <use x="244.53125" xlink:href="#ArialMT-105"/>
      <use x="266.748047" xlink:href="#ArialMT-110"/>
      <use x="322.363281" xlink:href="#ArialMT-101"/>
      <use x="377.978516" xlink:href="#ArialMT-32"/>
      <use x="405.761719" xlink:href="#ArialMT-76"/>
      <use x="461.376953" xlink:href="#ArialMT-101"/>
      <use x="516.992188" xlink:href="#ArialMT-97"/>
      <use x="572.607422" xlink:href="#ArialMT-114"/>
      <use x="605.908203" xlink:href="#ArialMT-110"/>
      <use x="661.523438" xlink:href="#ArialMT-105"/>
      <use x="683.740234" xlink:href="#ArialMT-110"/>
      <use x="739.355469" xlink:href="#ArialMT-103"/>
     </g>
    </g>
    <g id="line2d_31">
     <path d="M 241.227 57.30075 
L 270.027 57.30075 
" style="fill:none;stroke:#d95319;stroke-linecap:square;stroke-width:1.5;"/>
    </g>
    <g id="line2d_32"/>
    <g id="text_14">
     <!-- Computer Vision and Pattern Recognition -->
     <defs>
      <path d="M 58.796875 25.09375 
L 68.265625 22.703125 
Q 65.28125 11.03125 57.546875 4.90625 
Q 49.8125 -1.21875 38.625 -1.21875 
Q 27.046875 -1.21875 19.796875 3.484375 
Q 12.546875 8.203125 8.765625 17.140625 
Q 4.984375 26.078125 4.984375 36.328125 
Q 4.984375 47.515625 9.25 55.828125 
Q 13.53125 64.15625 21.40625 68.46875 
Q 29.296875 72.796875 38.765625 72.796875 
Q 49.515625 72.796875 56.828125 67.328125 
Q 64.15625 61.859375 67.046875 51.953125 
L 57.71875 49.75 
Q 55.21875 57.5625 50.484375 61.125 
Q 45.75 64.703125 38.578125 64.703125 
Q 30.328125 64.703125 24.78125 60.734375 
Q 19.234375 56.78125 16.984375 50.109375 
Q 14.75 43.453125 14.75 36.375 
Q 14.75 27.25 17.40625 20.4375 
Q 20.0625 13.625 25.671875 10.25 
Q 31.296875 6.890625 37.84375 6.890625 
Q 45.796875 6.890625 51.3125 11.46875 
Q 56.84375 16.0625 58.796875 25.09375 
z
" id="ArialMT-67"/>
      <path d="M 6.59375 0 
L 6.59375 51.859375 
L 14.453125 51.859375 
L 14.453125 44.578125 
Q 16.890625 48.390625 20.9375 50.703125 
Q 25 53.03125 30.171875 53.03125 
Q 35.9375 53.03125 39.625 50.640625 
Q 43.3125 48.25 44.828125 43.953125 
Q 50.984375 53.03125 60.84375 53.03125 
Q 68.5625 53.03125 72.703125 48.75 
Q 76.859375 44.484375 76.859375 35.59375 
L 76.859375 0 
L 68.109375 0 
L 68.109375 32.671875 
Q 68.109375 37.9375 67.25 40.25 
Q 66.40625 42.578125 64.15625 43.984375 
Q 61.921875 45.40625 58.890625 45.40625 
Q 53.421875 45.40625 49.796875 41.765625 
Q 46.1875 38.140625 46.1875 30.125 
L 46.1875 0 
L 37.40625 0 
L 37.40625 33.6875 
Q 37.40625 39.546875 35.25 42.46875 
Q 33.109375 45.40625 28.21875 45.40625 
Q 24.515625 45.40625 21.359375 43.453125 
Q 18.21875 41.5 16.796875 37.734375 
Q 15.375 33.984375 15.375 26.90625 
L 15.375 0 
z
" id="ArialMT-109"/>
      <path d="M 40.578125 0 
L 40.578125 7.625 
Q 34.515625 -1.171875 24.125 -1.171875 
Q 19.53125 -1.171875 15.546875 0.578125 
Q 11.578125 2.34375 9.640625 5 
Q 7.71875 7.671875 6.9375 11.53125 
Q 6.390625 14.109375 6.390625 19.734375 
L 6.390625 51.859375 
L 15.1875 51.859375 
L 15.1875 23.09375 
Q 15.1875 16.21875 15.71875 13.8125 
Q 16.546875 10.359375 19.234375 8.375 
Q 21.921875 6.390625 25.875 6.390625 
Q 29.828125 6.390625 33.296875 8.421875 
Q 36.765625 10.453125 38.203125 13.9375 
Q 39.65625 17.4375 39.65625 24.078125 
L 39.65625 51.859375 
L 48.4375 51.859375 
L 48.4375 0 
z
" id="ArialMT-117"/>
      <path d="M 28.171875 0 
L 0.4375 71.578125 
L 10.6875 71.578125 
L 29.296875 19.578125 
Q 31.546875 13.328125 33.0625 7.859375 
Q 34.71875 13.71875 36.921875 19.578125 
L 56.25 71.578125 
L 65.921875 71.578125 
L 37.890625 0 
z
" id="ArialMT-86"/>
      <path d="M 40.234375 0 
L 40.234375 6.546875 
Q 35.296875 -1.171875 25.734375 -1.171875 
Q 19.53125 -1.171875 14.328125 2.25 
Q 9.125 5.671875 6.265625 11.796875 
Q 3.421875 17.921875 3.421875 25.875 
Q 3.421875 33.640625 6 39.96875 
Q 8.59375 46.296875 13.765625 49.65625 
Q 18.953125 53.03125 25.34375 53.03125 
Q 30.03125 53.03125 33.6875 51.046875 
Q 37.359375 49.078125 39.65625 45.90625 
L 39.65625 71.578125 
L 48.390625 71.578125 
L 48.390625 0 
z
M 12.453125 25.875 
Q 12.453125 15.921875 16.640625 10.984375 
Q 20.84375 6.0625 26.5625 6.0625 
Q 32.328125 6.0625 36.34375 10.765625 
Q 40.375 15.484375 40.375 25.140625 
Q 40.375 35.796875 36.265625 40.765625 
Q 32.171875 45.75 26.171875 45.75 
Q 20.3125 45.75 16.375 40.96875 
Q 12.453125 36.1875 12.453125 25.875 
z
" id="ArialMT-100"/>
      <path d="M 7.71875 0 
L 7.71875 71.578125 
L 34.71875 71.578125 
Q 41.84375 71.578125 45.609375 70.90625 
Q 50.875 70.015625 54.4375 67.546875 
Q 58.015625 65.09375 60.1875 60.640625 
Q 62.359375 56.203125 62.359375 50.875 
Q 62.359375 41.75 56.546875 35.421875 
Q 50.734375 29.109375 35.546875 29.109375 
L 17.1875 29.109375 
L 17.1875 0 
z
M 17.1875 37.546875 
L 35.6875 37.546875 
Q 44.875 37.546875 48.734375 40.96875 
Q 52.59375 44.390625 52.59375 50.59375 
Q 52.59375 55.078125 50.3125 58.265625 
Q 48.046875 61.46875 44.34375 62.5 
Q 41.9375 63.140625 35.5 63.140625 
L 17.1875 63.140625 
z
" id="ArialMT-80"/>
      <path d="M 7.859375 0 
L 7.859375 71.578125 
L 39.59375 71.578125 
Q 49.171875 71.578125 54.140625 69.640625 
Q 59.125 67.71875 62.109375 62.828125 
Q 65.09375 57.953125 65.09375 52.046875 
Q 65.09375 44.4375 60.15625 39.203125 
Q 55.21875 33.984375 44.921875 32.5625 
Q 48.6875 30.765625 50.640625 29 
Q 54.78125 25.203125 58.5 19.484375 
L 70.953125 0 
L 59.03125 0 
L 49.5625 14.890625 
Q 45.40625 21.34375 42.71875 24.75 
Q 40.046875 28.171875 37.921875 29.53125 
Q 35.796875 30.90625 33.59375 31.453125 
Q 31.984375 31.78125 28.328125 31.78125 
L 17.328125 31.78125 
L 17.328125 0 
z
M 17.328125 39.984375 
L 37.703125 39.984375 
Q 44.1875 39.984375 47.84375 41.328125 
Q 51.515625 42.671875 53.421875 45.625 
Q 55.328125 48.578125 55.328125 52.046875 
Q 55.328125 57.125 51.640625 60.390625 
Q 47.953125 63.671875 39.984375 63.671875 
L 17.328125 63.671875 
z
" id="ArialMT-82"/>
     </defs>
     <g transform="translate(281.547 62.34075)scale(0.144 -0.144)">
      <use xlink:href="#ArialMT-67"/>
      <use x="72.216797" xlink:href="#ArialMT-111"/>
      <use x="127.832031" xlink:href="#ArialMT-109"/>
      <use x="211.132812" xlink:href="#ArialMT-112"/>
      <use x="266.748047" xlink:href="#ArialMT-117"/>
      <use x="322.363281" xlink:href="#ArialMT-116"/>
      <use x="350.146484" xlink:href="#ArialMT-101"/>
      <use x="405.761719" xlink:href="#ArialMT-114"/>
      <use x="439.0625" xlink:href="#ArialMT-32"/>
      <use x="466.845703" xlink:href="#ArialMT-86"/>
      <use x="533.529297" xlink:href="#ArialMT-105"/>
      <use x="555.746094" xlink:href="#ArialMT-115"/>
      <use x="605.746094" xlink:href="#ArialMT-105"/>
      <use x="627.962891" xlink:href="#ArialMT-111"/>
      <use x="683.578125" xlink:href="#ArialMT-110"/>
      <use x="739.193359" xlink:href="#ArialMT-32"/>
      <use x="766.976562" xlink:href="#ArialMT-97"/>
      <use x="822.591797" xlink:href="#ArialMT-110"/>
      <use x="878.207031" xlink:href="#ArialMT-100"/>
      <use x="933.822266" xlink:href="#ArialMT-32"/>
      <use x="961.605469" xlink:href="#ArialMT-80"/>
      <use x="1028.304688" xlink:href="#ArialMT-97"/>
      <use x="1083.919922" xlink:href="#ArialMT-116"/>
      <use x="1111.703125" xlink:href="#ArialMT-116"/>
      <use x="1139.486328" xlink:href="#ArialMT-101"/>
      <use x="1195.101562" xlink:href="#ArialMT-114"/>
      <use x="1228.402344" xlink:href="#ArialMT-110"/>
      <use x="1284.017578" xlink:href="#ArialMT-32"/>
      <use x="1311.800781" xlink:href="#ArialMT-82"/>
      <use x="1384.017578" xlink:href="#ArialMT-101"/>
      <use x="1439.632812" xlink:href="#ArialMT-99"/>
      <use x="1489.632812" xlink:href="#ArialMT-111"/>
      <use x="1545.248047" xlink:href="#ArialMT-103"/>
      <use x="1600.863281" xlink:href="#ArialMT-110"/>
      <use x="1656.478516" xlink:href="#ArialMT-105"/>
      <use x="1678.695312" xlink:href="#ArialMT-116"/>
      <use x="1706.478516" xlink:href="#ArialMT-105"/>
      <use x="1728.695312" xlink:href="#ArialMT-111"/>
      <use x="1784.310547" xlink:href="#ArialMT-110"/>
     </g>
    </g>
    <g id="line2d_33">
     <path d="M 241.227 78.01425 
L 270.027 78.01425 
" style="fill:none;stroke:#edb120;stroke-linecap:square;stroke-width:1.5;"/>
    </g>
    <g id="line2d_34"/>
    <g id="text_15">
     <!-- Information Theory -->
     <defs>
      <path d="M 9.328125 0 
L 9.328125 71.578125 
L 18.796875 71.578125 
L 18.796875 0 
z
" id="ArialMT-73"/>
      <path d="M 25.921875 0 
L 25.921875 63.140625 
L 2.34375 63.140625 
L 2.34375 71.578125 
L 59.078125 71.578125 
L 59.078125 63.140625 
L 35.40625 63.140625 
L 35.40625 0 
z
" id="ArialMT-84"/>
      <path d="M 6.203125 -19.96875 
L 5.21875 -11.71875 
Q 8.109375 -12.5 10.25 -12.5 
Q 13.1875 -12.5 14.9375 -11.515625 
Q 16.703125 -10.546875 17.828125 -8.796875 
Q 18.65625 -7.46875 20.515625 -2.25 
Q 20.75 -1.515625 21.296875 -0.09375 
L 1.609375 51.859375 
L 11.078125 51.859375 
L 21.875 21.828125 
Q 23.96875 16.109375 25.640625 9.8125 
Q 27.15625 15.875 29.25 21.625 
L 40.328125 51.859375 
L 49.125 51.859375 
L 29.390625 -0.875 
Q 26.21875 -9.421875 24.46875 -12.640625 
Q 22.125 -17 19.09375 -19.015625 
Q 16.0625 -21.046875 11.859375 -21.046875 
Q 9.328125 -21.046875 6.203125 -19.96875 
z
" id="ArialMT-121"/>
     </defs>
     <g transform="translate(281.547 83.05425)scale(0.144 -0.144)">
      <use xlink:href="#ArialMT-73"/>
      <use x="27.783203" xlink:href="#ArialMT-110"/>
      <use x="83.398438" xlink:href="#ArialMT-102"/>
      <use x="111.181641" xlink:href="#ArialMT-111"/>
      <use x="166.796875" xlink:href="#ArialMT-114"/>
      <use x="200.097656" xlink:href="#ArialMT-109"/>
      <use x="283.398438" xlink:href="#ArialMT-97"/>
      <use x="339.013672" xlink:href="#ArialMT-116"/>
      <use x="366.796875" xlink:href="#ArialMT-105"/>
      <use x="389.013672" xlink:href="#ArialMT-111"/>
      <use x="444.628906" xlink:href="#ArialMT-110"/>
      <use x="500.244141" xlink:href="#ArialMT-32"/>
      <use x="528.011719" xlink:href="#ArialMT-84"/>
      <use x="589.095703" xlink:href="#ArialMT-104"/>
      <use x="644.710938" xlink:href="#ArialMT-101"/>
      <use x="700.326172" xlink:href="#ArialMT-111"/>
      <use x="755.941406" xlink:href="#ArialMT-114"/>
      <use x="789.242188" xlink:href="#ArialMT-121"/>
     </g>
    </g>
    <g id="line2d_35">
     <path d="M 241.227 98.72775 
L 270.027 98.72775 
" style="fill:none;stroke:#7e2f8e;stroke-linecap:square;stroke-width:1.5;"/>
    </g>
    <g id="line2d_36"/>
    <g id="text_16">
     <!-- Artificial Intelligence -->
     <defs>
      <path d="M -0.140625 0 
L 27.34375 71.578125 
L 37.546875 71.578125 
L 66.84375 0 
L 56.0625 0 
L 47.703125 21.6875 
L 17.78125 21.6875 
L 9.90625 0 
z
M 20.515625 29.390625 
L 44.78125 29.390625 
L 37.3125 49.21875 
Q 33.890625 58.25 32.234375 64.0625 
Q 30.859375 57.171875 28.375 50.390625 
z
" id="ArialMT-65"/>
      <path d="M 6.390625 0 
L 6.390625 71.578125 
L 15.1875 71.578125 
L 15.1875 0 
z
" id="ArialMT-108"/>
     </defs>
     <g transform="translate(281.547 103.76775)scale(0.144 -0.144)">
      <use xlink:href="#ArialMT-65"/>
      <use x="66.699219" xlink:href="#ArialMT-114"/>
      <use x="100" xlink:href="#ArialMT-116"/>
      <use x="127.783203" xlink:href="#ArialMT-105"/>
      <use x="150" xlink:href="#ArialMT-102"/>
      <use x="177.783203" xlink:href="#ArialMT-105"/>
      <use x="200" xlink:href="#ArialMT-99"/>
      <use x="250" xlink:href="#ArialMT-105"/>
      <use x="272.216797" xlink:href="#ArialMT-97"/>
      <use x="327.832031" xlink:href="#ArialMT-108"/>
      <use x="350.048828" xlink:href="#ArialMT-32"/>
      <use x="377.832031" xlink:href="#ArialMT-73"/>
      <use x="405.615234" xlink:href="#ArialMT-110"/>
      <use x="461.230469" xlink:href="#ArialMT-116"/>
      <use x="489.013672" xlink:href="#ArialMT-101"/>
      <use x="544.628906" xlink:href="#ArialMT-108"/>
      <use x="566.845703" xlink:href="#ArialMT-108"/>
      <use x="589.0625" xlink:href="#ArialMT-105"/>
      <use x="611.279297" xlink:href="#ArialMT-103"/>
      <use x="666.894531" xlink:href="#ArialMT-101"/>
      <use x="722.509766" xlink:href="#ArialMT-110"/>
      <use x="778.125" xlink:href="#ArialMT-99"/>
      <use x="828.125" xlink:href="#ArialMT-101"/>
     </g>
    </g>
    <g id="line2d_37">
     <path d="M 241.227 119.44125 
L 270.027 119.44125 
" style="fill:none;stroke:#77ac30;stroke-linecap:square;stroke-width:1.5;"/>
    </g>
    <g id="line2d_38"/>
    <g id="text_17">
     <!-- Computation and Language -->
     <g transform="translate(281.547 124.48125)scale(0.144 -0.144)">
      <use xlink:href="#ArialMT-67"/>
      <use x="72.216797" xlink:href="#ArialMT-111"/>
      <use x="127.832031" xlink:href="#ArialMT-109"/>
      <use x="211.132812" xlink:href="#ArialMT-112"/>
      <use x="266.748047" xlink:href="#ArialMT-117"/>
      <use x="322.363281" xlink:href="#ArialMT-116"/>
      <use x="350.146484" xlink:href="#ArialMT-97"/>
      <use x="405.761719" xlink:href="#ArialMT-116"/>
      <use x="433.544922" xlink:href="#ArialMT-105"/>
      <use x="455.761719" xlink:href="#ArialMT-111"/>
      <use x="511.376953" xlink:href="#ArialMT-110"/>
      <use x="566.992188" xlink:href="#ArialMT-32"/>
      <use x="594.775391" xlink:href="#ArialMT-97"/>
      <use x="650.390625" xlink:href="#ArialMT-110"/>
      <use x="706.005859" xlink:href="#ArialMT-100"/>
      <use x="761.621094" xlink:href="#ArialMT-32"/>
      <use x="789.404297" xlink:href="#ArialMT-76"/>
      <use x="845.019531" xlink:href="#ArialMT-97"/>
      <use x="900.634766" xlink:href="#ArialMT-110"/>
      <use x="956.25" xlink:href="#ArialMT-103"/>
      <use x="1011.865234" xlink:href="#ArialMT-117"/>
      <use x="1067.480469" xlink:href="#ArialMT-97"/>
      <use x="1123.095703" xlink:href="#ArialMT-103"/>
      <use x="1178.710938" xlink:href="#ArialMT-101"/>
     </g>
    </g>
    <g id="line2d_39">
     <path d="M 241.227 140.15475 
L 270.027 140.15475 
" style="fill:none;stroke:#4dbeee;stroke-linecap:square;stroke-width:1.5;"/>
    </g>
    <g id="line2d_40"/>
    <g id="text_18">
     <!-- Data Structures and Algorithms -->
     <defs>
      <path d="M 7.71875 0 
L 7.71875 71.578125 
L 32.375 71.578125 
Q 40.71875 71.578125 45.125 70.5625 
Q 51.265625 69.140625 55.609375 65.4375 
Q 61.28125 60.640625 64.078125 53.1875 
Q 66.890625 45.75 66.890625 36.1875 
Q 66.890625 28.03125 64.984375 21.734375 
Q 63.09375 15.4375 60.109375 11.296875 
Q 57.125 7.171875 53.578125 4.796875 
Q 50.046875 2.4375 45.046875 1.21875 
Q 40.046875 0 33.546875 0 
z
M 17.1875 8.453125 
L 32.46875 8.453125 
Q 39.546875 8.453125 43.578125 9.765625 
Q 47.609375 11.078125 50 13.484375 
Q 53.375 16.84375 55.25 22.53125 
Q 57.125 28.21875 57.125 36.328125 
Q 57.125 47.5625 53.4375 53.59375 
Q 49.75 59.625 44.484375 61.671875 
Q 40.671875 63.140625 32.234375 63.140625 
L 17.1875 63.140625 
z
" id="ArialMT-68"/>
      <path d="M 4.5 23 
L 13.421875 23.78125 
Q 14.0625 18.40625 16.375 14.96875 
Q 18.703125 11.53125 23.578125 9.40625 
Q 28.46875 7.28125 34.578125 7.28125 
Q 39.984375 7.28125 44.140625 8.890625 
Q 48.296875 10.5 50.3125 13.296875 
Q 52.34375 16.109375 52.34375 19.4375 
Q 52.34375 22.796875 50.390625 25.3125 
Q 48.4375 27.828125 43.953125 29.546875 
Q 41.0625 30.671875 31.203125 33.03125 
Q 21.34375 35.40625 17.390625 37.5 
Q 12.25 40.1875 9.734375 44.15625 
Q 7.234375 48.140625 7.234375 53.078125 
Q 7.234375 58.5 10.296875 63.203125 
Q 13.375 67.921875 19.28125 70.359375 
Q 25.203125 72.796875 32.421875 72.796875 
Q 40.375 72.796875 46.453125 70.234375 
Q 52.546875 67.671875 55.8125 62.6875 
Q 59.078125 57.71875 59.328125 51.421875 
L 50.25 50.734375 
Q 49.515625 57.515625 45.28125 60.984375 
Q 41.0625 64.453125 32.8125 64.453125 
Q 24.21875 64.453125 20.28125 61.296875 
Q 16.359375 58.15625 16.359375 53.71875 
Q 16.359375 49.859375 19.140625 47.359375 
Q 21.875 44.875 33.421875 42.265625 
Q 44.96875 39.65625 49.265625 37.703125 
Q 55.515625 34.8125 58.484375 30.390625 
Q 61.46875 25.984375 61.46875 20.21875 
Q 61.46875 14.5 58.203125 9.4375 
Q 54.9375 4.390625 48.796875 1.578125 
Q 42.671875 -1.21875 35.015625 -1.21875 
Q 25.296875 -1.21875 18.71875 1.609375 
Q 12.15625 4.4375 8.421875 10.125 
Q 4.6875 15.828125 4.5 23 
z
" id="ArialMT-83"/>
     </defs>
     <g transform="translate(281.547 145.19475)scale(0.144 -0.144)">
      <use xlink:href="#ArialMT-68"/>
      <use x="72.216797" xlink:href="#ArialMT-97"/>
      <use x="127.832031" xlink:href="#ArialMT-116"/>
      <use x="155.615234" xlink:href="#ArialMT-97"/>
      <use x="211.230469" xlink:href="#ArialMT-32"/>
      <use x="239.013672" xlink:href="#ArialMT-83"/>
      <use x="305.712891" xlink:href="#ArialMT-116"/>
      <use x="333.496094" xlink:href="#ArialMT-114"/>
      <use x="366.796875" xlink:href="#ArialMT-117"/>
      <use x="422.412109" xlink:href="#ArialMT-99"/>
      <use x="472.412109" xlink:href="#ArialMT-116"/>
      <use x="500.195312" xlink:href="#ArialMT-117"/>
      <use x="555.810547" xlink:href="#ArialMT-114"/>
      <use x="589.111328" xlink:href="#ArialMT-101"/>
      <use x="644.726562" xlink:href="#ArialMT-115"/>
      <use x="694.726562" xlink:href="#ArialMT-32"/>
      <use x="722.509766" xlink:href="#ArialMT-97"/>
      <use x="778.125" xlink:href="#ArialMT-110"/>
      <use x="833.740234" xlink:href="#ArialMT-100"/>
      <use x="889.355469" xlink:href="#ArialMT-32"/>
      <use x="917.060547" xlink:href="#ArialMT-65"/>
      <use x="983.759766" xlink:href="#ArialMT-108"/>
      <use x="1005.976562" xlink:href="#ArialMT-103"/>
      <use x="1061.591797" xlink:href="#ArialMT-111"/>
      <use x="1117.207031" xlink:href="#ArialMT-114"/>
      <use x="1150.507812" xlink:href="#ArialMT-105"/>
      <use x="1172.724609" xlink:href="#ArialMT-116"/>
      <use x="1200.507812" xlink:href="#ArialMT-104"/>
      <use x="1256.123047" xlink:href="#ArialMT-109"/>
      <use x="1339.423828" xlink:href="#ArialMT-115"/>
     </g>
    </g>
   </g>
  </g>
 </g>
 <defs>
  <clipPath id="p50cf5847d8">
   <rect height="381.88" width="503.147188" x="56.292813" y="18.36"/>
  </clipPath>
 </defs>
</svg>
