<?xml version="1.0" encoding="utf-8" standalone="no"?>
<!DOCTYPE svg PUBLIC "-//W3C//DTD SVG 1.1//EN"
  "http://www.w3.org/Graphics/SVG/1.1/DTD/svg11.dtd">
<!-- Created with matplotlib (https://matplotlib.org/) -->
<svg height="432pt" version="1.1" viewBox="0 0 576 432" width="576pt" xmlns="http://www.w3.org/2000/svg" xmlns:xlink="http://www.w3.org/1999/xlink">
 <defs>
  <style type="text/css">
*{stroke-linecap:butt;stroke-linejoin:round;}
  </style>
 </defs>
 <g id="figure_1">
  <g id="patch_1">
   <path d="M 0 432 
L 576 432 
L 576 0 
L 0 0 
z
" style="fill:#ffffff;"/>
  </g>
  <g id="axes_1">
   <g id="patch_2">
    <path d="M 56.292813 400.24 
L 559.44 400.24 
L 559.44 18.36 
L 56.292813 18.36 
z
" style="fill:#ffffff;"/>
   </g>
   <g id="matplotlib.axis_1">
    <g id="xtick_1">
     <g id="line2d_1">
      <path clip-path="url(#p704caee923)" d="M 108.20944 400.24 
L 108.20944 18.36 
" style="fill:none;stroke:#b2b2b2;stroke-linecap:square;stroke-width:0.5;"/>
     </g>
     <g id="line2d_2">
      <defs>
       <path d="M 0 0 
L 0 4 
" id="me6b07fd743" style="stroke:#000000;stroke-width:0.5;"/>
      </defs>
      <g>
       <use style="stroke:#000000;stroke-width:0.5;" x="108.20944" xlink:href="#me6b07fd743" y="400.24"/>
      </g>
     </g>
     <g id="text_1">
      <!-- 1995 -->
      <defs>
       <path d="M 37.25 0 
L 28.46875 0 
L 28.46875 56 
Q 25.296875 52.984375 20.140625 49.953125 
Q 14.984375 46.921875 10.890625 45.40625 
L 10.890625 53.90625 
Q 18.265625 57.375 23.78125 62.296875 
Q 29.296875 67.234375 31.59375 71.875 
L 37.25 71.875 
z
" id="ArialMT-49"/>
       <path d="M 5.46875 16.546875 
L 13.921875 17.328125 
Q 14.984375 11.375 18.015625 8.6875 
Q 21.046875 6 25.78125 6 
Q 29.828125 6 32.875 7.859375 
Q 35.9375 9.71875 37.890625 12.8125 
Q 39.84375 15.921875 41.15625 21.1875 
Q 42.484375 26.46875 42.484375 31.9375 
Q 42.484375 32.515625 42.4375 33.6875 
Q 39.796875 29.5 35.234375 26.875 
Q 30.671875 24.265625 25.34375 24.265625 
Q 16.453125 24.265625 10.296875 30.703125 
Q 4.15625 37.15625 4.15625 47.703125 
Q 4.15625 58.59375 10.578125 65.234375 
Q 17 71.875 26.65625 71.875 
Q 33.640625 71.875 39.421875 68.109375 
Q 45.21875 64.359375 48.21875 57.390625 
Q 51.21875 50.4375 51.21875 37.25 
Q 51.21875 23.53125 48.234375 15.40625 
Q 45.265625 7.28125 39.375 3.03125 
Q 33.5 -1.21875 25.59375 -1.21875 
Q 17.1875 -1.21875 11.859375 3.4375 
Q 6.546875 8.109375 5.46875 16.546875 
z
M 41.453125 48.140625 
Q 41.453125 55.71875 37.421875 60.15625 
Q 33.40625 64.59375 27.734375 64.59375 
Q 21.875 64.59375 17.53125 59.8125 
Q 13.1875 55.03125 13.1875 47.40625 
Q 13.1875 40.578125 17.3125 36.296875 
Q 21.4375 32.03125 27.484375 32.03125 
Q 33.59375 32.03125 37.515625 36.296875 
Q 41.453125 40.578125 41.453125 48.140625 
z
" id="ArialMT-57"/>
       <path d="M 4.15625 18.75 
L 13.375 19.53125 
Q 14.40625 12.796875 18.140625 9.390625 
Q 21.875 6 27.15625 6 
Q 33.5 6 37.890625 10.78125 
Q 42.28125 15.578125 42.28125 23.484375 
Q 42.28125 31 38.0625 35.34375 
Q 33.84375 39.703125 27 39.703125 
Q 22.75 39.703125 19.328125 37.765625 
Q 15.921875 35.84375 13.96875 32.765625 
L 5.71875 33.84375 
L 12.640625 70.609375 
L 48.25 70.609375 
L 48.25 62.203125 
L 19.671875 62.203125 
L 15.828125 42.96875 
Q 22.265625 47.46875 29.34375 47.46875 
Q 38.71875 47.46875 45.15625 40.96875 
Q 51.609375 34.46875 51.609375 24.265625 
Q 51.609375 14.546875 45.953125 7.46875 
Q 39.0625 -1.21875 27.15625 -1.21875 
Q 17.390625 -1.21875 11.203125 4.25 
Q 5.03125 9.71875 4.15625 18.75 
z
" id="ArialMT-53"/>
      </defs>
      <g transform="translate(94.86319 416.829375)scale(0.12 -0.12)">
       <use xlink:href="#ArialMT-49"/>
       <use x="55.615234" xlink:href="#ArialMT-57"/>
       <use x="111.230469" xlink:href="#ArialMT-57"/>
       <use x="166.845703" xlink:href="#ArialMT-53"/>
      </g>
     </g>
    </g>
    <g id="xtick_2">
     <g id="line2d_3">
      <path clip-path="url(#p704caee923)" d="M 200.301855 400.24 
L 200.301855 18.36 
" style="fill:none;stroke:#b2b2b2;stroke-linecap:square;stroke-width:0.5;"/>
     </g>
     <g id="line2d_4">
      <g>
       <use style="stroke:#000000;stroke-width:0.5;" x="200.301855" xlink:href="#me6b07fd743" y="400.24"/>
      </g>
     </g>
     <g id="text_2">
      <!-- 2000 -->
      <defs>
       <path d="M 50.34375 8.453125 
L 50.34375 0 
L 3.03125 0 
Q 2.9375 3.171875 4.046875 6.109375 
Q 5.859375 10.9375 9.828125 15.625 
Q 13.8125 20.3125 21.34375 26.46875 
Q 33.015625 36.03125 37.109375 41.625 
Q 41.21875 47.21875 41.21875 52.203125 
Q 41.21875 57.421875 37.46875 61 
Q 33.734375 64.59375 27.734375 64.59375 
Q 21.390625 64.59375 17.578125 60.78125 
Q 13.765625 56.984375 13.71875 50.25 
L 4.6875 51.171875 
Q 5.609375 61.28125 11.65625 66.578125 
Q 17.71875 71.875 27.9375 71.875 
Q 38.234375 71.875 44.234375 66.15625 
Q 50.25 60.453125 50.25 52 
Q 50.25 47.703125 48.484375 43.546875 
Q 46.734375 39.40625 42.65625 34.8125 
Q 38.578125 30.21875 29.109375 22.21875 
Q 21.1875 15.578125 18.9375 13.203125 
Q 16.703125 10.84375 15.234375 8.453125 
z
" id="ArialMT-50"/>
       <path d="M 4.15625 35.296875 
Q 4.15625 48 6.765625 55.734375 
Q 9.375 63.484375 14.515625 67.671875 
Q 19.671875 71.875 27.484375 71.875 
Q 33.25 71.875 37.59375 69.546875 
Q 41.9375 67.234375 44.765625 62.859375 
Q 47.609375 58.5 49.21875 52.21875 
Q 50.828125 45.953125 50.828125 35.296875 
Q 50.828125 22.703125 48.234375 14.96875 
Q 45.65625 7.234375 40.5 3 
Q 35.359375 -1.21875 27.484375 -1.21875 
Q 17.140625 -1.21875 11.234375 6.203125 
Q 4.15625 15.140625 4.15625 35.296875 
z
M 13.1875 35.296875 
Q 13.1875 17.671875 17.3125 11.828125 
Q 21.4375 6 27.484375 6 
Q 33.546875 6 37.671875 11.859375 
Q 41.796875 17.71875 41.796875 35.296875 
Q 41.796875 52.984375 37.671875 58.78125 
Q 33.546875 64.59375 27.390625 64.59375 
Q 21.34375 64.59375 17.71875 59.46875 
Q 13.1875 52.9375 13.1875 35.296875 
z
" id="ArialMT-48"/>
      </defs>
      <g transform="translate(186.955605 416.829375)scale(0.12 -0.12)">
       <use xlink:href="#ArialMT-50"/>
       <use x="55.615234" xlink:href="#ArialMT-48"/>
       <use x="111.230469" xlink:href="#ArialMT-48"/>
       <use x="166.845703" xlink:href="#ArialMT-48"/>
      </g>
     </g>
    </g>
    <g id="xtick_3">
     <g id="line2d_5">
      <path clip-path="url(#p704caee923)" d="M 292.444705 400.24 
L 292.444705 18.36 
" style="fill:none;stroke:#b2b2b2;stroke-linecap:square;stroke-width:0.5;"/>
     </g>
     <g id="line2d_6">
      <g>
       <use style="stroke:#000000;stroke-width:0.5;" x="292.444705" xlink:href="#me6b07fd743" y="400.24"/>
      </g>
     </g>
     <g id="text_3">
      <!-- 2005 -->
      <g transform="translate(279.098455 416.829375)scale(0.12 -0.12)">
       <use xlink:href="#ArialMT-50"/>
       <use x="55.615234" xlink:href="#ArialMT-48"/>
       <use x="111.230469" xlink:href="#ArialMT-48"/>
       <use x="166.845703" xlink:href="#ArialMT-53"/>
      </g>
     </g>
    </g>
    <g id="xtick_4">
     <g id="line2d_7">
      <path clip-path="url(#p704caee923)" d="M 384.53712 400.24 
L 384.53712 18.36 
" style="fill:none;stroke:#b2b2b2;stroke-linecap:square;stroke-width:0.5;"/>
     </g>
     <g id="line2d_8">
      <g>
       <use style="stroke:#000000;stroke-width:0.5;" x="384.53712" xlink:href="#me6b07fd743" y="400.24"/>
      </g>
     </g>
     <g id="text_4">
      <!-- 2010 -->
      <g transform="translate(371.19087 416.829375)scale(0.12 -0.12)">
       <use xlink:href="#ArialMT-50"/>
       <use x="55.615234" xlink:href="#ArialMT-48"/>
       <use x="111.230469" xlink:href="#ArialMT-49"/>
       <use x="166.845703" xlink:href="#ArialMT-48"/>
      </g>
     </g>
    </g>
    <g id="xtick_5">
     <g id="line2d_9">
      <path clip-path="url(#p704caee923)" d="M 476.629535 400.24 
L 476.629535 18.36 
" style="fill:none;stroke:#b2b2b2;stroke-linecap:square;stroke-width:0.5;"/>
     </g>
     <g id="line2d_10">
      <g>
       <use style="stroke:#000000;stroke-width:0.5;" x="476.629535" xlink:href="#me6b07fd743" y="400.24"/>
      </g>
     </g>
     <g id="text_5">
      <!-- 2015 -->
      <g transform="translate(463.283285 416.829375)scale(0.12 -0.12)">
       <use xlink:href="#ArialMT-50"/>
       <use x="55.615234" xlink:href="#ArialMT-48"/>
       <use x="111.230469" xlink:href="#ArialMT-49"/>
       <use x="166.845703" xlink:href="#ArialMT-53"/>
      </g>
     </g>
    </g>
   </g>
   <g id="matplotlib.axis_2">
    <g id="ytick_1">
     <g id="line2d_11">
      <path clip-path="url(#p704caee923)" d="M 56.292813 382.055238 
L 559.44 382.055238 
" style="fill:none;stroke:#b2b2b2;stroke-linecap:square;stroke-width:0.5;"/>
     </g>
     <g id="line2d_12">
      <defs>
       <path d="M 0 0 
L -4 0 
" id="m830450c40e" style="stroke:#000000;stroke-width:0.5;"/>
      </defs>
      <g>
       <use style="stroke:#000000;stroke-width:0.5;" x="56.292813" xlink:href="#m830450c40e" y="382.055238"/>
      </g>
     </g>
     <g id="text_6">
      <!-- 0.0 -->
      <defs>
       <path d="M 9.078125 0 
L 9.078125 10.015625 
L 19.09375 10.015625 
L 19.09375 0 
z
" id="ArialMT-46"/>
      </defs>
      <g transform="translate(31.612813 385.157426)scale(0.12 -0.12)">
       <use xlink:href="#ArialMT-48"/>
       <use x="55.615234" xlink:href="#ArialMT-46"/>
       <use x="83.398438" xlink:href="#ArialMT-48"/>
      </g>
     </g>
    </g>
    <g id="ytick_2">
     <g id="line2d_13">
      <path clip-path="url(#p704caee923)" d="M 56.292813 309.31619 
L 559.44 309.31619 
" style="fill:none;stroke:#b2b2b2;stroke-linecap:square;stroke-width:0.5;"/>
     </g>
     <g id="line2d_14">
      <g>
       <use style="stroke:#000000;stroke-width:0.5;" x="56.292813" xlink:href="#m830450c40e" y="309.31619"/>
      </g>
     </g>
     <g id="text_7">
      <!-- 0.2 -->
      <g transform="translate(31.612813 312.418378)scale(0.12 -0.12)">
       <use xlink:href="#ArialMT-48"/>
       <use x="55.615234" xlink:href="#ArialMT-46"/>
       <use x="83.398438" xlink:href="#ArialMT-50"/>
      </g>
     </g>
    </g>
    <g id="ytick_3">
     <g id="line2d_15">
      <path clip-path="url(#p704caee923)" d="M 56.292813 236.577143 
L 559.44 236.577143 
" style="fill:none;stroke:#b2b2b2;stroke-linecap:square;stroke-width:0.5;"/>
     </g>
     <g id="line2d_16">
      <g>
       <use style="stroke:#000000;stroke-width:0.5;" x="56.292813" xlink:href="#m830450c40e" y="236.577143"/>
      </g>
     </g>
     <g id="text_8">
      <!-- 0.4 -->
      <defs>
       <path d="M 32.328125 0 
L 32.328125 17.140625 
L 1.265625 17.140625 
L 1.265625 25.203125 
L 33.9375 71.578125 
L 41.109375 71.578125 
L 41.109375 25.203125 
L 50.78125 25.203125 
L 50.78125 17.140625 
L 41.109375 17.140625 
L 41.109375 0 
z
M 32.328125 25.203125 
L 32.328125 57.46875 
L 9.90625 25.203125 
z
" id="ArialMT-52"/>
      </defs>
      <g transform="translate(31.612813 239.67933)scale(0.12 -0.12)">
       <use xlink:href="#ArialMT-48"/>
       <use x="55.615234" xlink:href="#ArialMT-46"/>
       <use x="83.398438" xlink:href="#ArialMT-52"/>
      </g>
     </g>
    </g>
    <g id="ytick_4">
     <g id="line2d_17">
      <path clip-path="url(#p704caee923)" d="M 56.292813 163.838095 
L 559.44 163.838095 
" style="fill:none;stroke:#b2b2b2;stroke-linecap:square;stroke-width:0.5;"/>
     </g>
     <g id="line2d_18">
      <g>
       <use style="stroke:#000000;stroke-width:0.5;" x="56.292813" xlink:href="#m830450c40e" y="163.838095"/>
      </g>
     </g>
     <g id="text_9">
      <!-- 0.6 -->
      <defs>
       <path d="M 49.75 54.046875 
L 41.015625 53.375 
Q 39.84375 58.546875 37.703125 60.890625 
Q 34.125 64.65625 28.90625 64.65625 
Q 24.703125 64.65625 21.53125 62.3125 
Q 17.390625 59.28125 14.984375 53.46875 
Q 12.59375 47.65625 12.5 36.921875 
Q 15.671875 41.75 20.265625 44.09375 
Q 24.859375 46.4375 29.890625 46.4375 
Q 38.671875 46.4375 44.84375 39.96875 
Q 51.03125 33.5 51.03125 23.25 
Q 51.03125 16.5 48.125 10.71875 
Q 45.21875 4.9375 40.140625 1.859375 
Q 35.0625 -1.21875 28.609375 -1.21875 
Q 17.625 -1.21875 10.6875 6.859375 
Q 3.765625 14.9375 3.765625 33.5 
Q 3.765625 54.25 11.421875 63.671875 
Q 18.109375 71.875 29.4375 71.875 
Q 37.890625 71.875 43.28125 67.140625 
Q 48.6875 62.40625 49.75 54.046875 
z
M 13.875 23.1875 
Q 13.875 18.65625 15.796875 14.5 
Q 17.71875 10.359375 21.1875 8.171875 
Q 24.65625 6 28.46875 6 
Q 34.03125 6 38.03125 10.484375 
Q 42.046875 14.984375 42.046875 22.703125 
Q 42.046875 30.125 38.078125 34.390625 
Q 34.125 38.671875 28.125 38.671875 
Q 22.171875 38.671875 18.015625 34.390625 
Q 13.875 30.125 13.875 23.1875 
z
" id="ArialMT-54"/>
      </defs>
      <g transform="translate(31.612813 166.940283)scale(0.12 -0.12)">
       <use xlink:href="#ArialMT-48"/>
       <use x="55.615234" xlink:href="#ArialMT-46"/>
       <use x="83.398438" xlink:href="#ArialMT-54"/>
      </g>
     </g>
    </g>
    <g id="ytick_5">
     <g id="line2d_19">
      <path clip-path="url(#p704caee923)" d="M 56.292813 91.099048 
L 559.44 91.099048 
" style="fill:none;stroke:#b2b2b2;stroke-linecap:square;stroke-width:0.5;"/>
     </g>
     <g id="line2d_20">
      <g>
       <use style="stroke:#000000;stroke-width:0.5;" x="56.292813" xlink:href="#m830450c40e" y="91.099048"/>
      </g>
     </g>
     <g id="text_10">
      <!-- 0.8 -->
      <defs>
       <path d="M 17.671875 38.8125 
Q 12.203125 40.828125 9.5625 44.53125 
Q 6.9375 48.25 6.9375 53.421875 
Q 6.9375 61.234375 12.546875 66.546875 
Q 18.171875 71.875 27.484375 71.875 
Q 36.859375 71.875 42.578125 66.421875 
Q 48.296875 60.984375 48.296875 53.171875 
Q 48.296875 48.1875 45.671875 44.5 
Q 43.0625 40.828125 37.75 38.8125 
Q 44.34375 36.671875 47.78125 31.875 
Q 51.21875 27.09375 51.21875 20.453125 
Q 51.21875 11.28125 44.71875 5.03125 
Q 38.234375 -1.21875 27.640625 -1.21875 
Q 17.046875 -1.21875 10.546875 5.046875 
Q 4.046875 11.328125 4.046875 20.703125 
Q 4.046875 27.6875 7.59375 32.390625 
Q 11.140625 37.109375 17.671875 38.8125 
z
M 15.921875 53.71875 
Q 15.921875 48.640625 19.1875 45.40625 
Q 22.46875 42.1875 27.6875 42.1875 
Q 32.765625 42.1875 36.015625 45.375 
Q 39.265625 48.578125 39.265625 53.21875 
Q 39.265625 58.0625 35.90625 61.359375 
Q 32.5625 64.65625 27.59375 64.65625 
Q 22.5625 64.65625 19.234375 61.421875 
Q 15.921875 58.203125 15.921875 53.71875 
z
M 13.09375 20.65625 
Q 13.09375 16.890625 14.875 13.375 
Q 16.65625 9.859375 20.171875 7.921875 
Q 23.6875 6 27.734375 6 
Q 34.03125 6 38.125 10.046875 
Q 42.234375 14.109375 42.234375 20.359375 
Q 42.234375 26.703125 38.015625 30.859375 
Q 33.796875 35.015625 27.4375 35.015625 
Q 21.234375 35.015625 17.15625 30.90625 
Q 13.09375 26.8125 13.09375 20.65625 
z
" id="ArialMT-56"/>
      </defs>
      <g transform="translate(31.612813 94.201235)scale(0.12 -0.12)">
       <use xlink:href="#ArialMT-48"/>
       <use x="55.615234" xlink:href="#ArialMT-46"/>
       <use x="83.398438" xlink:href="#ArialMT-56"/>
      </g>
     </g>
    </g>
    <g id="ytick_6">
     <g id="line2d_21">
      <path clip-path="url(#p704caee923)" d="M 56.292813 18.36 
L 559.44 18.36 
" style="fill:none;stroke:#b2b2b2;stroke-linecap:square;stroke-width:0.5;"/>
     </g>
     <g id="line2d_22">
      <g>
       <use style="stroke:#000000;stroke-width:0.5;" x="56.292813" xlink:href="#m830450c40e" y="18.36"/>
      </g>
     </g>
     <g id="text_11">
      <!-- 1.0 -->
      <g transform="translate(31.612813 21.462187)scale(0.12 -0.12)">
       <use xlink:href="#ArialMT-49"/>
       <use x="55.615234" xlink:href="#ArialMT-46"/>
       <use x="83.398438" xlink:href="#ArialMT-48"/>
      </g>
     </g>
    </g>
    <g id="text_12">
     <!-- Fraction of papers -->
     <defs>
      <path d="M 8.203125 0 
L 8.203125 71.578125 
L 56.5 71.578125 
L 56.5 63.140625 
L 17.671875 63.140625 
L 17.671875 40.96875 
L 51.265625 40.96875 
L 51.265625 32.515625 
L 17.671875 32.515625 
L 17.671875 0 
z
" id="ArialMT-70"/>
      <path d="M 6.5 0 
L 6.5 51.859375 
L 14.40625 51.859375 
L 14.40625 44 
Q 17.4375 49.515625 20 51.265625 
Q 22.5625 53.03125 25.640625 53.03125 
Q 30.078125 53.03125 34.671875 50.203125 
L 31.640625 42.046875 
Q 28.421875 43.953125 25.203125 43.953125 
Q 22.3125 43.953125 20.015625 42.21875 
Q 17.71875 40.484375 16.75 37.40625 
Q 15.28125 32.71875 15.28125 27.15625 
L 15.28125 0 
z
" id="ArialMT-114"/>
      <path d="M 40.4375 6.390625 
Q 35.546875 2.25 31.03125 0.53125 
Q 26.515625 -1.171875 21.34375 -1.171875 
Q 12.796875 -1.171875 8.203125 3 
Q 3.609375 7.171875 3.609375 13.671875 
Q 3.609375 17.484375 5.34375 20.625 
Q 7.078125 23.78125 9.890625 25.6875 
Q 12.703125 27.59375 16.21875 28.5625 
Q 18.796875 29.25 24.03125 29.890625 
Q 34.671875 31.15625 39.703125 32.90625 
Q 39.75 34.71875 39.75 35.203125 
Q 39.75 40.578125 37.25 42.78125 
Q 33.890625 45.75 27.25 45.75 
Q 21.046875 45.75 18.09375 43.578125 
Q 15.140625 41.40625 13.71875 35.890625 
L 5.125 37.0625 
Q 6.296875 42.578125 8.984375 45.96875 
Q 11.671875 49.359375 16.75 51.1875 
Q 21.828125 53.03125 28.515625 53.03125 
Q 35.15625 53.03125 39.296875 51.46875 
Q 43.453125 49.90625 45.40625 47.53125 
Q 47.359375 45.171875 48.140625 41.546875 
Q 48.578125 39.3125 48.578125 33.453125 
L 48.578125 21.734375 
Q 48.578125 9.46875 49.140625 6.21875 
Q 49.703125 2.984375 51.375 0 
L 42.1875 0 
Q 40.828125 2.734375 40.4375 6.390625 
z
M 39.703125 26.03125 
Q 34.90625 24.078125 25.34375 22.703125 
Q 19.921875 21.921875 17.671875 20.9375 
Q 15.4375 19.96875 14.203125 18.09375 
Q 12.984375 16.21875 12.984375 13.921875 
Q 12.984375 10.40625 15.640625 8.0625 
Q 18.3125 5.71875 23.4375 5.71875 
Q 28.515625 5.71875 32.46875 7.9375 
Q 36.421875 10.15625 38.28125 14.015625 
Q 39.703125 17 39.703125 22.796875 
z
" id="ArialMT-97"/>
      <path d="M 40.4375 19 
L 49.078125 17.875 
Q 47.65625 8.9375 41.8125 3.875 
Q 35.984375 -1.171875 27.484375 -1.171875 
Q 16.84375 -1.171875 10.375 5.78125 
Q 3.90625 12.75 3.90625 25.734375 
Q 3.90625 34.125 6.6875 40.421875 
Q 9.46875 46.734375 15.15625 49.875 
Q 20.84375 53.03125 27.546875 53.03125 
Q 35.984375 53.03125 41.359375 48.75 
Q 46.734375 44.484375 48.25 36.625 
L 39.703125 35.296875 
Q 38.484375 40.53125 35.375 43.15625 
Q 32.28125 45.796875 27.875 45.796875 
Q 21.234375 45.796875 17.078125 41.03125 
Q 12.9375 36.28125 12.9375 25.984375 
Q 12.9375 15.53125 16.9375 10.796875 
Q 20.953125 6.0625 27.390625 6.0625 
Q 32.5625 6.0625 36.03125 9.234375 
Q 39.5 12.40625 40.4375 19 
z
" id="ArialMT-99"/>
      <path d="M 25.78125 7.859375 
L 27.046875 0.09375 
Q 23.34375 -0.6875 20.40625 -0.6875 
Q 15.625 -0.6875 12.984375 0.828125 
Q 10.359375 2.34375 9.28125 4.8125 
Q 8.203125 7.28125 8.203125 15.1875 
L 8.203125 45.015625 
L 1.765625 45.015625 
L 1.765625 51.859375 
L 8.203125 51.859375 
L 8.203125 64.703125 
L 16.9375 69.96875 
L 16.9375 51.859375 
L 25.78125 51.859375 
L 25.78125 45.015625 
L 16.9375 45.015625 
L 16.9375 14.703125 
Q 16.9375 10.9375 17.40625 9.859375 
Q 17.875 8.796875 18.921875 8.15625 
Q 19.96875 7.515625 21.921875 7.515625 
Q 23.390625 7.515625 25.78125 7.859375 
z
" id="ArialMT-116"/>
      <path d="M 6.640625 61.46875 
L 6.640625 71.578125 
L 15.4375 71.578125 
L 15.4375 61.46875 
z
M 6.640625 0 
L 6.640625 51.859375 
L 15.4375 51.859375 
L 15.4375 0 
z
" id="ArialMT-105"/>
      <path d="M 3.328125 25.921875 
Q 3.328125 40.328125 11.328125 47.265625 
Q 18.015625 53.03125 27.640625 53.03125 
Q 38.328125 53.03125 45.109375 46.015625 
Q 51.90625 39.015625 51.90625 26.65625 
Q 51.90625 16.65625 48.90625 10.90625 
Q 45.90625 5.171875 40.15625 2 
Q 34.421875 -1.171875 27.640625 -1.171875 
Q 16.75 -1.171875 10.03125 5.8125 
Q 3.328125 12.796875 3.328125 25.921875 
z
M 12.359375 25.921875 
Q 12.359375 15.96875 16.703125 11.015625 
Q 21.046875 6.0625 27.640625 6.0625 
Q 34.1875 6.0625 38.53125 11.03125 
Q 42.875 16.015625 42.875 26.21875 
Q 42.875 35.84375 38.5 40.796875 
Q 34.125 45.75 27.640625 45.75 
Q 21.046875 45.75 16.703125 40.8125 
Q 12.359375 35.890625 12.359375 25.921875 
z
" id="ArialMT-111"/>
      <path d="M 6.59375 0 
L 6.59375 51.859375 
L 14.5 51.859375 
L 14.5 44.484375 
Q 20.21875 53.03125 31 53.03125 
Q 35.6875 53.03125 39.625 51.34375 
Q 43.5625 49.65625 45.515625 46.921875 
Q 47.46875 44.1875 48.25 40.4375 
Q 48.734375 37.984375 48.734375 31.890625 
L 48.734375 0 
L 39.9375 0 
L 39.9375 31.546875 
Q 39.9375 36.921875 38.90625 39.578125 
Q 37.890625 42.234375 35.28125 43.8125 
Q 32.671875 45.40625 29.15625 45.40625 
Q 23.53125 45.40625 19.453125 41.84375 
Q 15.375 38.28125 15.375 28.328125 
L 15.375 0 
z
" id="ArialMT-110"/>
      <path id="ArialMT-32"/>
      <path d="M 8.6875 0 
L 8.6875 45.015625 
L 0.921875 45.015625 
L 0.921875 51.859375 
L 8.6875 51.859375 
L 8.6875 57.375 
Q 8.6875 62.59375 9.625 65.140625 
Q 10.890625 68.5625 14.078125 70.671875 
Q 17.28125 72.796875 23.046875 72.796875 
Q 26.765625 72.796875 31.25 71.921875 
L 29.9375 64.265625 
Q 27.203125 64.75 24.75 64.75 
Q 20.75 64.75 19.09375 63.03125 
Q 17.4375 61.328125 17.4375 56.640625 
L 17.4375 51.859375 
L 27.546875 51.859375 
L 27.546875 45.015625 
L 17.4375 45.015625 
L 17.4375 0 
z
" id="ArialMT-102"/>
      <path d="M 6.59375 -19.875 
L 6.59375 51.859375 
L 14.59375 51.859375 
L 14.59375 45.125 
Q 17.4375 49.078125 21 51.046875 
Q 24.5625 53.03125 29.640625 53.03125 
Q 36.28125 53.03125 41.359375 49.609375 
Q 46.4375 46.1875 49.015625 39.953125 
Q 51.609375 33.734375 51.609375 26.3125 
Q 51.609375 18.359375 48.75 11.984375 
Q 45.90625 5.609375 40.453125 2.21875 
Q 35.015625 -1.171875 29 -1.171875 
Q 24.609375 -1.171875 21.109375 0.6875 
Q 17.625 2.546875 15.375 5.375 
L 15.375 -19.875 
z
M 14.546875 25.640625 
Q 14.546875 15.625 18.59375 10.84375 
Q 22.65625 6.0625 28.421875 6.0625 
Q 34.28125 6.0625 38.453125 11.015625 
Q 42.625 15.96875 42.625 26.375 
Q 42.625 36.28125 38.546875 41.203125 
Q 34.46875 46.140625 28.8125 46.140625 
Q 23.1875 46.140625 18.859375 40.890625 
Q 14.546875 35.640625 14.546875 25.640625 
z
" id="ArialMT-112"/>
      <path d="M 42.09375 16.703125 
L 51.171875 15.578125 
Q 49.03125 7.625 43.21875 3.21875 
Q 37.40625 -1.171875 28.375 -1.171875 
Q 17 -1.171875 10.328125 5.828125 
Q 3.65625 12.84375 3.65625 25.484375 
Q 3.65625 38.578125 10.390625 45.796875 
Q 17.140625 53.03125 27.875 53.03125 
Q 38.28125 53.03125 44.875 45.953125 
Q 51.46875 38.875 51.46875 26.03125 
Q 51.46875 25.25 51.421875 23.6875 
L 12.75 23.6875 
Q 13.234375 15.140625 17.578125 10.59375 
Q 21.921875 6.0625 28.421875 6.0625 
Q 33.25 6.0625 36.671875 8.59375 
Q 40.09375 11.140625 42.09375 16.703125 
z
M 13.234375 30.90625 
L 42.1875 30.90625 
Q 41.609375 37.453125 38.875 40.71875 
Q 34.671875 45.796875 27.984375 45.796875 
Q 21.921875 45.796875 17.796875 41.75 
Q 13.671875 37.703125 13.234375 30.90625 
z
" id="ArialMT-101"/>
      <path d="M 3.078125 15.484375 
L 11.765625 16.84375 
Q 12.5 11.625 15.84375 8.84375 
Q 19.1875 6.0625 25.203125 6.0625 
Q 31.25 6.0625 34.171875 8.515625 
Q 37.109375 10.984375 37.109375 14.3125 
Q 37.109375 17.28125 34.515625 19 
Q 32.71875 20.171875 25.53125 21.96875 
Q 15.875 24.421875 12.140625 26.203125 
Q 8.40625 27.984375 6.46875 31.125 
Q 4.546875 34.28125 4.546875 38.09375 
Q 4.546875 41.546875 6.125 44.5 
Q 7.71875 47.46875 10.453125 49.421875 
Q 12.5 50.921875 16.03125 51.96875 
Q 19.578125 53.03125 23.640625 53.03125 
Q 29.734375 53.03125 34.34375 51.265625 
Q 38.96875 49.515625 41.15625 46.5 
Q 43.359375 43.5 44.1875 38.484375 
L 35.59375 37.3125 
Q 35.015625 41.3125 32.203125 43.546875 
Q 29.390625 45.796875 24.265625 45.796875 
Q 18.21875 45.796875 15.625 43.796875 
Q 13.03125 41.796875 13.03125 39.109375 
Q 13.03125 37.40625 14.109375 36.03125 
Q 15.1875 34.625 17.484375 33.6875 
Q 18.796875 33.203125 25.25 31.453125 
Q 34.578125 28.953125 38.25 27.359375 
Q 41.9375 25.78125 44.03125 22.75 
Q 46.140625 19.734375 46.140625 15.234375 
Q 46.140625 10.84375 43.578125 6.953125 
Q 41.015625 3.078125 36.171875 0.953125 
Q 31.34375 -1.171875 25.25 -1.171875 
Q 15.140625 -1.171875 9.84375 3.03125 
Q 4.546875 7.234375 3.078125 15.484375 
z
" id="ArialMT-115"/>
     </defs>
     <g transform="translate(23.830312 265.712344)rotate(-90)scale(0.14 -0.14)">
      <use xlink:href="#ArialMT-70"/>
      <use x="61.083984" xlink:href="#ArialMT-114"/>
      <use x="94.384766" xlink:href="#ArialMT-97"/>
      <use x="150" xlink:href="#ArialMT-99"/>
      <use x="200" xlink:href="#ArialMT-116"/>
      <use x="227.783203" xlink:href="#ArialMT-105"/>
      <use x="250" xlink:href="#ArialMT-111"/>
      <use x="305.615234" xlink:href="#ArialMT-110"/>
      <use x="361.230469" xlink:href="#ArialMT-32"/>
      <use x="389.013672" xlink:href="#ArialMT-111"/>
      <use x="444.628906" xlink:href="#ArialMT-102"/>
      <use x="472.412109" xlink:href="#ArialMT-32"/>
      <use x="500.195312" xlink:href="#ArialMT-112"/>
      <use x="555.810547" xlink:href="#ArialMT-97"/>
      <use x="611.425781" xlink:href="#ArialMT-112"/>
      <use x="667.041016" xlink:href="#ArialMT-101"/>
      <use x="722.65625" xlink:href="#ArialMT-114"/>
      <use x="755.957031" xlink:href="#ArialMT-115"/>
     </g>
    </g>
   </g>
   <g id="line2d_23">
    <path clip-path="url(#p704caee923)" d="M 45.997046 382.055238 
L 53.715544 382.055238 
L 55.228562 378.18614 
L 56.741581 297.625986 
L 58.278767 297.809448 
L 59.815952 291.566471 
L 61.354188 262.913695 
L 62.892423 260.367734 
L 64.455876 256.820557 
L 65.994112 245.029215 
L 67.533399 277.371446 
L 69.072685 235.836796 
L 70.610921 247.537821 
L 72.174374 249.118358 
L 73.662176 222.355726 
L 75.149978 246.391141 
L 76.687163 235.319407 
L 78.224348 240.188301 
L 79.762584 233.398316 
L 81.30082 218.392381 
L 82.864272 211.795948 
L 84.402508 222.189199 
L 87.481081 237.593457 
L 89.019317 255.105013 
L 90.58277 224.398357 
L 92.070572 212.854096 
L 93.558374 218.4959 
L 95.095559 230.791082 
L 96.632744 210.240591 
L 98.17098 211.612696 
L 99.709216 218.4959 
L 101.272669 206.478227 
L 102.810905 197.039542 
L 104.350191 227.330654 
L 105.889478 232.178016 
L 107.427714 256.405426 
L 108.991166 205.238976 
L 110.478968 203.105589 
L 111.96677 208.641132 
L 113.503955 204.175203 
L 115.04114 211.553929 
L 116.579376 206.702177 
L 118.117612 197.845962 
L 119.681065 215.101805 
L 121.219301 225.938045 
L 122.758587 220.961967 
L 124.297874 211.981925 
L 125.83611 218.244537 
L 127.399563 221.86433 
L 128.912582 206.249068 
L 130.4256 209.503344 
L 131.962786 205.881026 
L 133.499971 211.871315 
L 135.038207 196.496443 
L 136.576442 222.162975 
L 138.139895 221.473808 
L 139.678131 207.615341 
L 141.217418 199.544748 
L 142.756704 216.00955 
L 144.29494 212.964467 
L 145.858393 216.901827 
L 147.346195 211.082227 
L 148.833997 214.820374 
L 150.371182 208.867029 
L 151.908367 219.0532 
L 153.446603 194.669113 
L 154.984839 214.100197 
L 156.548292 193.245612 
L 158.086527 233.705865 
L 159.625814 220.914905 
L 161.1651 205.195958 
L 162.703336 205.799489 
L 164.266789 218.41666 
L 165.754591 214.434673 
L 167.242393 222.236666 
L 168.779578 218.763499 
L 170.316763 208.738742 
L 171.854999 210.587049 
L 173.393235 200.819901 
L 174.956688 206.428722 
L 176.494924 215.390342 
L 178.03421 213.384983 
L 179.573497 213.211478 
L 181.111733 207.927565 
L 182.675185 193.590166 
L 184.162987 205.826506 
L 185.650789 216.703935 
L 187.187974 205.284583 
L 188.72516 204.575138 
L 190.263395 203.60851 
L 191.801631 200.610829 
L 193.365084 210.157372 
L 194.90332 222.09828 
L 196.442606 214.492888 
L 197.981893 216.94673 
L 199.520129 220.175201 
L 201.083582 210.391086 
L 202.596601 220.366247 
L 204.109619 218.492849 
L 205.646805 211.764731 
L 207.18399 215.544165 
L 208.722226 200.207619 
L 210.260461 215.762813 
L 211.823914 215.625135 
L 213.36215 204.880363 
L 214.901437 225.407476 
L 216.440723 227.968233 
L 217.978959 206.514473 
L 219.542412 203.188728 
L 221.030214 205.692582 
L 222.518016 207.46583 
L 224.055201 215.534184 
L 225.592386 231.304238 
L 227.130622 217.659406 
L 228.668858 215.860815 
L 230.232311 223.072126 
L 231.770546 216.499052 
L 233.309833 234.812435 
L 234.84912 207.664132 
L 236.387355 212.580756 
L 237.950808 221.135334 
L 239.43861 218.681735 
L 240.926412 225.517405 
L 242.463597 209.403216 
L 244.000782 229.077588 
L 245.539018 223.640592 
L 247.077254 216.963704 
L 248.640707 220.27499 
L 250.178943 228.111823 
L 251.718229 214.479204 
L 253.257516 204.350983 
L 254.795752 219.737029 
L 256.359204 221.372781 
L 257.847006 220.41291 
L 259.334808 229.270024 
L 260.871993 218.349187 
L 262.409179 222.029333 
L 263.947414 228.559234 
L 265.48565 216.829888 
L 267.049103 215.327533 
L 268.587339 239.73971 
L 270.126626 221.075379 
L 271.665912 214.49067 
L 273.204148 221.406613 
L 274.767601 235.827256 
L 276.28062 219.123211 
L 277.793638 223.727343 
L 279.330824 220.318823 
L 280.868009 228.939914 
L 282.406245 221.244893 
L 283.94448 210.388277 
L 285.507933 225.785415 
L 287.046169 236.035213 
L 288.585456 220.481171 
L 290.124742 215.850425 
L 291.662978 215.768405 
L 294.714233 229.821481 
L 296.202035 221.920768 
L 297.73922 224.850521 
L 299.276405 240.401406 
L 300.814641 230.456245 
L 302.352877 227.618473 
L 303.91633 218.990971 
L 305.454565 228.495026 
L 306.993852 218.084165 
L 308.533139 221.816568 
L 310.071374 221.417976 
L 311.634827 222.263395 
L 313.122629 231.213895 
L 314.610431 226.243967 
L 316.147616 222.83382 
L 317.684801 231.723379 
L 319.223037 223.032114 
L 320.761273 221.539744 
L 322.324726 207.041141 
L 323.862962 228.154727 
L 325.402248 226.663245 
L 326.941535 220.794142 
L 328.479771 220.160569 
L 330.043224 228.199667 
L 331.531025 214.755429 
L 333.017777 221.937838 
L 334.554962 233.448582 
L 336.093198 232.356563 
L 337.631433 234.064086 
L 339.169669 221.84005 
L 340.733122 230.547358 
L 342.271358 214.483507 
L 343.809594 231.79833 
L 345.34888 223.281452 
L 346.888167 229.008531 
L 348.45162 226.985181 
L 349.964639 212.482333 
L 351.476607 222.627189 
L 353.013792 226.080248 
L 354.552028 226.86061 
L 356.090264 230.319297 
L 357.6285 225.782392 
L 359.191952 236.800041 
L 360.730188 224.412592 
L 362.268424 236.783202 
L 363.807711 215.9582 
L 365.346997 218.053168 
L 366.91045 227.3567 
L 368.398252 224.812794 
L 369.885003 222.810148 
L 371.422188 227.154986 
L 372.960424 236.985789 
L 374.49866 234.228494 
L 376.036896 224.862391 
L 377.600349 223.312964 
L 379.138584 214.918184 
L 380.67682 233.792089 
L 382.216107 227.229153 
L 383.755393 229.093702 
L 385.318846 212.735743 
L 386.806648 238.698044 
L 388.293399 231.010698 
L 389.830585 229.696422 
L 391.36882 229.58648 
L 392.907056 236.052582 
L 394.445292 227.499595 
L 396.008745 225.055379 
L 397.546981 228.124853 
L 399.085217 230.387674 
L 400.624503 230.090858 
L 402.16379 239.73971 
L 403.727243 228.172548 
L 405.215044 221.629881 
L 406.701796 229.44116 
L 408.238981 233.499238 
L 409.777217 226.226252 
L 411.315452 234.832674 
L 412.853688 231.588403 
L 414.417141 232.216155 
L 415.955377 236.577143 
L 417.493613 232.382493 
L 419.032899 230.364394 
L 420.572186 224.307906 
L 422.135639 240.716763 
L 423.648658 234.561703 
L 425.160626 230.135519 
L 426.697811 236.637608 
L 428.236047 236.781036 
L 429.774283 222.24171 
L 431.312519 230.558063 
L 432.875971 234.619005 
L 434.414207 227.628003 
L 435.952443 235.125366 
L 437.49173 236.319203 
L 439.031016 236.226955 
L 440.594469 237.566042 
L 442.082271 228.670725 
L 443.569022 225.517062 
L 445.106207 225.742467 
L 446.644443 226.6607 
L 448.182679 227.076533 
L 449.720915 222.437488 
L 451.284368 228.966268 
L 452.822604 226.263805 
L 454.360839 234.36174 
L 455.900126 241.821651 
L 457.439412 228.346276 
L 459.002865 226.830471 
L 460.490667 224.327024 
L 461.977418 229.255488 
L 463.514604 227.62383 
L 465.052839 228.683393 
L 466.591075 243.304454 
L 468.129311 226.969114 
L 469.692764 235.258972 
L 471.231 227.024473 
L 472.769236 236.143024 
L 474.308522 233.153577 
L 475.847809 243.028006 
L 477.411262 234.654525 
L 478.899063 237.803444 
L 480.385815 233.692308 
L 481.923 232.348128 
L 483.461236 234.24472 
L 486.537707 226.917632 
L 488.10116 237.600835 
L 489.639396 231.225106 
L 491.177632 226.349648 
L 492.716918 242.967654 
L 494.256205 232.342853 
L 495.819658 225.935256 
L 497.332677 235.306087 
L 498.844645 240.559208 
L 500.38183 232.868226 
L 501.920066 236.474259 
L 504.996538 226.544171 
L 506.55999 227.376703 
L 508.098226 229.297723 
L 509.636462 237.787779 
L 511.175749 232.140195 
L 512.715035 234.403124 
L 514.278488 233.408714 
L 515.76629 241.083102 
L 517.253041 233.854566 
L 518.790226 223.90205 
L 520.328462 237.68164 
L 521.866698 241.913212 
L 523.404934 240.698829 
L 524.968387 242.451987 
L 526.506623 234.023943 
L 528.044858 246.281618 
L 529.584145 231.861766 
L 531.123432 229.87227 
L 532.686884 231.98247 
L 534.174686 242.19759 
L 535.661437 237.39378 
L 537.198623 238.904792 
L 538.736858 232.312628 
L 540.275094 246.091771 
L 541.81333 229.569062 
L 543.376783 234.106543 
L 544.915019 232.519985 
L 546.453255 237.625805 
L 547.992541 232.769269 
L 549.531828 235.855694 
L 551.095281 225.852796 
L 552.583083 229.964502 
L 554.069834 238.923564 
L 555.607019 236.254336 
L 558.683491 242.869448 
L 558.683491 242.869448 
" style="fill:none;stroke:#0072bd;stroke-linecap:square;stroke-width:1.5;"/>
   </g>
   <g id="line2d_24">
    <path clip-path="url(#p704caee923)" d="M 45.997046 18.36 
L 53.715544 18.36 
L 55.228562 22.229098 
L 56.741581 106.036531 
L 58.278767 172.468152 
L 59.815952 166.274331 
L 61.354188 192.36936 
L 62.892423 198.840344 
L 64.455876 207.069793 
L 65.994112 193.804534 
L 67.533399 175.925296 
L 69.072685 232.135064 
L 70.610921 204.691533 
L 72.174374 183.904039 
L 73.662176 201.373309 
L 75.149978 187.699582 
L 76.687163 192.346771 
L 78.224348 189.460124 
L 79.762584 197.870246 
L 81.30082 204.95147 
L 82.864272 213.578768 
L 84.402508 203.205107 
L 85.941795 206.121363 
L 87.481081 220.170931 
L 89.019317 211.873315 
L 90.58277 213.554233 
L 92.070572 216.342779 
L 93.558374 210.904538 
L 95.095559 195.248139 
L 96.632744 220.900624 
L 98.17098 219.216081 
L 99.709216 215.045281 
L 101.272669 224.183471 
L 102.810905 229.353927 
L 104.350191 201.440484 
L 105.889478 225.528174 
L 107.427714 224.065178 
L 108.991166 235.427118 
L 110.478968 232.085289 
L 111.96677 225.508157 
L 113.503955 224.67439 
L 115.04114 226.886781 
L 116.579376 229.433129 
L 118.117612 239.76538 
L 119.681065 229.649615 
L 121.219301 245.019036 
L 122.758587 220.467816 
L 125.83611 218.244537 
L 127.399563 214.989184 
L 128.912582 228.60243 
L 130.4256 224.608897 
L 131.962786 223.797047 
L 133.499971 232.547866 
L 135.038207 235.198706 
L 136.576442 236.004394 
L 138.139895 262.704175 
L 139.678131 240.113733 
L 141.217418 239.758924 
L 142.756704 221.527685 
L 144.29494 223.470107 
L 145.858393 215.113162 
L 147.346195 218.331966 
L 148.833997 225.103424 
L 150.371182 229.974342 
L 151.908367 222.969165 
L 153.446603 241.746415 
L 154.984839 234.420683 
L 156.548292 256.739115 
L 158.086527 256.436817 
L 159.625814 239.73971 
L 161.1651 247.370094 
L 162.703336 235.771914 
L 164.266789 233.955041 
L 165.754591 238.232655 
L 167.242393 224.396376 
L 168.779578 225.691027 
L 170.316763 237.475156 
L 171.854999 240.894986 
L 173.393235 248.169673 
L 174.956688 250.454987 
L 176.494924 274.395927 
L 178.03421 247.269632 
L 179.573497 238.806376 
L 181.111733 233.660719 
L 182.675185 256.058926 
L 184.162987 243.115484 
L 185.650789 246.203228 
L 187.187974 237.130993 
L 188.72516 253.411944 
L 190.263395 245.219406 
L 191.801631 254.237732 
L 193.365084 259.271048 
L 194.90332 268.982216 
L 196.442606 245.379958 
L 197.981893 240.153226 
L 199.520129 240.499346 
L 201.083582 253.203211 
L 202.596601 242.624731 
L 204.109619 227.735933 
L 205.646805 239.596144 
L 207.18399 233.071647 
L 208.722226 245.868047 
L 210.260461 245.021391 
L 211.823914 246.064845 
L 213.36215 253.165384 
L 214.901437 254.353258 
L 216.440723 253.233511 
L 217.978959 242.603692 
L 219.542412 247.905355 
L 221.030214 244.931163 
L 222.518016 244.737726 
L 224.055201 233.346137 
L 225.592386 231.642245 
L 227.130622 244.884193 
L 228.668858 243.688718 
L 230.232311 233.756475 
L 231.770546 236.312957 
L 233.309833 268.452177 
L 234.84912 259.403204 
L 237.950808 227.637148 
L 239.43861 238.713908 
L 240.926412 226.368154 
L 242.463597 240.180315 
L 244.000782 235.050685 
L 245.539018 236.034892 
L 247.077254 244.1262 
L 248.640707 247.996925 
L 250.178943 266.362529 
L 251.718229 243.022375 
L 253.257516 254.685176 
L 254.795752 232.863353 
L 256.359204 231.739391 
L 257.847006 230.954801 
L 259.334808 219.305771 
L 260.871993 223.532492 
L 262.409179 246.157408 
L 263.947414 227.114566 
L 265.48565 245.42019 
L 267.049103 251.697057 
L 268.587339 262.37377 
L 270.126626 242.936841 
L 271.665912 242.708404 
L 273.204148 234.655984 
L 274.767601 217.548758 
L 276.28062 232.020205 
L 277.793638 230.993599 
L 279.330824 227.516516 
L 280.868009 232.647306 
L 282.406245 239.429655 
L 283.94448 242.685538 
L 285.507933 265.728823 
L 287.046169 251.99204 
L 288.585456 243.212124 
L 290.124742 251.046738 
L 291.662978 242.313276 
L 293.226431 242.923503 
L 294.714233 222.418015 
L 296.202035 230.063198 
L 297.73922 233.772951 
L 299.276405 225.962861 
L 300.814641 237.929434 
L 302.352877 239.318228 
L 303.91633 239.219197 
L 305.454565 267.662206 
L 306.993852 260.926231 
L 308.533139 234.117047 
L 310.071374 229.215901 
L 311.634827 228.565045 
L 313.122629 214.87275 
L 314.610431 226.243967 
L 316.147616 228.699873 
L 317.684801 235.094048 
L 319.223037 227.896351 
L 320.761273 253.01337 
L 322.324726 253.357236 
L 323.862962 246.530907 
L 325.402248 252.561911 
L 326.941535 226.720565 
L 328.479771 232.489221 
L 330.043224 218.936111 
L 331.531025 238.716527 
L 333.017777 227.656316 
L 334.554962 220.847432 
L 336.093198 220.815917 
L 337.631433 226.734335 
L 339.169669 243.47248 
L 340.733122 225.204511 
L 342.271358 247.45401 
L 343.809594 259.138654 
L 345.34888 239.094288 
L 346.888167 228.003848 
L 348.45162 222.98853 
L 349.964639 234.758667 
L 351.476607 227.609315 
L 353.013792 224.232203 
L 354.552028 231.246545 
L 356.090264 228.63708 
L 357.6285 237.393025 
L 359.191952 236.428544 
L 360.730188 242.411162 
L 362.268424 275.161808 
L 363.807711 235.288459 
L 365.346997 241.945556 
L 366.91045 238.284632 
L 368.398252 229.81072 
L 369.885003 228.632011 
L 371.422188 219.617261 
L 372.960424 229.153401 
L 374.49866 227.666091 
L 376.036896 243.988517 
L 377.600349 229.731115 
L 379.138584 248.721184 
L 380.67682 261.642625 
L 382.216107 241.251138 
L 383.755393 230.291052 
L 385.318846 239.690192 
L 386.806648 224.165945 
L 388.293399 220.378163 
L 389.830585 229.368769 
L 391.36882 236.516879 
L 392.907056 235.178315 
L 394.445292 234.322588 
L 396.008745 240.565446 
L 397.546981 243.548739 
L 399.085217 247.01228 
L 400.624503 255.109384 
L 402.16379 240.869198 
L 403.727243 253.87005 
L 405.215044 251.266694 
L 406.701796 243.833058 
L 408.238981 243.549539 
L 409.777217 241.780869 
L 411.315452 240.911883 
L 412.853688 244.998994 
L 414.417141 244.795928 
L 415.955377 261.597312 
L 417.493613 265.749028 
L 419.032899 269.13739 
L 420.572186 259.119431 
L 422.135639 251.952877 
L 423.648658 259.602014 
L 425.160626 245.812038 
L 426.697811 234.823666 
L 428.236047 243.152712 
L 429.774283 255.691053 
L 431.312519 246.880991 
L 432.875971 259.383685 
L 434.414207 256.003325 
L 435.952443 251.144977 
L 437.49173 257.728213 
L 439.031016 255.987563 
L 440.594469 253.498311 
L 442.082271 248.594899 
L 445.106207 246.339637 
L 446.644443 247.158375 
L 448.182679 238.655401 
L 449.720915 259.365796 
L 451.284368 247.848209 
L 452.822604 250.819372 
L 454.360839 265.746609 
L 455.900126 259.379352 
L 457.439412 245.452596 
L 459.002865 243.67657 
L 460.490667 246.859626 
L 461.977418 243.580465 
L 463.514604 234.775885 
L 465.052839 239.014139 
L 466.591075 222.281607 
L 468.129311 244.984168 
L 469.692764 244.546083 
L 471.231 251.3064 
L 474.308522 267.389235 
L 475.847809 230.126279 
L 477.411262 244.908488 
L 478.899063 232.96278 
L 480.385815 248.116482 
L 481.923 241.088092 
L 483.461236 241.025019 
L 484.999472 239.830982 
L 486.537707 249.602848 
L 488.10116 239.30699 
L 489.639396 257.255467 
L 491.177632 262.581582 
L 492.716918 247.431613 
L 494.256205 249.733686 
L 495.819658 248.446939 
L 497.332677 245.127881 
L 498.844645 237.904498 
L 500.38183 238.127138 
L 501.920066 241.875673 
L 503.458302 246.41374 
L 504.996538 245.857642 
L 506.55999 241.887464 
L 508.098226 251.632306 
L 509.636462 241.066585 
L 511.175749 261.943933 
L 512.715035 240.517552 
L 514.278488 251.610329 
L 515.76629 241.72681 
L 517.253041 243.357902 
L 518.790226 247.596481 
L 521.866698 225.343313 
L 523.404934 230.539744 
L 524.968387 242.451987 
L 526.506623 248.419647 
L 528.044858 263.865415 
L 529.584145 245.833252 
L 531.123432 240.458911 
L 532.686884 244.513397 
L 534.174686 227.492931 
L 535.661437 240.018686 
L 537.198623 225.811764 
L 538.736858 246.850746 
L 540.275094 231.172384 
L 541.81333 246.726777 
L 543.376783 242.150356 
L 544.915019 239.76491 
L 546.453255 241.200791 
L 547.992541 252.024995 
L 549.531828 244.767712 
L 551.095281 262.863449 
L 552.583083 247.913098 
L 554.069834 235.273576 
L 555.607019 234.102294 
L 557.145255 232.030952 
L 558.683491 227.516223 
L 558.683491 227.516223 
" style="fill:none;stroke:#d95319;stroke-linecap:square;stroke-width:1.5;"/>
   </g>
   <g id="line2d_25">
    <path clip-path="url(#p704caee923)" d="M 45.997046 382.055238 
L 92.070572 382.055238 
L 93.558374 375.844124 
L 95.095559 377.922338 
L 96.632744 374.530509 
L 98.17098 373.184623 
L 99.709216 379.294743 
L 101.272669 377.628927 
L 102.810905 376.986315 
L 104.350191 375.274479 
L 105.889478 380.009133 
L 107.427714 369.861374 
L 110.478968 375.534806 
L 111.96677 372.040442 
L 113.503955 373.458805 
L 115.04114 370.402271 
L 116.579376 372.854615 
L 118.117612 369.656537 
L 119.681065 366.121923 
L 121.219301 373.382061 
L 122.758587 374.14882 
L 124.297874 371.589188 
L 125.83611 372.001874 
L 127.399563 373.117548 
L 128.912582 371.784775 
L 130.4256 373.340496 
L 131.962786 372.500027 
L 133.499971 370.92171 
L 135.038207 369.861374 
L 136.576442 370.12298 
L 138.139895 371.639145 
L 139.678131 362.938537 
L 141.217418 369.239732 
L 142.756704 368.009077 
L 144.29494 370.048793 
L 145.858393 365.957252 
L 147.346195 369.97234 
L 148.833997 363.112778 
L 150.371182 365.27763 
L 151.908367 365.412387 
L 153.446603 362.670467 
L 154.984839 355.928898 
L 156.548292 355.321132 
L 158.086527 362.514595 
L 159.625814 363.230433 
L 161.1651 364.36931 
L 162.703336 358.793058 
L 164.266789 356.805368 
L 165.754591 359.809299 
L 167.242393 358.730365 
L 168.779578 364.736417 
L 170.316763 359.604915 
L 171.854999 356.314251 
L 173.393235 360.013102 
L 174.956688 358.606466 
L 176.494924 365.147205 
L 178.03421 356.077007 
L 179.573497 353.570594 
L 181.111733 359.753172 
L 182.675185 349.762066 
L 184.162987 359.57969 
L 185.650789 342.075932 
L 187.187974 352.516539 
L 188.72516 348.703273 
L 190.263395 355.248218 
L 191.801631 344.959937 
L 193.365084 347.760344 
L 194.90332 356.200126 
L 196.442606 348.079462 
L 197.981893 348.196581 
L 199.520129 349.964482 
L 201.083582 342.568327 
L 202.596601 340.478069 
L 204.109619 357.540973 
L 205.646805 356.58242 
L 207.18399 352.975553 
L 208.722226 356.644217 
L 211.823914 340.151222 
L 213.36215 345.841472 
L 214.901437 345.277068 
L 216.440723 336.515354 
L 217.978959 351.572111 
L 221.030214 344.504338 
L 222.518016 352.630057 
L 224.055201 348.502488 
L 225.592386 337.100343 
L 227.130622 334.586378 
L 228.668858 336.834895 
L 230.232311 348.292695 
L 231.770546 353.435153 
L 233.309833 347.864025 
L 234.84912 340.663981 
L 236.387355 349.060206 
L 237.950808 351.17162 
L 239.43861 345.552166 
L 240.926412 352.27902 
L 242.463597 353.530121 
L 244.000782 333.938624 
L 245.539018 340.224476 
L 247.077254 335.843719 
L 248.640707 354.333303 
L 250.178943 346.626305 
L 251.718229 347.680667 
L 253.257516 343.997677 
L 254.795752 347.798732 
L 256.359204 352.251234 
L 257.847006 349.99032 
L 259.334808 354.653542 
L 260.871993 355.706771 
L 262.409179 329.896019 
L 263.947414 348.466701 
L 265.48565 337.507558 
L 267.049103 336.695495 
L 268.587339 346.398842 
L 270.126626 346.61317 
L 271.665912 348.960365 
L 273.204148 347.938107 
L 274.767601 350.185037 
L 276.28062 351.532352 
L 277.793638 347.253696 
L 279.330824 349.877312 
L 280.868009 337.195785 
L 282.406245 342.120075 
L 283.94448 350.811149 
L 285.507933 313.730988 
L 287.046169 350.442655 
L 288.585456 340.893784 
L 290.124742 335.12682 
L 291.662978 343.305829 
L 293.226431 336.898447 
L 294.714233 344.112478 
L 296.202035 350.64872 
L 297.73922 339.142599 
L 299.276405 333.27637 
L 300.814641 333.657437 
L 302.352877 333.584825 
L 303.91633 344.075713 
L 305.454565 353.45698 
L 306.993852 344.452849 
L 308.533139 354.794718 
L 310.071374 350.863537 
L 311.634827 351.447223 
L 313.122629 353.562984 
L 314.610431 349.102985 
L 316.147616 346.858925 
L 317.684801 330.483995 
L 319.223037 344.638033 
L 320.761273 329.249487 
L 323.862962 348.365574 
L 325.402248 345.295842 
L 326.941535 354.918458 
L 328.479771 346.367035 
L 330.043224 349.431413 
L 331.531025 348.252975 
L 333.017777 349.269294 
L 334.554962 345.98988 
L 336.093198 344.795436 
L 337.631433 340.17095 
L 339.169669 334.058283 
L 340.733122 345.418572 
L 342.271358 348.744833 
L 343.809594 346.443891 
L 345.34888 345.911612 
L 346.888167 344.547074 
L 348.45162 349.682365 
L 349.964639 349.777286 
L 351.476607 354.653542 
L 353.013792 348.79043 
L 354.552028 337.858507 
L 356.090264 344.710029 
L 357.6285 336.554108 
L 359.191952 329.674208 
L 360.730188 340.162015 
L 362.268424 306.328326 
L 363.807711 354.491721 
L 365.346997 347.249043 
L 366.91045 334.587033 
L 368.398252 345.531932 
L 369.885003 346.781594 
L 371.422188 348.889247 
L 372.960424 333.017678 
L 374.49866 337.499981 
L 376.036896 333.343386 
L 377.600349 344.829961 
L 379.138584 338.236535 
L 380.67682 327.446343 
L 382.216107 349.045148 
L 383.755393 347.930747 
L 385.318846 345.609786 
L 386.806648 343.172054 
L 388.293399 348.281304 
L 389.830585 345.685714 
L 391.36882 334.446417 
L 392.907056 327.559237 
L 394.445292 337.2608 
L 396.008745 336.474634 
L 397.546981 333.624235 
L 400.624503 338.041165 
L 402.16379 330.324673 
L 403.727243 323.404468 
L 405.215044 333.090069 
L 406.701796 329.88461 
L 408.238981 327.720803 
L 409.777217 332.563273 
L 411.315452 322.056096 
L 412.853688 317.684399 
L 414.417141 324.74738 
L 415.955377 302.867693 
L 417.493613 308.64886 
L 419.032899 324.689343 
L 420.572186 324.847486 
L 422.135639 309.907565 
L 423.648658 309.682634 
L 425.160626 325.049715 
L 426.697811 331.869528 
L 428.236047 322.671222 
L 429.774283 322.324268 
L 431.312519 319.824075 
L 432.875971 314.09635 
L 434.414207 316.573725 
L 435.952443 322.482309 
L 437.49173 324.792584 
L 439.031016 321.522743 
L 440.594469 319.699635 
L 442.082271 327.026567 
L 443.569022 327.63262 
L 445.106207 330.985542 
L 446.644443 324.440151 
L 448.182679 332.770822 
L 449.720915 318.159548 
L 451.284368 320.761552 
L 452.822604 327.48731 
L 454.360839 312.823911 
L 455.900126 333.25851 
L 457.439412 335.446714 
L 459.002865 337.232583 
L 460.490667 330.008101 
L 461.977418 330.060879 
L 463.514604 334.109981 
L 465.052839 328.282381 
L 466.591075 335.204324 
L 468.129311 325.399196 
L 469.692764 318.842969 
L 471.231 318.548659 
L 472.769236 320.555049 
L 474.308522 319.446193 
L 475.847809 334.674758 
L 477.411262 328.54237 
L 478.899063 333.003174 
L 480.385815 323.07067 
L 481.923 324.822577 
L 484.999472 329.311556 
L 486.537707 324.000599 
L 488.10116 328.880094 
L 489.639396 315.398051 
L 491.177632 319.222643 
L 492.716918 329.427503 
L 494.256205 322.69957 
L 495.819658 325.045132 
L 497.332677 322.257848 
L 498.844645 322.058797 
L 500.38183 327.528631 
L 501.920066 320.839208 
L 503.458302 323.294513 
L 504.996538 326.873892 
L 506.55999 329.260768 
L 508.098226 323.599294 
L 509.636462 331.359855 
L 511.175749 322.67185 
L 512.715035 334.045655 
L 514.278488 326.776258 
L 515.76629 324.121483 
L 517.253041 322.466753 
L 518.790226 329.8133 
L 520.328462 325.778462 
L 521.866698 336.558228 
L 523.404934 328.357218 
L 524.968387 315.433296 
L 526.506623 319.854932 
L 528.044858 318.620022 
L 529.584145 332.28182 
L 531.123432 330.445362 
L 532.686884 322.384157 
L 534.174686 331.079086 
L 535.661437 322.265724 
L 537.198623 333.465554 
L 538.736858 319.299031 
L 540.275094 318.999717 
L 541.81333 327.19888 
L 543.376783 324.886713 
L 544.915019 328.73259 
L 546.453255 327.715452 
L 547.992541 330.778753 
L 549.531828 327.734362 
L 551.095281 314.736648 
L 552.583083 321.281921 
L 554.069834 329.391125 
L 555.607019 333.90328 
L 557.145255 326.304586 
L 558.683491 326.431261 
L 558.683491 326.431261 
" style="fill:none;stroke:#edb120;stroke-linecap:square;stroke-width:1.5;"/>
   </g>
   <g id="line2d_26">
    <path clip-path="url(#p704caee923)" d="M 45.997046 382.055238 
L 55.228562 382.055238 
L 56.741581 378.807959 
L 58.278767 312.192876 
L 59.815952 324.629674 
L 61.354188 327.187422 
L 62.892423 323.262399 
L 64.455876 318.580126 
L 65.994112 343.636727 
L 69.072685 314.498616 
L 70.610921 330.241122 
L 72.174374 349.448079 
L 73.662176 358.741441 
L 75.149978 348.379753 
L 76.687163 354.804298 
L 78.224348 352.822051 
L 79.762584 351.201915 
L 81.30082 359.126625 
L 82.864272 357.095761 
L 84.402508 357.07617 
L 85.941795 346.572776 
L 87.481081 324.706089 
L 89.019317 315.492147 
L 90.58277 344.517886 
L 92.070572 353.273601 
L 93.558374 359.281153 
L 95.095559 360.564156 
L 96.632744 358.85399 
L 98.17098 360.512315 
L 99.709216 351.689791 
L 101.272669 356.235089 
L 102.810905 361.14593 
L 104.350191 360.480097 
L 105.889478 326.810392 
L 107.427714 314.193736 
L 108.991166 351.148331 
L 110.478968 353.80003 
L 111.96677 358.335983 
L 113.503955 362.217316 
L 115.04114 355.682733 
L 116.579376 355.535794 
L 118.117612 357.257835 
L 119.681065 353.652372 
L 121.219301 320.186573 
L 122.758587 348.947112 
L 124.297874 361.646441 
L 125.83611 356.034766 
L 127.399563 354.554653 
L 128.912582 357.889442 
L 130.4256 357.072977 
L 131.962786 362.347614 
L 133.499971 349.184823 
L 135.038207 362.969191 
L 138.139895 308.708585 
L 139.678131 353.858104 
L 141.217418 355.982311 
L 142.756704 358.979402 
L 144.29494 358.042348 
L 145.858393 366.553474 
L 147.346195 365.139181 
L 148.833997 361.489138 
L 150.371182 360.406712 
L 151.908367 357.090962 
L 153.446603 365.43972 
L 154.984839 360.075936 
L 156.548292 359.219856 
L 158.086527 311.868438 
L 159.625814 340.640666 
L 161.1651 347.590353 
L 162.703336 364.161253 
L 164.266789 355.348645 
L 165.754591 352.049088 
L 167.242393 359.162307 
L 168.779578 355.334772 
L 170.316763 358.706902 
L 171.854999 356.729428 
L 173.393235 355.523038 
L 174.956688 349.035539 
L 176.494924 309.59224 
L 178.03421 347.794092 
L 179.573497 358.937266 
L 181.111733 363.184259 
L 182.675185 365.114557 
L 184.162987 356.004034 
L 185.650789 359.542619 
L 187.187974 369.593599 
L 188.72516 357.835359 
L 190.263395 360.44958 
L 191.801631 364.717217 
L 193.365084 347.33695 
L 194.90332 317.245091 
L 196.442606 356.573406 
L 197.981893 359.229177 
L 199.520129 353.886685 
L 201.083582 358.363091 
L 202.596601 361.056668 
L 204.109619 360.755959 
L 205.646805 356.58242 
L 207.18399 362.934349 
L 208.722226 361.805831 
L 210.260461 355.389192 
L 211.823914 362.684513 
L 213.36215 360.638495 
L 214.901437 339.487912 
L 216.440723 346.808616 
L 217.978959 363.835438 
L 219.542412 365.446205 
L 221.030214 369.397631 
L 222.518016 359.6921 
L 224.055201 367.142905 
L 225.592386 364.478888 
L 227.130622 367.395737 
L 228.668858 368.141286 
L 230.232311 359.404418 
L 231.770546 358.278552 
L 233.309833 313.397077 
L 234.84912 356.794397 
L 236.387355 359.183682 
L 237.950808 364.581612 
L 239.43861 361.577905 
L 240.926412 360.361136 
L 242.463597 361.412062 
L 244.000782 366.458818 
L 245.539018 364.625754 
L 247.077254 367.592091 
L 248.640707 341.920496 
L 250.178943 323.425057 
L 251.718229 359.343468 
L 253.257516 361.491879 
L 254.795752 364.1266 
L 256.359204 359.162307 
L 257.847006 363.167683 
L 259.334808 361.296377 
L 260.871993 366.937265 
L 262.409179 366.442955 
L 263.947414 360.385214 
L 265.48565 364.768079 
L 267.049103 360.805629 
L 268.587339 316.013392 
L 270.126626 353.900324 
L 271.665912 358.366276 
L 273.204148 360.52501 
L 274.767601 360.964664 
L 276.28062 361.849947 
L 277.793638 362.551077 
L 279.330824 366.813063 
L 280.868009 365.74271 
L 282.406245 361.731092 
L 283.94448 360.64075 
L 285.507933 359.280488 
L 287.046169 326.055806 
L 288.585456 359.938636 
L 290.124742 362.501731 
L 291.662978 363.138204 
L 293.226431 361.714341 
L 294.714233 368.17374 
L 296.202035 361.893029 
L 297.73922 366.759644 
L 299.276405 364.885077 
L 300.814641 362.482598 
L 302.352877 364.004188 
L 303.91633 362.239834 
L 305.454565 314.911502 
L 306.993852 341.06247 
L 308.533139 353.797381 
L 310.071374 363.0283 
L 311.634827 362.250052 
L 313.122629 364.876085 
L 314.610431 362.934795 
L 316.147616 366.133096 
L 317.684801 367.224292 
L 319.223037 368.959216 
L 320.761273 360.723114 
L 322.324726 365.351073 
L 323.862962 341.474506 
L 325.402248 340.004717 
L 326.941535 362.092549 
L 328.479771 365.508889 
L 330.043224 367.958523 
L 331.531025 362.800784 
L 333.017777 365.662266 
L 334.554962 364.23982 
L 336.093198 366.557798 
L 337.631433 363.556344 
L 339.169669 365.154902 
L 340.733122 363.355273 
L 342.271358 353.843364 
L 343.809594 327.144839 
L 345.34888 356.238362 
L 346.888167 362.966262 
L 348.45162 364.869639 
L 349.964639 367.507429 
L 351.476607 359.635669 
L 353.013792 365.422834 
L 354.552028 368.560053 
L 356.090264 360.859308 
L 357.6285 364.796189 
L 359.191952 361.622921 
L 360.730188 357.539945 
L 362.268424 346.252378 
L 363.807711 358.787334 
L 365.346997 357.277947 
L 366.91045 364.297349 
L 368.398252 364.370269 
L 369.885003 366.30196 
L 371.422188 368.864219 
L 372.960424 365.368846 
L 374.49866 365.131148 
L 376.036896 362.331421 
L 377.600349 366.651675 
L 379.138584 362.649812 
L 380.67682 341.644656 
L 382.216107 347.000275 
L 383.755393 357.210214 
L 385.318846 366.489993 
L 386.806648 358.489672 
L 388.293399 364.855549 
L 389.830585 359.774809 
L 391.36882 363.975939 
L 392.907056 365.73558 
L 394.445292 365.442731 
L 397.546981 359.227886 
L 399.085217 351.363657 
L 400.624503 341.284307 
L 402.16379 353.592133 
L 403.727243 359.078648 
L 405.215044 358.539071 
L 406.701796 361.366886 
L 408.238981 359.756135 
L 409.777217 363.95532 
L 411.315452 366.725061 
L 412.853688 370.253918 
L 414.417141 362.766252 
L 415.955377 363.483566 
L 417.493613 357.745334 
L 419.032899 340.334587 
L 420.572186 356.250891 
L 422.135639 361.948509 
L 423.648658 360.679363 
L 425.160626 363.528443 
L 426.697811 361.194913 
L 428.236047 361.920743 
L 429.774283 364.268683 
L 431.312519 367.262585 
L 432.875971 356.426674 
L 434.414207 364.320662 
L 435.952443 355.773063 
L 437.49173 345.685714 
L 439.031016 350.788454 
L 440.594469 353.761726 
L 442.082271 360.233524 
L 443.569022 363.914365 
L 445.106207 361.458068 
L 446.644443 366.266488 
L 448.182679 366.022958 
L 449.720915 364.562882 
L 451.284368 366.949685 
L 452.822604 359.955227 
L 454.360839 351.593454 
L 455.900126 330.066201 
L 457.439412 355.280129 
L 459.002865 357.086913 
L 460.490667 363.330963 
L 461.977418 361.628883 
L 463.514604 368.016019 
L 465.052839 368.545801 
L 466.591075 363.735329 
L 468.129311 367.173236 
L 469.692764 365.87769 
L 471.231 367.646182 
L 472.769236 348.290428 
L 474.308522 344.536709 
L 475.847809 356.696671 
L 477.411262 356.420331 
L 478.899063 360.756316 
L 480.385815 359.646254 
L 481.923 366.266918 
L 483.461236 362.256765 
L 484.999472 364.736417 
L 486.537707 364.004636 
L 488.10116 358.737795 
L 489.639396 360.64709 
L 491.177632 356.371842 
L 492.716918 344.698944 
L 494.256205 359.749605 
L 495.819658 365.098386 
L 497.332677 361.833898 
L 498.844645 364.003212 
L 500.38183 366.001719 
L 501.920066 365.336574 
L 503.458302 363.158617 
L 504.996538 365.25001 
L 506.55999 366.000779 
L 511.175749 347.769735 
L 512.715035 355.559383 
L 514.278488 352.730414 
L 515.76629 357.594319 
L 517.253041 364.846494 
L 518.790226 363.213884 
L 520.328462 364.961825 
L 521.866698 360.710962 
L 523.404934 364.929924 
L 524.968387 364.188445 
L 526.506623 362.227193 
L 528.044858 335.758659 
L 529.584145 354.548876 
L 531.123432 363.749171 
L 532.686884 365.645691 
L 534.174686 363.756107 
L 535.661437 364.847524 
L 537.198623 366.343604 
L 538.736858 366.063309 
L 540.275094 368.261843 
L 541.81333 361.030995 
L 543.376783 363.382102 
L 544.915019 363.50823 
L 546.453255 357.983666 
L 547.992541 348.952697 
L 549.531828 356.167946 
L 551.095281 361.072821 
L 552.583083 365.366193 
L 554.069834 360.93745 
L 555.607019 360.265804 
L 557.145255 366.502481 
L 558.683491 367.708782 
L 558.683491 367.708782 
" style="fill:none;stroke:#7e2f8e;stroke-linecap:square;stroke-width:1.5;"/>
   </g>
   <g id="line2d_27">
    <path clip-path="url(#p704caee923)" d="M 45.997046 382.055238 
L 457.439412 382.055238 
L 459.002865 381.754415 
L 460.490667 382.055238 
L 558.683491 382.055238 
L 558.683491 382.055238 
" style="fill:none;stroke:#77ac30;stroke-linecap:square;stroke-width:1.5;"/>
   </g>
   <g id="patch_3">
    <path d="M 56.292813 400.24 
L 56.292813 18.36 
" style="fill:none;stroke:#000000;stroke-linecap:square;stroke-linejoin:miter;"/>
   </g>
   <g id="patch_4">
    <path d="M 559.44 400.24 
L 559.44 18.36 
" style="fill:none;stroke:#000000;stroke-linecap:square;stroke-linejoin:miter;"/>
   </g>
   <g id="patch_5">
    <path d="M 56.292813 400.24 
L 559.44 400.24 
" style="fill:none;stroke:#000000;stroke-linecap:square;stroke-linejoin:miter;"/>
   </g>
   <g id="patch_6">
    <path d="M 56.292813 18.36 
L 559.44 18.36 
" style="fill:none;stroke:#000000;stroke-linecap:square;stroke-linejoin:miter;"/>
   </g>
   <g id="legend_1">
    <g id="patch_7">
     <path d="M 308.36025 132.2325 
L 552.24 132.2325 
L 552.24 25.56 
L 308.36025 25.56 
z
" style="fill:#ffffff;stroke:#000000;stroke-linejoin:miter;"/>
    </g>
    <g id="line2d_28">
     <path d="M 314.12025 36.58725 
L 342.92025 36.58725 
" style="fill:none;stroke:#0072bd;stroke-linecap:square;stroke-width:1.5;"/>
    </g>
    <g id="line2d_29"/>
    <g id="text_13">
     <!-- Phenomenology -->
     <defs>
      <path d="M 7.71875 0 
L 7.71875 71.578125 
L 34.71875 71.578125 
Q 41.84375 71.578125 45.609375 70.90625 
Q 50.875 70.015625 54.4375 67.546875 
Q 58.015625 65.09375 60.1875 60.640625 
Q 62.359375 56.203125 62.359375 50.875 
Q 62.359375 41.75 56.546875 35.421875 
Q 50.734375 29.109375 35.546875 29.109375 
L 17.1875 29.109375 
L 17.1875 0 
z
M 17.1875 37.546875 
L 35.6875 37.546875 
Q 44.875 37.546875 48.734375 40.96875 
Q 52.59375 44.390625 52.59375 50.59375 
Q 52.59375 55.078125 50.3125 58.265625 
Q 48.046875 61.46875 44.34375 62.5 
Q 41.9375 63.140625 35.5 63.140625 
L 17.1875 63.140625 
z
" id="ArialMT-80"/>
      <path d="M 6.59375 0 
L 6.59375 71.578125 
L 15.375 71.578125 
L 15.375 45.90625 
Q 21.53125 53.03125 30.90625 53.03125 
Q 36.671875 53.03125 40.921875 50.75 
Q 45.171875 48.484375 47 44.484375 
Q 48.828125 40.484375 48.828125 32.859375 
L 48.828125 0 
L 40.046875 0 
L 40.046875 32.859375 
Q 40.046875 39.453125 37.1875 42.453125 
Q 34.328125 45.453125 29.109375 45.453125 
Q 25.203125 45.453125 21.75 43.421875 
Q 18.3125 41.40625 16.84375 37.9375 
Q 15.375 34.46875 15.375 28.375 
L 15.375 0 
z
" id="ArialMT-104"/>
      <path d="M 6.59375 0 
L 6.59375 51.859375 
L 14.453125 51.859375 
L 14.453125 44.578125 
Q 16.890625 48.390625 20.9375 50.703125 
Q 25 53.03125 30.171875 53.03125 
Q 35.9375 53.03125 39.625 50.640625 
Q 43.3125 48.25 44.828125 43.953125 
Q 50.984375 53.03125 60.84375 53.03125 
Q 68.5625 53.03125 72.703125 48.75 
Q 76.859375 44.484375 76.859375 35.59375 
L 76.859375 0 
L 68.109375 0 
L 68.109375 32.671875 
Q 68.109375 37.9375 67.25 40.25 
Q 66.40625 42.578125 64.15625 43.984375 
Q 61.921875 45.40625 58.890625 45.40625 
Q 53.421875 45.40625 49.796875 41.765625 
Q 46.1875 38.140625 46.1875 30.125 
L 46.1875 0 
L 37.40625 0 
L 37.40625 33.6875 
Q 37.40625 39.546875 35.25 42.46875 
Q 33.109375 45.40625 28.21875 45.40625 
Q 24.515625 45.40625 21.359375 43.453125 
Q 18.21875 41.5 16.796875 37.734375 
Q 15.375 33.984375 15.375 26.90625 
L 15.375 0 
z
" id="ArialMT-109"/>
      <path d="M 6.390625 0 
L 6.390625 71.578125 
L 15.1875 71.578125 
L 15.1875 0 
z
" id="ArialMT-108"/>
      <path d="M 4.984375 -4.296875 
L 13.53125 -5.5625 
Q 14.0625 -9.515625 16.5 -11.328125 
Q 19.78125 -13.765625 25.4375 -13.765625 
Q 31.546875 -13.765625 34.859375 -11.328125 
Q 38.1875 -8.890625 39.359375 -4.5 
Q 40.046875 -1.8125 39.984375 6.78125 
Q 34.234375 0 25.640625 0 
Q 14.9375 0 9.078125 7.71875 
Q 3.21875 15.4375 3.21875 26.21875 
Q 3.21875 33.640625 5.90625 39.90625 
Q 8.59375 46.1875 13.6875 49.609375 
Q 18.796875 53.03125 25.6875 53.03125 
Q 34.859375 53.03125 40.828125 45.609375 
L 40.828125 51.859375 
L 48.921875 51.859375 
L 48.921875 7.03125 
Q 48.921875 -5.078125 46.453125 -10.125 
Q 44 -15.1875 38.640625 -18.109375 
Q 33.296875 -21.046875 25.484375 -21.046875 
Q 16.21875 -21.046875 10.5 -16.875 
Q 4.78125 -12.703125 4.984375 -4.296875 
z
M 12.25 26.859375 
Q 12.25 16.65625 16.296875 11.96875 
Q 20.359375 7.28125 26.46875 7.28125 
Q 32.515625 7.28125 36.609375 11.9375 
Q 40.71875 16.609375 40.71875 26.5625 
Q 40.71875 36.078125 36.5 40.90625 
Q 32.28125 45.75 26.3125 45.75 
Q 20.453125 45.75 16.34375 40.984375 
Q 12.25 36.234375 12.25 26.859375 
z
" id="ArialMT-103"/>
      <path d="M 6.203125 -19.96875 
L 5.21875 -11.71875 
Q 8.109375 -12.5 10.25 -12.5 
Q 13.1875 -12.5 14.9375 -11.515625 
Q 16.703125 -10.546875 17.828125 -8.796875 
Q 18.65625 -7.46875 20.515625 -2.25 
Q 20.75 -1.515625 21.296875 -0.09375 
L 1.609375 51.859375 
L 11.078125 51.859375 
L 21.875 21.828125 
Q 23.96875 16.109375 25.640625 9.8125 
Q 27.15625 15.875 29.25 21.625 
L 40.328125 51.859375 
L 49.125 51.859375 
L 29.390625 -0.875 
Q 26.21875 -9.421875 24.46875 -12.640625 
Q 22.125 -17 19.09375 -19.015625 
Q 16.0625 -21.046875 11.859375 -21.046875 
Q 9.328125 -21.046875 6.203125 -19.96875 
z
" id="ArialMT-121"/>
     </defs>
     <g transform="translate(354.44025 41.62725)scale(0.144 -0.144)">
      <use xlink:href="#ArialMT-80"/>
      <use x="66.699219" xlink:href="#ArialMT-104"/>
      <use x="122.314453" xlink:href="#ArialMT-101"/>
      <use x="177.929688" xlink:href="#ArialMT-110"/>
      <use x="233.544922" xlink:href="#ArialMT-111"/>
      <use x="289.160156" xlink:href="#ArialMT-109"/>
      <use x="372.460938" xlink:href="#ArialMT-101"/>
      <use x="428.076172" xlink:href="#ArialMT-110"/>
      <use x="483.691406" xlink:href="#ArialMT-111"/>
      <use x="539.306641" xlink:href="#ArialMT-108"/>
      <use x="561.523438" xlink:href="#ArialMT-111"/>
      <use x="617.138672" xlink:href="#ArialMT-103"/>
      <use x="672.753906" xlink:href="#ArialMT-121"/>
     </g>
    </g>
    <g id="line2d_30">
     <path d="M 314.12025 57.12525 
L 342.92025 57.12525 
" style="fill:none;stroke:#d95319;stroke-linecap:square;stroke-width:1.5;"/>
    </g>
    <g id="line2d_31"/>
    <g id="text_14">
     <!-- Theory -->
     <defs>
      <path d="M 25.921875 0 
L 25.921875 63.140625 
L 2.34375 63.140625 
L 2.34375 71.578125 
L 59.078125 71.578125 
L 59.078125 63.140625 
L 35.40625 63.140625 
L 35.40625 0 
z
" id="ArialMT-84"/>
     </defs>
     <g transform="translate(354.44025 62.16525)scale(0.144 -0.144)">
      <use xlink:href="#ArialMT-84"/>
      <use x="61.083984" xlink:href="#ArialMT-104"/>
      <use x="116.699219" xlink:href="#ArialMT-101"/>
      <use x="172.314453" xlink:href="#ArialMT-111"/>
      <use x="227.929688" xlink:href="#ArialMT-114"/>
      <use x="261.230469" xlink:href="#ArialMT-121"/>
     </g>
    </g>
    <g id="line2d_32">
     <path d="M 314.12025 77.66325 
L 342.92025 77.66325 
" style="fill:none;stroke:#edb120;stroke-linecap:square;stroke-width:1.5;"/>
    </g>
    <g id="line2d_33"/>
    <g id="text_15">
     <!-- Experiment -->
     <defs>
      <path d="M 7.90625 0 
L 7.90625 71.578125 
L 59.671875 71.578125 
L 59.671875 63.140625 
L 17.390625 63.140625 
L 17.390625 41.21875 
L 56.984375 41.21875 
L 56.984375 32.8125 
L 17.390625 32.8125 
L 17.390625 8.453125 
L 61.328125 8.453125 
L 61.328125 0 
z
" id="ArialMT-69"/>
      <path d="M 0.734375 0 
L 19.671875 26.953125 
L 2.15625 51.859375 
L 13.140625 51.859375 
L 21.09375 39.703125 
Q 23.34375 36.234375 24.703125 33.890625 
Q 26.859375 37.109375 28.65625 39.59375 
L 37.40625 51.859375 
L 47.90625 51.859375 
L 29.984375 27.4375 
L 49.265625 0 
L 38.484375 0 
L 27.828125 16.109375 
L 25 20.453125 
L 11.375 0 
z
" id="ArialMT-120"/>
     </defs>
     <g transform="translate(354.44025 82.70325)scale(0.144 -0.144)">
      <use xlink:href="#ArialMT-69"/>
      <use x="66.699219" xlink:href="#ArialMT-120"/>
      <use x="116.699219" xlink:href="#ArialMT-112"/>
      <use x="172.314453" xlink:href="#ArialMT-101"/>
      <use x="227.929688" xlink:href="#ArialMT-114"/>
      <use x="261.230469" xlink:href="#ArialMT-105"/>
      <use x="283.447266" xlink:href="#ArialMT-109"/>
      <use x="366.748047" xlink:href="#ArialMT-101"/>
      <use x="422.363281" xlink:href="#ArialMT-110"/>
      <use x="477.978516" xlink:href="#ArialMT-116"/>
     </g>
    </g>
    <g id="line2d_34">
     <path d="M 314.12025 98.0325 
L 342.92025 98.0325 
" style="fill:none;stroke:#7e2f8e;stroke-linecap:square;stroke-width:1.5;"/>
    </g>
    <g id="line2d_35"/>
    <g id="text_16">
     <!-- Lattice -->
     <defs>
      <path d="M 7.328125 0 
L 7.328125 71.578125 
L 16.796875 71.578125 
L 16.796875 8.453125 
L 52.046875 8.453125 
L 52.046875 0 
z
" id="ArialMT-76"/>
     </defs>
     <g transform="translate(354.44025 103.0725)scale(0.144 -0.144)">
      <use xlink:href="#ArialMT-76"/>
      <use x="55.615234" xlink:href="#ArialMT-97"/>
      <use x="111.230469" xlink:href="#ArialMT-116"/>
      <use x="139.013672" xlink:href="#ArialMT-116"/>
      <use x="166.796875" xlink:href="#ArialMT-105"/>
      <use x="189.013672" xlink:href="#ArialMT-99"/>
      <use x="239.013672" xlink:href="#ArialMT-101"/>
     </g>
    </g>
    <g id="line2d_36">
     <path d="M 314.12025 118.40175 
L 342.92025 118.40175 
" style="fill:none;stroke:#77ac30;stroke-linecap:square;stroke-width:1.5;"/>
    </g>
    <g id="line2d_37"/>
    <g id="text_17">
     <!-- Theory, Mathematical Physics -->
     <defs>
      <path d="M 8.890625 0 
L 8.890625 10.015625 
L 18.890625 10.015625 
L 18.890625 0 
Q 18.890625 -5.515625 16.9375 -8.90625 
Q 14.984375 -12.3125 10.75 -14.15625 
L 8.296875 -10.40625 
Q 11.078125 -9.1875 12.390625 -6.8125 
Q 13.71875 -4.4375 13.875 0 
z
" id="ArialMT-44"/>
      <path d="M 7.421875 0 
L 7.421875 71.578125 
L 21.6875 71.578125 
L 38.625 20.90625 
Q 40.96875 13.8125 42.046875 10.296875 
Q 43.265625 14.203125 45.84375 21.78125 
L 62.984375 71.578125 
L 75.734375 71.578125 
L 75.734375 0 
L 66.609375 0 
L 66.609375 59.90625 
L 45.796875 0 
L 37.25 0 
L 16.546875 60.9375 
L 16.546875 0 
z
" id="ArialMT-77"/>
     </defs>
     <g transform="translate(354.44025 123.44175)scale(0.144 -0.144)">
      <use xlink:href="#ArialMT-84"/>
      <use x="61.083984" xlink:href="#ArialMT-104"/>
      <use x="116.699219" xlink:href="#ArialMT-101"/>
      <use x="172.314453" xlink:href="#ArialMT-111"/>
      <use x="227.929688" xlink:href="#ArialMT-114"/>
      <use x="261.230469" xlink:href="#ArialMT-121"/>
      <use x="311.121094" xlink:href="#ArialMT-44"/>
      <use x="338.904297" xlink:href="#ArialMT-32"/>
      <use x="366.6875" xlink:href="#ArialMT-77"/>
      <use x="449.988281" xlink:href="#ArialMT-97"/>
      <use x="505.603516" xlink:href="#ArialMT-116"/>
      <use x="533.386719" xlink:href="#ArialMT-104"/>
      <use x="589.001953" xlink:href="#ArialMT-101"/>
      <use x="644.617188" xlink:href="#ArialMT-109"/>
      <use x="727.917969" xlink:href="#ArialMT-97"/>
      <use x="783.533203" xlink:href="#ArialMT-116"/>
      <use x="811.316406" xlink:href="#ArialMT-105"/>
      <use x="833.533203" xlink:href="#ArialMT-99"/>
      <use x="883.533203" xlink:href="#ArialMT-97"/>
      <use x="939.148438" xlink:href="#ArialMT-108"/>
      <use x="961.365234" xlink:href="#ArialMT-32"/>
      <use x="989.148438" xlink:href="#ArialMT-80"/>
      <use x="1055.847656" xlink:href="#ArialMT-104"/>
      <use x="1111.462891" xlink:href="#ArialMT-121"/>
      <use x="1161.462891" xlink:href="#ArialMT-115"/>
      <use x="1211.462891" xlink:href="#ArialMT-105"/>
      <use x="1233.679688" xlink:href="#ArialMT-99"/>
      <use x="1283.679688" xlink:href="#ArialMT-115"/>
     </g>
    </g>
   </g>
  </g>
 </g>
 <defs>
  <clipPath id="p704caee923">
   <rect height="381.88" width="503.147188" x="56.292813" y="18.36"/>
  </clipPath>
 </defs>
</svg>
