<?xml version="1.0" encoding="UTF-8" standalone="no"?>
<!-- Created with matplotlib (https://matplotlib.org/) -->

<svg
   xmlns:dc="http://purl.org/dc/elements/1.1/"
   xmlns:cc="http://creativecommons.org/ns#"
   xmlns:rdf="http://www.w3.org/1999/02/22-rdf-syntax-ns#"
   xmlns:svg="http://www.w3.org/2000/svg"
   xmlns="http://www.w3.org/2000/svg"
   xmlns:xlink="http://www.w3.org/1999/xlink"
   xmlns:sodipodi="http://sodipodi.sourceforge.net/DTD/sodipodi-0.dtd"
   xmlns:inkscape="http://www.inkscape.org/namespaces/inkscape"
   height="144pt"
   version="1.1"
   viewBox="0 0 1152 144"
   width="1152pt"
   id="svg2"
   inkscape:version="0.91 r13725"
   sodipodi:docname="single_bar.svg">
  <metadata
     id="metadata309">
    <rdf:RDF>
      <cc:Work
         rdf:about="">
        <dc:format>image/svg+xml</dc:format>
        <dc:type
           rdf:resource="http://purl.org/dc/dcmitype/StillImage" />
        <dc:title></dc:title>
      </cc:Work>
    </rdf:RDF>
  </metadata>
  <sodipodi:namedview
     pagecolor="#ffffff"
     bordercolor="#666666"
     borderopacity="1"
     objecttolerance="10"
     gridtolerance="10"
     guidetolerance="10"
     inkscape:pageopacity="0"
     inkscape:pageshadow="2"
     inkscape:window-width="1600"
     inkscape:window-height="831"
     id="namedview307"
     showgrid="false"
     inkscape:zoom="1.0017346"
     inkscape:cx="683.17162"
     inkscape:cy="14.335415"
     inkscape:window-x="0"
     inkscape:window-y="0"
     inkscape:window-maximized="1"
     inkscape:current-layer="svg2" />
  <defs
     id="defs4"
     style="stroke-linecap:butt;stroke-linejoin:round">
    <style
       type="text/css"
       id="style6">
*{stroke-linecap:butt;stroke-linejoin:round;}
  </style>
  </defs>
  <g
     id="g4798"
     style="stroke-linecap:butt;stroke-linejoin:round"
     transform="translate(288,0)">
    <g
       id="patch_1"
       style="stroke-linecap:butt;stroke-linejoin:round">
      <path
         d="M 0,144 576,144 576,0 0,0 Z"
         style="fill:#ffffff;stroke-linecap:butt;stroke-linejoin:round"
         id="path10"
         inkscape:connector-curvature="0" />
    </g>
    <g
       style="stroke-linecap:butt;stroke-linejoin:round"
       id="patch_2">
      <path
         inkscape:connector-curvature="0"
         id="path14"
         style="fill:#ffffff;stroke-linecap:butt;stroke-linejoin:round"
         d="m 16.56,93.74 371.259,0 0,-77.18 -371.259,0 z" />
    </g>
    <g
       style="stroke-linecap:butt;stroke-linejoin:round"
       id="matplotlib.axis_1">
      <g
         style="stroke-linecap:butt;stroke-linejoin:round"
         id="xtick_1">
        <g
           style="stroke-linecap:butt;stroke-linejoin:round"
           id="line2d_1">
          <path
             inkscape:connector-curvature="0"
             id="path19"
             style="fill:none;stroke:#b2b2b2;stroke-width:0.5;stroke-linecap:square;stroke-linejoin:round"
             d="m 16.56,93.74 0,-77.18"
             clip-path="url(#pd547a96803)" />
        </g>
        <g
           style="stroke-linecap:butt;stroke-linejoin:round"
           id="line2d_2">
          <defs
             id="defs22">
            <path
               inkscape:connector-curvature="0"
               style="stroke:#000000;stroke-width:0.5;stroke-linecap:butt;stroke-linejoin:round"
               id="mba46daccfa"
               d="M 0,0 0,4" />
          </defs>
          <g
             style="stroke-linecap:butt;stroke-linejoin:round"
             id="g25">
            <use
               height="100%"
               width="100%"
               id="use27"
               y="93.739998"
               xlink:href="#mba46daccfa"
               x="16.559999"
               style="stroke:#000000;stroke-width:0.5;stroke-linecap:butt;stroke-linejoin:round" />
          </g>
        </g>
        <g
           style="stroke-linecap:butt;stroke-linejoin:round"
           id="text_1">
          <!-- 0 -->
          <defs
             id="defs30">
            <path
               style="stroke-linecap:butt;stroke-linejoin:round"
               inkscape:connector-curvature="0"
               id="ArialMT-48"
               d="m 4.15625,35.296875 q 0,12.703125 2.609375,20.4375 2.609375,7.75 7.75,11.9375 5.15625,4.203125 12.96875,4.203125 5.765625,0 10.109375,-2.328125 4.34375,-2.3125 7.171875,-6.6875 Q 47.609375,58.5 49.21875,52.21875 q 1.609375,-6.265625 1.609375,-16.921875 0,-12.59375 -2.59375,-20.328125 Q 45.65625,7.234375 40.5,3 35.359375,-1.21875 27.484375,-1.21875 q -10.34375,0 -16.25,7.421875 -7.078125,8.9375 -7.078125,29.09375 z m 9.03125,0 q 0,-17.625 4.125,-23.46875 Q 21.4375,6 27.484375,6 q 6.0625,0 10.1875,5.859375 4.125,5.859375 4.125,23.4375 0,17.6875 -4.125,23.484375 -4.125,5.8125 -10.28125,5.8125 -6.046875,0 -9.671875,-5.125 Q 13.1875,52.9375 13.1875,35.296875 Z" />
          </defs>
          <g
             style="stroke-linecap:butt;stroke-linejoin:round"
             id="g33"
             transform="matrix(0.12,0,0,-0.12,13.223437,110.32938)">
            <use
               height="100%"
               width="100%"
               y="0"
               x="0"
               style="stroke-linecap:butt;stroke-linejoin:round"
               id="use35"
               xlink:href="#ArialMT-48" />
          </g>
        </g>
      </g>
      <g
         style="stroke-linecap:butt;stroke-linejoin:round"
         id="xtick_2">
        <g
           style="stroke-linecap:butt;stroke-linejoin:round"
           id="line2d_3">
          <path
             inkscape:connector-curvature="0"
             id="path39"
             style="fill:none;stroke:#b2b2b2;stroke-width:0.5;stroke-linecap:square;stroke-linejoin:round"
             d="m 86.542846,93.74 0,-77.18"
             clip-path="url(#pd547a96803)" />
        </g>
        <g
           style="stroke-linecap:butt;stroke-linejoin:round"
           id="line2d_4">
          <g
             style="stroke-linecap:butt;stroke-linejoin:round"
             id="g42">
            <use
               height="100%"
               width="100%"
               id="use44"
               y="93.739998"
               xlink:href="#mba46daccfa"
               x="86.542847"
               style="stroke:#000000;stroke-width:0.5;stroke-linecap:butt;stroke-linejoin:round" />
          </g>
        </g>
        <g
           style="stroke-linecap:butt;stroke-linejoin:round"
           id="text_2">
          <!-- 200 -->
          <defs
             id="defs47">
            <path
               style="stroke-linecap:butt;stroke-linejoin:round"
               inkscape:connector-curvature="0"
               id="ArialMT-50"
               d="M 50.34375,8.453125 50.34375,0 3.03125,0 Q 2.9375,3.171875 4.046875,6.109375 5.859375,10.9375 9.828125,15.625 13.8125,20.3125 21.34375,26.46875 q 11.671875,9.5625 15.765625,15.15625 4.109375,5.59375 4.109375,10.578125 0,5.21875 -3.75,8.796875 -3.734375,3.59375 -9.734375,3.59375 -6.34375,0 -10.15625,-3.8125 Q 13.765625,56.984375 13.71875,50.25 L 4.6875,51.171875 q 0.921875,10.109375 6.96875,15.40625 6.0625,5.296875 16.28125,5.296875 10.296875,0 16.296875,-5.71875 Q 50.25,60.453125 50.25,52 50.25,47.703125 48.484375,43.546875 46.734375,39.40625 42.65625,34.8125 38.578125,30.21875 29.109375,22.21875 21.1875,15.578125 18.9375,13.203125 q -2.234375,-2.359375 -3.703125,-4.75 z" />
          </defs>
          <g
             style="stroke-linecap:butt;stroke-linejoin:round"
             id="g50"
             transform="matrix(0.12,0,0,-0.12,76.533159,110.32938)">
            <use
               height="100%"
               width="100%"
               y="0"
               x="0"
               style="stroke-linecap:butt;stroke-linejoin:round"
               id="use52"
               xlink:href="#ArialMT-50" />
            <use
               height="100%"
               width="100%"
               y="0"
               style="stroke-linecap:butt;stroke-linejoin:round"
               id="use54"
               xlink:href="#ArialMT-48"
               x="55.615234" />
            <use
               height="100%"
               width="100%"
               y="0"
               style="stroke-linecap:butt;stroke-linejoin:round"
               id="use56"
               xlink:href="#ArialMT-48"
               x="111.23047" />
          </g>
        </g>
      </g>
      <g
         style="stroke-linecap:butt;stroke-linejoin:round"
         id="xtick_3">
        <g
           style="stroke-linecap:butt;stroke-linejoin:round"
           id="line2d_5">
          <path
             inkscape:connector-curvature="0"
             id="path60"
             style="fill:none;stroke:#b2b2b2;stroke-width:0.5;stroke-linecap:square;stroke-linejoin:round"
             d="m 156.52569,93.74 0,-77.18"
             clip-path="url(#pd547a96803)" />
        </g>
        <g
           style="stroke-linecap:butt;stroke-linejoin:round"
           id="line2d_6">
          <g
             style="stroke-linecap:butt;stroke-linejoin:round"
             id="g63">
            <use
               height="100%"
               width="100%"
               id="use65"
               y="93.739998"
               xlink:href="#mba46daccfa"
               x="156.5257"
               style="stroke:#000000;stroke-width:0.5;stroke-linecap:butt;stroke-linejoin:round" />
          </g>
        </g>
        <g
           style="stroke-linecap:butt;stroke-linejoin:round"
           id="text_3">
          <!-- 400 -->
          <defs
             id="defs68">
            <path
               style="stroke-linecap:butt;stroke-linejoin:round"
               inkscape:connector-curvature="0"
               id="ArialMT-52"
               d="m 32.328125,0 0,17.140625 -31.0625,0 0,8.0625 32.671875,46.375 7.171875,0 0,-46.375 9.671875,0 0,-8.0625 -9.671875,0 0,-17.140625 z m 0,25.203125 0,32.265625 L 9.90625,25.203125 Z" />
          </defs>
          <g
             style="stroke-linecap:butt;stroke-linejoin:round"
             id="g71"
             transform="matrix(0.12,0,0,-0.12,146.516,110.32938)">
            <use
               height="100%"
               width="100%"
               y="0"
               x="0"
               style="stroke-linecap:butt;stroke-linejoin:round"
               id="use73"
               xlink:href="#ArialMT-52" />
            <use
               height="100%"
               width="100%"
               y="0"
               style="stroke-linecap:butt;stroke-linejoin:round"
               id="use75"
               xlink:href="#ArialMT-48"
               x="55.615234" />
            <use
               height="100%"
               width="100%"
               y="0"
               style="stroke-linecap:butt;stroke-linejoin:round"
               id="use77"
               xlink:href="#ArialMT-48"
               x="111.23047" />
          </g>
        </g>
      </g>
      <g
         style="stroke-linecap:butt;stroke-linejoin:round"
         id="xtick_4">
        <g
           style="stroke-linecap:butt;stroke-linejoin:round"
           id="line2d_7">
          <path
             inkscape:connector-curvature="0"
             id="path81"
             style="fill:none;stroke:#b2b2b2;stroke-width:0.5;stroke-linecap:square;stroke-linejoin:round"
             d="m 226.50854,93.74 0,-77.18"
             clip-path="url(#pd547a96803)" />
        </g>
        <g
           style="stroke-linecap:butt;stroke-linejoin:round"
           id="line2d_8">
          <g
             style="stroke-linecap:butt;stroke-linejoin:round"
             id="g84">
            <use
               height="100%"
               width="100%"
               id="use86"
               y="93.739998"
               xlink:href="#mba46daccfa"
               x="226.50854"
               style="stroke:#000000;stroke-width:0.5;stroke-linecap:butt;stroke-linejoin:round" />
          </g>
        </g>
        <g
           style="stroke-linecap:butt;stroke-linejoin:round"
           id="text_4">
          <!-- 600 -->
          <defs
             id="defs89">
            <path
               style="stroke-linecap:butt;stroke-linejoin:round"
               inkscape:connector-curvature="0"
               id="ArialMT-54"
               d="M 49.75,54.046875 41.015625,53.375 q -1.171875,5.171875 -3.3125,7.515625 -3.578125,3.765625 -8.796875,3.765625 -4.203125,0 -7.375,-2.34375 Q 17.390625,59.28125 14.984375,53.46875 12.59375,47.65625 12.5,36.921875 15.671875,41.75 20.265625,44.09375 q 4.59375,2.34375 9.625,2.34375 8.78125,0 14.953125,-6.46875 Q 51.03125,33.5 51.03125,23.25 51.03125,16.5 48.125,10.71875 45.21875,4.9375 40.140625,1.859375 35.0625,-1.21875 28.609375,-1.21875 17.625,-1.21875 10.6875,6.859375 3.765625,14.9375 3.765625,33.5 q 0,20.75 7.65625,30.171875 6.6875,8.203125 18.015625,8.203125 8.453125,0 13.84375,-4.734375 Q 48.6875,62.40625 49.75,54.046875 Z M 13.875,23.1875 q 0,-4.53125 1.921875,-8.6875 Q 17.71875,10.359375 21.1875,8.171875 24.65625,6 28.46875,6 q 5.5625,0 9.5625,4.484375 4.015625,4.5 4.015625,12.21875 0,7.421875 -3.96875,11.6875 -3.953125,4.28125 -9.953125,4.28125 -5.953125,0 -10.109375,-4.28125 Q 13.875,30.125 13.875,23.1875 Z" />
          </defs>
          <g
             style="stroke-linecap:butt;stroke-linejoin:round"
             id="g92"
             transform="matrix(0.12,0,0,-0.12,216.49885,110.32938)">
            <use
               height="100%"
               width="100%"
               y="0"
               x="0"
               style="stroke-linecap:butt;stroke-linejoin:round"
               id="use94"
               xlink:href="#ArialMT-54" />
            <use
               height="100%"
               width="100%"
               y="0"
               style="stroke-linecap:butt;stroke-linejoin:round"
               id="use96"
               xlink:href="#ArialMT-48"
               x="55.615234" />
            <use
               height="100%"
               width="100%"
               y="0"
               style="stroke-linecap:butt;stroke-linejoin:round"
               id="use98"
               xlink:href="#ArialMT-48"
               x="111.23047" />
          </g>
        </g>
      </g>
      <g
         style="stroke-linecap:butt;stroke-linejoin:round"
         id="xtick_5">
        <g
           style="stroke-linecap:butt;stroke-linejoin:round"
           id="line2d_9">
          <path
             inkscape:connector-curvature="0"
             id="path102"
             style="fill:none;stroke:#b2b2b2;stroke-width:0.5;stroke-linecap:square;stroke-linejoin:round"
             d="m 296.49138,93.74 0,-77.18"
             clip-path="url(#pd547a96803)" />
        </g>
        <g
           style="stroke-linecap:butt;stroke-linejoin:round"
           id="line2d_10">
          <g
             style="stroke-linecap:butt;stroke-linejoin:round"
             id="g105">
            <use
               height="100%"
               width="100%"
               id="use107"
               y="93.739998"
               xlink:href="#mba46daccfa"
               x="296.49139"
               style="stroke:#000000;stroke-width:0.5;stroke-linecap:butt;stroke-linejoin:round" />
          </g>
        </g>
        <g
           style="stroke-linecap:butt;stroke-linejoin:round"
           id="text_5">
          <!-- 800 -->
          <defs
             id="defs110">
            <path
               style="stroke-linecap:butt;stroke-linejoin:round"
               inkscape:connector-curvature="0"
               id="ArialMT-56"
               d="m 17.671875,38.8125 q -5.46875,2.015625 -8.109375,5.71875 -2.625,3.71875 -2.625,8.890625 0,7.8125 5.609375,13.125 5.625,5.328125 14.9375,5.328125 9.375,0 15.09375,-5.453125 5.71875,-5.4375 5.71875,-13.25 0,-4.984375 -2.625,-8.671875 Q 43.0625,40.828125 37.75,38.8125 q 6.59375,-2.140625 10.03125,-6.9375 3.4375,-4.78125 3.4375,-11.421875 0,-9.171875 -6.5,-15.421875 -6.484375,-6.25 -17.078125,-6.25 -10.59375,0 -17.09375,6.265625 -6.5,6.28125 -6.5,15.65625 0,6.984375 3.546875,11.6875 3.546875,4.71875 10.078125,6.421875 z m -1.75,14.90625 q 0,-5.078125 3.265625,-8.3125 3.28125,-3.21875 8.5,-3.21875 5.078125,0 8.328125,3.1875 3.25,3.203125 3.25,7.84375 0,4.84375 -3.359375,8.140625 -3.34375,3.296875 -8.3125,3.296875 -5.03125,0 -8.359375,-3.234375 -3.3125,-3.21875 -3.3125,-7.703125 z M 13.09375,20.65625 q 0,-3.765625 1.78125,-7.28125 Q 16.65625,9.859375 20.171875,7.921875 23.6875,6 27.734375,6 34.03125,6 38.125,10.046875 q 4.109375,4.0625 4.109375,10.3125 0,6.34375 -4.21875,10.5 -4.21875,4.15625 -10.578125,4.15625 -6.203125,0 -10.28125,-4.109375 -4.0625,-4.09375 -4.0625,-10.25 z" />
          </defs>
          <g
             style="stroke-linecap:butt;stroke-linejoin:round"
             id="g113"
             transform="matrix(0.12,0,0,-0.12,286.4817,110.32938)">
            <use
               height="100%"
               width="100%"
               y="0"
               x="0"
               style="stroke-linecap:butt;stroke-linejoin:round"
               id="use115"
               xlink:href="#ArialMT-56" />
            <use
               height="100%"
               width="100%"
               y="0"
               style="stroke-linecap:butt;stroke-linejoin:round"
               id="use117"
               xlink:href="#ArialMT-48"
               x="55.615234" />
            <use
               height="100%"
               width="100%"
               y="0"
               style="stroke-linecap:butt;stroke-linejoin:round"
               id="use119"
               xlink:href="#ArialMT-48"
               x="111.23047" />
          </g>
        </g>
      </g>
      <g
         style="stroke-linecap:butt;stroke-linejoin:round"
         id="xtick_6">
        <g
           style="stroke-linecap:butt;stroke-linejoin:round"
           id="line2d_11">
          <path
             inkscape:connector-curvature="0"
             id="path123"
             style="fill:none;stroke:#b2b2b2;stroke-width:0.5;stroke-linecap:square;stroke-linejoin:round"
             d="m 366.47423,93.74 0,-77.18"
             clip-path="url(#pd547a96803)" />
        </g>
        <g
           style="stroke-linecap:butt;stroke-linejoin:round"
           id="line2d_12">
          <g
             style="stroke-linecap:butt;stroke-linejoin:round"
             id="g126">
            <use
               height="100%"
               width="100%"
               id="use128"
               y="93.739998"
               xlink:href="#mba46daccfa"
               x="366.47424"
               style="stroke:#000000;stroke-width:0.5;stroke-linecap:butt;stroke-linejoin:round" />
          </g>
        </g>
        <g
           style="stroke-linecap:butt;stroke-linejoin:round"
           id="text_6">
          <!-- 1000 -->
          <defs
             id="defs131">
            <path
               style="stroke-linecap:butt;stroke-linejoin:round"
               inkscape:connector-curvature="0"
               id="ArialMT-49"
               d="m 37.25,0 -8.78125,0 0,56 q -3.171875,-3.015625 -8.328125,-6.046875 -5.15625,-3.03125 -9.25,-4.546875 l 0,8.5 q 7.375,3.46875 12.890625,8.390625 5.515625,4.9375 7.8125,9.578125 l 5.65625,0 z" />
          </defs>
          <g
             style="stroke-linecap:butt;stroke-linejoin:round"
             id="g134"
             transform="matrix(0.12,0,0,-0.12,353.12798,110.32938)">
            <use
               height="100%"
               width="100%"
               y="0"
               x="0"
               style="stroke-linecap:butt;stroke-linejoin:round"
               id="use136"
               xlink:href="#ArialMT-49" />
            <use
               height="100%"
               width="100%"
               y="0"
               style="stroke-linecap:butt;stroke-linejoin:round"
               id="use138"
               xlink:href="#ArialMT-48"
               x="55.615234" />
            <use
               height="100%"
               width="100%"
               y="0"
               style="stroke-linecap:butt;stroke-linejoin:round"
               id="use140"
               xlink:href="#ArialMT-48"
               x="111.23047" />
            <use
               height="100%"
               width="100%"
               y="0"
               style="stroke-linecap:butt;stroke-linejoin:round"
               id="use142"
               xlink:href="#ArialMT-48"
               x="166.8457" />
          </g>
        </g>
      </g>
      <g
         style="stroke-linecap:butt;stroke-linejoin:round"
         id="text_7">
        <!-- Number of users -->
        <defs
           id="defs145">
          <path
             style="stroke-linecap:butt;stroke-linejoin:round"
             inkscape:connector-curvature="0"
             id="ArialMT-78"
             d="m 7.625,0 0,71.578125 9.703125,0 L 54.9375,15.375 l 0,56.203125 9.078125,0 0,-71.578125 -9.71875,0 -37.59375,56.25 0,-56.25 z" />
          <path
             style="stroke-linecap:butt;stroke-linejoin:round"
             inkscape:connector-curvature="0"
             id="ArialMT-117"
             d="m 40.578125,0 0,7.625 q -6.0625,-8.796875 -16.453125,-8.796875 -4.59375,0 -8.578125,1.75 Q 11.578125,2.34375 9.640625,5 7.71875,7.671875 6.9375,11.53125 6.390625,14.109375 6.390625,19.734375 l 0,32.125 8.796875,0 0,-28.765625 q 0,-6.875 0.53125,-9.28125 0.828125,-3.453125 3.515625,-5.4375 2.6875,-1.984375 6.640625,-1.984375 3.953125,0 7.421875,2.03125 3.46875,2.03125 4.90625,5.515625 1.453125,3.5 1.453125,10.140625 l 0,27.78125 8.78125,0 L 48.4375,0 Z" />
          <path
             style="stroke-linecap:butt;stroke-linejoin:round"
             inkscape:connector-curvature="0"
             id="ArialMT-109"
             d="m 6.59375,0 0,51.859375 7.859375,0 0,-7.28125 q 2.4375,3.8125 6.484375,6.125 4.0625,2.328125 9.234375,2.328125 5.765625,0 9.453125,-2.390625 3.6875,-2.390625 5.203125,-6.6875 6.15625,9.078125 16.015625,9.078125 7.71875,0 11.859375,-4.28125 4.15625,-4.265625 4.15625,-13.15625 l 0,-35.59375 -8.75,0 0,32.671875 q 0,5.265625 -0.859375,7.578125 -0.84375,2.328125 -3.09375,3.734375 -2.234375,1.421875 -5.265625,1.421875 -5.46875,0 -9.09375,-3.640625 Q 46.1875,38.140625 46.1875,30.125 l 0,-30.125 -8.78125,0 0,33.6875 q 0,5.859375 -2.15625,8.78125 -2.140625,2.9375 -7.03125,2.9375 -3.703125,0 -6.859375,-1.953125 Q 18.21875,41.5 16.796875,37.734375 15.375,33.984375 15.375,26.90625 L 15.375,0 Z" />
          <path
             style="stroke-linecap:butt;stroke-linejoin:round"
             inkscape:connector-curvature="0"
             id="ArialMT-98"
             d="m 14.703125,0 -8.15625,0 0,71.578125 8.78125,0 0,-25.53125 q 5.578125,6.984375 14.21875,6.984375 4.78125,0 9.046875,-1.9375 Q 42.875,49.171875 45.625,45.671875 48.390625,42.1875 49.953125,37.25 q 1.5625,-4.921875 1.5625,-10.546875 0,-13.328125 -6.59375,-20.609375 -6.59375,-7.265625 -15.8125,-7.265625 -9.1875,0 -14.40625,7.671875 z M 14.59375,26.3125 Q 14.59375,17 17.140625,12.84375 21.296875,6.0625 28.375,6.0625 q 5.75,0 9.953125,5 4.203125,5 4.203125,14.921875 0,10.15625 -4.03125,14.984375 -4.03125,4.828125 -9.734375,4.828125 -5.765625,0 -9.96875,-5 -4.203125,-5 -4.203125,-14.484375 z" />
          <path
             style="stroke-linecap:butt;stroke-linejoin:round"
             inkscape:connector-curvature="0"
             id="ArialMT-101"
             d="m 42.09375,16.703125 9.078125,-1.125 Q 49.03125,7.625 43.21875,3.21875 37.40625,-1.171875 28.375,-1.171875 q -11.375,0 -18.046875,7 -6.671875,7.015625 -6.671875,19.65625 0,13.09375 6.734375,20.3125 6.75,7.234375 17.484375,7.234375 10.40625,0 17,-7.078125 6.59375,-7.078125 6.59375,-19.921875 0,-0.78125 -0.04687,-2.34375 l -38.671875,0 Q 13.23438,15.140625 17.57813,10.59375 21.92188,6.0625 28.42188,6.0625 q 4.828125,0 8.25,2.53125 3.421875,2.546875 5.421875,8.109375 z m -28.859375,14.203125 28.953125,0 q -0.578125,6.546875 -3.3125,9.8125 -4.203125,5.078125 -10.890625,5.078125 -6.0625,0 -10.1875,-4.046875 -4.125,-4.046875 -4.5625,-10.84375 z" />
          <path
             style="stroke-linecap:butt;stroke-linejoin:round"
             inkscape:connector-curvature="0"
             id="ArialMT-114"
             d="m 6.5,0 0,51.859375 7.90625,0 0,-7.859375 Q 17.4375,49.515625 20,51.265625 q 2.5625,1.765625 5.640625,1.765625 4.4375,0 9.03125,-2.828125 l -3.03125,-8.15625 q -3.21875,1.90625 -6.4375,1.90625 -2.890625,0 -5.1875,-1.734375 -2.296875,-1.734375 -3.265625,-4.8125 -1.46875,-4.6875 -1.46875,-10.25 L 15.28125,0 Z" />
          <path
             style="stroke-linecap:butt;stroke-linejoin:round"
             inkscape:connector-curvature="0"
             d=""
             id="ArialMT-32" />
          <path
             style="stroke-linecap:butt;stroke-linejoin:round"
             inkscape:connector-curvature="0"
             id="ArialMT-111"
             d="m 3.328125,25.921875 q 0,14.40625 8,21.34375 6.6875,5.765625 16.3125,5.765625 10.6875,0 17.46875,-7.015625 6.796875,-7 6.796875,-19.359375 0,-10 -3,-15.75 -3,-5.734375 -8.75,-8.90625 Q 34.421875,-1.171875 27.640625,-1.171875 16.75,-1.171875 10.03125,5.8125 3.328125,12.796875 3.328125,25.921875 Z m 9.03125,0 q 0,-9.953125 4.34375,-14.90625 4.34375,-4.953125 10.9375,-4.953125 6.546875,0 10.890625,4.96875 4.34375,4.984375 4.34375,15.1875 0,9.625 -4.375,14.578125 Q 34.125,45.75 27.640625,45.75 q -6.59375,0 -10.9375,-4.9375 -4.34375,-4.921875 -4.34375,-14.890625 z" />
          <path
             style="stroke-linecap:butt;stroke-linejoin:round"
             inkscape:connector-curvature="0"
             id="ArialMT-102"
             d="m 8.6875,0 0,45.015625 -7.765625,0 0,6.84375 7.765625,0 0,5.515625 q 0,5.21875 0.9375,7.765625 1.265625,3.421875 4.453125,5.53125 3.203125,2.125 8.96875,2.125 3.71875,0 8.203125,-0.875 l -1.3125,-7.65625 Q 27.203125,64.75 24.75,64.75 q -4,0 -5.65625,-1.71875 -1.65625,-1.703125 -1.65625,-6.390625 l 0,-4.78125 10.109375,0 0,-6.84375 -10.109375,0 L 17.4375,0 Z" />
          <path
             style="stroke-linecap:butt;stroke-linejoin:round"
             inkscape:connector-curvature="0"
             id="ArialMT-115"
             d="m 3.078125,15.484375 8.6875,1.359375 Q 12.5,11.625 15.84375,8.84375 19.1875,6.0625 25.203125,6.0625 q 6.046875,0 8.96875,2.453125 2.9375,2.46875 2.9375,5.796875 0,2.96875 -2.59375,4.6875 Q 32.71875,20.171875 25.53125,21.96875 15.875,24.421875 12.140625,26.203125 8.40625,27.984375 6.46875,31.125 q -1.921875,3.15625 -1.921875,6.96875 0,3.453125 1.578125,6.40625 1.59375,2.96875 4.328125,4.921875 2.046875,1.5 5.578125,2.546875 3.546875,1.0625 7.609375,1.0625 6.09375,0 10.703125,-1.765625 4.625,-1.75 6.8125,-4.765625 2.203125,-3 3.03125,-8.015625 L 35.59375,37.3125 q -0.578125,4 -3.390625,6.234375 -2.8125,2.25 -7.9375,2.25 -6.046875,0 -8.640625,-2 -2.59375,-2 -2.59375,-4.6875 0,-1.703125 1.078125,-3.078125 1.078125,-1.40625 3.375,-2.34375 1.3125,-0.484375 7.765625,-2.234375 9.328125,-2.5 13,-4.09375 3.6875,-1.578125 5.78125,-4.609375 2.109375,-3.015625 2.109375,-7.515625 0,-4.390625 -2.5625,-8.28125 -2.5625,-3.875 -7.40625,-6 -4.828125,-2.125 -10.921875,-2.125 -10.109375,0 -15.40625,4.203125 -5.296875,4.203125 -6.765625,12.453125 z" />
        </defs>
        <g
           style="stroke-linecap:butt;stroke-linejoin:round"
           id="g157"
           transform="matrix(0.144,0,0,-0.144,148.97362,128.02162)">
          <use
             height="100%"
             width="100%"
             y="0"
             x="0"
             style="stroke-linecap:butt;stroke-linejoin:round"
             id="use159"
             xlink:href="#ArialMT-78" />
          <use
             height="100%"
             width="100%"
             y="0"
             style="stroke-linecap:butt;stroke-linejoin:round"
             id="use161"
             xlink:href="#ArialMT-117"
             x="72.216797" />
          <use
             height="100%"
             width="100%"
             y="0"
             style="stroke-linecap:butt;stroke-linejoin:round"
             id="use163"
             xlink:href="#ArialMT-109"
             x="127.83203" />
          <use
             height="100%"
             width="100%"
             y="0"
             style="stroke-linecap:butt;stroke-linejoin:round"
             id="use165"
             xlink:href="#ArialMT-98"
             x="211.13281" />
          <use
             height="100%"
             width="100%"
             y="0"
             style="stroke-linecap:butt;stroke-linejoin:round"
             id="use167"
             xlink:href="#ArialMT-101"
             x="266.74805" />
          <use
             height="100%"
             width="100%"
             y="0"
             style="stroke-linecap:butt;stroke-linejoin:round"
             id="use169"
             xlink:href="#ArialMT-114"
             x="322.36328" />
          <use
             height="100%"
             width="100%"
             y="0"
             style="stroke-linecap:butt;stroke-linejoin:round"
             id="use171"
             xlink:href="#ArialMT-32"
             x="355.66406" />
          <use
             height="100%"
             width="100%"
             y="0"
             style="stroke-linecap:butt;stroke-linejoin:round"
             id="use173"
             xlink:href="#ArialMT-111"
             x="383.44727" />
          <use
             height="100%"
             width="100%"
             y="0"
             style="stroke-linecap:butt;stroke-linejoin:round"
             id="use175"
             xlink:href="#ArialMT-102"
             x="439.0625" />
          <use
             height="100%"
             width="100%"
             y="0"
             style="stroke-linecap:butt;stroke-linejoin:round"
             id="use177"
             xlink:href="#ArialMT-32"
             x="466.8457" />
          <use
             height="100%"
             width="100%"
             y="0"
             style="stroke-linecap:butt;stroke-linejoin:round"
             id="use179"
             xlink:href="#ArialMT-117"
             x="494.62891" />
          <use
             height="100%"
             width="100%"
             y="0"
             style="stroke-linecap:butt;stroke-linejoin:round"
             id="use181"
             xlink:href="#ArialMT-115"
             x="550.24414" />
          <use
             height="100%"
             width="100%"
             y="0"
             style="stroke-linecap:butt;stroke-linejoin:round"
             id="use183"
             xlink:href="#ArialMT-101"
             x="600.24414" />
          <use
             height="100%"
             width="100%"
             y="0"
             style="stroke-linecap:butt;stroke-linejoin:round"
             id="use185"
             xlink:href="#ArialMT-114"
             x="655.85938" />
          <use
             height="100%"
             width="100%"
             y="0"
             style="stroke-linecap:butt;stroke-linejoin:round"
             id="use187"
             xlink:href="#ArialMT-115"
             x="689.16016" />
        </g>
      </g>
    </g>
    <g
       style="stroke-linecap:butt;stroke-linejoin:round"
       id="matplotlib.axis_2" />
    <g
       style="stroke-linecap:butt;stroke-linejoin:round"
       id="patch_3">
      <path
         inkscape:connector-curvature="0"
         id="path191"
         style="fill:#2ca02c;stroke-linecap:butt;stroke-linejoin:round"
         d="m 16.56,93.74 266.28473,0 0,-77.18 -266.28473,0 z"
         clip-path="url(#pd547a96803)" />
    </g>
    <g
       style="stroke-linecap:butt;stroke-linejoin:round"
       id="patch_4">
      <path
         inkscape:connector-curvature="0"
         id="path194"
         style="fill:#d62728;stroke-linecap:butt;stroke-linejoin:round"
         d="m 282.84473,93.74 59.83533,0 0,-77.18 -59.83533,0 z"
         clip-path="url(#pd547a96803)" />
    </g>
    <g
       style="stroke-linecap:butt;stroke-linejoin:round"
       id="patch_5">
      <path
         inkscape:connector-curvature="0"
         id="path197"
         style="fill:#1f77b4;stroke-linecap:butt;stroke-linejoin:round"
         d="m 342.68006,93.74 45.13894,0 0,-77.18 -45.13894,0 z"
         clip-path="url(#pd547a96803)" />
    </g>
    <g
       style="stroke-linecap:butt;stroke-linejoin:round"
       id="patch_6">
      <path
         inkscape:connector-curvature="0"
         id="path200"
         style="fill:none;stroke:#000000;stroke-linecap:square;stroke-linejoin:miter"
         d="m 16.56,93.74 0,-77.18" />
    </g>
    <g
       style="stroke-linecap:butt;stroke-linejoin:round"
       id="patch_7">
      <path
         inkscape:connector-curvature="0"
         id="path203"
         style="fill:none;stroke:#000000;stroke-linecap:square;stroke-linejoin:miter"
         d="m 387.819,93.74 0,-77.18" />
    </g>
    <g
       style="stroke-linecap:butt;stroke-linejoin:round"
       id="patch_8">
      <path
         inkscape:connector-curvature="0"
         id="path206"
         style="fill:none;stroke:#000000;stroke-linecap:square;stroke-linejoin:miter"
         d="m 16.56,93.74 371.259,0" />
    </g>
    <g
       style="stroke-linecap:butt;stroke-linejoin:round"
       id="patch_9">
      <path
         inkscape:connector-curvature="0"
         id="path209"
         style="fill:none;stroke:#000000;stroke-linecap:square;stroke-linejoin:miter"
         d="m 16.56,16.56 371.259,0" />
    </g>
    <g
       transform="translate(0,-0.1397)"
       style="stroke-linecap:butt;stroke-linejoin:round"
       id="legend_1">
      <g
         style="stroke-linecap:butt;stroke-linejoin:round"
         id="patch_10">
        <path
           inkscape:connector-curvature="0"
           id="path213"
           style="fill:#ffffff;stroke:#000000;stroke-linecap:butt;stroke-linejoin:miter"
           d="m 409.86936,82.7962 150.27075,0 0,-65.5965 -150.27075,0 z" />
      </g>
      <g
         style="stroke-linecap:butt;stroke-linejoin:round"
         id="patch_11">
        <path
           inkscape:connector-curvature="0"
           id="path216"
           style="fill:#2ca02c;stroke-linecap:butt;stroke-linejoin:round"
           d="m 415.62936,33.26695 28.8,0 0,-10.08 -28.8,0 z" />
      </g>
      <g
         style="stroke-linecap:butt;stroke-linejoin:round"
         id="text_8">
        <!-- Newcomer -->
        <defs
           id="defs219">
          <path
             style="stroke-linecap:butt;stroke-linejoin:round"
             inkscape:connector-curvature="0"
             id="ArialMT-119"
             d="m 16.15625,0 -15.859375,51.859375 9.078125,0 8.25,-29.9375 3.078125,-11.125 q 0.203125,0.828125 2.6875,10.6875 l 8.25,30.375 9.03125,0 L 48.4375,21.78125 51.03125,11.859375 54,21.875 l 8.890625,29.984375 8.546875,0 L 55.21875,0 l -9.125,0 -8.25,31.0625 -2,8.828125 L 25.34375,0 Z" />
          <path
             style="stroke-linecap:butt;stroke-linejoin:round"
             inkscape:connector-curvature="0"
             id="ArialMT-99"
             d="m 40.4375,19 8.640625,-1.125 Q 47.65625,8.9375 41.8125,3.875 35.984375,-1.171875 27.484375,-1.171875 16.84375,-1.171875 10.375,5.78125 3.90625,12.75 3.90625,25.734375 q 0,8.390625 2.78125,14.6875 2.78125,6.3125 8.46875,9.453125 5.6875,3.15625 12.390625,3.15625 8.4375,0 13.8125,-4.28125 5.375,-4.265625 6.890625,-12.125 l -8.546875,-1.328125 q -1.21875,5.234375 -4.328125,7.859375 -3.09375,2.640625 -7.5,2.640625 -6.640625,0 -10.796875,-4.765625 -4.140625,-4.75 -4.140625,-15.046875 0,-10.453125 4,-15.1875 Q 20.953125,6.0625 27.390625,6.0625 32.5625,6.0625 36.03125,9.234375 39.5,12.40625 40.4375,19 Z" />
        </defs>
        <g
           style="stroke-linecap:butt;stroke-linejoin:round"
           id="g223"
           transform="matrix(0.144,0,0,-0.144,455.94936,33.26695)">
          <use
             height="100%"
             width="100%"
             y="0"
             x="0"
             style="stroke-linecap:butt;stroke-linejoin:round"
             id="use225"
             xlink:href="#ArialMT-78" />
          <use
             height="100%"
             width="100%"
             y="0"
             style="stroke-linecap:butt;stroke-linejoin:round"
             id="use227"
             xlink:href="#ArialMT-101"
             x="72.216797" />
          <use
             height="100%"
             width="100%"
             y="0"
             style="stroke-linecap:butt;stroke-linejoin:round"
             id="use229"
             xlink:href="#ArialMT-119"
             x="127.83203" />
          <use
             height="100%"
             width="100%"
             y="0"
             style="stroke-linecap:butt;stroke-linejoin:round"
             id="use231"
             xlink:href="#ArialMT-99"
             x="200.04883" />
          <use
             height="100%"
             width="100%"
             y="0"
             style="stroke-linecap:butt;stroke-linejoin:round"
             id="use233"
             xlink:href="#ArialMT-111"
             x="250.04883" />
          <use
             height="100%"
             width="100%"
             y="0"
             style="stroke-linecap:butt;stroke-linejoin:round"
             id="use235"
             xlink:href="#ArialMT-109"
             x="305.66406" />
          <use
             height="100%"
             width="100%"
             y="0"
             style="stroke-linecap:butt;stroke-linejoin:round"
             id="use237"
             xlink:href="#ArialMT-101"
             x="388.96484" />
          <use
             height="100%"
             width="100%"
             y="0"
             style="stroke-linecap:butt;stroke-linejoin:round"
             id="use239"
             xlink:href="#ArialMT-114"
             x="444.58008" />
        </g>
      </g>
      <g
         style="stroke-linecap:butt;stroke-linejoin:round"
         id="patch_12">
        <path
           inkscape:connector-curvature="0"
           id="path242"
           style="fill:#d62728;stroke-linecap:butt;stroke-linejoin:round"
           d="m 415.62936,53.6362 28.8,0 0,-10.08 -28.8,0 z" />
      </g>
      <g
         style="stroke-linecap:butt;stroke-linejoin:round"
         id="text_9">
        <!-- Mengele Victim -->
        <defs
           id="defs245">
          <path
             style="stroke-linecap:butt;stroke-linejoin:round"
             inkscape:connector-curvature="0"
             id="ArialMT-77"
             d="m 7.421875,0 0,71.578125 14.265625,0 L 38.625,20.90625 q 2.34375,-7.09375 3.421875,-10.609375 1.21875,3.90625 3.796875,11.484375 l 17.140625,49.796875 12.75,0 0,-71.578125 -9.125,0 0,59.90625 L 45.796875,0 37.25,0 16.546875,60.9375 16.546875,0 Z" />
          <path
             style="stroke-linecap:butt;stroke-linejoin:round"
             inkscape:connector-curvature="0"
             id="ArialMT-110"
             d="m 6.59375,0 0,51.859375 7.90625,0 0,-7.375 q 5.71875,8.546875 16.5,8.546875 4.6875,0 8.625,-1.6875 3.9375,-1.6875 5.890625,-4.421875 Q 47.46875,44.1875 48.25,40.4375 48.734375,37.984375 48.734375,31.890625 L 48.734375,0 39.9375,0 l 0,31.546875 q 0,5.375 -1.03125,8.03125 -1.015625,2.65625 -3.625,4.234375 -2.609375,1.59375 -6.125,1.59375 -5.625,0 -9.703125,-3.5625 Q 15.375,38.28125 15.375,28.328125 L 15.375,0 Z" />
          <path
             style="stroke-linecap:butt;stroke-linejoin:round"
             inkscape:connector-curvature="0"
             id="ArialMT-103"
             d="M 4.984375,-4.296875 13.53125,-5.5625 q 0.53125,-3.953125 2.96875,-5.765625 3.28125,-2.4375 8.9375,-2.4375 6.109375,0 9.421875,2.4375 3.328125,2.4375 4.5,6.828125 0.6875,2.6875 0.625,11.28125 Q 34.234375,0 25.640625,0 14.9375,0 9.078125,7.71875 q -5.859375,7.71875 -5.859375,18.5 0,7.421875 2.6875,13.6875 2.6875,6.28125 7.78125,9.703125 5.109375,3.421875 12,3.421875 9.171875,0 15.140625,-7.421875 l 0,6.25 8.09375,0 0,-44.828125 q 0,-12.109375 -2.46875,-17.15625 -2.453125,-5.0625 -7.8125,-7.984375 -5.34375,-2.9375 -13.15625,-2.9375 -9.265625,0 -14.984375,4.171875 -5.71875,4.171875 -5.515625,12.578125 z M 12.25,26.859375 q 0,-10.203125 4.046875,-14.890625 4.0625,-4.6875 10.171875,-4.6875 6.046875,0 10.140625,4.65625 4.109375,4.671875 4.109375,14.625 0,9.515625 -4.21875,14.34375 Q 32.28125,45.75 26.3125,45.75 q -5.859375,0 -9.96875,-4.765625 -4.09375,-4.75 -4.09375,-14.125 z" />
          <path
             style="stroke-linecap:butt;stroke-linejoin:round"
             inkscape:connector-curvature="0"
             id="ArialMT-108"
             d="m 6.390625,0 0,71.578125 8.796875,0 L 15.1875,0 Z" />
          <path
             style="stroke-linecap:butt;stroke-linejoin:round"
             inkscape:connector-curvature="0"
             id="ArialMT-86"
             d="M 28.171875,0 0.4375,71.578125 l 10.25,0 18.609375,-52 q 2.25,-6.25 3.765625,-11.71875 1.65625,5.859375 3.859375,11.71875 l 19.328125,52 9.671875,0 L 37.890625,0 Z" />
          <path
             style="stroke-linecap:butt;stroke-linejoin:round"
             inkscape:connector-curvature="0"
             id="ArialMT-105"
             d="m 6.640625,61.46875 0,10.109375 8.796875,0 0,-10.109375 z m 0,-61.46875 0,51.859375 8.796875,0 L 15.4375,0 Z" />
          <path
             style="stroke-linecap:butt;stroke-linejoin:round"
             inkscape:connector-curvature="0"
             id="ArialMT-116"
             d="M 25.78125,7.859375 27.046875,0.09375 Q 23.34375,-0.6875 20.40625,-0.6875 15.625,-0.6875 12.984375,0.828125 10.359375,2.34375 9.28125,4.8125 8.203125,7.28125 8.203125,15.1875 l 0,29.828125 -6.4375,0 0,6.84375 6.4375,0 0,12.84375 8.734375,5.265625 0,-18.109375 8.84375,0 0,-6.84375 -8.84375,0 0,-30.3125 q 0,-3.765625 0.46875,-4.84375 0.46875,-1.0625 1.515625,-1.703125 1.046875,-0.640625 3,-0.640625 1.46875,0 3.859375,0.34375 z" />
        </defs>
        <g
           style="stroke-linecap:butt;stroke-linejoin:round"
           id="g254"
           transform="matrix(0.144,0,0,-0.144,455.94936,53.6362)">
          <use
             height="100%"
             width="100%"
             y="0"
             x="0"
             style="stroke-linecap:butt;stroke-linejoin:round"
             id="use256"
             xlink:href="#ArialMT-77" />
          <use
             height="100%"
             width="100%"
             y="0"
             style="stroke-linecap:butt;stroke-linejoin:round"
             id="use258"
             xlink:href="#ArialMT-101"
             x="83.300781" />
          <use
             height="100%"
             width="100%"
             y="0"
             style="stroke-linecap:butt;stroke-linejoin:round"
             id="use260"
             xlink:href="#ArialMT-110"
             x="138.91602" />
          <use
             height="100%"
             width="100%"
             y="0"
             style="stroke-linecap:butt;stroke-linejoin:round"
             id="use262"
             xlink:href="#ArialMT-103"
             x="194.53125" />
          <use
             height="100%"
             width="100%"
             y="0"
             style="stroke-linecap:butt;stroke-linejoin:round"
             id="use264"
             xlink:href="#ArialMT-101"
             x="250.14648" />
          <use
             height="100%"
             width="100%"
             y="0"
             style="stroke-linecap:butt;stroke-linejoin:round"
             id="use266"
             xlink:href="#ArialMT-108"
             x="305.76172" />
          <use
             height="100%"
             width="100%"
             y="0"
             style="stroke-linecap:butt;stroke-linejoin:round"
             id="use268"
             xlink:href="#ArialMT-101"
             x="327.97852" />
          <use
             height="100%"
             width="100%"
             y="0"
             style="stroke-linecap:butt;stroke-linejoin:round"
             id="use270"
             xlink:href="#ArialMT-32"
             x="383.59375" />
          <use
             height="100%"
             width="100%"
             y="0"
             style="stroke-linecap:butt;stroke-linejoin:round"
             id="use272"
             xlink:href="#ArialMT-86"
             x="411.37695" />
          <use
             height="100%"
             width="100%"
             y="0"
             style="stroke-linecap:butt;stroke-linejoin:round"
             id="use274"
             xlink:href="#ArialMT-105"
             x="478.06055" />
          <use
             height="100%"
             width="100%"
             y="0"
             style="stroke-linecap:butt;stroke-linejoin:round"
             id="use276"
             xlink:href="#ArialMT-99"
             x="500.27734" />
          <use
             height="100%"
             width="100%"
             y="0"
             style="stroke-linecap:butt;stroke-linejoin:round"
             id="use278"
             xlink:href="#ArialMT-116"
             x="550.27734" />
          <use
             height="100%"
             width="100%"
             y="0"
             style="stroke-linecap:butt;stroke-linejoin:round"
             id="use280"
             xlink:href="#ArialMT-105"
             x="578.06055" />
          <use
             height="100%"
             width="100%"
             y="0"
             style="stroke-linecap:butt;stroke-linejoin:round"
             id="use282"
             xlink:href="#ArialMT-109"
             x="600.27734" />
        </g>
      </g>
      <g
         style="stroke-linecap:butt;stroke-linejoin:round"
         id="patch_13">
        <path
           inkscape:connector-curvature="0"
           id="path285"
           style="fill:#1f77b4;stroke-linecap:butt;stroke-linejoin:round"
           d="m 415.62936,74.1742 28.8,0 0,-10.08 -28.8,0 z" />
      </g>
      <g
         style="stroke-linecap:butt;stroke-linejoin:round"
         id="text_10">
        <!-- Member -->
        <g
           style="stroke-linecap:butt;stroke-linejoin:round"
           id="g288"
           transform="matrix(0.144,0,0,-0.144,455.94936,74.1742)">
          <use
             height="100%"
             width="100%"
             y="0"
             x="0"
             style="stroke-linecap:butt;stroke-linejoin:round"
             id="use290"
             xlink:href="#ArialMT-77" />
          <use
             height="100%"
             width="100%"
             y="0"
             style="stroke-linecap:butt;stroke-linejoin:round"
             id="use292"
             xlink:href="#ArialMT-101"
             x="83.300781" />
          <use
             height="100%"
             width="100%"
             y="0"
             style="stroke-linecap:butt;stroke-linejoin:round"
             id="use294"
             xlink:href="#ArialMT-109"
             x="138.91602" />
          <use
             height="100%"
             width="100%"
             y="0"
             style="stroke-linecap:butt;stroke-linejoin:round"
             id="use296"
             xlink:href="#ArialMT-98"
             x="222.2168" />
          <use
             height="100%"
             width="100%"
             y="0"
             style="stroke-linecap:butt;stroke-linejoin:round"
             id="use298"
             xlink:href="#ArialMT-101"
             x="277.83203" />
          <use
             height="100%"
             width="100%"
             y="0"
             style="stroke-linecap:butt;stroke-linejoin:round"
             id="use300"
             xlink:href="#ArialMT-114"
             x="333.44727" />
        </g>
      </g>
    </g>
  </g>
  <defs
     id="defs302">
    <clipPath
       id="pd547a96803"
       style="stroke-linecap:butt;stroke-linejoin:round">
      <rect
         height="77.18"
         width="371.259"
         x="16.559999"
         y="16.559999"
         id="rect305"
         style="stroke-linecap:butt;stroke-linejoin:round" />
    </clipPath>
  </defs>
</svg>
