<?xml version="1.0" encoding="utf-8" standalone="no"?>
<!DOCTYPE svg PUBLIC "-//W3C//DTD SVG 1.1//EN"
  "http://www.w3.org/Graphics/SVG/1.1/DTD/svg11.dtd">
<!-- Created with matplotlib (https://matplotlib.org/) -->
<svg height="432pt" version="1.1" viewBox="0 0 432 432" width="432pt" xmlns="http://www.w3.org/2000/svg" xmlns:xlink="http://www.w3.org/1999/xlink">
 <defs>
  <style type="text/css">
*{stroke-linecap:butt;stroke-linejoin:round;}
  </style>
 </defs>
 <g id="figure_1">
  <g id="patch_1">
   <path d="M 0 432 
L 432 432 
L 432 0 
L 0 0 
z
" style="fill:#ffffff;"/>
  </g>
  <g id="axes_1">
   <g id="patch_2">
    <path d="M 59.133449 373.64675 
L 409.203276 373.64675 
L 409.203276 22.406625 
L 59.133449 22.406625 
z
" style="fill:#ffffff;"/>
   </g>
   <g id="matplotlib.axis_1">
    <g id="xtick_1">
     <g id="line2d_1">
      <path clip-path="url(#p2a1b94368f)" d="M 64.392672 373.64675 
L 64.392672 22.406625 
" style="fill:none;stroke:#b2b2b2;stroke-linecap:square;stroke-width:0.5;"/>
     </g>
     <g id="line2d_2">
      <defs>
       <path d="M 0 0 
L 0 4 
" id="mcc01fc978d" style="stroke:#000000;stroke-width:0.5;"/>
      </defs>
      <g>
       <use style="stroke:#000000;stroke-width:0.5;" x="64.392672" xlink:href="#mcc01fc978d" y="373.64675"/>
      </g>
     </g>
     <g id="text_1">
      <!-- $\mathdefault{10^{0}}$ -->
      <defs>
       <path d="M 37.25 0 
L 28.46875 0 
L 28.46875 56 
Q 25.296875 52.984375 20.140625 49.953125 
Q 14.984375 46.921875 10.890625 45.40625 
L 10.890625 53.90625 
Q 18.265625 57.375 23.78125 62.296875 
Q 29.296875 67.234375 31.59375 71.875 
L 37.25 71.875 
z
" id="ArialMT-49"/>
       <path d="M 4.15625 35.296875 
Q 4.15625 48 6.765625 55.734375 
Q 9.375 63.484375 14.515625 67.671875 
Q 19.671875 71.875 27.484375 71.875 
Q 33.25 71.875 37.59375 69.546875 
Q 41.9375 67.234375 44.765625 62.859375 
Q 47.609375 58.5 49.21875 52.21875 
Q 50.828125 45.953125 50.828125 35.296875 
Q 50.828125 22.703125 48.234375 14.96875 
Q 45.65625 7.234375 40.5 3 
Q 35.359375 -1.21875 27.484375 -1.21875 
Q 17.140625 -1.21875 11.234375 6.203125 
Q 4.15625 15.140625 4.15625 35.296875 
z
M 13.1875 35.296875 
Q 13.1875 17.671875 17.3125 11.828125 
Q 21.4375 6 27.484375 6 
Q 33.546875 6 37.671875 11.859375 
Q 41.796875 17.71875 41.796875 35.296875 
Q 41.796875 52.984375 37.671875 58.78125 
Q 33.546875 64.59375 27.390625 64.59375 
Q 21.34375 64.59375 17.71875 59.46875 
Q 13.1875 52.9375 13.1875 35.296875 
z
" id="ArialMT-48"/>
      </defs>
      <g transform="translate(54.972672 394.02175)scale(0.12 -0.12)">
       <use transform="translate(0 0.99375)" xlink:href="#ArialMT-49"/>
       <use transform="translate(55.615234 0.99375)" xlink:href="#ArialMT-48"/>
       <use transform="translate(112.972813 70.6875)scale(0.7)" xlink:href="#ArialMT-48"/>
      </g>
     </g>
    </g>
    <g id="xtick_2">
     <g id="line2d_3">
      <path clip-path="url(#p2a1b94368f)" d="M 179.32954 373.64675 
L 179.32954 22.406625 
" style="fill:none;stroke:#b2b2b2;stroke-linecap:square;stroke-width:0.5;"/>
     </g>
     <g id="line2d_4">
      <g>
       <use style="stroke:#000000;stroke-width:0.5;" x="179.32954" xlink:href="#mcc01fc978d" y="373.64675"/>
      </g>
     </g>
     <g id="text_2">
      <!-- $\mathdefault{10^{1}}$ -->
      <g transform="translate(169.90954 394.02175)scale(0.12 -0.12)">
       <use transform="translate(0 0.99375)" xlink:href="#ArialMT-49"/>
       <use transform="translate(55.615234 0.99375)" xlink:href="#ArialMT-48"/>
       <use transform="translate(112.972813 70.6875)scale(0.7)" xlink:href="#ArialMT-49"/>
      </g>
     </g>
    </g>
    <g id="xtick_3">
     <g id="line2d_5">
      <path clip-path="url(#p2a1b94368f)" d="M 294.266408 373.64675 
L 294.266408 22.406625 
" style="fill:none;stroke:#b2b2b2;stroke-linecap:square;stroke-width:0.5;"/>
     </g>
     <g id="line2d_6">
      <g>
       <use style="stroke:#000000;stroke-width:0.5;" x="294.266408" xlink:href="#mcc01fc978d" y="373.64675"/>
      </g>
     </g>
     <g id="text_3">
      <!-- $\mathdefault{10^{2}}$ -->
      <defs>
       <path d="M 50.34375 8.453125 
L 50.34375 0 
L 3.03125 0 
Q 2.9375 3.171875 4.046875 6.109375 
Q 5.859375 10.9375 9.828125 15.625 
Q 13.8125 20.3125 21.34375 26.46875 
Q 33.015625 36.03125 37.109375 41.625 
Q 41.21875 47.21875 41.21875 52.203125 
Q 41.21875 57.421875 37.46875 61 
Q 33.734375 64.59375 27.734375 64.59375 
Q 21.390625 64.59375 17.578125 60.78125 
Q 13.765625 56.984375 13.71875 50.25 
L 4.6875 51.171875 
Q 5.609375 61.28125 11.65625 66.578125 
Q 17.71875 71.875 27.9375 71.875 
Q 38.234375 71.875 44.234375 66.15625 
Q 50.25 60.453125 50.25 52 
Q 50.25 47.703125 48.484375 43.546875 
Q 46.734375 39.40625 42.65625 34.8125 
Q 38.578125 30.21875 29.109375 22.21875 
Q 21.1875 15.578125 18.9375 13.203125 
Q 16.703125 10.84375 15.234375 8.453125 
z
" id="ArialMT-50"/>
      </defs>
      <g transform="translate(284.846408 394.02175)scale(0.12 -0.12)">
       <use transform="translate(0 0.99375)" xlink:href="#ArialMT-49"/>
       <use transform="translate(55.615234 0.99375)" xlink:href="#ArialMT-48"/>
       <use transform="translate(112.972813 70.6875)scale(0.7)" xlink:href="#ArialMT-50"/>
      </g>
     </g>
    </g>
    <g id="xtick_4">
     <g id="line2d_7">
      <path clip-path="url(#p2a1b94368f)" d="M 409.203276 373.64675 
L 409.203276 22.406625 
" style="fill:none;stroke:#b2b2b2;stroke-linecap:square;stroke-width:0.5;"/>
     </g>
     <g id="line2d_8">
      <g>
       <use style="stroke:#000000;stroke-width:0.5;" x="409.203276" xlink:href="#mcc01fc978d" y="373.64675"/>
      </g>
     </g>
     <g id="text_4">
      <!-- $\mathdefault{10^{3}}$ -->
      <defs>
       <path d="M 4.203125 18.890625 
L 12.984375 20.0625 
Q 14.5 12.59375 18.140625 9.296875 
Q 21.78125 6 27 6 
Q 33.203125 6 37.46875 10.296875 
Q 41.75 14.59375 41.75 20.953125 
Q 41.75 27 37.796875 30.921875 
Q 33.84375 34.859375 27.734375 34.859375 
Q 25.25 34.859375 21.53125 33.890625 
L 22.515625 41.609375 
Q 23.390625 41.5 23.921875 41.5 
Q 29.546875 41.5 34.03125 44.421875 
Q 38.53125 47.359375 38.53125 53.46875 
Q 38.53125 58.296875 35.25 61.46875 
Q 31.984375 64.65625 26.8125 64.65625 
Q 21.6875 64.65625 18.265625 61.421875 
Q 14.84375 58.203125 13.875 51.765625 
L 5.078125 53.328125 
Q 6.6875 62.15625 12.390625 67.015625 
Q 18.109375 71.875 26.609375 71.875 
Q 32.46875 71.875 37.390625 69.359375 
Q 42.328125 66.84375 44.9375 62.5 
Q 47.5625 58.15625 47.5625 53.265625 
Q 47.5625 48.640625 45.0625 44.828125 
Q 42.578125 41.015625 37.703125 38.765625 
Q 44.046875 37.3125 47.5625 32.6875 
Q 51.078125 28.078125 51.078125 21.140625 
Q 51.078125 11.765625 44.234375 5.25 
Q 37.40625 -1.265625 26.953125 -1.265625 
Q 17.53125 -1.265625 11.296875 4.34375 
Q 5.078125 9.96875 4.203125 18.890625 
z
" id="ArialMT-51"/>
      </defs>
      <g transform="translate(399.783276 394.02175)scale(0.12 -0.12)">
       <use transform="translate(0 0.99375)" xlink:href="#ArialMT-49"/>
       <use transform="translate(55.615234 0.99375)" xlink:href="#ArialMT-48"/>
       <use transform="translate(112.972813 70.6875)scale(0.7)" xlink:href="#ArialMT-51"/>
      </g>
     </g>
    </g>
    <g id="xtick_5">
     <g id="line2d_9">
      <defs>
       <path d="M 0 0 
L 0 2 
" id="mefa59191c6" style="stroke:#000000;stroke-width:0.5;"/>
      </defs>
      <g>
       <use style="stroke:#000000;stroke-width:0.5;" x="59.133449" xlink:href="#mefa59191c6" y="373.64675"/>
      </g>
     </g>
    </g>
    <g id="xtick_6">
     <g id="line2d_10">
      <g>
       <use style="stroke:#000000;stroke-width:0.5;" x="98.992116" xlink:href="#mefa59191c6" y="373.64675"/>
      </g>
     </g>
    </g>
    <g id="xtick_7">
     <g id="line2d_11">
      <g>
       <use style="stroke:#000000;stroke-width:0.5;" x="119.231494" xlink:href="#mefa59191c6" y="373.64675"/>
      </g>
     </g>
    </g>
    <g id="xtick_8">
     <g id="line2d_12">
      <g>
       <use style="stroke:#000000;stroke-width:0.5;" x="133.591561" xlink:href="#mefa59191c6" y="373.64675"/>
      </g>
     </g>
    </g>
    <g id="xtick_9">
     <g id="line2d_13">
      <g>
       <use style="stroke:#000000;stroke-width:0.5;" x="144.730095" xlink:href="#mefa59191c6" y="373.64675"/>
      </g>
     </g>
    </g>
    <g id="xtick_10">
     <g id="line2d_14">
      <g>
       <use style="stroke:#000000;stroke-width:0.5;" x="153.830939" xlink:href="#mefa59191c6" y="373.64675"/>
      </g>
     </g>
    </g>
    <g id="xtick_11">
     <g id="line2d_15">
      <g>
       <use style="stroke:#000000;stroke-width:0.5;" x="161.525593" xlink:href="#mefa59191c6" y="373.64675"/>
      </g>
     </g>
    </g>
    <g id="xtick_12">
     <g id="line2d_16">
      <g>
       <use style="stroke:#000000;stroke-width:0.5;" x="168.191006" xlink:href="#mefa59191c6" y="373.64675"/>
      </g>
     </g>
    </g>
    <g id="xtick_13">
     <g id="line2d_17">
      <g>
       <use style="stroke:#000000;stroke-width:0.5;" x="174.070317" xlink:href="#mefa59191c6" y="373.64675"/>
      </g>
     </g>
    </g>
    <g id="xtick_14">
     <g id="line2d_18">
      <g>
       <use style="stroke:#000000;stroke-width:0.5;" x="213.928984" xlink:href="#mefa59191c6" y="373.64675"/>
      </g>
     </g>
    </g>
    <g id="xtick_15">
     <g id="line2d_19">
      <g>
       <use style="stroke:#000000;stroke-width:0.5;" x="234.168362" xlink:href="#mefa59191c6" y="373.64675"/>
      </g>
     </g>
    </g>
    <g id="xtick_16">
     <g id="line2d_20">
      <g>
       <use style="stroke:#000000;stroke-width:0.5;" x="248.528429" xlink:href="#mefa59191c6" y="373.64675"/>
      </g>
     </g>
    </g>
    <g id="xtick_17">
     <g id="line2d_21">
      <g>
       <use style="stroke:#000000;stroke-width:0.5;" x="259.666963" xlink:href="#mefa59191c6" y="373.64675"/>
      </g>
     </g>
    </g>
    <g id="xtick_18">
     <g id="line2d_22">
      <g>
       <use style="stroke:#000000;stroke-width:0.5;" x="268.767807" xlink:href="#mefa59191c6" y="373.64675"/>
      </g>
     </g>
    </g>
    <g id="xtick_19">
     <g id="line2d_23">
      <g>
       <use style="stroke:#000000;stroke-width:0.5;" x="276.462461" xlink:href="#mefa59191c6" y="373.64675"/>
      </g>
     </g>
    </g>
    <g id="xtick_20">
     <g id="line2d_24">
      <g>
       <use style="stroke:#000000;stroke-width:0.5;" x="283.127874" xlink:href="#mefa59191c6" y="373.64675"/>
      </g>
     </g>
    </g>
    <g id="xtick_21">
     <g id="line2d_25">
      <g>
       <use style="stroke:#000000;stroke-width:0.5;" x="289.007185" xlink:href="#mefa59191c6" y="373.64675"/>
      </g>
     </g>
    </g>
    <g id="xtick_22">
     <g id="line2d_26">
      <g>
       <use style="stroke:#000000;stroke-width:0.5;" x="328.865852" xlink:href="#mefa59191c6" y="373.64675"/>
      </g>
     </g>
    </g>
    <g id="xtick_23">
     <g id="line2d_27">
      <g>
       <use style="stroke:#000000;stroke-width:0.5;" x="349.10523" xlink:href="#mefa59191c6" y="373.64675"/>
      </g>
     </g>
    </g>
    <g id="xtick_24">
     <g id="line2d_28">
      <g>
       <use style="stroke:#000000;stroke-width:0.5;" x="363.465297" xlink:href="#mefa59191c6" y="373.64675"/>
      </g>
     </g>
    </g>
    <g id="xtick_25">
     <g id="line2d_29">
      <g>
       <use style="stroke:#000000;stroke-width:0.5;" x="374.603831" xlink:href="#mefa59191c6" y="373.64675"/>
      </g>
     </g>
    </g>
    <g id="xtick_26">
     <g id="line2d_30">
      <g>
       <use style="stroke:#000000;stroke-width:0.5;" x="383.704675" xlink:href="#mefa59191c6" y="373.64675"/>
      </g>
     </g>
    </g>
    <g id="xtick_27">
     <g id="line2d_31">
      <g>
       <use style="stroke:#000000;stroke-width:0.5;" x="391.399329" xlink:href="#mefa59191c6" y="373.64675"/>
      </g>
     </g>
    </g>
    <g id="xtick_28">
     <g id="line2d_32">
      <g>
       <use style="stroke:#000000;stroke-width:0.5;" x="398.064742" xlink:href="#mefa59191c6" y="373.64675"/>
      </g>
     </g>
    </g>
    <g id="xtick_29">
     <g id="line2d_33">
      <g>
       <use style="stroke:#000000;stroke-width:0.5;" x="403.944053" xlink:href="#mefa59191c6" y="373.64675"/>
      </g>
     </g>
    </g>
    <g id="text_5">
     <!-- Number of Likes Received -->
     <defs>
      <path d="M 7.625 0 
L 7.625 71.578125 
L 17.328125 71.578125 
L 54.9375 15.375 
L 54.9375 71.578125 
L 64.015625 71.578125 
L 64.015625 0 
L 54.296875 0 
L 16.703125 56.25 
L 16.703125 0 
z
" id="ArialMT-78"/>
      <path d="M 40.578125 0 
L 40.578125 7.625 
Q 34.515625 -1.171875 24.125 -1.171875 
Q 19.53125 -1.171875 15.546875 0.578125 
Q 11.578125 2.34375 9.640625 5 
Q 7.71875 7.671875 6.9375 11.53125 
Q 6.390625 14.109375 6.390625 19.734375 
L 6.390625 51.859375 
L 15.1875 51.859375 
L 15.1875 23.09375 
Q 15.1875 16.21875 15.71875 13.8125 
Q 16.546875 10.359375 19.234375 8.375 
Q 21.921875 6.390625 25.875 6.390625 
Q 29.828125 6.390625 33.296875 8.421875 
Q 36.765625 10.453125 38.203125 13.9375 
Q 39.65625 17.4375 39.65625 24.078125 
L 39.65625 51.859375 
L 48.4375 51.859375 
L 48.4375 0 
z
" id="ArialMT-117"/>
      <path d="M 6.59375 0 
L 6.59375 51.859375 
L 14.453125 51.859375 
L 14.453125 44.578125 
Q 16.890625 48.390625 20.9375 50.703125 
Q 25 53.03125 30.171875 53.03125 
Q 35.9375 53.03125 39.625 50.640625 
Q 43.3125 48.25 44.828125 43.953125 
Q 50.984375 53.03125 60.84375 53.03125 
Q 68.5625 53.03125 72.703125 48.75 
Q 76.859375 44.484375 76.859375 35.59375 
L 76.859375 0 
L 68.109375 0 
L 68.109375 32.671875 
Q 68.109375 37.9375 67.25 40.25 
Q 66.40625 42.578125 64.15625 43.984375 
Q 61.921875 45.40625 58.890625 45.40625 
Q 53.421875 45.40625 49.796875 41.765625 
Q 46.1875 38.140625 46.1875 30.125 
L 46.1875 0 
L 37.40625 0 
L 37.40625 33.6875 
Q 37.40625 39.546875 35.25 42.46875 
Q 33.109375 45.40625 28.21875 45.40625 
Q 24.515625 45.40625 21.359375 43.453125 
Q 18.21875 41.5 16.796875 37.734375 
Q 15.375 33.984375 15.375 26.90625 
L 15.375 0 
z
" id="ArialMT-109"/>
      <path d="M 14.703125 0 
L 6.546875 0 
L 6.546875 71.578125 
L 15.328125 71.578125 
L 15.328125 46.046875 
Q 20.90625 53.03125 29.546875 53.03125 
Q 34.328125 53.03125 38.59375 51.09375 
Q 42.875 49.171875 45.625 45.671875 
Q 48.390625 42.1875 49.953125 37.25 
Q 51.515625 32.328125 51.515625 26.703125 
Q 51.515625 13.375 44.921875 6.09375 
Q 38.328125 -1.171875 29.109375 -1.171875 
Q 19.921875 -1.171875 14.703125 6.5 
z
M 14.59375 26.3125 
Q 14.59375 17 17.140625 12.84375 
Q 21.296875 6.0625 28.375 6.0625 
Q 34.125 6.0625 38.328125 11.0625 
Q 42.53125 16.0625 42.53125 25.984375 
Q 42.53125 36.140625 38.5 40.96875 
Q 34.46875 45.796875 28.765625 45.796875 
Q 23 45.796875 18.796875 40.796875 
Q 14.59375 35.796875 14.59375 26.3125 
z
" id="ArialMT-98"/>
      <path d="M 42.09375 16.703125 
L 51.171875 15.578125 
Q 49.03125 7.625 43.21875 3.21875 
Q 37.40625 -1.171875 28.375 -1.171875 
Q 17 -1.171875 10.328125 5.828125 
Q 3.65625 12.84375 3.65625 25.484375 
Q 3.65625 38.578125 10.390625 45.796875 
Q 17.140625 53.03125 27.875 53.03125 
Q 38.28125 53.03125 44.875 45.953125 
Q 51.46875 38.875 51.46875 26.03125 
Q 51.46875 25.25 51.421875 23.6875 
L 12.75 23.6875 
Q 13.234375 15.140625 17.578125 10.59375 
Q 21.921875 6.0625 28.421875 6.0625 
Q 33.25 6.0625 36.671875 8.59375 
Q 40.09375 11.140625 42.09375 16.703125 
z
M 13.234375 30.90625 
L 42.1875 30.90625 
Q 41.609375 37.453125 38.875 40.71875 
Q 34.671875 45.796875 27.984375 45.796875 
Q 21.921875 45.796875 17.796875 41.75 
Q 13.671875 37.703125 13.234375 30.90625 
z
" id="ArialMT-101"/>
      <path d="M 6.5 0 
L 6.5 51.859375 
L 14.40625 51.859375 
L 14.40625 44 
Q 17.4375 49.515625 20 51.265625 
Q 22.5625 53.03125 25.640625 53.03125 
Q 30.078125 53.03125 34.671875 50.203125 
L 31.640625 42.046875 
Q 28.421875 43.953125 25.203125 43.953125 
Q 22.3125 43.953125 20.015625 42.21875 
Q 17.71875 40.484375 16.75 37.40625 
Q 15.28125 32.71875 15.28125 27.15625 
L 15.28125 0 
z
" id="ArialMT-114"/>
      <path id="ArialMT-32"/>
      <path d="M 3.328125 25.921875 
Q 3.328125 40.328125 11.328125 47.265625 
Q 18.015625 53.03125 27.640625 53.03125 
Q 38.328125 53.03125 45.109375 46.015625 
Q 51.90625 39.015625 51.90625 26.65625 
Q 51.90625 16.65625 48.90625 10.90625 
Q 45.90625 5.171875 40.15625 2 
Q 34.421875 -1.171875 27.640625 -1.171875 
Q 16.75 -1.171875 10.03125 5.8125 
Q 3.328125 12.796875 3.328125 25.921875 
z
M 12.359375 25.921875 
Q 12.359375 15.96875 16.703125 11.015625 
Q 21.046875 6.0625 27.640625 6.0625 
Q 34.1875 6.0625 38.53125 11.03125 
Q 42.875 16.015625 42.875 26.21875 
Q 42.875 35.84375 38.5 40.796875 
Q 34.125 45.75 27.640625 45.75 
Q 21.046875 45.75 16.703125 40.8125 
Q 12.359375 35.890625 12.359375 25.921875 
z
" id="ArialMT-111"/>
      <path d="M 8.6875 0 
L 8.6875 45.015625 
L 0.921875 45.015625 
L 0.921875 51.859375 
L 8.6875 51.859375 
L 8.6875 57.375 
Q 8.6875 62.59375 9.625 65.140625 
Q 10.890625 68.5625 14.078125 70.671875 
Q 17.28125 72.796875 23.046875 72.796875 
Q 26.765625 72.796875 31.25 71.921875 
L 29.9375 64.265625 
Q 27.203125 64.75 24.75 64.75 
Q 20.75 64.75 19.09375 63.03125 
Q 17.4375 61.328125 17.4375 56.640625 
L 17.4375 51.859375 
L 27.546875 51.859375 
L 27.546875 45.015625 
L 17.4375 45.015625 
L 17.4375 0 
z
" id="ArialMT-102"/>
      <path d="M 7.328125 0 
L 7.328125 71.578125 
L 16.796875 71.578125 
L 16.796875 8.453125 
L 52.046875 8.453125 
L 52.046875 0 
z
" id="ArialMT-76"/>
      <path d="M 6.640625 61.46875 
L 6.640625 71.578125 
L 15.4375 71.578125 
L 15.4375 61.46875 
z
M 6.640625 0 
L 6.640625 51.859375 
L 15.4375 51.859375 
L 15.4375 0 
z
" id="ArialMT-105"/>
      <path d="M 6.640625 0 
L 6.640625 71.578125 
L 15.4375 71.578125 
L 15.4375 30.765625 
L 36.234375 51.859375 
L 47.609375 51.859375 
L 27.78125 32.625 
L 49.609375 0 
L 38.765625 0 
L 21.625 26.515625 
L 15.4375 20.5625 
L 15.4375 0 
z
" id="ArialMT-107"/>
      <path d="M 3.078125 15.484375 
L 11.765625 16.84375 
Q 12.5 11.625 15.84375 8.84375 
Q 19.1875 6.0625 25.203125 6.0625 
Q 31.25 6.0625 34.171875 8.515625 
Q 37.109375 10.984375 37.109375 14.3125 
Q 37.109375 17.28125 34.515625 19 
Q 32.71875 20.171875 25.53125 21.96875 
Q 15.875 24.421875 12.140625 26.203125 
Q 8.40625 27.984375 6.46875 31.125 
Q 4.546875 34.28125 4.546875 38.09375 
Q 4.546875 41.546875 6.125 44.5 
Q 7.71875 47.46875 10.453125 49.421875 
Q 12.5 50.921875 16.03125 51.96875 
Q 19.578125 53.03125 23.640625 53.03125 
Q 29.734375 53.03125 34.34375 51.265625 
Q 38.96875 49.515625 41.15625 46.5 
Q 43.359375 43.5 44.1875 38.484375 
L 35.59375 37.3125 
Q 35.015625 41.3125 32.203125 43.546875 
Q 29.390625 45.796875 24.265625 45.796875 
Q 18.21875 45.796875 15.625 43.796875 
Q 13.03125 41.796875 13.03125 39.109375 
Q 13.03125 37.40625 14.109375 36.03125 
Q 15.1875 34.625 17.484375 33.6875 
Q 18.796875 33.203125 25.25 31.453125 
Q 34.578125 28.953125 38.25 27.359375 
Q 41.9375 25.78125 44.03125 22.75 
Q 46.140625 19.734375 46.140625 15.234375 
Q 46.140625 10.84375 43.578125 6.953125 
Q 41.015625 3.078125 36.171875 0.953125 
Q 31.34375 -1.171875 25.25 -1.171875 
Q 15.140625 -1.171875 9.84375 3.03125 
Q 4.546875 7.234375 3.078125 15.484375 
z
" id="ArialMT-115"/>
      <path d="M 7.859375 0 
L 7.859375 71.578125 
L 39.59375 71.578125 
Q 49.171875 71.578125 54.140625 69.640625 
Q 59.125 67.71875 62.109375 62.828125 
Q 65.09375 57.953125 65.09375 52.046875 
Q 65.09375 44.4375 60.15625 39.203125 
Q 55.21875 33.984375 44.921875 32.5625 
Q 48.6875 30.765625 50.640625 29 
Q 54.78125 25.203125 58.5 19.484375 
L 70.953125 0 
L 59.03125 0 
L 49.5625 14.890625 
Q 45.40625 21.34375 42.71875 24.75 
Q 40.046875 28.171875 37.921875 29.53125 
Q 35.796875 30.90625 33.59375 31.453125 
Q 31.984375 31.78125 28.328125 31.78125 
L 17.328125 31.78125 
L 17.328125 0 
z
M 17.328125 39.984375 
L 37.703125 39.984375 
Q 44.1875 39.984375 47.84375 41.328125 
Q 51.515625 42.671875 53.421875 45.625 
Q 55.328125 48.578125 55.328125 52.046875 
Q 55.328125 57.125 51.640625 60.390625 
Q 47.953125 63.671875 39.984375 63.671875 
L 17.328125 63.671875 
z
" id="ArialMT-82"/>
      <path d="M 40.4375 19 
L 49.078125 17.875 
Q 47.65625 8.9375 41.8125 3.875 
Q 35.984375 -1.171875 27.484375 -1.171875 
Q 16.84375 -1.171875 10.375 5.78125 
Q 3.90625 12.75 3.90625 25.734375 
Q 3.90625 34.125 6.6875 40.421875 
Q 9.46875 46.734375 15.15625 49.875 
Q 20.84375 53.03125 27.546875 53.03125 
Q 35.984375 53.03125 41.359375 48.75 
Q 46.734375 44.484375 48.25 36.625 
L 39.703125 35.296875 
Q 38.484375 40.53125 35.375 43.15625 
Q 32.28125 45.796875 27.875 45.796875 
Q 21.234375 45.796875 17.078125 41.03125 
Q 12.9375 36.28125 12.9375 25.984375 
Q 12.9375 15.53125 16.9375 10.796875 
Q 20.953125 6.0625 27.390625 6.0625 
Q 32.5625 6.0625 36.03125 9.234375 
Q 39.5 12.40625 40.4375 19 
z
" id="ArialMT-99"/>
      <path d="M 21 0 
L 1.265625 51.859375 
L 10.546875 51.859375 
L 21.6875 20.796875 
Q 23.484375 15.765625 25 10.359375 
Q 26.171875 14.453125 28.265625 20.21875 
L 39.796875 51.859375 
L 48.828125 51.859375 
L 29.203125 0 
z
" id="ArialMT-118"/>
      <path d="M 40.234375 0 
L 40.234375 6.546875 
Q 35.296875 -1.171875 25.734375 -1.171875 
Q 19.53125 -1.171875 14.328125 2.25 
Q 9.125 5.671875 6.265625 11.796875 
Q 3.421875 17.921875 3.421875 25.875 
Q 3.421875 33.640625 6 39.96875 
Q 8.59375 46.296875 13.765625 49.65625 
Q 18.953125 53.03125 25.34375 53.03125 
Q 30.03125 53.03125 33.6875 51.046875 
Q 37.359375 49.078125 39.65625 45.90625 
L 39.65625 71.578125 
L 48.390625 71.578125 
L 48.390625 0 
z
M 12.453125 25.875 
Q 12.453125 15.921875 16.640625 10.984375 
Q 20.84375 6.0625 26.5625 6.0625 
Q 32.328125 6.0625 36.34375 10.765625 
Q 40.375 15.484375 40.375 25.140625 
Q 40.375 35.796875 36.265625 40.765625 
Q 32.171875 45.75 26.171875 45.75 
Q 20.3125 45.75 16.375 40.96875 
Q 12.453125 36.1875 12.453125 25.875 
z
" id="ArialMT-100"/>
     </defs>
     <g transform="translate(149.734862 411.714)scale(0.144 -0.144)">
      <use xlink:href="#ArialMT-78"/>
      <use x="72.216797" xlink:href="#ArialMT-117"/>
      <use x="127.832031" xlink:href="#ArialMT-109"/>
      <use x="211.132812" xlink:href="#ArialMT-98"/>
      <use x="266.748047" xlink:href="#ArialMT-101"/>
      <use x="322.363281" xlink:href="#ArialMT-114"/>
      <use x="355.664062" xlink:href="#ArialMT-32"/>
      <use x="383.447266" xlink:href="#ArialMT-111"/>
      <use x="439.0625" xlink:href="#ArialMT-102"/>
      <use x="466.845703" xlink:href="#ArialMT-32"/>
      <use x="494.628906" xlink:href="#ArialMT-76"/>
      <use x="550.244141" xlink:href="#ArialMT-105"/>
      <use x="572.460938" xlink:href="#ArialMT-107"/>
      <use x="622.460938" xlink:href="#ArialMT-101"/>
      <use x="678.076172" xlink:href="#ArialMT-115"/>
      <use x="728.076172" xlink:href="#ArialMT-32"/>
      <use x="755.859375" xlink:href="#ArialMT-82"/>
      <use x="828.076172" xlink:href="#ArialMT-101"/>
      <use x="883.691406" xlink:href="#ArialMT-99"/>
      <use x="933.691406" xlink:href="#ArialMT-101"/>
      <use x="989.306641" xlink:href="#ArialMT-105"/>
      <use x="1011.523438" xlink:href="#ArialMT-118"/>
      <use x="1061.523438" xlink:href="#ArialMT-101"/>
      <use x="1117.138672" xlink:href="#ArialMT-100"/>
     </g>
    </g>
   </g>
   <g id="matplotlib.axis_2">
    <g id="ytick_1">
     <g id="line2d_34">
      <path clip-path="url(#p2a1b94368f)" d="M 59.133449 368.369946 
L 409.203276 368.369946 
" style="fill:none;stroke:#b2b2b2;stroke-linecap:square;stroke-width:0.5;"/>
     </g>
     <g id="line2d_35">
      <defs>
       <path d="M 0 0 
L -4 0 
" id="m2707f5c630" style="stroke:#000000;stroke-width:0.5;"/>
      </defs>
      <g>
       <use style="stroke:#000000;stroke-width:0.5;" x="59.133449" xlink:href="#m2707f5c630" y="368.369946"/>
      </g>
     </g>
     <g id="text_6">
      <!-- $\mathdefault{10^{0}}$ -->
      <g transform="translate(32.293449 373.364946)scale(0.12 -0.12)">
       <use transform="translate(0 0.99375)" xlink:href="#ArialMT-49"/>
       <use transform="translate(55.615234 0.99375)" xlink:href="#ArialMT-48"/>
       <use transform="translate(112.972813 70.6875)scale(0.7)" xlink:href="#ArialMT-48"/>
      </g>
     </g>
    </g>
    <g id="ytick_2">
     <g id="line2d_36">
      <path clip-path="url(#p2a1b94368f)" d="M 59.133449 253.048839 
L 409.203276 253.048839 
" style="fill:none;stroke:#b2b2b2;stroke-linecap:square;stroke-width:0.5;"/>
     </g>
     <g id="line2d_37">
      <g>
       <use style="stroke:#000000;stroke-width:0.5;" x="59.133449" xlink:href="#m2707f5c630" y="253.048839"/>
      </g>
     </g>
     <g id="text_7">
      <!-- $\mathdefault{10^{1}}$ -->
      <g transform="translate(32.293449 258.043839)scale(0.12 -0.12)">
       <use transform="translate(0 0.99375)" xlink:href="#ArialMT-49"/>
       <use transform="translate(55.615234 0.99375)" xlink:href="#ArialMT-48"/>
       <use transform="translate(112.972813 70.6875)scale(0.7)" xlink:href="#ArialMT-49"/>
      </g>
     </g>
    </g>
    <g id="ytick_3">
     <g id="line2d_38">
      <path clip-path="url(#p2a1b94368f)" d="M 59.133449 137.727732 
L 409.203276 137.727732 
" style="fill:none;stroke:#b2b2b2;stroke-linecap:square;stroke-width:0.5;"/>
     </g>
     <g id="line2d_39">
      <g>
       <use style="stroke:#000000;stroke-width:0.5;" x="59.133449" xlink:href="#m2707f5c630" y="137.727732"/>
      </g>
     </g>
     <g id="text_8">
      <!-- $\mathdefault{10^{2}}$ -->
      <g transform="translate(32.293449 142.722732)scale(0.12 -0.12)">
       <use transform="translate(0 0.99375)" xlink:href="#ArialMT-49"/>
       <use transform="translate(55.615234 0.99375)" xlink:href="#ArialMT-48"/>
       <use transform="translate(112.972813 70.6875)scale(0.7)" xlink:href="#ArialMT-50"/>
      </g>
     </g>
    </g>
    <g id="ytick_4">
     <g id="line2d_40">
      <path clip-path="url(#p2a1b94368f)" d="M 59.133449 22.406625 
L 409.203276 22.406625 
" style="fill:none;stroke:#b2b2b2;stroke-linecap:square;stroke-width:0.5;"/>
     </g>
     <g id="line2d_41">
      <g>
       <use style="stroke:#000000;stroke-width:0.5;" x="59.133449" xlink:href="#m2707f5c630" y="22.406625"/>
      </g>
     </g>
     <g id="text_9">
      <!-- $\mathdefault{10^{3}}$ -->
      <g transform="translate(32.293449 27.401625)scale(0.12 -0.12)">
       <use transform="translate(0 0.99375)" xlink:href="#ArialMT-49"/>
       <use transform="translate(55.615234 0.99375)" xlink:href="#ArialMT-48"/>
       <use transform="translate(112.972813 70.6875)scale(0.7)" xlink:href="#ArialMT-51"/>
      </g>
     </g>
    </g>
    <g id="ytick_5">
     <g id="line2d_42">
      <defs>
       <path d="M 0 0 
L -2 0 
" id="mcf8cc90ce0" style="stroke:#000000;stroke-width:0.5;"/>
      </defs>
      <g>
       <use style="stroke:#000000;stroke-width:0.5;" x="59.133449" xlink:href="#mcf8cc90ce0" y="373.64675"/>
      </g>
     </g>
    </g>
    <g id="ytick_6">
     <g id="line2d_43">
      <g>
       <use style="stroke:#000000;stroke-width:0.5;" x="59.133449" xlink:href="#mcf8cc90ce0" y="333.654833"/>
      </g>
     </g>
    </g>
    <g id="ytick_7">
     <g id="line2d_44">
      <g>
       <use style="stroke:#000000;stroke-width:0.5;" x="59.133449" xlink:href="#mcf8cc90ce0" y="313.347794"/>
      </g>
     </g>
    </g>
    <g id="ytick_8">
     <g id="line2d_45">
      <g>
       <use style="stroke:#000000;stroke-width:0.5;" x="59.133449" xlink:href="#mcf8cc90ce0" y="298.939721"/>
      </g>
     </g>
    </g>
    <g id="ytick_9">
     <g id="line2d_46">
      <g>
       <use style="stroke:#000000;stroke-width:0.5;" x="59.133449" xlink:href="#mcf8cc90ce0" y="287.763951"/>
      </g>
     </g>
    </g>
    <g id="ytick_10">
     <g id="line2d_47">
      <g>
       <use style="stroke:#000000;stroke-width:0.5;" x="59.133449" xlink:href="#mcf8cc90ce0" y="278.632682"/>
      </g>
     </g>
    </g>
    <g id="ytick_11">
     <g id="line2d_48">
      <g>
       <use style="stroke:#000000;stroke-width:0.5;" x="59.133449" xlink:href="#mcf8cc90ce0" y="270.912304"/>
      </g>
     </g>
    </g>
    <g id="ytick_12">
     <g id="line2d_49">
      <g>
       <use style="stroke:#000000;stroke-width:0.5;" x="59.133449" xlink:href="#mcf8cc90ce0" y="264.224609"/>
      </g>
     </g>
    </g>
    <g id="ytick_13">
     <g id="line2d_50">
      <g>
       <use style="stroke:#000000;stroke-width:0.5;" x="59.133449" xlink:href="#mcf8cc90ce0" y="258.325643"/>
      </g>
     </g>
    </g>
    <g id="ytick_14">
     <g id="line2d_51">
      <g>
       <use style="stroke:#000000;stroke-width:0.5;" x="59.133449" xlink:href="#mcf8cc90ce0" y="218.333726"/>
      </g>
     </g>
    </g>
    <g id="ytick_15">
     <g id="line2d_52">
      <g>
       <use style="stroke:#000000;stroke-width:0.5;" x="59.133449" xlink:href="#mcf8cc90ce0" y="198.026687"/>
      </g>
     </g>
    </g>
    <g id="ytick_16">
     <g id="line2d_53">
      <g>
       <use style="stroke:#000000;stroke-width:0.5;" x="59.133449" xlink:href="#mcf8cc90ce0" y="183.618614"/>
      </g>
     </g>
    </g>
    <g id="ytick_17">
     <g id="line2d_54">
      <g>
       <use style="stroke:#000000;stroke-width:0.5;" x="59.133449" xlink:href="#mcf8cc90ce0" y="172.442844"/>
      </g>
     </g>
    </g>
    <g id="ytick_18">
     <g id="line2d_55">
      <g>
       <use style="stroke:#000000;stroke-width:0.5;" x="59.133449" xlink:href="#mcf8cc90ce0" y="163.311575"/>
      </g>
     </g>
    </g>
    <g id="ytick_19">
     <g id="line2d_56">
      <g>
       <use style="stroke:#000000;stroke-width:0.5;" x="59.133449" xlink:href="#mcf8cc90ce0" y="155.591197"/>
      </g>
     </g>
    </g>
    <g id="ytick_20">
     <g id="line2d_57">
      <g>
       <use style="stroke:#000000;stroke-width:0.5;" x="59.133449" xlink:href="#mcf8cc90ce0" y="148.903502"/>
      </g>
     </g>
    </g>
    <g id="ytick_21">
     <g id="line2d_58">
      <g>
       <use style="stroke:#000000;stroke-width:0.5;" x="59.133449" xlink:href="#mcf8cc90ce0" y="143.004536"/>
      </g>
     </g>
    </g>
    <g id="ytick_22">
     <g id="line2d_59">
      <g>
       <use style="stroke:#000000;stroke-width:0.5;" x="59.133449" xlink:href="#mcf8cc90ce0" y="103.01262"/>
      </g>
     </g>
    </g>
    <g id="ytick_23">
     <g id="line2d_60">
      <g>
       <use style="stroke:#000000;stroke-width:0.5;" x="59.133449" xlink:href="#mcf8cc90ce0" y="82.705581"/>
      </g>
     </g>
    </g>
    <g id="ytick_24">
     <g id="line2d_61">
      <g>
       <use style="stroke:#000000;stroke-width:0.5;" x="59.133449" xlink:href="#mcf8cc90ce0" y="68.297507"/>
      </g>
     </g>
    </g>
    <g id="ytick_25">
     <g id="line2d_62">
      <g>
       <use style="stroke:#000000;stroke-width:0.5;" x="59.133449" xlink:href="#mcf8cc90ce0" y="57.121737"/>
      </g>
     </g>
    </g>
    <g id="ytick_26">
     <g id="line2d_63">
      <g>
       <use style="stroke:#000000;stroke-width:0.5;" x="59.133449" xlink:href="#mcf8cc90ce0" y="47.990468"/>
      </g>
     </g>
    </g>
    <g id="ytick_27">
     <g id="line2d_64">
      <g>
       <use style="stroke:#000000;stroke-width:0.5;" x="59.133449" xlink:href="#mcf8cc90ce0" y="40.27009"/>
      </g>
     </g>
    </g>
    <g id="ytick_28">
     <g id="line2d_65">
      <g>
       <use style="stroke:#000000;stroke-width:0.5;" x="59.133449" xlink:href="#mcf8cc90ce0" y="33.582395"/>
      </g>
     </g>
    </g>
    <g id="ytick_29">
     <g id="line2d_66">
      <g>
       <use style="stroke:#000000;stroke-width:0.5;" x="59.133449" xlink:href="#mcf8cc90ce0" y="27.683429"/>
      </g>
     </g>
    </g>
    <g id="text_10">
     <!-- Number of Likes Given -->
     <defs>
      <path d="M 41.21875 28.078125 
L 41.21875 36.46875 
L 71.53125 36.53125 
L 71.53125 9.96875 
Q 64.546875 4.390625 57.125 1.578125 
Q 49.703125 -1.21875 41.890625 -1.21875 
Q 31.34375 -1.21875 22.71875 3.296875 
Q 14.109375 7.8125 9.71875 16.359375 
Q 5.328125 24.90625 5.328125 35.453125 
Q 5.328125 45.90625 9.6875 54.953125 
Q 14.0625 64.015625 22.265625 68.40625 
Q 30.46875 72.796875 41.15625 72.796875 
Q 48.921875 72.796875 55.1875 70.28125 
Q 61.46875 67.78125 65.03125 63.28125 
Q 68.609375 58.796875 70.453125 51.5625 
L 61.921875 49.21875 
Q 60.296875 54.6875 57.90625 57.8125 
Q 55.515625 60.9375 51.0625 62.8125 
Q 46.625 64.703125 41.21875 64.703125 
Q 34.71875 64.703125 29.984375 62.71875 
Q 25.25 60.75 22.34375 57.515625 
Q 19.4375 54.296875 17.828125 50.4375 
Q 15.09375 43.796875 15.09375 36.03125 
Q 15.09375 26.46875 18.390625 20.015625 
Q 21.6875 13.578125 27.984375 10.453125 
Q 34.28125 7.328125 41.359375 7.328125 
Q 47.515625 7.328125 53.375 9.6875 
Q 59.234375 12.0625 62.25 14.75 
L 62.25 28.078125 
z
" id="ArialMT-71"/>
      <path d="M 6.59375 0 
L 6.59375 51.859375 
L 14.5 51.859375 
L 14.5 44.484375 
Q 20.21875 53.03125 31 53.03125 
Q 35.6875 53.03125 39.625 51.34375 
Q 43.5625 49.65625 45.515625 46.921875 
Q 47.46875 44.1875 48.25 40.4375 
Q 48.734375 37.984375 48.734375 31.890625 
L 48.734375 0 
L 39.9375 0 
L 39.9375 31.546875 
Q 39.9375 36.921875 38.90625 39.578125 
Q 37.890625 42.234375 35.28125 43.8125 
Q 32.671875 45.40625 29.15625 45.40625 
Q 23.53125 45.40625 19.453125 41.84375 
Q 15.375 38.28125 15.375 28.328125 
L 15.375 0 
z
" id="ArialMT-110"/>
     </defs>
     <g transform="translate(24.431449 271.252937)rotate(-90)scale(0.144 -0.144)">
      <use xlink:href="#ArialMT-78"/>
      <use x="72.216797" xlink:href="#ArialMT-117"/>
      <use x="127.832031" xlink:href="#ArialMT-109"/>
      <use x="211.132812" xlink:href="#ArialMT-98"/>
      <use x="266.748047" xlink:href="#ArialMT-101"/>
      <use x="322.363281" xlink:href="#ArialMT-114"/>
      <use x="355.664062" xlink:href="#ArialMT-32"/>
      <use x="383.447266" xlink:href="#ArialMT-111"/>
      <use x="439.0625" xlink:href="#ArialMT-102"/>
      <use x="466.845703" xlink:href="#ArialMT-32"/>
      <use x="494.628906" xlink:href="#ArialMT-76"/>
      <use x="550.244141" xlink:href="#ArialMT-105"/>
      <use x="572.460938" xlink:href="#ArialMT-107"/>
      <use x="622.460938" xlink:href="#ArialMT-101"/>
      <use x="678.076172" xlink:href="#ArialMT-115"/>
      <use x="728.076172" xlink:href="#ArialMT-32"/>
      <use x="755.859375" xlink:href="#ArialMT-71"/>
      <use x="833.642578" xlink:href="#ArialMT-105"/>
      <use x="855.859375" xlink:href="#ArialMT-118"/>
      <use x="905.859375" xlink:href="#ArialMT-101"/>
      <use x="961.474609" xlink:href="#ArialMT-110"/>
     </g>
    </g>
   </g>
   <g id="line2d_67">
    <defs>
     <path d="M 0 1.5 
C 0.397805 1.5 0.77937 1.341951 1.06066 1.06066 
C 1.341951 0.77937 1.5 0.397805 1.5 0 
C 1.5 -0.397805 1.341951 -0.77937 1.06066 -1.06066 
C 0.77937 -1.341951 0.397805 -1.5 0 -1.5 
C -0.397805 -1.5 -0.77937 -1.341951 -1.06066 -1.06066 
C -1.341951 -0.77937 -1.5 -0.397805 -1.5 0 
C -1.5 0.397805 -1.341951 0.77937 -1.06066 1.06066 
C -0.77937 1.341951 -0.397805 1.5 0 1.5 
z
" id="m8afe7e9144"/>
    </defs>
    <g clip-path="url(#p2a1b94368f)">
     <use style="fill:#0072bd;" x="328.364175" xlink:href="#m8afe7e9144" y="95.149351"/>
     <use style="fill:#0072bd;" x="213.928984" xlink:href="#m8afe7e9144" y="173.454663"/>
     <use style="fill:#0072bd;" x="196.125038" xlink:href="#m8afe7e9144" y="287.763951"/>
     <use style="fill:#0072bd;" x="289.558753" xlink:href="#m8afe7e9144" y="193.253237"/>
     <use style="fill:#0072bd;" x="279.90634" xlink:href="#m8afe7e9144" y="194.794384"/>
     <use style="fill:#0072bd;" x="293.76473" xlink:href="#m8afe7e9144" y="158.538125"/>
     <use style="fill:#0072bd;" x="161.525593" xlink:href="#m8afe7e9144" y="153.489491"/>
     <use style="fill:#0072bd;" x="119.231494" xlink:href="#m8afe7e9144" y="333.654833"/>
     <use style="fill:#0072bd;" x="216.364416" xlink:href="#m8afe7e9144" y="174.487345"/>
     <use style="fill:#0072bd;" x="64.392672" xlink:href="#m8afe7e9144" y="368.369946"/>
     <use style="fill:#0072bd;" x="232.476117" xlink:href="#m8afe7e9144" y="223.610531"/>
     <use style="fill:#0072bd;" x="205.816617" xlink:href="#m8afe7e9144" y="264.224609"/>
     <use style="fill:#0072bd;" x="161.525593" xlink:href="#m8afe7e9144" y="243.91757"/>
     <use style="fill:#0072bd;" x="174.070317" xlink:href="#m8afe7e9144" y="264.224609"/>
     <use style="fill:#0072bd;" x="119.231494" xlink:href="#m8afe7e9144" y="368.369946"/>
     <use style="fill:#0072bd;" x="64.392672" xlink:href="#m8afe7e9144" y="368.369946"/>
     <use style="fill:#0072bd;" x="119.231494" xlink:href="#m8afe7e9144" y="333.654833"/>
     <use style="fill:#0072bd;" x="133.591561" xlink:href="#m8afe7e9144" y="333.654833"/>
     <use style="fill:#0072bd;" x="208.669762" xlink:href="#m8afe7e9144" y="223.610531"/>
     <use style="fill:#0072bd;" x="353.711284" xlink:href="#m8afe7e9144" y="85.099096"/>
     <use style="fill:#0072bd;" x="133.591561" xlink:href="#m8afe7e9144" y="298.939721"/>
     <use style="fill:#0072bd;" x="98.992116" xlink:href="#m8afe7e9144" y="298.939721"/>
     <use style="fill:#0072bd;" x="144.730095" xlink:href="#m8afe7e9144" y="368.369946"/>
     <use style="fill:#0072bd;" x="161.525593" xlink:href="#m8afe7e9144" y="298.939721"/>
     <use style="fill:#0072bd;" x="188.430384" xlink:href="#m8afe7e9144" y="194.794384"/>
     <use style="fill:#0072bd;" x="179.32954" xlink:href="#m8afe7e9144" y="198.026687"/>
     <use style="fill:#0072bd;" x="199.568917" xlink:href="#m8afe7e9144" y="278.632682"/>
     <use style="fill:#0072bd;" x="196.125038" xlink:href="#m8afe7e9144" y="333.654833"/>
     <use style="fill:#0072bd;" x="144.730095" xlink:href="#m8afe7e9144" y="368.369946"/>
     <use style="fill:#0072bd;" x="218.68653" xlink:href="#m8afe7e9144" y="198.026687"/>
     <use style="fill:#0072bd;" x="98.992116" xlink:href="#m8afe7e9144" y="368.369946"/>
     <use style="fill:#0072bd;" x="188.430384" xlink:href="#m8afe7e9144" y="207.157956"/>
     <use style="fill:#0072bd;" x="192.425832" xlink:href="#m8afe7e9144" y="313.347794"/>
     <use style="fill:#0072bd;" x="196.125038" xlink:href="#m8afe7e9144" y="232.7418"/>
     <use style="fill:#0072bd;" x="247.264654" xlink:href="#m8afe7e9144" y="187.523187"/>
     <use style="fill:#0072bd;" x="98.992116" xlink:href="#m8afe7e9144" y="368.369946"/>
     <use style="fill:#0072bd;" x="228.90914" xlink:href="#m8afe7e9144" y="226.473214"/>
     <use style="fill:#0072bd;" x="133.591561" xlink:href="#m8afe7e9144" y="313.347794"/>
     <use style="fill:#0072bd;" x="205.816617" xlink:href="#m8afe7e9144" y="152.135805"/>
     <use style="fill:#0072bd;" x="119.231494" xlink:href="#m8afe7e9144" y="368.369946"/>
     <use style="fill:#0072bd;" x="161.525593" xlink:href="#m8afe7e9144" y="368.369946"/>
     <use style="fill:#0072bd;" x="133.591561" xlink:href="#m8afe7e9144" y="368.369946"/>
     <use style="fill:#0072bd;" x="64.392672" xlink:href="#m8afe7e9144" y="270.912304"/>
     <use style="fill:#0072bd;" x="220.905404" xlink:href="#m8afe7e9144" y="264.224609"/>
     <use style="fill:#0072bd;" x="309.246563" xlink:href="#m8afe7e9144" y="107.736012"/>
     <use style="fill:#0072bd;" x="133.591561" xlink:href="#m8afe7e9144" y="287.763951"/>
     <use style="fill:#0072bd;" x="205.816617" xlink:href="#m8afe7e9144" y="270.912304"/>
     <use style="fill:#0072bd;" x="119.231494" xlink:href="#m8afe7e9144" y="287.763951"/>
     <use style="fill:#0072bd;" x="292.745992" xlink:href="#m8afe7e9144" y="147.666814"/>
     <use style="fill:#0072bd;" x="153.830939" xlink:href="#m8afe7e9144" y="368.369946"/>
     <use style="fill:#0072bd;" x="98.992116" xlink:href="#m8afe7e9144" y="368.369946"/>
     <use style="fill:#0072bd;" x="230.724483" xlink:href="#m8afe7e9144" y="157.042989"/>
     <use style="fill:#0072bd;" x="133.591561" xlink:href="#m8afe7e9144" y="333.654833"/>
     <use style="fill:#0072bd;" x="326.042061" xlink:href="#m8afe7e9144" y="93.881351"/>
     <use style="fill:#0072bd;" x="299.023953" xlink:href="#m8afe7e9144" y="154.180306"/>
     <use style="fill:#0072bd;" x="273.525353" xlink:href="#m8afe7e9144" y="170.478541"/>
     <use style="fill:#0072bd;" x="277.170508" xlink:href="#m8afe7e9144" y="191.758102"/>
     <use style="fill:#0072bd;" x="192.425832" xlink:href="#m8afe7e9144" y="201.48208"/>
     <use style="fill:#0072bd;" x="202.790451" xlink:href="#m8afe7e9144" y="191.758102"/>
     <use style="fill:#0072bd;" x="223.029829" xlink:href="#m8afe7e9144" y="155.591197"/>
     <use style="fill:#0072bd;" x="119.231494" xlink:href="#m8afe7e9144" y="298.939721"/>
     <use style="fill:#0072bd;" x="144.730095" xlink:href="#m8afe7e9144" y="248.275388"/>
     <use style="fill:#0072bd;" x="153.830939" xlink:href="#m8afe7e9144" y="333.654833"/>
     <use style="fill:#0072bd;" x="253.285975" xlink:href="#m8afe7e9144" y="232.7418"/>
     <use style="fill:#0072bd;" x="179.32954" xlink:href="#m8afe7e9144" y="313.347794"/>
     <use style="fill:#0072bd;" x="98.992116" xlink:href="#m8afe7e9144" y="211.333984"/>
     <use style="fill:#0072bd;" x="119.231494" xlink:href="#m8afe7e9144" y="278.632682"/>
     <use style="fill:#0072bd;" x="230.724483" xlink:href="#m8afe7e9144" y="253.048839"/>
     <use style="fill:#0072bd;" x="98.992116" xlink:href="#m8afe7e9144" y="333.654833"/>
     <use style="fill:#0072bd;" x="311.769953" xlink:href="#m8afe7e9144" y="175.54177"/>
     <use style="fill:#0072bd;" x="306.197282" xlink:href="#m8afe7e9144" y="123.069866"/>
     <use style="fill:#0072bd;" x="179.32954" xlink:href="#m8afe7e9144" y="368.369946"/>
     <use style="fill:#0072bd;" x="276.462461" xlink:href="#m8afe7e9144" y="154.180306"/>
     <use style="fill:#0072bd;" x="153.830939" xlink:href="#m8afe7e9144" y="368.369946"/>
     <use style="fill:#0072bd;" x="275.015507" xlink:href="#m8afe7e9144" y="179.996555"/>
     <use style="fill:#0072bd;" x="174.070317" xlink:href="#m8afe7e9144" y="298.939721"/>
     <use style="fill:#0072bd;" x="168.191006" xlink:href="#m8afe7e9144" y="243.91757"/>
     <use style="fill:#0072bd;" x="208.669762" xlink:href="#m8afe7e9144" y="287.763951"/>
     <use style="fill:#0072bd;" x="211.368605" xlink:href="#m8afe7e9144" y="239.908765"/>
     <use style="fill:#0072bd;" x="269.592891" xlink:href="#m8afe7e9144" y="253.048839"/>
     <use style="fill:#0072bd;" x="153.830939" xlink:href="#m8afe7e9144" y="333.654833"/>
     <use style="fill:#0072bd;" x="296.224166" xlink:href="#m8afe7e9144" y="121.960965"/>
     <use style="fill:#0072bd;" x="211.368605" xlink:href="#m8afe7e9144" y="223.610531"/>
     <use style="fill:#0072bd;" x="184.087085" xlink:href="#m8afe7e9144" y="368.369946"/>
     <use style="fill:#0072bd;" x="98.992116" xlink:href="#m8afe7e9144" y="368.369946"/>
     <use style="fill:#0072bd;" x="188.430384" xlink:href="#m8afe7e9144" y="368.369946"/>
     <use style="fill:#0072bd;" x="289.558753" xlink:href="#m8afe7e9144" y="133.411667"/>
     <use style="fill:#0072bd;" x="184.087085" xlink:href="#m8afe7e9144" y="278.632682"/>
     <use style="fill:#0072bd;" x="199.568917" xlink:href="#m8afe7e9144" y="188.895419"/>
     <use style="fill:#0072bd;" x="153.830939" xlink:href="#m8afe7e9144" y="368.369946"/>
     <use style="fill:#0072bd;" x="174.070317" xlink:href="#m8afe7e9144" y="333.654833"/>
     <use style="fill:#0072bd;" x="64.392672" xlink:href="#m8afe7e9144" y="368.369946"/>
     <use style="fill:#0072bd;" x="133.591561" xlink:href="#m8afe7e9144" y="333.654833"/>
     <use style="fill:#0072bd;" x="168.191006" xlink:href="#m8afe7e9144" y="270.912304"/>
     <use style="fill:#0072bd;" x="64.392672" xlink:href="#m8afe7e9144" y="368.369946"/>
     <use style="fill:#0072bd;" x="184.087085" xlink:href="#m8afe7e9144" y="173.454663"/>
     <use style="fill:#0072bd;" x="174.070317" xlink:href="#m8afe7e9144" y="368.369946"/>
     <use style="fill:#0072bd;" x="98.992116" xlink:href="#m8afe7e9144" y="333.654833"/>
     <use style="fill:#0072bd;" x="133.591561" xlink:href="#m8afe7e9144" y="188.895419"/>
     <use style="fill:#0072bd;" x="248.528429" xlink:href="#m8afe7e9144" y="229.509496"/>
     <use style="fill:#0072bd;" x="64.392672" xlink:href="#m8afe7e9144" y="368.369946"/>
     <use style="fill:#0072bd;" x="64.392672" xlink:href="#m8afe7e9144" y="298.939721"/>
     <use style="fill:#0072bd;" x="64.392672" xlink:href="#m8afe7e9144" y="270.912304"/>
     <use style="fill:#0072bd;" x="133.591561" xlink:href="#m8afe7e9144" y="298.939721"/>
     <use style="fill:#0072bd;" x="98.992116" xlink:href="#m8afe7e9144" y="333.654833"/>
     <use style="fill:#0072bd;" x="64.392672" xlink:href="#m8afe7e9144" y="239.908765"/>
     <use style="fill:#0072bd;" x="144.730095" xlink:href="#m8afe7e9144" y="264.224609"/>
     <use style="fill:#0072bd;" x="161.525593" xlink:href="#m8afe7e9144" y="287.763951"/>
     <use style="fill:#0072bd;" x="98.992116" xlink:href="#m8afe7e9144" y="298.939721"/>
     <use style="fill:#0072bd;" x="64.392672" xlink:href="#m8afe7e9144" y="368.369946"/>
     <use style="fill:#0072bd;" x="202.790451" xlink:href="#m8afe7e9144" y="215.890153"/>
     <use style="fill:#0072bd;" x="144.730095" xlink:href="#m8afe7e9144" y="248.275388"/>
     <use style="fill:#0072bd;" x="98.992116" xlink:href="#m8afe7e9144" y="368.369946"/>
     <use style="fill:#0072bd;" x="64.392672" xlink:href="#m8afe7e9144" y="368.369946"/>
     <use style="fill:#0072bd;" x="64.392672" xlink:href="#m8afe7e9144" y="333.654833"/>
     <use style="fill:#0072bd;" x="64.392672" xlink:href="#m8afe7e9144" y="298.939721"/>
     <use style="fill:#0072bd;" x="161.525593" xlink:href="#m8afe7e9144" y="253.048839"/>
     <use style="fill:#0072bd;" x="98.992116" xlink:href="#m8afe7e9144" y="298.939721"/>
     <use style="fill:#0072bd;" x="98.992116" xlink:href="#m8afe7e9144" y="313.347794"/>
     <use style="fill:#0072bd;" x="119.231494" xlink:href="#m8afe7e9144" y="258.325643"/>
     <use style="fill:#0072bd;" x="64.392672" xlink:href="#m8afe7e9144" y="253.048839"/>
     <use style="fill:#0072bd;" x="119.231494" xlink:href="#m8afe7e9144" y="333.654833"/>
     <use style="fill:#0072bd;" x="133.591561" xlink:href="#m8afe7e9144" y="333.654833"/>
     <use style="fill:#0072bd;" x="196.125038" xlink:href="#m8afe7e9144" y="258.325643"/>
     <use style="fill:#0072bd;" x="179.32954" xlink:href="#m8afe7e9144" y="313.347794"/>
     <use style="fill:#0072bd;" x="98.992116" xlink:href="#m8afe7e9144" y="207.157956"/>
    </g>
   </g>
   <g id="patch_3">
    <path d="M 59.133449 373.64675 
L 59.133449 22.406625 
" style="fill:none;stroke:#000000;stroke-linecap:square;stroke-linejoin:miter;"/>
   </g>
   <g id="patch_4">
    <path d="M 409.203276 373.64675 
L 409.203276 22.406625 
" style="fill:none;stroke:#000000;stroke-linecap:square;stroke-linejoin:miter;"/>
   </g>
   <g id="patch_5">
    <path d="M 59.133449 373.64675 
L 409.203276 373.64675 
" style="fill:none;stroke:#000000;stroke-linecap:square;stroke-linejoin:miter;"/>
   </g>
   <g id="patch_6">
    <path d="M 59.133449 22.406625 
L 409.203276 22.406625 
" style="fill:none;stroke:#000000;stroke-linecap:square;stroke-linejoin:miter;"/>
   </g>
  </g>
 </g>
 <defs>
  <clipPath id="p2a1b94368f">
   <rect height="351.240125" width="350.069827" x="59.133449" y="22.406625"/>
  </clipPath>
 </defs>
</svg>
