<?xml version="1.0" encoding="utf-8" standalone="no"?>
<!DOCTYPE svg PUBLIC "-//W3C//DTD SVG 1.1//EN"
  "http://www.w3.org/Graphics/SVG/1.1/DTD/svg11.dtd">
<!-- Created with matplotlib (https://matplotlib.org/) -->
<svg height="432pt" version="1.1" viewBox="0 0 720 432" width="720pt" xmlns="http://www.w3.org/2000/svg" xmlns:xlink="http://www.w3.org/1999/xlink">
 <defs>
  <style type="text/css">
*{stroke-linecap:butt;stroke-linejoin:round;}
  </style>
 </defs>
 <g id="figure_1">
  <g id="patch_1">
   <path d="M 0 432
L 720 432
L 720 0
L 0 0
z
" style="fill:#ffffff;"/>
  </g>
  <g id="axes_1">
   <g id="patch_2">
    <path d="M 60.786331 381.74
L 525.378458 381.74
L 525.378458 16.56
L 60.786331 16.56
z
" style="fill:#ffffff;"/>
   </g>
   <g id="matplotlib.axis_1">
    <g id="xtick_1">
     <g id="line2d_1">
      <path clip-path="url(#p44ca95d1d3)" d="M 60.786331 381.74
L 60.786331 16.56
" style="fill:none;stroke:#b2b2b2;stroke-linecap:square;stroke-width:0.5;"/>
     </g>
     <g id="line2d_2">
      <defs>
       <path d="M 0 0
L 0 4
" id="m747cf00e43" style="stroke:#000000;stroke-width:0.5;"/>
      </defs>
      <g>
       <use style="stroke:#000000;stroke-width:0.5;" x="60.786331" xlink:href="#m747cf00e43" y="381.74"/>
      </g>
     </g>
     <g id="text_1">
      <!-- 0 -->
      <defs>
       <path d="M 4.15625 35.296875
Q 4.15625 48 6.765625 55.734375
Q 9.375 63.484375 14.515625 67.671875
Q 19.671875 71.875 27.484375 71.875
Q 33.25 71.875 37.59375 69.546875
Q 41.9375 67.234375 44.765625 62.859375
Q 47.609375 58.5 49.21875 52.21875
Q 50.828125 45.953125 50.828125 35.296875
Q 50.828125 22.703125 48.234375 14.96875
Q 45.65625 7.234375 40.5 3
Q 35.359375 -1.21875 27.484375 -1.21875
Q 17.140625 -1.21875 11.234375 6.203125
Q 4.15625 15.140625 4.15625 35.296875
z
M 13.1875 35.296875
Q 13.1875 17.671875 17.3125 11.828125
Q 21.4375 6 27.484375 6
Q 33.546875 6 37.671875 11.859375
Q 41.796875 17.71875 41.796875 35.296875
Q 41.796875 52.984375 37.671875 58.78125
Q 33.546875 64.59375 27.390625 64.59375
Q 21.34375 64.59375 17.71875 59.46875
Q 13.1875 52.9375 13.1875 35.296875
z
" id="ArialMT-48"/>
      </defs>
      <g transform="translate(57.449769 398.329375)scale(0.12 -0.12)">
       <use xlink:href="#ArialMT-48"/>
      </g>
     </g>
    </g>
    <g id="xtick_2">
     <g id="line2d_3">
      <path clip-path="url(#p44ca95d1d3)" d="M 135.121071 381.74
L 135.121071 16.56
" style="fill:none;stroke:#b2b2b2;stroke-linecap:square;stroke-width:0.5;"/>
     </g>
     <g id="line2d_4">
      <g>
       <use style="stroke:#000000;stroke-width:0.5;" x="135.121071" xlink:href="#m747cf00e43" y="381.74"/>
      </g>
     </g>
     <g id="text_2">
      <!-- 20 -->
      <defs>
       <path d="M 50.34375 8.453125
L 50.34375 0
L 3.03125 0
Q 2.9375 3.171875 4.046875 6.109375
Q 5.859375 10.9375 9.828125 15.625
Q 13.8125 20.3125 21.34375 26.46875
Q 33.015625 36.03125 37.109375 41.625
Q 41.21875 47.21875 41.21875 52.203125
Q 41.21875 57.421875 37.46875 61
Q 33.734375 64.59375 27.734375 64.59375
Q 21.390625 64.59375 17.578125 60.78125
Q 13.765625 56.984375 13.71875 50.25
L 4.6875 51.171875
Q 5.609375 61.28125 11.65625 66.578125
Q 17.71875 71.875 27.9375 71.875
Q 38.234375 71.875 44.234375 66.15625
Q 50.25 60.453125 50.25 52
Q 50.25 47.703125 48.484375 43.546875
Q 46.734375 39.40625 42.65625 34.8125
Q 38.578125 30.21875 29.109375 22.21875
Q 21.1875 15.578125 18.9375 13.203125
Q 16.703125 10.84375 15.234375 8.453125
z
" id="ArialMT-50"/>
      </defs>
      <g transform="translate(128.447946 398.329375)scale(0.12 -0.12)">
       <use xlink:href="#ArialMT-50"/>
       <use x="55.615234" xlink:href="#ArialMT-48"/>
      </g>
     </g>
    </g>
    <g id="xtick_3">
     <g id="line2d_5">
      <path clip-path="url(#p44ca95d1d3)" d="M 209.455812 381.74
L 209.455812 16.56
" style="fill:none;stroke:#b2b2b2;stroke-linecap:square;stroke-width:0.5;"/>
     </g>
     <g id="line2d_6">
      <g>
       <use style="stroke:#000000;stroke-width:0.5;" x="209.455812" xlink:href="#m747cf00e43" y="381.74"/>
      </g>
     </g>
     <g id="text_3">
      <!-- 40 -->
      <defs>
       <path d="M 32.328125 0
L 32.328125 17.140625
L 1.265625 17.140625
L 1.265625 25.203125
L 33.9375 71.578125
L 41.109375 71.578125
L 41.109375 25.203125
L 50.78125 25.203125
L 50.78125 17.140625
L 41.109375 17.140625
L 41.109375 0
z
M 32.328125 25.203125
L 32.328125 57.46875
L 9.90625 25.203125
z
" id="ArialMT-52"/>
      </defs>
      <g transform="translate(202.782687 398.329375)scale(0.12 -0.12)">
       <use xlink:href="#ArialMT-52"/>
       <use x="55.615234" xlink:href="#ArialMT-48"/>
      </g>
     </g>
    </g>
    <g id="xtick_4">
     <g id="line2d_7">
      <path clip-path="url(#p44ca95d1d3)" d="M 283.790552 381.74
L 283.790552 16.56
" style="fill:none;stroke:#b2b2b2;stroke-linecap:square;stroke-width:0.5;"/>
     </g>
     <g id="line2d_8">
      <g>
       <use style="stroke:#000000;stroke-width:0.5;" x="283.790552" xlink:href="#m747cf00e43" y="381.74"/>
      </g>
     </g>
     <g id="text_4">
      <!-- 60 -->
      <defs>
       <path d="M 49.75 54.046875
L 41.015625 53.375
Q 39.84375 58.546875 37.703125 60.890625
Q 34.125 64.65625 28.90625 64.65625
Q 24.703125 64.65625 21.53125 62.3125
Q 17.390625 59.28125 14.984375 53.46875
Q 12.59375 47.65625 12.5 36.921875
Q 15.671875 41.75 20.265625 44.09375
Q 24.859375 46.4375 29.890625 46.4375
Q 38.671875 46.4375 44.84375 39.96875
Q 51.03125 33.5 51.03125 23.25
Q 51.03125 16.5 48.125 10.71875
Q 45.21875 4.9375 40.140625 1.859375
Q 35.0625 -1.21875 28.609375 -1.21875
Q 17.625 -1.21875 10.6875 6.859375
Q 3.765625 14.9375 3.765625 33.5
Q 3.765625 54.25 11.421875 63.671875
Q 18.109375 71.875 29.4375 71.875
Q 37.890625 71.875 43.28125 67.140625
Q 48.6875 62.40625 49.75 54.046875
z
M 13.875 23.1875
Q 13.875 18.65625 15.796875 14.5
Q 17.71875 10.359375 21.1875 8.171875
Q 24.65625 6 28.46875 6
Q 34.03125 6 38.03125 10.484375
Q 42.046875 14.984375 42.046875 22.703125
Q 42.046875 30.125 38.078125 34.390625
Q 34.125 38.671875 28.125 38.671875
Q 22.171875 38.671875 18.015625 34.390625
Q 13.875 30.125 13.875 23.1875
z
" id="ArialMT-54"/>
      </defs>
      <g transform="translate(277.117427 398.329375)scale(0.12 -0.12)">
       <use xlink:href="#ArialMT-54"/>
       <use x="55.615234" xlink:href="#ArialMT-48"/>
      </g>
     </g>
    </g>
    <g id="xtick_5">
     <g id="line2d_9">
      <path clip-path="url(#p44ca95d1d3)" d="M 358.125292 381.74
L 358.125292 16.56
" style="fill:none;stroke:#b2b2b2;stroke-linecap:square;stroke-width:0.5;"/>
     </g>
     <g id="line2d_10">
      <g>
       <use style="stroke:#000000;stroke-width:0.5;" x="358.125292" xlink:href="#m747cf00e43" y="381.74"/>
      </g>
     </g>
     <g id="text_5">
      <!-- 80 -->
      <defs>
       <path d="M 17.671875 38.8125
Q 12.203125 40.828125 9.5625 44.53125
Q 6.9375 48.25 6.9375 53.421875
Q 6.9375 61.234375 12.546875 66.546875
Q 18.171875 71.875 27.484375 71.875
Q 36.859375 71.875 42.578125 66.421875
Q 48.296875 60.984375 48.296875 53.171875
Q 48.296875 48.1875 45.671875 44.5
Q 43.0625 40.828125 37.75 38.8125
Q 44.34375 36.671875 47.78125 31.875
Q 51.21875 27.09375 51.21875 20.453125
Q 51.21875 11.28125 44.71875 5.03125
Q 38.234375 -1.21875 27.640625 -1.21875
Q 17.046875 -1.21875 10.546875 5.046875
Q 4.046875 11.328125 4.046875 20.703125
Q 4.046875 27.6875 7.59375 32.390625
Q 11.140625 37.109375 17.671875 38.8125
z
M 15.921875 53.71875
Q 15.921875 48.640625 19.1875 45.40625
Q 22.46875 42.1875 27.6875 42.1875
Q 32.765625 42.1875 36.015625 45.375
Q 39.265625 48.578125 39.265625 53.21875
Q 39.265625 58.0625 35.90625 61.359375
Q 32.5625 64.65625 27.59375 64.65625
Q 22.5625 64.65625 19.234375 61.421875
Q 15.921875 58.203125 15.921875 53.71875
z
M 13.09375 20.65625
Q 13.09375 16.890625 14.875 13.375
Q 16.65625 9.859375 20.171875 7.921875
Q 23.6875 6 27.734375 6
Q 34.03125 6 38.125 10.046875
Q 42.234375 14.109375 42.234375 20.359375
Q 42.234375 26.703125 38.015625 30.859375
Q 33.796875 35.015625 27.4375 35.015625
Q 21.234375 35.015625 17.15625 30.90625
Q 13.09375 26.8125 13.09375 20.65625
z
" id="ArialMT-56"/>
      </defs>
      <g transform="translate(351.452167 398.329375)scale(0.12 -0.12)">
       <use xlink:href="#ArialMT-56"/>
       <use x="55.615234" xlink:href="#ArialMT-48"/>
      </g>
     </g>
    </g>
    <g id="xtick_6">
     <g id="line2d_11">
      <path clip-path="url(#p44ca95d1d3)" d="M 432.460032 381.74
L 432.460032 16.56
" style="fill:none;stroke:#b2b2b2;stroke-linecap:square;stroke-width:0.5;"/>
     </g>
     <g id="line2d_12">
      <g>
       <use style="stroke:#000000;stroke-width:0.5;" x="432.460032" xlink:href="#m747cf00e43" y="381.74"/>
      </g>
     </g>
     <g id="text_6">
      <!-- 100 -->
      <defs>
       <path d="M 37.25 0
L 28.46875 0
L 28.46875 56
Q 25.296875 52.984375 20.140625 49.953125
Q 14.984375 46.921875 10.890625 45.40625
L 10.890625 53.90625
Q 18.265625 57.375 23.78125 62.296875
Q 29.296875 67.234375 31.59375 71.875
L 37.25 71.875
z
" id="ArialMT-49"/>
      </defs>
      <g transform="translate(422.450345 398.329375)scale(0.12 -0.12)">
       <use xlink:href="#ArialMT-49"/>
       <use x="55.615234" xlink:href="#ArialMT-48"/>
       <use x="111.230469" xlink:href="#ArialMT-48"/>
      </g>
     </g>
    </g>
    <g id="xtick_7">
     <g id="line2d_13">
      <path clip-path="url(#p44ca95d1d3)" d="M 506.794773 381.74
L 506.794773 16.56
" style="fill:none;stroke:#b2b2b2;stroke-linecap:square;stroke-width:0.5;"/>
     </g>
     <g id="line2d_14">
      <g>
       <use style="stroke:#000000;stroke-width:0.5;" x="506.794773" xlink:href="#m747cf00e43" y="381.74"/>
      </g>
     </g>
     <g id="text_7">
      <!-- 120 -->
      <g transform="translate(496.785085 398.329375)scale(0.12 -0.12)">
       <use xlink:href="#ArialMT-49"/>
       <use x="55.615234" xlink:href="#ArialMT-50"/>
       <use x="111.230469" xlink:href="#ArialMT-48"/>
      </g>
     </g>
    </g>
    <g id="text_8">
     <!-- Rank -->
     <defs>
      <path d="M 7.859375 0
L 7.859375 71.578125
L 39.59375 71.578125
Q 49.171875 71.578125 54.140625 69.640625
Q 59.125 67.71875 62.109375 62.828125
Q 65.09375 57.953125 65.09375 52.046875
Q 65.09375 44.4375 60.15625 39.203125
Q 55.21875 33.984375 44.921875 32.5625
Q 48.6875 30.765625 50.640625 29
Q 54.78125 25.203125 58.5 19.484375
L 70.953125 0
L 59.03125 0
L 49.5625 14.890625
Q 45.40625 21.34375 42.71875 24.75
Q 40.046875 28.171875 37.921875 29.53125
Q 35.796875 30.90625 33.59375 31.453125
Q 31.984375 31.78125 28.328125 31.78125
L 17.328125 31.78125
L 17.328125 0
z
M 17.328125 39.984375
L 37.703125 39.984375
Q 44.1875 39.984375 47.84375 41.328125
Q 51.515625 42.671875 53.421875 45.625
Q 55.328125 48.578125 55.328125 52.046875
Q 55.328125 57.125 51.640625 60.390625
Q 47.953125 63.671875 39.984375 63.671875
L 17.328125 63.671875
z
" id="ArialMT-82"/>
      <path d="M 40.4375 6.390625
Q 35.546875 2.25 31.03125 0.53125
Q 26.515625 -1.171875 21.34375 -1.171875
Q 12.796875 -1.171875 8.203125 3
Q 3.609375 7.171875 3.609375 13.671875
Q 3.609375 17.484375 5.34375 20.625
Q 7.078125 23.78125 9.890625 25.6875
Q 12.703125 27.59375 16.21875 28.5625
Q 18.796875 29.25 24.03125 29.890625
Q 34.671875 31.15625 39.703125 32.90625
Q 39.75 34.71875 39.75 35.203125
Q 39.75 40.578125 37.25 42.78125
Q 33.890625 45.75 27.25 45.75
Q 21.046875 45.75 18.09375 43.578125
Q 15.140625 41.40625 13.71875 35.890625
L 5.125 37.0625
Q 6.296875 42.578125 8.984375 45.96875
Q 11.671875 49.359375 16.75 51.1875
Q 21.828125 53.03125 28.515625 53.03125
Q 35.15625 53.03125 39.296875 51.46875
Q 43.453125 49.90625 45.40625 47.53125
Q 47.359375 45.171875 48.140625 41.546875
Q 48.578125 39.3125 48.578125 33.453125
L 48.578125 21.734375
Q 48.578125 9.46875 49.140625 6.21875
Q 49.703125 2.984375 51.375 0
L 42.1875 0
Q 40.828125 2.734375 40.4375 6.390625
z
M 39.703125 26.03125
Q 34.90625 24.078125 25.34375 22.703125
Q 19.921875 21.921875 17.671875 20.9375
Q 15.4375 19.96875 14.203125 18.09375
Q 12.984375 16.21875 12.984375 13.921875
Q 12.984375 10.40625 15.640625 8.0625
Q 18.3125 5.71875 23.4375 5.71875
Q 28.515625 5.71875 32.46875 7.9375
Q 36.421875 10.15625 38.28125 14.015625
Q 39.703125 17 39.703125 22.796875
z
" id="ArialMT-97"/>
      <path d="M 6.59375 0
L 6.59375 51.859375
L 14.5 51.859375
L 14.5 44.484375
Q 20.21875 53.03125 31 53.03125
Q 35.6875 53.03125 39.625 51.34375
Q 43.5625 49.65625 45.515625 46.921875
Q 47.46875 44.1875 48.25 40.4375
Q 48.734375 37.984375 48.734375 31.890625
L 48.734375 0
L 39.9375 0
L 39.9375 31.546875
Q 39.9375 36.921875 38.90625 39.578125
Q 37.890625 42.234375 35.28125 43.8125
Q 32.671875 45.40625 29.15625 45.40625
Q 23.53125 45.40625 19.453125 41.84375
Q 15.375 38.28125 15.375 28.328125
L 15.375 0
z
" id="ArialMT-110"/>
      <path d="M 6.640625 0
L 6.640625 71.578125
L 15.4375 71.578125
L 15.4375 30.765625
L 36.234375 51.859375
L 47.609375 51.859375
L 27.78125 32.625
L 49.609375 0
L 38.765625 0
L 21.625 26.515625
L 15.4375 20.5625
L 15.4375 0
z
" id="ArialMT-107"/>
     </defs>
     <g transform="translate(276.274894 416.021625)scale(0.144 -0.144)">
      <use xlink:href="#ArialMT-82"/>
      <use x="72.216797" xlink:href="#ArialMT-97"/>
      <use x="127.832031" xlink:href="#ArialMT-110"/>
      <use x="183.447266" xlink:href="#ArialMT-107"/>
     </g>
    </g>
   </g>
   <g id="matplotlib.axis_2">
    <g id="ytick_1">
     <g id="line2d_15">
      <path clip-path="url(#p44ca95d1d3)" d="M 60.786331 351.308333
L 525.378458 351.308333
" style="fill:none;stroke:#b2b2b2;stroke-linecap:square;stroke-width:0.5;"/>
     </g>
     <g id="line2d_16">
      <defs>
       <path d="M 0 0
L -4 0
" id="ma2914eea9b" style="stroke:#000000;stroke-width:0.5;"/>
      </defs>
      <g>
       <use style="stroke:#000000;stroke-width:0.5;" x="60.786331" xlink:href="#ma2914eea9b" y="351.308333"/>
      </g>
     </g>
     <g id="text_9">
      <!-- $\mathdefault{10^{-1}}$ -->
      <defs>
       <path d="M 3.171875 21.484375
L 3.171875 30.328125
L 30.171875 30.328125
L 30.171875 21.484375
z
" id="ArialMT-45"/>
      </defs>
      <g transform="translate(31.066331 356.303333)scale(0.12 -0.12)">
       <use transform="translate(0 0.99375)" xlink:href="#ArialMT-49"/>
       <use transform="translate(55.615234 0.99375)" xlink:href="#ArialMT-48"/>
       <use transform="translate(112.972813 70.6875)scale(0.7)" xlink:href="#ArialMT-45"/>
       <use transform="translate(136.283359 70.6875)scale(0.7)" xlink:href="#ArialMT-49"/>
      </g>
     </g>
    </g>
    <g id="ytick_2">
     <g id="line2d_17">
      <path clip-path="url(#p44ca95d1d3)" d="M 60.786331 199.15
L 525.378458 199.15
" style="fill:none;stroke:#b2b2b2;stroke-linecap:square;stroke-width:0.5;"/>
     </g>
     <g id="line2d_18">
      <g>
       <use style="stroke:#000000;stroke-width:0.5;" x="60.786331" xlink:href="#ma2914eea9b" y="199.15"/>
      </g>
     </g>
     <g id="text_10">
      <!-- $\mathdefault{10^{0}}$ -->
      <g transform="translate(33.946331 204.145)scale(0.12 -0.12)">
       <use transform="translate(0 0.99375)" xlink:href="#ArialMT-49"/>
       <use transform="translate(55.615234 0.99375)" xlink:href="#ArialMT-48"/>
       <use transform="translate(112.972813 70.6875)scale(0.7)" xlink:href="#ArialMT-48"/>
      </g>
     </g>
    </g>
    <g id="ytick_3">
     <g id="line2d_19">
      <path clip-path="url(#p44ca95d1d3)" d="M 60.786331 46.991667
L 525.378458 46.991667
" style="fill:none;stroke:#b2b2b2;stroke-linecap:square;stroke-width:0.5;"/>
     </g>
     <g id="line2d_20">
      <g>
       <use style="stroke:#000000;stroke-width:0.5;" x="60.786331" xlink:href="#ma2914eea9b" y="46.991667"/>
      </g>
     </g>
     <g id="text_11">
      <!-- $\mathdefault{10^{1}}$ -->
      <g transform="translate(33.946331 51.986667)scale(0.12 -0.12)">
       <use transform="translate(0 0.99375)" xlink:href="#ArialMT-49"/>
       <use transform="translate(55.615234 0.99375)" xlink:href="#ArialMT-48"/>
       <use transform="translate(112.972813 70.6875)scale(0.7)" xlink:href="#ArialMT-49"/>
      </g>
     </g>
    </g>
    <g id="ytick_4">
     <g id="line2d_21">
      <defs>
       <path d="M 0 0
L -2 0
" id="mc8977e00d9" style="stroke:#000000;stroke-width:0.5;"/>
      </defs>
      <g>
       <use style="stroke:#000000;stroke-width:0.5;" x="60.786331" xlink:href="#mc8977e00d9" y="374.877957"/>
      </g>
     </g>
    </g>
    <g id="ytick_5">
     <g id="line2d_22">
      <g>
       <use style="stroke:#000000;stroke-width:0.5;" x="60.786331" xlink:href="#mc8977e00d9" y="366.053999"/>
      </g>
     </g>
    </g>
    <g id="ytick_6">
     <g id="line2d_23">
      <g>
       <use style="stroke:#000000;stroke-width:0.5;" x="60.786331" xlink:href="#mc8977e00d9" y="358.270717"/>
      </g>
     </g>
    </g>
    <g id="ytick_7">
     <g id="line2d_24">
      <g>
       <use style="stroke:#000000;stroke-width:0.5;" x="60.786331" xlink:href="#mc8977e00d9" y="305.504111"/>
      </g>
     </g>
    </g>
    <g id="ytick_8">
     <g id="line2d_25">
      <g>
       <use style="stroke:#000000;stroke-width:0.5;" x="60.786331" xlink:href="#mc8977e00d9" y="278.710358"/>
      </g>
     </g>
    </g>
    <g id="ytick_9">
     <g id="line2d_26">
      <g>
       <use style="stroke:#000000;stroke-width:0.5;" x="60.786331" xlink:href="#mc8977e00d9" y="259.699888"/>
      </g>
     </g>
    </g>
    <g id="ytick_10">
     <g id="line2d_27">
      <g>
       <use style="stroke:#000000;stroke-width:0.5;" x="60.786331" xlink:href="#mc8977e00d9" y="244.954222"/>
      </g>
     </g>
    </g>
    <g id="ytick_11">
     <g id="line2d_28">
      <g>
       <use style="stroke:#000000;stroke-width:0.5;" x="60.786331" xlink:href="#mc8977e00d9" y="232.906136"/>
      </g>
     </g>
    </g>
    <g id="ytick_12">
     <g id="line2d_29">
      <g>
       <use style="stroke:#000000;stroke-width:0.5;" x="60.786331" xlink:href="#mc8977e00d9" y="222.719624"/>
      </g>
     </g>
    </g>
    <g id="ytick_13">
     <g id="line2d_30">
      <g>
       <use style="stroke:#000000;stroke-width:0.5;" x="60.786331" xlink:href="#mc8977e00d9" y="213.895666"/>
      </g>
     </g>
    </g>
    <g id="ytick_14">
     <g id="line2d_31">
      <g>
       <use style="stroke:#000000;stroke-width:0.5;" x="60.786331" xlink:href="#mc8977e00d9" y="206.112384"/>
      </g>
     </g>
    </g>
    <g id="ytick_15">
     <g id="line2d_32">
      <g>
       <use style="stroke:#000000;stroke-width:0.5;" x="60.786331" xlink:href="#mc8977e00d9" y="153.345778"/>
      </g>
     </g>
    </g>
    <g id="ytick_16">
     <g id="line2d_33">
      <g>
       <use style="stroke:#000000;stroke-width:0.5;" x="60.786331" xlink:href="#mc8977e00d9" y="126.552025"/>
      </g>
     </g>
    </g>
    <g id="ytick_17">
     <g id="line2d_34">
      <g>
       <use style="stroke:#000000;stroke-width:0.5;" x="60.786331" xlink:href="#mc8977e00d9" y="107.541555"/>
      </g>
     </g>
    </g>
    <g id="ytick_18">
     <g id="line2d_35">
      <g>
       <use style="stroke:#000000;stroke-width:0.5;" x="60.786331" xlink:href="#mc8977e00d9" y="92.795889"/>
      </g>
     </g>
    </g>
    <g id="ytick_19">
     <g id="line2d_36">
      <g>
       <use style="stroke:#000000;stroke-width:0.5;" x="60.786331" xlink:href="#mc8977e00d9" y="80.747803"/>
      </g>
     </g>
    </g>
    <g id="ytick_20">
     <g id="line2d_37">
      <g>
       <use style="stroke:#000000;stroke-width:0.5;" x="60.786331" xlink:href="#mc8977e00d9" y="70.561291"/>
      </g>
     </g>
    </g>
    <g id="ytick_21">
     <g id="line2d_38">
      <g>
       <use style="stroke:#000000;stroke-width:0.5;" x="60.786331" xlink:href="#mc8977e00d9" y="61.737333"/>
      </g>
     </g>
    </g>
    <g id="ytick_22">
     <g id="line2d_39">
      <g>
       <use style="stroke:#000000;stroke-width:0.5;" x="60.786331" xlink:href="#mc8977e00d9" y="53.95405"/>
      </g>
     </g>
    </g>
    <g id="text_12">
     <!-- Like ratio -->
     <defs>
      <path d="M 7.328125 0
L 7.328125 71.578125
L 16.796875 71.578125
L 16.796875 8.453125
L 52.046875 8.453125
L 52.046875 0
z
" id="ArialMT-76"/>
      <path d="M 6.640625 61.46875
L 6.640625 71.578125
L 15.4375 71.578125
L 15.4375 61.46875
z
M 6.640625 0
L 6.640625 51.859375
L 15.4375 51.859375
L 15.4375 0
z
" id="ArialMT-105"/>
      <path d="M 42.09375 16.703125
L 51.171875 15.578125
Q 49.03125 7.625 43.21875 3.21875
Q 37.40625 -1.171875 28.375 -1.171875
Q 17 -1.171875 10.328125 5.828125
Q 3.65625 12.84375 3.65625 25.484375
Q 3.65625 38.578125 10.390625 45.796875
Q 17.140625 53.03125 27.875 53.03125
Q 38.28125 53.03125 44.875 45.953125
Q 51.46875 38.875 51.46875 26.03125
Q 51.46875 25.25 51.421875 23.6875
L 12.75 23.6875
Q 13.234375 15.140625 17.578125 10.59375
Q 21.921875 6.0625 28.421875 6.0625
Q 33.25 6.0625 36.671875 8.59375
Q 40.09375 11.140625 42.09375 16.703125
z
M 13.234375 30.90625
L 42.1875 30.90625
Q 41.609375 37.453125 38.875 40.71875
Q 34.671875 45.796875 27.984375 45.796875
Q 21.921875 45.796875 17.796875 41.75
Q 13.671875 37.703125 13.234375 30.90625
z
" id="ArialMT-101"/>
      <path id="ArialMT-32"/>
      <path d="M 6.5 0
L 6.5 51.859375
L 14.40625 51.859375
L 14.40625 44
Q 17.4375 49.515625 20 51.265625
Q 22.5625 53.03125 25.640625 53.03125
Q 30.078125 53.03125 34.671875 50.203125
L 31.640625 42.046875
Q 28.421875 43.953125 25.203125 43.953125
Q 22.3125 43.953125 20.015625 42.21875
Q 17.71875 40.484375 16.75 37.40625
Q 15.28125 32.71875 15.28125 27.15625
L 15.28125 0
z
" id="ArialMT-114"/>
      <path d="M 25.78125 7.859375
L 27.046875 0.09375
Q 23.34375 -0.6875 20.40625 -0.6875
Q 15.625 -0.6875 12.984375 0.828125
Q 10.359375 2.34375 9.28125 4.8125
Q 8.203125 7.28125 8.203125 15.1875
L 8.203125 45.015625
L 1.765625 45.015625
L 1.765625 51.859375
L 8.203125 51.859375
L 8.203125 64.703125
L 16.9375 69.96875
L 16.9375 51.859375
L 25.78125 51.859375
L 25.78125 45.015625
L 16.9375 45.015625
L 16.9375 14.703125
Q 16.9375 10.9375 17.40625 9.859375
Q 17.875 8.796875 18.921875 8.15625
Q 19.96875 7.515625 21.921875 7.515625
Q 23.390625 7.515625 25.78125 7.859375
z
" id="ArialMT-116"/>
      <path d="M 3.328125 25.921875
Q 3.328125 40.328125 11.328125 47.265625
Q 18.015625 53.03125 27.640625 53.03125
Q 38.328125 53.03125 45.109375 46.015625
Q 51.90625 39.015625 51.90625 26.65625
Q 51.90625 16.65625 48.90625 10.90625
Q 45.90625 5.171875 40.15625 2
Q 34.421875 -1.171875 27.640625 -1.171875
Q 16.75 -1.171875 10.03125 5.8125
Q 3.328125 12.796875 3.328125 25.921875
z
M 12.359375 25.921875
Q 12.359375 15.96875 16.703125 11.015625
Q 21.046875 6.0625 27.640625 6.0625
Q 34.1875 6.0625 38.53125 11.03125
Q 42.875 16.015625 42.875 26.21875
Q 42.875 35.84375 38.5 40.796875
Q 34.125 45.75 27.640625 45.75
Q 21.046875 45.75 16.703125 40.8125
Q 12.359375 35.890625 12.359375 25.921875
z
" id="ArialMT-111"/>
     </defs>
     <g transform="translate(23.204331 228.362875)rotate(-90)scale(0.144 -0.144)">
      <use xlink:href="#ArialMT-76"/>
      <use x="55.615234" xlink:href="#ArialMT-105"/>
      <use x="77.832031" xlink:href="#ArialMT-107"/>
      <use x="127.832031" xlink:href="#ArialMT-101"/>
      <use x="183.447266" xlink:href="#ArialMT-32"/>
      <use x="211.230469" xlink:href="#ArialMT-114"/>
      <use x="244.53125" xlink:href="#ArialMT-97"/>
      <use x="300.146484" xlink:href="#ArialMT-116"/>
      <use x="327.929688" xlink:href="#ArialMT-105"/>
      <use x="350.146484" xlink:href="#ArialMT-111"/>
     </g>
    </g>
   </g>
   <g id="line2d_40">
    <path clip-path="url(#p44ca95d1d3)" d="M 60.786331 29.654236
L 64.503068 32.246001
L 68.219805 37.755984
L 71.936542 44.218608
L 75.653279 46.991667
L 79.370016 53.95405
L 83.086753 70.561291
L 86.80349 70.561291
L 90.520227 100.429157
L 94.236964 101.06686
L 97.953701 107.541555
L 101.670438 107.541555
L 105.387175 126.552025
L 109.103912 126.552025
L 112.820649 128.4136
L 116.537386 134.335308
L 120.254123 139.935137
L 123.97086 140.515652
L 127.687597 141.297691
L 131.404334 144.52182
L 135.121071 147.047536
L 138.837808 147.047536
L 142.554545 148.44861
L 146.271282 149.33961
L 149.988019 150.648198
L 153.704756 153.345778
L 157.421493 153.345778
L 161.13823 153.345778
L 164.854967 153.345778
L 168.571704 153.345778
L 172.288441 163.53229
L 176.005178 165.393864
L 179.721915 168.091444
L 183.438652 172.356248
L 187.155389 172.356248
L 190.872126 175.580376
L 194.588864 178.654489
L 198.305601 179.40934
L 202.022338 180.13953
L 205.739075 180.938591
L 209.455812 181.180206
L 213.172549 183.363658
L 216.889286 184.404334
L 220.606023 187.223053
L 224.32276 188.110811
L 228.039497 194.590846
L 231.756234 195.604547
L 235.472971 197.288426
L 239.189708 199.15
L 242.906445 199.15
L 246.623182 199.15
L 250.339919 199.15
L 254.056656 199.15
L 257.773393 199.15
L 261.49013 199.15
L 265.206867 199.15
L 268.923604 199.15
L 272.640341 199.15
L 276.357078 199.15
L 280.073815 199.15
L 283.790552 199.15
L 287.507289 202.628778
L 291.224026 202.722844
L 294.940763 206.933283
L 298.6575 207.973958
L 302.374237 208.405771
L 306.090974 210.25115
L 309.807711 214.904564
L 313.524448 218.16047
L 317.241185 221.384598
L 320.957922 224.227253
L 324.674659 225.943752
L 328.391396 225.943752
L 332.108133 225.943752
L 335.82487 225.943752
L 339.541607 227.156292
L 343.258344 228.346982
L 346.975081 229.435664
L 350.691818 229.720868
L 354.408555 230.66587
L 358.125292 236.130264
L 361.842029 239.204378
L 365.558766 244.954222
L 369.275503 244.954222
L 372.99224 244.954222
L 376.708977 244.954222
L 380.425714 244.954222
L 384.142451 244.954222
L 387.859188 244.954222
L 391.575925 244.954222
L 395.292662 244.954222
L 399.009399 247.807105
L 402.726136 248.96039
L 406.442873 252.737505
L 410.15961 255.435085
L 413.876347 257.784348
L 417.593084 259.699888
L 421.309821 259.699888
L 425.026558 266.179923
L 428.743295 267.188821
L 432.460032 267.188821
L 436.176769 268.935571
L 439.893506 270.262934
L 443.610243 271.747975
L 447.32698 271.747975
L 451.043717 271.747975
L 454.760454 271.747975
L 458.477192 272.214984
L 462.193929 278.710358
L 465.910666 278.710358
L 469.627403 283.796061
L 473.34414 290.758445
L 477.060877 296.047789
L 480.777614 298.541727
L 484.494351 305.504111
L 488.211088 305.504111
L 491.927825 317.552197
L 495.644562 317.552197
L 499.361299 317.552197
L 503.078036 318.644479
L 506.794773 327.738709
L 510.51151 327.738709
L 514.228247 344.34595
L 517.944984 351.308333
L 521.661721 357.606575
L 525.378458 363.35642
" style="fill:none;stroke:#0072bd;stroke-linecap:square;stroke-width:1.5;"/>
   </g>
   <g id="patch_3">
    <path d="M 60.786331 381.74
L 60.786331 16.56
" style="fill:none;stroke:#000000;stroke-linecap:square;stroke-linejoin:miter;"/>
   </g>
   <g id="patch_4">
    <path d="M 525.378458 381.74
L 525.378458 16.56
" style="fill:none;stroke:#000000;stroke-linecap:square;stroke-linejoin:miter;"/>
   </g>
   <g id="patch_5">
    <path d="M 60.786331 381.74
L 525.378458 381.74
" style="fill:none;stroke:#000000;stroke-linecap:square;stroke-linejoin:miter;"/>
   </g>
   <g id="patch_6">
    <path d="M 60.786331 16.56
L 525.378458 16.56
" style="fill:none;stroke:#000000;stroke-linecap:square;stroke-linejoin:miter;"/>
   </g>
  </g>
  <g id="axes_2">
   <g id="patch_7">
    <path d="M 545.538458 381.74
L 700.4025 381.74
L 700.4025 16.56
L 545.538458 16.56
z
" style="fill:#ffffff;"/>
   </g>
   <g id="matplotlib.axis_3">
    <g id="xtick_8">
     <g id="line2d_41">
      <path clip-path="url(#p882c2f37ac)" d="M 545.538458 381.74
L 545.538458 16.56
" style="fill:none;stroke:#b2b2b2;stroke-linecap:square;stroke-width:0.5;"/>
     </g>
     <g id="line2d_42">
      <g>
       <use style="stroke:#000000;stroke-width:0.5;" x="545.538458" xlink:href="#m747cf00e43" y="381.74"/>
      </g>
     </g>
     <g id="text_13">
      <!-- 0 -->
      <g transform="translate(542.201895 398.329375)scale(0.12 -0.12)">
       <use xlink:href="#ArialMT-48"/>
      </g>
     </g>
    </g>
    <g id="xtick_9">
     <g id="line2d_43">
      <path clip-path="url(#p882c2f37ac)" d="M 571.349131 381.74
L 571.349131 16.56
" style="fill:none;stroke:#b2b2b2;stroke-linecap:square;stroke-width:0.5;"/>
     </g>
     <g id="line2d_44">
      <g>
       <use style="stroke:#000000;stroke-width:0.5;" x="571.349131" xlink:href="#m747cf00e43" y="381.74"/>
      </g>
     </g>
     <g id="text_14">
      <!-- 5 -->
      <defs>
       <path d="M 4.15625 18.75
L 13.375 19.53125
Q 14.40625 12.796875 18.140625 9.390625
Q 21.875 6 27.15625 6
Q 33.5 6 37.890625 10.78125
Q 42.28125 15.578125 42.28125 23.484375
Q 42.28125 31 38.0625 35.34375
Q 33.84375 39.703125 27 39.703125
Q 22.75 39.703125 19.328125 37.765625
Q 15.921875 35.84375 13.96875 32.765625
L 5.71875 33.84375
L 12.640625 70.609375
L 48.25 70.609375
L 48.25 62.203125
L 19.671875 62.203125
L 15.828125 42.96875
Q 22.265625 47.46875 29.34375 47.46875
Q 38.71875 47.46875 45.15625 40.96875
Q 51.609375 34.46875 51.609375 24.265625
Q 51.609375 14.546875 45.953125 7.46875
Q 39.0625 -1.21875 27.15625 -1.21875
Q 17.390625 -1.21875 11.203125 4.25
Q 5.03125 9.71875 4.15625 18.75
z
" id="ArialMT-53"/>
      </defs>
      <g transform="translate(568.012569 398.329375)scale(0.12 -0.12)">
       <use xlink:href="#ArialMT-53"/>
      </g>
     </g>
    </g>
    <g id="xtick_10">
     <g id="line2d_45">
      <path clip-path="url(#p882c2f37ac)" d="M 597.159805 381.74
L 597.159805 16.56
" style="fill:none;stroke:#b2b2b2;stroke-linecap:square;stroke-width:0.5;"/>
     </g>
     <g id="line2d_46">
      <g>
       <use style="stroke:#000000;stroke-width:0.5;" x="597.159805" xlink:href="#m747cf00e43" y="381.74"/>
      </g>
     </g>
     <g id="text_15">
      <!-- 10 -->
      <g transform="translate(590.48668 398.329375)scale(0.12 -0.12)">
       <use xlink:href="#ArialMT-49"/>
       <use x="55.615234" xlink:href="#ArialMT-48"/>
      </g>
     </g>
    </g>
    <g id="xtick_11">
     <g id="line2d_47">
      <path clip-path="url(#p882c2f37ac)" d="M 622.970479 381.74
L 622.970479 16.56
" style="fill:none;stroke:#b2b2b2;stroke-linecap:square;stroke-width:0.5;"/>
     </g>
     <g id="line2d_48">
      <g>
       <use style="stroke:#000000;stroke-width:0.5;" x="622.970479" xlink:href="#m747cf00e43" y="381.74"/>
      </g>
     </g>
     <g id="text_16">
      <!-- 15 -->
      <g transform="translate(616.297354 398.329375)scale(0.12 -0.12)">
       <use xlink:href="#ArialMT-49"/>
       <use x="55.615234" xlink:href="#ArialMT-53"/>
      </g>
     </g>
    </g>
    <g id="xtick_12">
     <g id="line2d_49">
      <path clip-path="url(#p882c2f37ac)" d="M 648.781153 381.74
L 648.781153 16.56
" style="fill:none;stroke:#b2b2b2;stroke-linecap:square;stroke-width:0.5;"/>
     </g>
     <g id="line2d_50">
      <g>
       <use style="stroke:#000000;stroke-width:0.5;" x="648.781153" xlink:href="#m747cf00e43" y="381.74"/>
      </g>
     </g>
     <g id="text_17">
      <!-- 20 -->
      <g transform="translate(642.108028 398.329375)scale(0.12 -0.12)">
       <use xlink:href="#ArialMT-50"/>
       <use x="55.615234" xlink:href="#ArialMT-48"/>
      </g>
     </g>
    </g>
    <g id="xtick_13">
     <g id="line2d_51">
      <path clip-path="url(#p882c2f37ac)" d="M 674.591826 381.74
L 674.591826 16.56
" style="fill:none;stroke:#b2b2b2;stroke-linecap:square;stroke-width:0.5;"/>
     </g>
     <g id="line2d_52">
      <g>
       <use style="stroke:#000000;stroke-width:0.5;" x="674.591826" xlink:href="#m747cf00e43" y="381.74"/>
      </g>
     </g>
     <g id="text_18">
      <!-- 25 -->
      <g transform="translate(667.918701 398.329375)scale(0.12 -0.12)">
       <use xlink:href="#ArialMT-50"/>
       <use x="55.615234" xlink:href="#ArialMT-53"/>
      </g>
     </g>
    </g>
    <g id="xtick_14">
     <g id="line2d_53">
      <path clip-path="url(#p882c2f37ac)" d="M 700.4025 381.74
L 700.4025 16.56
" style="fill:none;stroke:#b2b2b2;stroke-linecap:square;stroke-width:0.5;"/>
     </g>
     <g id="line2d_54">
      <g>
       <use style="stroke:#000000;stroke-width:0.5;" x="700.4025" xlink:href="#m747cf00e43" y="381.74"/>
      </g>
     </g>
     <g id="text_19">
      <!-- 30 -->
      <defs>
       <path d="M 4.203125 18.890625
L 12.984375 20.0625
Q 14.5 12.59375 18.140625 9.296875
Q 21.78125 6 27 6
Q 33.203125 6 37.46875 10.296875
Q 41.75 14.59375 41.75 20.953125
Q 41.75 27 37.796875 30.921875
Q 33.84375 34.859375 27.734375 34.859375
Q 25.25 34.859375 21.53125 33.890625
L 22.515625 41.609375
Q 23.390625 41.5 23.921875 41.5
Q 29.546875 41.5 34.03125 44.421875
Q 38.53125 47.359375 38.53125 53.46875
Q 38.53125 58.296875 35.25 61.46875
Q 31.984375 64.65625 26.8125 64.65625
Q 21.6875 64.65625 18.265625 61.421875
Q 14.84375 58.203125 13.875 51.765625
L 5.078125 53.328125
Q 6.6875 62.15625 12.390625 67.015625
Q 18.109375 71.875 26.609375 71.875
Q 32.46875 71.875 37.390625 69.359375
Q 42.328125 66.84375 44.9375 62.5
Q 47.5625 58.15625 47.5625 53.265625
Q 47.5625 48.640625 45.0625 44.828125
Q 42.578125 41.015625 37.703125 38.765625
Q 44.046875 37.3125 47.5625 32.6875
Q 51.078125 28.078125 51.078125 21.140625
Q 51.078125 11.765625 44.234375 5.25
Q 37.40625 -1.265625 26.953125 -1.265625
Q 17.53125 -1.265625 11.296875 4.34375
Q 5.078125 9.96875 4.203125 18.890625
z
" id="ArialMT-51"/>
      </defs>
      <g transform="translate(693.729375 398.329375)scale(0.12 -0.12)">
       <use xlink:href="#ArialMT-51"/>
       <use x="55.615234" xlink:href="#ArialMT-48"/>
      </g>
     </g>
    </g>
    <g id="text_20">
     <!-- Frequency -->
     <defs>
      <path d="M 8.203125 0
L 8.203125 71.578125
L 56.5 71.578125
L 56.5 63.140625
L 17.671875 63.140625
L 17.671875 40.96875
L 51.265625 40.96875
L 51.265625 32.515625
L 17.671875 32.515625
L 17.671875 0
z
" id="ArialMT-70"/>
      <path d="M 39.65625 -19.875
L 39.65625 5.515625
Q 37.59375 2.640625 33.90625 0.734375
Q 30.21875 -1.171875 26.078125 -1.171875
Q 16.84375 -1.171875 10.171875 6.203125
Q 3.515625 13.578125 3.515625 26.421875
Q 3.515625 34.234375 6.21875 40.421875
Q 8.9375 46.625 14.078125 49.828125
Q 19.234375 53.03125 25.390625 53.03125
Q 35.015625 53.03125 40.53125 44.921875
L 40.53125 51.859375
L 48.4375 51.859375
L 48.4375 -19.875
z
M 12.546875 26.078125
Q 12.546875 16.0625 16.75 11.0625
Q 20.953125 6.0625 26.8125 6.0625
Q 32.421875 6.0625 36.46875 10.8125
Q 40.53125 15.578125 40.53125 25.296875
Q 40.53125 35.640625 36.25 40.859375
Q 31.984375 46.09375 26.21875 46.09375
Q 20.515625 46.09375 16.53125 41.234375
Q 12.546875 36.375 12.546875 26.078125
z
" id="ArialMT-113"/>
      <path d="M 40.578125 0
L 40.578125 7.625
Q 34.515625 -1.171875 24.125 -1.171875
Q 19.53125 -1.171875 15.546875 0.578125
Q 11.578125 2.34375 9.640625 5
Q 7.71875 7.671875 6.9375 11.53125
Q 6.390625 14.109375 6.390625 19.734375
L 6.390625 51.859375
L 15.1875 51.859375
L 15.1875 23.09375
Q 15.1875 16.21875 15.71875 13.8125
Q 16.546875 10.359375 19.234375 8.375
Q 21.921875 6.390625 25.875 6.390625
Q 29.828125 6.390625 33.296875 8.421875
Q 36.765625 10.453125 38.203125 13.9375
Q 39.65625 17.4375 39.65625 24.078125
L 39.65625 51.859375
L 48.4375 51.859375
L 48.4375 0
z
" id="ArialMT-117"/>
      <path d="M 40.4375 19
L 49.078125 17.875
Q 47.65625 8.9375 41.8125 3.875
Q 35.984375 -1.171875 27.484375 -1.171875
Q 16.84375 -1.171875 10.375 5.78125
Q 3.90625 12.75 3.90625 25.734375
Q 3.90625 34.125 6.6875 40.421875
Q 9.46875 46.734375 15.15625 49.875
Q 20.84375 53.03125 27.546875 53.03125
Q 35.984375 53.03125 41.359375 48.75
Q 46.734375 44.484375 48.25 36.625
L 39.703125 35.296875
Q 38.484375 40.53125 35.375 43.15625
Q 32.28125 45.796875 27.875 45.796875
Q 21.234375 45.796875 17.078125 41.03125
Q 12.9375 36.28125 12.9375 25.984375
Q 12.9375 15.53125 16.9375 10.796875
Q 20.953125 6.0625 27.390625 6.0625
Q 32.5625 6.0625 36.03125 9.234375
Q 39.5 12.40625 40.4375 19
z
" id="ArialMT-99"/>
      <path d="M 6.203125 -19.96875
L 5.21875 -11.71875
Q 8.109375 -12.5 10.25 -12.5
Q 13.1875 -12.5 14.9375 -11.515625
Q 16.703125 -10.546875 17.828125 -8.796875
Q 18.65625 -7.46875 20.515625 -2.25
Q 20.75 -1.515625 21.296875 -0.09375
L 1.609375 51.859375
L 11.078125 51.859375
L 21.875 21.828125
Q 23.96875 16.109375 25.640625 9.8125
Q 27.15625 15.875 29.25 21.625
L 40.328125 51.859375
L 49.125 51.859375
L 29.390625 -0.875
Q 26.21875 -9.421875 24.46875 -12.640625
Q 22.125 -17 19.09375 -19.015625
Q 16.0625 -21.046875 11.859375 -21.046875
Q 9.328125 -21.046875 6.203125 -19.96875
z
" id="ArialMT-121"/>
     </defs>
     <g transform="translate(588.956104 416.021625)scale(0.144 -0.144)">
      <use xlink:href="#ArialMT-70"/>
      <use x="61.083984" xlink:href="#ArialMT-114"/>
      <use x="94.384766" xlink:href="#ArialMT-101"/>
      <use x="150" xlink:href="#ArialMT-113"/>
      <use x="205.615234" xlink:href="#ArialMT-117"/>
      <use x="261.230469" xlink:href="#ArialMT-101"/>
      <use x="316.845703" xlink:href="#ArialMT-110"/>
      <use x="372.460938" xlink:href="#ArialMT-99"/>
      <use x="422.460938" xlink:href="#ArialMT-121"/>
     </g>
    </g>
   </g>
   <g id="matplotlib.axis_4">
    <g id="ytick_23">
     <g id="line2d_55">
      <path clip-path="url(#p882c2f37ac)" d="M 545.538458 351.308333
L 700.4025 351.308333
" style="fill:none;stroke:#b2b2b2;stroke-linecap:square;stroke-width:0.5;"/>
     </g>
     <g id="line2d_56">
      <g>
       <use style="stroke:#000000;stroke-width:0.5;" x="545.538458" xlink:href="#ma2914eea9b" y="351.308333"/>
      </g>
     </g>
    </g>
    <g id="ytick_24">
     <g id="line2d_57">
      <path clip-path="url(#p882c2f37ac)" d="M 545.538458 199.15
L 700.4025 199.15
" style="fill:none;stroke:#b2b2b2;stroke-linecap:square;stroke-width:0.5;"/>
     </g>
     <g id="line2d_58">
      <g>
       <use style="stroke:#000000;stroke-width:0.5;" x="545.538458" xlink:href="#ma2914eea9b" y="199.15"/>
      </g>
     </g>
    </g>
    <g id="ytick_25">
     <g id="line2d_59">
      <path clip-path="url(#p882c2f37ac)" d="M 545.538458 46.991667
L 700.4025 46.991667
" style="fill:none;stroke:#b2b2b2;stroke-linecap:square;stroke-width:0.5;"/>
     </g>
     <g id="line2d_60">
      <g>
       <use style="stroke:#000000;stroke-width:0.5;" x="545.538458" xlink:href="#ma2914eea9b" y="46.991667"/>
      </g>
     </g>
    </g>
    <g id="ytick_26">
     <g id="line2d_61">
      <g>
       <use style="stroke:#000000;stroke-width:0.5;" x="545.538458" xlink:href="#mc8977e00d9" y="374.877957"/>
      </g>
     </g>
    </g>
    <g id="ytick_27">
     <g id="line2d_62">
      <g>
       <use style="stroke:#000000;stroke-width:0.5;" x="545.538458" xlink:href="#mc8977e00d9" y="366.053999"/>
      </g>
     </g>
    </g>
    <g id="ytick_28">
     <g id="line2d_63">
      <g>
       <use style="stroke:#000000;stroke-width:0.5;" x="545.538458" xlink:href="#mc8977e00d9" y="358.270717"/>
      </g>
     </g>
    </g>
    <g id="ytick_29">
     <g id="line2d_64">
      <g>
       <use style="stroke:#000000;stroke-width:0.5;" x="545.538458" xlink:href="#mc8977e00d9" y="305.504111"/>
      </g>
     </g>
    </g>
    <g id="ytick_30">
     <g id="line2d_65">
      <g>
       <use style="stroke:#000000;stroke-width:0.5;" x="545.538458" xlink:href="#mc8977e00d9" y="278.710358"/>
      </g>
     </g>
    </g>
    <g id="ytick_31">
     <g id="line2d_66">
      <g>
       <use style="stroke:#000000;stroke-width:0.5;" x="545.538458" xlink:href="#mc8977e00d9" y="259.699888"/>
      </g>
     </g>
    </g>
    <g id="ytick_32">
     <g id="line2d_67">
      <g>
       <use style="stroke:#000000;stroke-width:0.5;" x="545.538458" xlink:href="#mc8977e00d9" y="244.954222"/>
      </g>
     </g>
    </g>
    <g id="ytick_33">
     <g id="line2d_68">
      <g>
       <use style="stroke:#000000;stroke-width:0.5;" x="545.538458" xlink:href="#mc8977e00d9" y="232.906136"/>
      </g>
     </g>
    </g>
    <g id="ytick_34">
     <g id="line2d_69">
      <g>
       <use style="stroke:#000000;stroke-width:0.5;" x="545.538458" xlink:href="#mc8977e00d9" y="222.719624"/>
      </g>
     </g>
    </g>
    <g id="ytick_35">
     <g id="line2d_70">
      <g>
       <use style="stroke:#000000;stroke-width:0.5;" x="545.538458" xlink:href="#mc8977e00d9" y="213.895666"/>
      </g>
     </g>
    </g>
    <g id="ytick_36">
     <g id="line2d_71">
      <g>
       <use style="stroke:#000000;stroke-width:0.5;" x="545.538458" xlink:href="#mc8977e00d9" y="206.112384"/>
      </g>
     </g>
    </g>
    <g id="ytick_37">
     <g id="line2d_72">
      <g>
       <use style="stroke:#000000;stroke-width:0.5;" x="545.538458" xlink:href="#mc8977e00d9" y="153.345778"/>
      </g>
     </g>
    </g>
    <g id="ytick_38">
     <g id="line2d_73">
      <g>
       <use style="stroke:#000000;stroke-width:0.5;" x="545.538458" xlink:href="#mc8977e00d9" y="126.552025"/>
      </g>
     </g>
    </g>
    <g id="ytick_39">
     <g id="line2d_74">
      <g>
       <use style="stroke:#000000;stroke-width:0.5;" x="545.538458" xlink:href="#mc8977e00d9" y="107.541555"/>
      </g>
     </g>
    </g>
    <g id="ytick_40">
     <g id="line2d_75">
      <g>
       <use style="stroke:#000000;stroke-width:0.5;" x="545.538458" xlink:href="#mc8977e00d9" y="92.795889"/>
      </g>
     </g>
    </g>
    <g id="ytick_41">
     <g id="line2d_76">
      <g>
       <use style="stroke:#000000;stroke-width:0.5;" x="545.538458" xlink:href="#mc8977e00d9" y="80.747803"/>
      </g>
     </g>
    </g>
    <g id="ytick_42">
     <g id="line2d_77">
      <g>
       <use style="stroke:#000000;stroke-width:0.5;" x="545.538458" xlink:href="#mc8977e00d9" y="70.561291"/>
      </g>
     </g>
    </g>
    <g id="ytick_43">
     <g id="line2d_78">
      <g>
       <use style="stroke:#000000;stroke-width:0.5;" x="545.538458" xlink:href="#mc8977e00d9" y="61.737333"/>
      </g>
     </g>
    </g>
    <g id="ytick_44">
     <g id="line2d_79">
      <g>
       <use style="stroke:#000000;stroke-width:0.5;" x="545.538458" xlink:href="#mc8977e00d9" y="53.95405"/>
      </g>
     </g>
    </g>
   </g>
   <g id="patch_8">
    <path clip-path="url(#p882c2f37ac)" d="M 545.538458 366.524167
L 566.186997 366.524167
L 566.186997 333.049333
L 545.538458 333.049333
z
" style="fill:#0072bd;"/>
   </g>
   <g id="patch_9">
    <path clip-path="url(#p882c2f37ac)" d="M 545.538458 333.049333
L 586.835536 333.049333
L 586.835536 299.5745
L 545.538458 299.5745
z
" style="fill:#0072bd;"/>
   </g>
   <g id="patch_10">
    <path clip-path="url(#p882c2f37ac)" d="M 545.538458 299.5745
L 628.132614 299.5745
L 628.132614 266.099667
L 545.538458 266.099667
z
" style="fill:#0072bd;"/>
   </g>
   <g id="patch_11">
    <path clip-path="url(#p882c2f37ac)" d="M 545.538458 266.099667
L 638.456883 266.099667
L 638.456883 232.624833
L 545.538458 232.624833
z
" style="fill:#0072bd;"/>
   </g>
   <g id="patch_12">
    <path clip-path="url(#p882c2f37ac)" d="M 545.538458 232.624833
L 643.619018 232.624833
L 643.619018 199.15
L 545.538458 199.15
z
" style="fill:#0072bd;"/>
   </g>
   <g id="patch_13">
    <path clip-path="url(#p882c2f37ac)" d="M 545.538458 199.15
L 695.240365 199.15
L 695.240365 165.675167
L 545.538458 165.675167
z
" style="fill:#0072bd;"/>
   </g>
   <g id="patch_14">
    <path clip-path="url(#p882c2f37ac)" d="M 545.538458 165.675167
L 633.294748 165.675167
L 633.294748 132.200333
L 545.538458 132.200333
z
" style="fill:#0072bd;"/>
   </g>
   <g id="patch_15">
    <path clip-path="url(#p882c2f37ac)" d="M 545.538458 132.200333
L 581.673401 132.200333
L 581.673401 98.7255
L 545.538458 98.7255
z
" style="fill:#0072bd;"/>
   </g>
   <g id="patch_16">
    <path clip-path="url(#p882c2f37ac)" d="M 545.538458 98.7255
L 555.862727 98.7255
L 555.862727 65.250667
L 545.538458 65.250667
z
" style="fill:#0072bd;"/>
   </g>
   <g id="patch_17">
    <path clip-path="url(#p882c2f37ac)" d="M 545.538458 65.250667
L 571.349131 65.250667
L 571.349131 31.775833
L 545.538458 31.775833
z
" style="fill:#0072bd;"/>
   </g>
   <g id="patch_18">
    <path d="M 545.538458 381.74
L 545.538458 16.56
" style="fill:none;stroke:#000000;stroke-linecap:square;stroke-linejoin:miter;"/>
   </g>
   <g id="patch_19">
    <path d="M 700.4025 381.74
L 700.4025 16.56
" style="fill:none;stroke:#000000;stroke-linecap:square;stroke-linejoin:miter;"/>
   </g>
   <g id="patch_20">
    <path d="M 545.538458 381.74
L 700.4025 381.74
" style="fill:none;stroke:#000000;stroke-linecap:square;stroke-linejoin:miter;"/>
   </g>
   <g id="patch_21">
    <path d="M 545.538458 16.56
L 700.4025 16.56
" style="fill:none;stroke:#000000;stroke-linecap:square;stroke-linejoin:miter;"/>
   </g>
  </g>
 </g>
 <defs>
  <clipPath id="p44ca95d1d3">
   <rect height="365.18" width="464.592127" x="60.786331" y="16.56"/>
  </clipPath>
  <clipPath id="p882c2f37ac">
   <rect height="365.18" width="154.864042" x="545.538458" y="16.56"/>
  </clipPath>
 </defs>
</svg>
